<?xml version="1.0" encoding="utf-8"?>
<!-- Generator: Adobe Illustrator 24.2.3, SVG Export Plug-In . SVG Version: 6.00 Build 0)  -->
<svg version="1.1" id="Layer_1" xmlns="http://www.w3.org/2000/svg" xmlns:xlink="http://www.w3.org/1999/xlink" x="0px" y="0px"
	 viewBox="0 0 1611.3 1373.1" style="enable-background:new 0 0 1611.3 1373.1;" xml:space="preserve">
<style type="text/css">
	.st0{fill:url(#SVGID_1_);}
	.st1{fill:url(#SVGID_2_);}
	.st2{fill:url(#SVGID_3_);}
	.st3{fill:url(#SVGID_4_);}
	.st4{fill:none;stroke:url(#SVGID_5_);stroke-linecap:round;stroke-miterlimit:10;}
	.st5{fill:none;stroke:url(#SVGID_6_);stroke-linecap:round;stroke-miterlimit:10;}
	.st6{fill:none;stroke:url(#SVGID_7_);stroke-width:10;stroke-miterlimit:10;}
	.st7{fill:url(#SVGID_8_);stroke:url(#SVGID_9_);stroke-width:1.5;stroke-miterlimit:10;}
</style>
<g>
	
		<linearGradient id="SVGID_1_" gradientUnits="userSpaceOnUse" x1="1262.549" y1="-969.2703" x2="-807.401" y2="1280.1399" gradientTransform="matrix(1 0 0 1 0 574)">
		<stop  offset="0" style="stop-color:#272C6B"/>
		<stop  offset="1" style="stop-color:#5475B9"/>
	</linearGradient>
	<path class="st0" d="M1483.4,13H181.9C88.6,13,13,88.6,13,181.9v914.9c78.4,23.2,164,22.7,232.8-19.2
		c50-30.4,84.8-78.2,111.2-131.3V580.8C269.2,549.7,215.3,461.3,227.8,369c12.9-96,95.2-170,194.7-170
		c61.7-0.1,119.8,28.9,156.9,78.2h843.4c2.1-2.5,4.2-5.1,6.2-7.8C1484,197.7,1502,101.2,1483.4,13z"/>
	
		<linearGradient id="SVGID_2_" gradientUnits="userSpaceOnUse" x1="13.0999" y1="-169.55" x2="900.6" y2="-169.55" gradientTransform="matrix(1 0 0 1 0 574)">
		<stop  offset="0" style="stop-color:#272C6B"/>
		<stop  offset="1" style="stop-color:#5475B9"/>
	</linearGradient>
	<path class="st1" d="M900.6,13c-15.4,36.2-38.3,68.8-68.9,94.5c-29,24.4-62.1,41.4-97.6,54c-28.9,10.3-59.4,17.8-90.5,24
		c-49.5,9.9-100.7,16.6-149.6,26.8c-22.8-8.9-47-13.4-71.4-13.4c-99.5,0-181.8,74-194.7,170.1c-3.2,23.8-2.1,48,3.4,71.5
		c-5,16.8-9.4,33.9-13.8,51.1c-12.7,50-24.8,100.6-47,146.2c-33.2,68.3-90,123-157.4,158.1v-614C13,88.6,88.6,13,181.9,13H900.6z"/>
	
		<linearGradient id="SVGID_3_" gradientUnits="userSpaceOnUse" x1="13" y1="-68.992" x2="342.3904" y2="-68.992" gradientTransform="matrix(1 0 0 1 0 574)">
		<stop  offset="0" style="stop-color:#272C6B"/>
		<stop  offset="1" style="stop-color:#5475B9"/>
	</linearGradient>
	<path class="st2" d="M307.7,856.5c-42.6,72.7-119.9,122-201.9,136c-30.4,5.1-61.5,5.9-92.1,2.3c-0.4,0-0.7-0.4-0.7-0.8V67
		c0-29.8,24.2-54,54.1-54h192.6c0.3,0,0.6,0.2,0.7,0.4c7.6,16.3,12.3,33.7,14,51.6c0.8,8.6,1,17.3,0.5,25.9
		c-4.6,91.7-75.2,178.2-90.2,266.9c-3.9,23-4,46.1,1.7,69.6c5.8,23.7,17,44.6,30.8,64.2c29.6,42.2,71.3,78.4,96.9,123.9
		C355.1,688.3,350.3,783.8,307.7,856.5z"/>
	
		<linearGradient id="SVGID_4_" gradientUnits="userSpaceOnUse" x1="13" y1="-322.3" x2="1400.3" y2="-322.3" gradientTransform="matrix(1 0 0 1 0 574)">
		<stop  offset="2.000000e-02" style="stop-color:#0034E3;stop-opacity:0.6"/>
		<stop  offset="0.22" style="stop-color:#004DE7;stop-opacity:0.5"/>
		<stop  offset="0.61" style="stop-color:#008EF3;stop-opacity:0.26"/>
		<stop  offset="1" style="stop-color:#00D2FF;stop-opacity:0"/>
	</linearGradient>
	<path class="st3" d="M1400.3,13c-34,94-90.3,180-163.9,247.7c-6.1,5.6-12.4,11.1-18.8,16.5H754.5c-11.1-8.4-22-17.1-32.7-25.9
		l-3-2.4c-25.2-20.8-50.1-42.5-75.4-63.3c-45.8-37.7-93.4-72.7-147.7-95.8C425.8,60.2,339.7,55.6,275,91
		c-14.7,8-28.2,18.2-39.9,30.1c-60.3,61.4-73.3,151.1-102.3,229.3C111,409.3,80,461.6,13,490.4V67.6C13,37.5,37.5,13,67.6,13H1400.3
		z"/>
	
		<linearGradient id="SVGID_5_" gradientUnits="userSpaceOnUse" x1="717.7607" y1="-428.9" x2="814.8" y2="-428.9" gradientTransform="matrix(1 0 0 1 0 574)">
		<stop  offset="0" style="stop-color:#00D2FF"/>
		<stop  offset="0.31" style="stop-color:#57E1FF"/>
		<stop  offset="0.64" style="stop-color:#B1F1FF"/>
		<stop  offset="0.88" style="stop-color:#E9FBFF"/>
		<stop  offset="1" style="stop-color:#FFFFFF"/>
	</linearGradient>
	<path class="st4" d="M718.3,277.2c-0.1-7.2,0-14.3,0.2-21.5c0.1-2.3,0.2-4.6,0.3-6.8c1.6-29.6,6.7-58.9,15.1-87.3
		C750.2,107,777.5,56.4,814.3,13"/>
	
		<linearGradient id="SVGID_6_" gradientUnits="userSpaceOnUse" x1="12.6" y1="-215.0713" x2="228.3" y2="-215.0713" gradientTransform="matrix(1 0 0 1 0 574)">
		<stop  offset="0" style="stop-color:#00D2FF"/>
		<stop  offset="0.31" style="stop-color:#57E1FF"/>
		<stop  offset="0.64" style="stop-color:#B1F1FF"/>
		<stop  offset="0.88" style="stop-color:#E9FBFF"/>
		<stop  offset="1" style="stop-color:#FFFFFF"/>
	</linearGradient>
	<path class="st5" d="M227.8,369.1c-14.1-4.5-28.4-8.2-42.9-11.2c-17.2-3.5-34.5-6-52-7.5c-40-3.4-80.3-1.5-119.8,5.5"/>
	
		<linearGradient id="SVGID_7_" gradientUnits="userSpaceOnUse" x1="223.5" y1="-178" x2="626.5" y2="-178" gradientTransform="matrix(1 0 0 1 0 574)">
		<stop  offset="0" style="stop-color:#272C6B"/>
		<stop  offset="1" style="stop-color:#5475B9"/>
	</linearGradient>
	<circle class="st6" cx="425" cy="396" r="196.5"/>
	
		<linearGradient id="SVGID_8_" gradientUnits="userSpaceOnUse" x1="310.2" y1="-739.4075" x2="529.3129" y2="-739.4075" gradientTransform="matrix(1 0 0 1 0 1148)">
		<stop  offset="0" style="stop-color:#272D6C"/>
		<stop  offset="0.28" style="stop-color:#313D7D"/>
		<stop  offset="0.83" style="stop-color:#4B67AA"/>
		<stop  offset="1" style="stop-color:#5475B9"/>
	</linearGradient>
	
		<linearGradient id="SVGID_9_" gradientUnits="userSpaceOnUse" x1="309.45" y1="-739.4075" x2="530.0629" y2="-739.4075" gradientTransform="matrix(1 0 0 1 0 1148)">
		<stop  offset="0" style="stop-color:#272D6C"/>
		<stop  offset="0.28" style="stop-color:#313D7D"/>
		<stop  offset="0.83" style="stop-color:#4B67AA"/>
		<stop  offset="1" style="stop-color:#5475B9"/>
	</linearGradient>
	<path class="st7" d="M350.7,517.1h-40.5V300.2h40.5V517.1z M312,515.4h37v-23.5h-14v-1.8h14v-10.5h-14v-1.8h14v-34.9h-14v-1.8h14
		v-34h-14v-1.8h14v-10.5h-14V393h14v-10.5h-14v-1.8h14v-10.5h-14v-1.8h14v-10.5h-14v-1.8h14v-10.5h-14v-1.8h14v-10.5h-14v-1.8h14
		v-9.9h-14v-1.8h14v-17.9h-37V515.4z M509.3,515.4l-19.5-40.8l-0.5,0.3v-150c-0.1-0.9-1.1-11.4,5.1-18.5c3.4-4,8.4-6.1,14.8-6.3
		c6.2-0.2,11.1,1.6,14.6,5.4c6.5,7,5.5,18.4,5.4,19.4v150l-0.2-0.1L509.3,515.4z M500,491.8l9.3,19.6l9.5-19.6H500z M499.2,490.1
		h20.5l7.9-16.2l-8.7-5.4l-9.6,6.9l-9.9-6.9l-8.1,5.1L499.2,490.1z M500.3,466.9l9,6.2l8.7-6.2l0.5-120.6h-18.6L500.3,466.9z
		 M519.7,466.9l7.8,4.9V346.3h-7.3L519.7,466.9z M491.1,346.3v125.4l7.5-4.8l-0.4-120.6H491.1z M491.1,344.6h36.4v-18.8h-36.4V344.6
		z M491,324.1h36.5c0.1-2.7,0.2-11.7-5-17.3c-3.1-3.4-7.5-5-13.2-4.8c-5.9,0.2-10.5,2.1-13.6,5.6C490.9,313.2,490.9,321.5,491,324.1
		L491,324.1z M463.9,514.3H377c-6.3,0-11.4-5.1-11.4-11.4V311.6c0-6.3,5.1-11.4,11.4-11.4h86.9c6.3,0,11.4,5.1,11.4,11.4v191.3
		C475.3,509.2,470.2,514.3,463.9,514.3z M377,302c-5.3,0-9.6,4.3-9.6,9.6v191.3c0,5.3,4.3,9.6,9.6,9.6h86.9c5.3,0,9.6-4.3,9.6-9.6
		V311.6c0-5.3-4.3-9.6-9.6-9.6H377z M420.2,510.3c-4.8,0-8.6-3.9-8.6-8.6c0-4.8,3.9-8.6,8.6-8.6c4.8,0,8.6,3.8,8.6,8.6
		C428.8,506.4,425,510.3,420.2,510.3L420.2,510.3z M420.2,494.8c-3.8,0-6.9,3.1-6.9,6.9s3.1,6.9,6.9,6.9s6.9-3.1,6.9-6.9l0,0
		C427,497.8,424,494.8,420.2,494.8z M348.7,504.1h-14.9v-1.8h14.9V504.1z M468.4,485.5H371V322h97.4V485.5z M464.1,483.8h2.5V323.7
		h-93.9v160.1h3.9v-24.7H464v24.7L464.1,483.8L464.1,483.8z M378.4,483.8h83.9v-23h-83.9V483.8z M348.7,468.3h-14.9v-1.8h14.9V468.3
		z M441.9,454.3h-45v-14.9h45V454.3z M398.7,452.5h41.5v-11.4h-41.5V452.5z M348.7,454.3h-14.9v-1.8h14.9V454.3z M348.7,431.6h-14.9
		v-1.8h14.9V431.6z M464.2,421.9h-25.5v-25.4h25.4L464.2,421.9z M440.5,420.2h21.9v-21.9h-22L440.5,420.2z M433.2,421.9h-25.5v-25.4
		h25.4L433.2,421.9z M409.5,420.2h21.9v-21.9h-22L409.5,420.2z M401.3,421.9h-25.5v-25.4h25.5V421.9z M377.6,420.1h21.9v-21.9h-22
		L377.6,420.1z M348.7,419.4h-14.9v-1.8h14.9V419.4z M464,387.8h-87.3v-60.5H464V387.8z M378.5,386h83.8v-57h-83.8V386z
		 M434.1,317.5h-23.6c-1.9,0-3.4-1.5-3.4-3.4s1.5-3.4,3.4-3.4l0,0H434c1.9,0,3.4,1.5,3.4,3.4S435.9,317.5,434.1,317.5L434.1,317.5z
		 M410.5,312.4c-0.9,0-1.7,0.7-1.7,1.7s0.7,1.7,1.7,1.7H434c0.9,0,1.7-0.7,1.7-1.7s-0.7-1.7-1.7-1.7l0,0H410.5z"/>
</g>
</svg>
