<svg id="Layer_1" data-name="Layer 1" xmlns="http://www.w3.org/2000/svg" xmlns:xlink="http://www.w3.org/1999/xlink" viewBox="0 0 1611.3 1373.1"><defs><style>.cls-1{fill:url(#linear-gradient);}.cls-2{fill:url(#linear-gradient-2);}.cls-3{fill:url(#linear-gradient-3);}.cls-4{fill:url(#linear-gradient-4);}.cls-10,.cls-5,.cls-6,.cls-7{fill:none;}.cls-5,.cls-6{stroke-linecap:round;}.cls-5,.cls-6,.cls-7,.cls-9{stroke-miterlimit:10;}.cls-5{stroke:url(#linear-gradient-5);}.cls-6{stroke:url(#linear-gradient-6);}.cls-7{stroke-width:10px;stroke:url(#linear-gradient-7);}.cls-8{fill:url(#linear-gradient-8);}.cls-9{fill:url(#linear-gradient-9);stroke:url(#linear-gradient-10);}</style><linearGradient id="linear-gradient" x1="1262.55" y1="2343.27" x2="-807.4" y2="93.86" gradientTransform="matrix(1, 0, 0, -1, 0, 1948)" gradientUnits="userSpaceOnUse"><stop offset="0" stop-color="#272c6b"/><stop offset="1" stop-color="#5475b9"/></linearGradient><linearGradient id="linear-gradient-2" x1="13.1" y1="1543.55" x2="900.6" y2="1543.55" xlink:href="#linear-gradient"/><linearGradient id="linear-gradient-3" x1="13" y1="1442.99" x2="342.39" y2="1442.99" xlink:href="#linear-gradient"/><linearGradient id="linear-gradient-4" x1="13" y1="1696.3" x2="1400.3" y2="1696.3" gradientTransform="matrix(1, 0, 0, -1, 0, 1948)" gradientUnits="userSpaceOnUse"><stop offset="0.02" stop-color="#0034e3" stop-opacity="0.6"/><stop offset="0.22" stop-color="#004de7" stop-opacity="0.5"/><stop offset="0.61" stop-color="#008ef3" stop-opacity="0.26"/><stop offset="1" stop-color="#00d2ff" stop-opacity="0"/></linearGradient><linearGradient id="linear-gradient-5" x1="717.76" y1="1802.9" x2="814.8" y2="1802.9" gradientTransform="matrix(1, 0, 0, -1, 0, 1948)" gradientUnits="userSpaceOnUse"><stop offset="0" stop-color="#00d2ff"/><stop offset="0.31" stop-color="#57e1ff"/><stop offset="0.64" stop-color="#b1f1ff"/><stop offset="0.88" stop-color="#e9fbff"/><stop offset="1" stop-color="#fff"/></linearGradient><linearGradient id="linear-gradient-6" x1="12.6" y1="1589.07" x2="228.3" y2="1589.07" xlink:href="#linear-gradient-5"/><linearGradient id="linear-gradient-7" x1="223.5" y1="1552" x2="626.5" y2="1552" xlink:href="#linear-gradient"/><linearGradient id="linear-gradient-8" x1="387.99" y1="-1302.18" x2="511.6" y2="-1302.18" gradientTransform="translate(-12.6 1709.5)" gradientUnits="userSpaceOnUse"><stop offset="0" stop-color="#282d6c"/><stop offset="1" stop-color="#5374b8"/></linearGradient><linearGradient id="linear-gradient-9" x1="336.69" y1="-1299.37" x2="381.42" y2="-1299.37" xlink:href="#linear-gradient-8"/><linearGradient id="linear-gradient-10" x1="336.04" y1="951.58" x2="381.97" y2="951.58" gradientTransform="matrix(1, 0, 0, -1, -12.6, 1361.5)" gradientUnits="userSpaceOnUse"><stop offset="0" stop-color="#282d6c"/><stop offset="0.38" stop-color="#384889"/><stop offset="1" stop-color="#5374b8"/></linearGradient></defs><path class="cls-1" d="M1483.4,13H181.9A168.88,168.88,0,0,0,13,181.9v914.9c78.4,23.2,164,22.7,232.8-19.2,50-30.4,84.8-78.2,111.2-131.3V580.8A196.65,196.65,0,0,1,227.8,369c12.9-96,95.2-170,194.7-170a196,196,0,0,1,156.9,78.2h843.4c2.1-2.5,4.2-5.1,6.2-7.8C1484,197.7,1502,101.2,1483.4,13Z"/><path class="cls-2" d="M900.6,13c-15.4,36.2-38.3,68.8-68.9,94.5-29,24.4-62.1,41.4-97.6,54-28.9,10.3-59.4,17.8-90.5,24-49.5,9.9-100.7,16.6-149.6,26.8a196.24,196.24,0,0,0-71.4-13.4c-99.5,0-181.8,74-194.7,170.1a197.85,197.85,0,0,0,3.4,71.5c-5,16.8-9.4,33.9-13.8,51.1-12.7,50-24.8,100.6-47,146.2-33.2,68.3-90,123-157.4,158.1v-614C13,88.6,88.6,13,181.9,13Z"/><path class="cls-3" d="M307.7,856.5c-42.6,72.7-119.9,122-201.9,136a326.75,326.75,0,0,1-92.1,2.3.77.77,0,0,1-.7-.8V67A54.05,54.05,0,0,1,67.1,13H259.7a.84.84,0,0,1,.7.4,157,157,0,0,1,14,51.6,172.34,172.34,0,0,1,.5,25.9c-4.6,91.7-75.2,178.2-90.2,266.9-3.9,23-4,46.1,1.7,69.6,5.8,23.7,17,44.6,30.8,64.2,29.6,42.2,71.3,78.4,96.9,123.9C355.1,688.3,350.3,783.8,307.7,856.5Z"/><path class="cls-4" d="M1400.3,13c-34,94-90.3,180-163.9,247.7-6.1,5.6-12.4,11.1-18.8,16.5H754.5c-11.1-8.4-22-17.1-32.7-25.9l-3-2.4c-25.2-20.8-50.1-42.5-75.4-63.3-45.8-37.7-93.4-72.7-147.7-95.8C425.8,60.2,339.7,55.6,275,91a170.16,170.16,0,0,0-39.9,30.1c-60.3,61.4-73.3,151.1-102.3,229.3C111,409.3,80,461.6,13,490.4V67.6A54.67,54.67,0,0,1,67.6,13Z"/><path class="cls-5" d="M718.3,277.2c-.1-7.2,0-14.3.2-21.5.1-2.3.2-4.6.3-6.8a380.21,380.21,0,0,1,15.1-87.3A411.72,411.72,0,0,1,814.3,13"/><path class="cls-6" d="M227.8,369.1a422.4,422.4,0,0,0-42.9-11.2,455.34,455.34,0,0,0-52-7.5,462.39,462.39,0,0,0-119.8,5.5"/><circle class="cls-7" cx="425" cy="396" r="196.5"/><path class="cls-8" d="M485.45,521H388.9c-7.46,0-13.5-5.74-13.51-12.81V306.46c0-7.07,6.05-12.8,13.51-12.81h96.55c7.47,0,13.53,5.71,13.55,12.79V508.19c0,7.08-6.06,12.82-13.52,12.81ZM388.9,295.23c-6.54,0-11.83,5-11.84,11.23V508.19c0,6.2,5.3,11.22,11.84,11.23h96.55c6.54,0,11.83-5,11.84-11.23V306.46c0-6.2-5.3-11.22-11.84-11.23ZM485.45,519.1H388.9c-6.35,0-11.5-4.89-11.51-10.91V306.46c0-6,5.16-10.91,11.51-10.91h96.55c6.35,0,11.5,4.89,11.51,10.91V508.19C497,514.21,491.8,519.1,485.45,519.1Zm-96.55-222a9.61,9.61,0,0,0-9.84,9.33V508.19a9.61,9.61,0,0,0,9.84,9.33h96.55a9.61,9.61,0,0,0,9.84-9.33V306.46a9.61,9.61,0,0,0-9.84-9.33Zm48,219.65a9.87,9.87,0,1,1,0-19.72h0a10,10,0,0,1,10.39,9.65v.21a10.14,10.14,0,0,1-10.39,9.86Zm0-18.14a8.29,8.29,0,1,0,8.76,8.28,8.41,8.41,0,0,0-8.54-8.28Zm0,16.35a8.08,8.08,0,1,1,8.5-8.09,8.29,8.29,0,0,1-8.5,8.09Zm0-14.55a6.49,6.49,0,1,0,6.83,6.48h0a6.67,6.67,0,0,0-6.83-6.48Zm54.39-9.81H381.4v-174H491.29Zm-108.23-1.58H489.62V318.22H383.06Zm106.23-.21h-4.56v-26H389.28v26h-6V318.43h106Zm-2.89-1.58h1.22V320H385V487.26h2.67V461.21H486.4Zm-1.89,1.58H389.62V463h94.93Zm-93.23-1.58h91.56V464.58H391.28Zm70.56-29.53H410.17V440.49h51.67Zm-50-1.58h48.34V442H411.84Zm48.11-.32H412.17v-13.6H460Zm-46.11-1.58h44.45V443.81H413.84Zm72.78-30.69h-30V395.2h29.89ZM458.29,422H485l-.11-25.2H458.29Zm-6.11,1.58h-30V395.2h29.89ZM423.84,422h26.67l-.11-25.2H423.84Zm-7.07,1.64h-30V395.25h30ZM388.44,422h26.67V396.83H388.44Zm96.23-.22h-26l-.12-24.67h26.12Zm-24.35-1.58H483V398.73H460.22Zm-10.1,1.58h-26l-.11-24.67h26.11Zm-24.35-1.58h22.68V398.73H425.77Zm-11.11,1.48h-26L388.64,397h26.12Zm-24.34-1.58H413.1V398.63H390.32Zm96-32.48H387.76V322.28h98.67Zm-97-1.58h95.34V323.86H389.43Zm95.11-.32H389.76V324.07h94.79Zm-93.11-1.58h91.45V325.65H391.43Zm60.95-70.65H426.15a4.39,4.39,0,1,1,0-8.76h26.12a4.39,4.39,0,1,1,.12,8.76Zm-26.23-7.17a2.8,2.8,0,1,0,0,5.59h26.19a2.8,2.8,0,1,0-.11-5.59Zm26.11,5.37H426.15a2.57,2.57,0,0,1-2.71-2.42v-.21a2.63,2.63,0,0,1,2.66-2.59h26.18a2.59,2.59,0,0,1,2.72,2.42v.17a2.63,2.63,0,0,1-2.68,2.58h-.09Zm-26.11-3.58a1,1,0,0,0-1.11.93v.07a.94.94,0,0,0,.82,1.06,1.4,1.4,0,0,0,.29,0h26.11a1,1,0,0,0,1.06-1v-.08a.93.93,0,0,0-.89-1H426.15Z"/><path class="cls-9" d="M346,518.84c-9.77,0-11.46-11.71-11.75-15.27h-.06V366.07l.37-15.32-10.46-14.43,22.44-34.9,22.29,34.67-10.57,14.77V503.57h-.07c-.29,3.53-2,15.07-11.93,15.27Zm-8.34-14.76c.41,3.55,2.08,11.7,8.53,11.59s8.17-8.06,8.59-11.59Zm-.13-3.71h17.4V379.77h-17.4Zm0-124.21h17.4v-7h-17.4Zm0-10.54h17.36V349.8l9.94-13.88-16.67-25.81-.07,17.52c2.16,1.05,3.59,4.21,3.59,8.34,0,5.07-2.22,8.74-5.27,8.74s-5.18-3.59-5.18-8.62c0-4.08,1.44-7.26,3.61-8.34l.06-17.73L328,336.25l9.86,13.55Zm9-32.93a7.71,7.71,0,0,0-.75,3.53,7.51,7.51,0,0,0,.78,3.57,7.74,7.74,0,0,0,.77-3.57,7.45,7.45,0,0,0-.77-3.49Z"/><rect class="cls-10" width="1611.3" height="1373.1"/></svg>