<svg xmlns="http://www.w3.org/2000/svg" viewBox="0 0 116.61 116.61"><defs><style>.cls-1{fill:#fff;fill-rule:evenodd;}</style></defs><title>Asset 42</title><g id="Layer_2" data-name="Layer 2"><g id="Text"><path class="cls-1" d="M71.29,38.49c0,.64-.05,1.54,1,1.94.78.28,3.25,0,5.59,1.7a8.37,8.37,0,0,1,3.41,6.15v20a8.37,8.37,0,0,1-3.41,6.15,8.55,8.55,0,0,1-3.39,1.39c-1.75.36-3.22-.2-3.22,2.25,0,.73.76,1.21,1.36,1.37a6.24,6.24,0,0,1-2.59,3.1c-4,2.42-9.93-.17-9.93-5.38V39.4c0-5.17,5.81-7.74,9.79-5.46,1.55.88,1.9,1.62,2.73,3.18-.6.17-1.36.64-1.36,1.37ZM31.66,49a1.76,1.76,0,0,0,3.46.5c.38-1.06-.26-3.55,2.51-6.37a7.36,7.36,0,0,1,3.74-2.19,25.14,25.14,0,0,1,2.56-.39,1.73,1.73,0,0,0,0-3.4A6.24,6.24,0,0,1,46.55,34c4-2.43,9.93.17,9.93,5.38V77.21c0,5.18-5.95,8.1-10.35,5.11A6.31,6.31,0,0,1,44,79.49a1.75,1.75,0,0,0,.76-3c-.67-.59-.58-.3-1.63-.41a8.31,8.31,0,0,1-7.26-5.27c-1.51-3.31,1-14.5-2.12-14.5-1.21,0-2.05.58-2.05,1.82v9.56a12,12,0,0,0,7.42,11c1.75.68,1,1,1.84,2.72a10.19,10.19,0,0,0,16,3c.6-.52.8-1.12,1.43-1.54,1.1.74,2.44,4.1,8.65,4.1a9.79,9.79,0,0,0,9.18-6.76c.59-2,.48-.88,2.63-2.16a12,12,0,0,0,1.37-.9,10.42,10.42,0,0,0,2.4-2.38A12,12,0,0,0,85,67.87V48.74a12,12,0,0,0-7.42-10.8c-2.3-.89-.73-2.52-3.67-5.44-3.13-3.11-8.77-3.9-12.42-1.58-2.52,1.61-2.29,2.23-3.13,2.79-1.47-1-2.22-4.1-9.11-4.1-4.13,0-7.53,3.07-8.82,7.12-.32,1-.23.8-1.3,1.21A11.93,11.93,0,0,0,31.66,49Z"/><path class="cls-1" d="M25.74,21.18h7.51v7.75H25.74V21.18ZM14.58,3.42h7.51V28.93H14.58V3.42ZM3.42,14.58h7.51V28.93H3.42V14.58Zm7.51-12.3v8.65H1.82C1,10.93,0,11.56,0,12.3V30.75a1.86,1.86,0,0,0,2.05,1.82H34.62a1.86,1.86,0,0,0,2.05-1.82V19.36a1.86,1.86,0,0,0-2.05-1.82H25.74v-15C25.74,1.15,25.3,0,23.91,0H12.75C11.4,0,10.93.92,10.93,2.28Z"/><path class="cls-1" d="M20.73,100.9c0,2.48,5,2.26,5.92,6.37-.86.23-5.56,4.42-12.57,1.64a6.3,6.3,0,0,1-1.51-.77c-.64-.42-.71-.68-1.41-.87.14-1.72,2.73-3.66,4.25-4.4,3.83-1.86-.15-3.28-.15-5.39,0-6.12,7.29-5,7.29-.46,0,2.51-1.82,2.57-1.82,3.88Zm-9.11-4.1a7.14,7.14,0,0,1,2-4.85c5.55-5.75,15.5.53,11.68,8.49,1,.66,3.32,2.42,3.65,3.65h.45c.22-1,.71-1.52,1.06-2.59a12.62,12.62,0,0,0-2.93-12.4c-3.11-3.17-5.82-3.46-10-3.46-6.32,0-14.33,8.59-9.11,18.45,1.12-.41,1-2,4.1-3.65a7.26,7.26,0,0,1-.91-3.64ZM0,97.71c0,2.05,1.39,1.55,2.72,1.83,1,.2.6.29.8,1.48.92,5.52,6.3,10.84,11.69,12,.93.2,1.56-.07,1.82.68.39,1.07-.43,2.91,1.87,2.91,1.32,0,1.69-.91,1.8-2.07s-.32-1,.7-1.35c1.74-.57,4.24-.59,7.12-3.13l3.05-3.1c1.2-1.58,2.82-5,2.82-7.43,1.59,0,3.65.25,3.65-1.82S36,95.89,34.39,95.89c0-3.7-2.86-8.31-5.72-10.45a16,16,0,0,0-5.35-2.85c-2.61-.7-2.45.14-2.61-1.49-.13-1.3-.35-2.3-1.81-2.3-2,0-1.55,1.39-1.83,2.73s-.33.21-3.44,1.34A16.11,16.11,0,0,0,3.59,94c-.2.93.07,1.56-.68,1.83C1.84,96.23,0,95.4,0,97.71Z"/><path class="cls-1" d="M108.18,11.84a16.71,16.71,0,0,0,1.46,3.79c.6,1,2.35,1.63,3.56,1.91v2.27c-3.5,1.85-2.85.48-4,3.79-.14.42-.83,1.84-.83,1.91,0,1,.9,2.38,1.14,3.42-.35.23-1.43,1.36-1.59,1.36-2.32,0-1.28-1.84-4.79-.23-3.87,1.78-1.78-.27-4.1,4.1H96.8c-.1-.42-1.11-2.95-1.68-3.33a12.21,12.21,0,0,0-1.81-.7c-2-.83-1.94-1.32-5.17.39l-1.77-1.64c1.4-3.24,1.33-3.36.4-5.19-1.68-3.35-.16-1.57-4.09-3.65v-2.5a4.66,4.66,0,0,0,3.18-1.83c.22-.43.45-1.37.65-1.85a5.77,5.77,0,0,0,.72-2c0-2.82-2.18-.95.23-4.55,1.49.12,1.87.91,3.42.91l4-1.5c1.3-.77,1.1-3.28,2.18-3.28,2.52,0,1.61-.36,2.82,2.42.67,1.51,4.48,2.51,5,2.42a19.62,19.62,0,0,0,2.9-1.2l1.54,1.65c-.12.71-1.09,2.8-1.09,3.13ZM95.43,0c-1.89,0-2.69,3.32-2.73,3.87-1.39.12-1.51.79-2.54.51s-1.63-1-2.93-1-2,1.38-2.78,2.22c-2.74,2.77-2.65,1.91-1.27,5.26a2.44,2.44,0,0,1-.3,2.51C82,14.87,79,14.29,79,16.63c0,4.54-.58,5.56,1.56,6.41,1.36.54,2.51.76,3,2.24.41,1.2-1.16,2.84-1.16,3.87,0,1.37,4.24,5.24,5,5.24a8.07,8.07,0,0,0,2.7-1c3.91-1.65,2.37,4.38,6.18,4.38,5,0,5.07.37,6.27-2.84.43-1.14.51-1.15,1.63-1.58,2.7-1,2.92,2.86,6.28-.54.67-.67,2.9-2.52,2.9-3.47,0-1.64-2.79-4.56.6-6,1.86-.79,2.44-.93,2.59-2.11V16.4c0-2-2.73-2-3.78-2.83-1.89-1.55.37-3.63.37-5.37,0-1-2.76-3.33-3.47-4-3-3-5.31,3.52-7.53-1.81C101.48.63,101.33.13,100.07,0Z"/><path class="cls-1" d="M94.06,111.6a25.6,25.6,0,0,1,5.7-.23c.88,0,.68.76.68,1.6a23.58,23.58,0,0,1-5.47.23c-.89,0-.91-.68-.91-1.6Zm5.93,5a4.33,4.33,0,0,0,4.1-4.33c0-1.14-.21-1-.23-2,2.38-.63,3.48-3.62,3.66-5.9a3.5,3.5,0,0,1,.83-2.36c3.36-4,3.71-6.49,3.71-11.55,0-2.35-3-2.83-3.57-.82-.31,1.11.88,3.38-.91,7.05-1.62,3.33-2.6,3.07-3.31,5.57-.13.48,0,5.51-3.37,5.51H99.07V97.94h1.6c3.41,0,2.82-3.65.45-3.65H93.38c-2.37,0-2.82,3.65.68,3.65h1.37v9.79c-6.45,0-3.87-3.35-5.68-6.84-1.6-3.09-3.66-2.63-3.66-9.79a9.08,9.08,0,0,1,1.06-3.95,8.68,8.68,0,0,1,2.19-3.05,11.3,11.3,0,0,1,14-1.56c.78.47,1.41,1.29,2.22,1.42,1.64.26,4.44-2.46-2.13-5.38a14.81,14.81,0,0,0-21,13.21,14.61,14.61,0,0,0,1.1,6,14.32,14.32,0,0,0,2.52,4.08c1.73,2.26,0,6.08,4.81,8.63a4,4,0,0,0,.72,4.74,4.62,4.62,0,0,0,2.94,1.41Z"/><path class="cls-1" d="M93.15,18.68c0-6,9.11-6.26,9.11.22,0,5.69-9.11,5.66-9.11-.22ZM89.74,18c0,2.83.13,4.14,2.44,6.44,4.85,4.83,13.73,1.43,13.73-5.75a8.25,8.25,0,0,0-8.43-8.2C93.53,10.48,89.74,14,89.74,18Z"/><path class="cls-1" d="M41.22,67.64c0,3.51,2.86.7,6.22,4,3.17,3.16.53,6.21,4,6.21,2.2,0,1.89-5.3-1.42-8.6C46.29,65.54,41.22,65.55,41.22,67.64Z"/><path class="cls-1" d="M41.22,49.42c0,.7-.07,1,.45,1.6,1.71,1.82,11.17-1.05,11.17-9.34a1.72,1.72,0,0,0-3.3-.79c-.44,1.09,0,3.07-2.1,5.18s-3.44,1.61-5,2C42,48.25,41.22,48.75,41.22,49.42Z"/><path class="cls-1" d="M63.77,41.68c0,8.89,11.62,12.15,11.62,8.2,0-3.06-3-.61-6.22-3.81-2.94-2.94-1-6.21-3.58-6.21A1.71,1.71,0,0,0,63.77,41.68Z"/><path class="cls-1" d="M63.77,75.84c0,2.75,2.73,2.44,3.3,1,.16-.4.27-1.57.4-2.11,1.46-6.36,7.92-3.93,7.92-6.42C75.39,63.23,63.77,67.78,63.77,75.84Z"/><path class="cls-1" d="M47.83,58.08c0,6,5,7.4,5,3.64,0-1-1.42-1.15-1.46-3.45s1.46-2.18,1.46-3.61C52.84,51.16,47.83,52.87,47.83,58.08Z"/><path class="cls-1" d="M63.77,54.21c0,2.78,1.37.93,1.37,4.55,0,1.86-1.37,1.28-1.37,3.65,0,.64.95,1.36,1.6,1.36,2,0,3.41-3.35,3.41-5.46s-1.28-5.47-3.64-5.47A1.75,1.75,0,0,0,63.77,54.21Z"/><path class="cls-1" d="M48.06,108.41c0,2.3,3.64,2.3,3.64,0C51.7,105.91,48.06,106.25,48.06,108.41Z"/><path class="cls-1" d="M74.93,105.68c0,2.21,3.65,2.22,3.65,0A1.83,1.83,0,0,0,74.93,105.68Z"/><path class="cls-1" d="M57.17,109.1c0,2.47,3.64,2.19,3.58,0A1.79,1.79,0,0,0,57.17,109.1Z"/><path class="cls-1" d="M65.59,8.43c0,2.28,3.65,1.81,3.65.22A1.85,1.85,0,0,0,66.1,7.11,2.84,2.84,0,0,0,65.59,8.43Z"/><path class="cls-1" d="M56.71,7.06c0,4.57,5.2,1.23,2.91-.86C58.45,5.14,56.71,6.06,56.71,7.06Z"/><path class="cls-1" d="M38.72,10.7a1.92,1.92,0,0,0,1.82,1.83c2.24,0,2.24-3.65,0-3.65A2.19,2.19,0,0,0,38.72,10.7Z"/><path class="cls-1" d="M105.45,44.87a1.81,1.81,0,0,0,2.91,1.55,1.79,1.79,0,0,0-1.09-3.15A1.74,1.74,0,0,0,105.45,44.87Z"/><path class="cls-1" d="M66.28,108.18c0,1.87,3.41,3.11,3.41-.45C69.69,106.12,66.28,105.63,66.28,108.18Z"/><path class="cls-1" d="M107.05,63.09a1.71,1.71,0,1,0,3.41,0A1.71,1.71,0,1,0,107.05,63.09Z"/><path class="cls-1" d="M39.4,105.68c0,3.33,3.42,2.43,3.42.45C42.82,103.52,39.4,104.14,39.4,105.68Z"/><path class="cls-1" d="M6.6,66.73a1.73,1.73,0,0,0,1.6,1.82,1.71,1.71,0,1,0-1.6-1.82Z"/><path class="cls-1" d="M9.34,39.86a1.71,1.71,0,1,0,3.41,0A1.71,1.71,0,1,0,9.34,39.86Z"/><path class="cls-1" d="M8.88,75.62a1.7,1.7,0,0,0,1.63,1.69c2.35.13,2.38-3.52.19-3.52A1.71,1.71,0,0,0,8.88,75.62Z"/><path class="cls-1" d="M107.05,53.75a1.74,1.74,0,0,0,3.41.68C110.46,50.78,107.05,52.5,107.05,53.75Z"/><path class="cls-1" d="M74.48,10.7a1.71,1.71,0,1,0,3.41,0A1.71,1.71,0,0,0,74.48,10.7Z"/><path class="cls-1" d="M107.05,73.79a1.71,1.71,0,1,0,0-3.41A1.71,1.71,0,0,0,107.05,73.79Z"/><path class="cls-1" d="M6.83,48.28c0,2.59,3.42,3,3.42,0C10.25,46.47,6.83,46.47,6.83,48.28Z"/><path class="cls-1" d="M5.92,57.62a1.71,1.71,0,1,0,3.42,0A1.71,1.71,0,0,0,5.92,57.62Z"/><path class="cls-1" d="M47.6,8.2C47.6,10.71,51,10.68,51,8,51,6.4,47.6,5.77,47.6,8.2Z"/></g></g></svg>