<svg xmlns="http://www.w3.org/2000/svg" viewBox="0 0 131.25 131.47"><defs><style>.cls-1,.cls-2{fill:#fff;}.cls-1{fill-rule:evenodd;}</style></defs><title>Asset 41</title><g id="Layer_2" data-name="Layer 2"><g id="Text"><path class="cls-1" d="M80.94,124.69c0-2.77,4.37-2.77,4.37,0s-4.37,2.76-4.37,0Zm-48.13,0c0-2.77,4.38-2.77,4.38,0s-4.38,2.76-4.38,0Zm67.81-13.13c0-2.76,4.38-2.76,4.38,0s-4.38,2.76-4.38,0ZM10.94,100.62c0-2.76,4.37-2.76,4.37,0s-4.37,2.77-4.37,0ZM122.5,91.87c0-2.76,4.37-2.76,4.37,0s-4.37,2.77-4.37,0Zm-83.13-7.1V46.48a6.74,6.74,0,0,1,7.11-7.11H84.77a6.74,6.74,0,0,1,7.1,7.11V84.77a6.79,6.79,0,0,1-7.1,7.1H46.48a6.74,6.74,0,0,1-7.11-7.1ZM4.38,70c0-2.76,4.37-2.76,4.37,0s-4.37,2.76-4.37,0ZM122.5,56.87c0-2.76,4.37-2.76,4.37,0s-4.37,2.77-4.37,0Zm-8.75-19.68c0-2.77,4.37-2.77,4.37,0s-4.37,2.76-4.37,0Zm-100.63,0c0-2.77,4.38-2.77,4.38,0s-4.38,2.76-4.38,0ZM63.44,13.12c0-2.76,4.37-2.76,4.37,0s-4.37,2.77-4.37,0Zm35-2.18c0-2.77,4.37-2.77,4.37,0s-4.37,2.76-4.37,0ZM32.81,6.56c0-2.76,4.38-2.76,4.38,0s-4.38,2.76-4.38,0ZM28.44,6c0,4.43,2.68,7.1,7.11,7.1A8,8,0,0,0,38,12.58c1,1.53,7.93,7.35,7.93,8.47V35A11,11,0,0,0,35,45.94H27.62c-1,0-5.08-4.93-6.29-5.74l.54-3.56c0-3.89-3.51-6-7.1-6-3.89,0-6,3.52-6,7.11,0,3.89,3.51,6,7.11,6a7.94,7.94,0,0,0,2.46-.55c.63.95,6.59,7.11,7.38,7.11H35v4.38H21.33c-.9,0-8.8,7-10,8-2.57,2.21-1.61.74-5.28.74-3.89,0-6,3.51-6,7.11,0,3.89,3.51,6,7.11,6s6-3.53,6-6.83c0-1.38-.24-1.23-.27-2.46,2-1.32,9.22-8.21,10.39-8.21H35v4.38H28.44v4.37H35v4.38H15.31v4.37H35v4.38H23.24c-.74,0-1,.79-1.37,1.36l-3.28,4.93-2.18,3.28a17.91,17.91,0,0,0-2.19,3.55c-2.74,0-4.05.23-5.54,1.57C3.8,100,7.36,107.46,12.85,107.46a6.81,6.81,0,0,0,5.2-11.21c1.29-1.94,6.66-9.26,7.11-10.94H35A11,11,0,0,0,45.94,96.25v13.94c0,1.13-6.9,7-7.93,8.48l-3.56-.55c-3.89,0-6,3.52-6,7.11,0,3.89,3.51,6,7.11,6,3.89,0,6-3.51,6-7.11a8.24,8.24,0,0,0-.54-2.46c1.06-.72,9.29-8.76,9.29-9.57V96.25h4.38v13.12h4.37V96.25h4.38v18.32c0,.72.56.89,1.2,1.26l8.42,5.25c.64.41,1,.59,1.7,1a4.49,4.49,0,0,0,1.8.93c0,3-.11,4.31,1.43,6,4.49,4.81,12,2.15,12-4s-6.38-8.52-10.94-5.47l-8.21-5.18a12.1,12.1,0,0,0-3-1.65V96.25h4.38v6.56h4.37V96.25h4.38v17.5H96c1.27,0,1.45,4.37,7.38,4.37,7.87,0,8.56-13.12-1.1-13.12-4.21,0-5.2,4.37-6.28,4.37H85.31V96.25A11,11,0,0,0,96.25,85.31h18.32c.87,0,3.21,3,4.1,3.56l-.55,3.55c0,3.89,3.52,6,7.11,6,3.89,0,6-3.52,6-7.11,0-3.89-3.51-6-7.11-6a7.94,7.94,0,0,0-2.46.55c-.53-.79-4.34-4.92-5.2-4.92H96.25V76.56h10.94V72.19H96.25V67.81h11.21c2.23,0,9.65-5.44,12.15-5.9.94-.18,2.33,1.53,5.62,1.53,3.63,0,6-3.35,6-7.11,0-7.56-13.13-9-13.13,1.36a13.59,13.59,0,0,0-3,1.39c-9.47,5.28-8.14,4.36-18.88,4.36V59.06h6.56V54.69H96.25V50.31c11.1,0,8.54,1.17,13.06-3.35a31.82,31.82,0,0,0,3.62-3.76l3.55.55c3.89,0,6-3.51,6-7.11,0-3.89-3.51-6-7.11-6-3.89,0-6,3.52-6,7.11a8,8,0,0,0,.55,2.47c-1.21.81-5.29,5.74-6.29,5.74H96.25A11,11,0,0,0,85.31,35c0-5.61-1.06-4.55,2.94-8.55,2.55-2.54,7.65-6.93,9.37-9.5l3.55.55c3.89,0,6-3.51,6-7.11,0-3.89-3.52-6-7.11-6-3.89,0-6,3.51-6,7.1A8,8,0,0,0,94.61,14C92,15.73,87,21.42,84.29,24.13c-4.52,4.52-3.35,2.46-3.35,10.87H76.56V28.44H72.19V35H67.81V20c0-1.28,4.38-1.46,4.38-7.38a6.69,6.69,0,0,0-1.7-4.05c-5.52-5.9-15.37,1.76-10,8.87C64.05,22,63.44,12.84,63.44,35H59.06V28.44H54.69V35H50.31V19.14c0-.82-8.27-8.88-9.29-9.57L41.56,6c0-3.89-3.51-6-7.11-6A6.46,6.46,0,0,0,28.44,6Z"/><path class="cls-1" d="M54.69,80.66V63.71a2.47,2.47,0,0,1,2.46-2.46H74.1a2.47,2.47,0,0,1,2.46,2.46V80.66a2.46,2.46,0,0,1-2.46,2.46H57.15a2.46,2.46,0,0,1-2.46-2.46Zm4.37-25.43c0-6.5,7.11-9.33,11.29-5,1.85,1.91,1.84,4.07,1.84,6.64H59.06V55.23Zm-4.37,1.92c-2.22,1.17-4.38,2.82-4.38,5.74V81.48a6.47,6.47,0,0,0,6,6H74.92a6.47,6.47,0,0,0,6-6V62.89c0-3-2.1-4.54-4.38-5.74,0-4.63-.11-6.83-2.39-9.37-4.9-5.46-12.19-5.46-17.09,0C54.8,50.32,54.69,52.52,54.69,57.15Z"/><path class="cls-1" d="M63.44,70c0-2.76,4.37-2.76,4.37,0s-4.37,2.76-4.37,0Zm-4.38-1.09c0,2.47.09,4.93,3,6.61,1.78,1,1.42,0,1.42,5.42h4.37c0-7.85.11-3.27,2.79-6.51,3.1-3.76,2-11-5.52-11C62,63.44,59.06,66.6,59.06,68.91Z"/><rect class="cls-2" x="54.69" y="19.69" width="4.38" height="4.37"/><rect class="cls-2" x="72.19" y="19.69" width="4.37" height="4.37"/><rect class="cls-2" x="30.62" y="32.81" width="4.38" height="4.37"/><rect class="cls-2" x="96.25" y="32.81" width="4.38" height="4.37"/><rect class="cls-2" x="107.19" y="54.69" width="4.38" height="4.37"/><rect class="cls-2" x="19.69" y="63.44" width="4.37" height="4.38"/><rect class="cls-2" x="111.56" y="72.19" width="4.37" height="4.37"/><rect class="cls-2" x="96.25" y="94.06" width="4.38" height="4.38"/><rect class="cls-2" x="30.62" y="94.06" width="4.38" height="4.38"/><rect class="cls-2" x="72.19" y="107.19" width="4.37" height="4.37"/><rect class="cls-2" x="54.69" y="113.75" width="4.38" height="4.37"/></g></g></svg>