<svg xmlns="http://www.w3.org/2000/svg" xmlns:xlink="http://www.w3.org/1999/xlink" viewBox="0 0 1140.85 1288.17"><defs><style>.cls-1{fill:none;}.cls-2{fill:#e0e0e0;}.cls-3{fill:#ebebeb;}.cls-4{fill:#f4f4f4;}.cls-26,.cls-5{fill:#cce3ec;}.cls-6{opacity:0.8;}.cls-7{clip-path:url(#clip-path);}.cls-8{fill:#fff;}.cls-9{clip-path:url(#clip-path-2);}.cls-10{opacity:0.3;}.cls-11{clip-path:url(#clip-path-3);}.cls-12{clip-path:url(#clip-path-4);}.cls-13{fill:#ffbe9c;}.cls-14{fill:#ff996c;}.cls-15{opacity:0.6;}.cls-16{clip-path:url(#clip-path-5);}.cls-17{clip-path:url(#clip-path-6);}.cls-18{fill:#1a2e35;}.cls-19{fill:#375a64;}.cls-20{fill:#f9f9f9;}.cls-21{clip-path:url(#clip-path-7);}.cls-22{clip-path:url(#clip-path-8);}.cls-23{clip-path:url(#clip-path-9);}.cls-24{clip-path:url(#clip-path-10);}.cls-25{clip-path:url(#clip-path-11);}.cls-26{stroke:#fff;stroke-miterlimit:10;stroke-width:2px;}.cls-27{clip-path:url(#clip-path-12);}.cls-28{clip-path:url(#clip-path-13);}.cls-29{clip-path:url(#clip-path-14);}</style><clipPath id="clip-path"><rect class="cls-1" x="168.37" y="176.26" width="312.92" height="226.83"/></clipPath><clipPath id="clip-path-2"><rect class="cls-1" x="646.17" y="171.88" width="314.65" height="235.26"/></clipPath><clipPath id="clip-path-3"><rect class="cls-1" x="738.37" y="221.2" width="44.17" height="61.82"/></clipPath><clipPath id="clip-path-4"><rect class="cls-1" x="568.13" y="515.14" width="115.89" height="62.88"/></clipPath><clipPath id="clip-path-5"><rect class="cls-1" x="440.79" y="1121.55" width="64.32" height="55.41"/></clipPath><clipPath id="clip-path-6"><rect class="cls-1" x="490.7" y="1096.15" width="8.45" height="8.5"/></clipPath><clipPath id="clip-path-7"><rect class="cls-1" x="528.87" y="491.59" width="91.43" height="45.84"/></clipPath><clipPath id="clip-path-8"><rect class="cls-1" x="524.55" y="412.69" width="73.59" height="87.74"/></clipPath><clipPath id="clip-path-9"><rect class="cls-1" x="438.32" y="357.74" width="20.41" height="126.69"/></clipPath><clipPath id="clip-path-10"><rect class="cls-1" x="498.09" y="266.92" width="104" height="70.06"/></clipPath><clipPath id="clip-path-11"><rect class="cls-1" x="643.87" y="331.94" width="22.94" height="60.77"/></clipPath><clipPath id="clip-path-12"><rect class="cls-1" x="409.27" y="499.51" width="334.72" height="230.13"/></clipPath><clipPath id="clip-path-13"><rect class="cls-1" x="97.24" y="343.27" width="229.59" height="333.17"/></clipPath><clipPath id="clip-path-14"><rect class="cls-1" x="811.1" y="380.86" width="209.01" height="309.55"/></clipPath></defs><title>Asset 1</title><g id="Layer_2" data-name="Layer 2"><g id="Text"><path class="cls-2" d="M246.44,944.21c-5.49-5.79-13.63-8-21.12-10.74-32.9-12.12-59.42-40.35-69.46-73.94s-3.35-71.75,17.51-99.92l-1.13-5.83c-2.57-27.12-35.31-46.55-60.34-35.82s-33.52,47.85-15.65,68.4c-29.37,2.43-48.78,35.91-44.65,65.09S77.1,904.59,100.87,922a233.3,233.3,0,0,0,135.44,44.74c3.3,0,6.77-.08,9.62-1.74,6.9-4,6-15,.51-20.8"/><path class="cls-2" d="M1064.76,825.5c6.75-11,7.7-25.72.86-36.61s-21.9-16.4-33.58-11c6.54-10.92,2.72-26.77-8.09-33.5s-26.72-3.19-33.64,7.5c-7.82,12.08-3.68,28.29,3,41s15.92,24.68,18.14,38.9c2.26,14.53-3.31,29.4-12,41.26s-20.29,21.2-31.76,30.4l-2.19,2.1a78.88,78.88,0,0,0,63.17-5.43c10.8-6,20.79-15.84,21.49-28.15.4-6.88-2.17-13.77-1.12-20.58,1.54-10.07,10.34-17.2,15.68-25.88"/><path class="cls-2" d="M472.93,1275.43c-10.7-1.33-21.45-6-27.75-14.78-4-5.6-6-12.43-9.47-18.37s-9.57-11.32-16.44-10.65c-10.64,1-17.81,15.74-28.18,13.15-6.23-1.55-9.2-8.88-9.24-15.3s1.83-12.83,1-19.2c-2.25-17.91-25.25-26.72-42.41-21.12s-43.22,26.3-54.41,40.47c11.76,19.56,35.9,27.16,58,32.71q55.74,14,112.43,23.7c8.85,1.52,17.9,3,26.77,1.57s17.7-6.11,21.8-14.1c-10.66,1.62-21.48,3.24-32.18,1.92"/><path class="cls-2" d="M899,1137.41c-2.72-15.3-18-28.77-33.12-25.25,12.55-10.35,12.62-31.15,2.7-44s-27.17-18.46-43.43-18-31.87,6.2-47,12.26c7.39-9.43-3.43-24.11-15.4-24.9s-22.64,6.83-32.34,13.87-20.9,14.2-32.74,12.35l11.13,4.44c26.55,4,53.32,10.23,76.32,24.11s41.92,36.48,45.89,63-10,56.29-35.2,65.57c34,2.12,68.54-13.49,89.42-40.36,9.54-12.27,16.46-27.82,13.73-43.12"/><path class="cls-2" d="M26.5,740.59c-.4,0-.72-11.48-.72-25.63s.32-25.64.72-25.64.72,11.47.72,25.64-.32,25.63-.72,25.63"/><path class="cls-2" d="M53,715c0,.4-11.87.72-26.5.72S0,715.35,0,715s11.86-.71,26.5-.71,26.5.32,26.5.71"/><path class="cls-2" d="M1048.85,1004.06c-.4,0-.72-11.48-.72-25.63s.32-25.64.72-25.64.71,11.48.71,25.64-.32,25.63-.71,25.63"/><path class="cls-2" d="M1075.34,978.42c0,.4-11.86.72-26.5.72s-26.49-.32-26.49-.72,11.86-.71,26.49-.71,26.5.32,26.5.71"/><path class="cls-2" d="M893.33,124.38c-.4,0-.72-11.47-.72-25.63s.32-25.63.72-25.63.72,11.47.72,25.63-.32,25.63-.72,25.63"/><path class="cls-2" d="M919.83,98.75c0,.4-11.87.72-26.5.72s-26.5-.32-26.5-.72,11.86-.72,26.5-.72,26.5.32,26.5.72"/><path class="cls-2" d="M71.65,499.77A15.67,15.67,0,1,1,56,484.1a15.67,15.67,0,0,1,15.67,15.67"/><path class="cls-2" d="M681,1166.85a15.67,15.67,0,1,1-15.66-15.66A15.65,15.65,0,0,1,681,1166.85"/><path class="cls-2" d="M826.76,870.83a15.67,15.67,0,1,1-15.66-15.66,15.66,15.66,0,0,1,15.66,15.66"/><path class="cls-2" d="M361.37,90.84A15.67,15.67,0,1,1,345.7,75.17a15.67,15.67,0,0,1,15.67,15.67"/><path class="cls-2" d="M435.58,1017.49a7.84,7.84,0,1,1-7.83-7.83,7.84,7.84,0,0,1,7.83,7.83"/><path class="cls-2" d="M246.6,978.42a7.84,7.84,0,1,1-7.83-7.83,7.84,7.84,0,0,1,7.83,7.83"/><path class="cls-2" d="M439.67,106.5a7.83,7.83,0,1,1-7.83-7.83,7.82,7.82,0,0,1,7.83,7.83"/><path class="cls-2" d="M784.68,530.28a7.83,7.83,0,1,1-7.83-7.83,7.82,7.82,0,0,1,7.83,7.83"/><path class="cls-3" d="M32.53,83.25s-17.44,9,7,45.54S80,183,80,183s4.59,8.61-2.84,10.91-24.48,1.61-26.76,11.31C48,215.23,56.09,223.5,71.23,229.8s47.82,21.32,50.77,22.69,6.1,5.22,1.29,7.6-42,10.76-36.95,28.16,50.11,28,55,29.27,6.26,3.11,6.19,5.73-12.84,4.26-23.32,7.08-22.12,7.92-18.38,17.71,31.86,28,94.74,26.72l29.1-2.49,12.87-26.36c24.13-58.09,17.46-90.89,9.7-98s-16.75,1.92-23.2,10.65-12.62,20-15.09,19.12-3.7-2.83-3.08-7.85S218.08,219,203.72,208,168,228.49,164,232.1s-6.42-.79-6.61-4-2.26-39.15-2.6-55.55-5.09-26.94-15.31-28.4c-9.87-1.41-15.45,14.71-20.3,20.79s-11.2-1.33-11.2-1.33-10.56-21.35-35.66-57.44S32.19,83.46,32.19,83.46"/><path class="cls-2" d="M232,378.91c-18.32-26.58-50.1-74.36-77.6-115.23S102,185.84,83.79,159.18L62.21,127.62,56.35,119c-.64-1-1.14-1.71-1.5-2.25s-.49-.78-.49-.78.2.24.56.73.91,1.25,1.58,2.19c1.4,2,3.42,4.83,6,8.49,5.21,7.38,12.66,18.1,21.82,31.39,18.32,26.58,43.33,63.5,70.82,104.36s59.19,88.71,77.39,115.37"/><path class="cls-2" d="M74.18,207.1a9,9,0,0,1,2.09.32c1.34.26,3.25.69,5.61,1.25,4.72,1.13,11.2,2.85,18.32,4.87l18.2,5.26,5.52,1.56a9.26,9.26,0,0,1,2,.65,9.36,9.36,0,0,1-2.09-.31c-1.33-.27-3.25-.7-5.61-1.28-4.7-1.18-11.16-3-18.28-5l-18.23-5.13-5.53-1.53a9.84,9.84,0,0,1-2-.66"/><path class="cls-2" d="M127.69,218.92c-.24-.06,2.72-13.57,6.61-30.19s7.24-30,7.48-30-2.71,13.57-6.6,30.19-7.24,30-7.49,30"/><path class="cls-2" d="M167.08,283.59a10.25,10.25,0,0,1,1-1.93c.77-1.37,1.73-3.08,2.88-5.11,2.42-4.31,5.74-10.28,9.17-17s6.34-12.9,8.4-17.4l2.46-5.32a9.68,9.68,0,0,1,1-1.92,9.35,9.35,0,0,1-.67,2.05c-.49,1.3-1.22,3.17-2.19,5.45-1.92,4.57-4.73,10.81-8.19,17.55s-6.85,12.68-9.42,16.92c-1.29,2.11-2.36,3.81-3.13,5a9.7,9.7,0,0,1-1.27,1.75"/><path class="cls-2" d="M116.33,283.55a8,8,0,0,1,2-.2l5.42-.21c4.57-.14,10.89-.27,17.87-.35s13.3-.11,17.87-.08l5.42.08a8.84,8.84,0,0,1,2,.15,8.59,8.59,0,0,1-2,.2l-5.42.21c-4.57.14-10.89.26-17.87.35s-13.3.1-17.87.08l-5.42-.08a8.84,8.84,0,0,1-2-.15"/><path class="cls-2" d="M143.85,345.05a14.15,14.15,0,0,1,2.54-.23l6.94-.29c5.86-.21,14-.43,22.9-.63s17.05-.32,22.91-.36h6.94a14.31,14.31,0,0,1,2.55.12,14.15,14.15,0,0,1-2.54.23l-6.94.29c-5.86.21-14,.44-22.9.63s-17,.32-22.9.36H146.4a12.23,12.23,0,0,1-2.55-.12"/><path class="cls-2" d="M207.08,343.25a14.94,14.94,0,0,1,1.16-2.47l3.41-6.6c2.88-5.58,6.83-13.3,10.94-21.95s7.66-16.56,10.18-22.31l3-6.81a15.92,15.92,0,0,1,1.19-2.46,15.61,15.61,0,0,1-.86,2.59c-.61,1.65-1.54,4-2.73,6.93C231,296,227.54,304,223.41,312.62s-8.17,16.35-11.19,21.86c-1.52,2.75-2.78,5-3.68,6.47a16.39,16.39,0,0,1-1.46,2.3"/><path class="cls-4" d="M977.52,607.47c-31-27.05-33.95-71.38-28.4-110.35.92-6.51.94-13.47,4.67-18.86s11.39-8.53,16.94-5.15c4.6,2.81,6.1,8.67,8.31,13.63A38.46,38.46,0,0,0,992.78,503c3.92,2.6,8.92,4.47,13.27,2.65,6-2.5,7.47-10.2,8.13-16.7l3.69-36.33c.66-6.5,1.35-13.13,4-19.08s7.76-11.18,14.12-12.25,13.62,3.32,14.24,9.82c.26,2.7-.58,5.39-.69,8.1s.83,5.83,3.31,6.86,5.3-.52,7.45-2.21c7.41-5.83,12.87-13.79,18-21.73s10.21-16.1,17.06-22.59,15.87-11.26,25.23-10.78,18.64,7.28,20,16.67-5,18.11-11.58,24.9a145.7,145.7,0,0,1-33.28,25.51c-2.2,1.23-4.59,2.57-5.63,4.89-1.88,4.17,1.76,8.91,5.88,10.8,4.67,2.13,10,2.19,15,3.34s10.24,4,11.64,8.95c1.95,6.92-4.35,13.28-10.31,17.25a124.56,124.56,0,0,1-39,17.25c-5,1.24-10.16,2.23-14.37,5.17s-7.17,8.52-5.33,13.35,7.65,6.94,12.75,6.55,9.88-2.63,14.84-3.91c9.28-2.41,20.74-.55,25.63,7.78,3.21,5.47,2.78,12.57.23,18.4s-7,10.63-11.58,15c-16.11,15.24-35.87,26.77-57.35,31.72s-40.86,4.82-60.62-4.92"/><path class="cls-2" d="M990.26,584c7.88-19.12,18.26-39.35,29.84-60.15l8.64-15.36c2.85-5,5.66-10,8.73-14.75a292.34,292.34,0,0,1,19.14-26.09c6.49-8,12.94-15.36,19-22.19s11.91-13.08,17.44-18.56a231.66,231.66,0,0,1,28-23.86c3.52-2.55,6.3-4.44,8.22-5.69l2.18-1.42a4.31,4.31,0,0,1,.76-.44,4.62,4.62,0,0,1-.7.55l-2.11,1.51c-1.86,1.32-4.61,3.27-8.08,5.87a246.69,246.69,0,0,0-27.69,24.09c-5.47,5.5-11.23,11.78-17.29,18.62s-12.45,14.23-18.91,22.23a296.44,296.44,0,0,0-19,26c-3,4.69-5.83,9.64-8.68,14.69l-8.62,15.36c-11.57,20.78-22,41-29.87,60"/><path class="cls-2" d="M1037.81,493.77a13.9,13.9,0,0,1-.33-2.84c-.15-1.83-.28-4.49-.39-7.77-.22-6.56-.21-15.64-.17-25.64s-.08-19.06-.4-25.61c-.15-3.27-.3-5.91-.43-7.74a13.05,13.05,0,0,1-.06-2.86,12.68,12.68,0,0,1,.52,2.81c.27,1.82.55,4.46.81,7.74.54,6.55.8,15.64.76,25.66s-.13,18.8-.18,25.63v7.76a12.17,12.17,0,0,1-.13,2.86"/><path class="cls-2" d="M1123,487.16a16.77,16.77,0,0,1-3.38,0c-2.16,0-5.29-.11-9.16-.08-7.73,0-18.42.38-30.18,1.31s-22.4,2.27-30,3.44c-3.83.56-6.91,1.09-9,1.45a18,18,0,0,1-3.35.45,17.87,17.87,0,0,1,3.26-.91c2.11-.5,5.18-1.17,9-1.84,7.64-1.4,18.28-2.85,30.08-3.81a296.61,296.61,0,0,1,30.29-.95c3.88.08,7,.29,9.18.47a18.83,18.83,0,0,1,3.35.43"/><path class="cls-2" d="M991.45,582.62a4.23,4.23,0,0,1-.46-1.08l-1.1-3.18c-.95-2.76-2.21-6.79-3.71-11.79-3-10-6.7-23.93-10.58-39.37s-7.46-29.4-10.23-39.45c-1.38-4.88-2.5-8.9-3.34-11.89-.36-1.29-.65-2.36-.89-3.24a.59.59,0,1,1,.23-.07c.3.85.67,1.9,1.11,3.17.94,2.76,2.2,6.79,3.7,11.79,3,10,6.7,23.94,10.58,39.38s7.45,29.4,10.24,39.44c1.37,4.89,2.49,8.91,3.33,11.89.36,1.3.65,2.37.89,3.24a4.3,4.3,0,0,1,.23,1.16"/><path class="cls-2" d="M1106.24,558.82a4.36,4.36,0,0,1-1.15.33l-3.34.74-12.29,2.57c-10.38,2.17-24.69,5.33-40.49,8.85s-30.15,6.56-40.58,8.51c-5.21,1-9.44,1.73-12.37,2.19l-3.38.51a4.83,4.83,0,0,1-1.19.1,3.94,3.94,0,0,1,1.15-.34l3.34-.73,12.29-2.57c10.38-2.17,24.68-5.34,40.49-8.86s30.15-6.55,40.57-8.51c5.22-1,9.44-1.73,12.38-2.19l3.37-.5a4.34,4.34,0,0,1,1.2-.1"/><path class="cls-2" d="M738.44,142.49c5-28.66,18.66-70.57,35-94.63S815.09,4.69,843.91.69s60.62,9.53,73.61,35.57c7,14,8.24,30,13.31,44.77s16.21,29.49,31.76,30.68c13.77,1.06,27-8.87,40.59-6.23,17.65,3.43,24.46,25.19,24.56,43.16s-2.46,37.94,8.59,52.12c9,11.61,24.52,15.61,37,23.39,27,16.84,38.55,51.61,35.82,83.31s-17.34,61-32.84,88.82a694.15,694.15,0,0,0-52.43-131.79c-12.52-24-35.37-44.4-55.6-62.36-31.06-27.58-99.26-40.75-140.49-45.82s-48.52-6.18-89.35-13.82"/><path class="cls-5" d="M463.48,176.26c-102,7.41-213.43,20.92-295.11,52.28l25.8,174.55s158.31-56.65,287.12-52.72Z"/><g class="cls-6"><g class="cls-7"><path class="cls-8" d="M463.48,176.26c-102,7.41-213.43,20.92-295.11,52.28l25.8,174.55s158.31-56.65,287.12-52.72Z"/></g></g><path class="cls-5" d="M456.12,327.34a4.61,4.61,0,0,1-1,.19l-2.9.4-11.13,1.39c-4.84.57-10.76,1.28-17.61,2.29s-14.67,2-23.26,3.38c-34.43,5.32-81.81,14.11-133.28,27.42-17.89,4.62-35.14,9.38-50.92,14.33l-.78.25-.11-.81c-5.52-40-10.85-74.53-15-99-2.09-12.17-3.76-21.88-4.93-28.65q-.86-4.92-1.34-7.66c-.13-.81-.23-1.47-.32-2a3.44,3.44,0,0,1-.07-.68,2.23,2.23,0,0,1,.19.66l.44,2c.37,1.81.9,4.36,1.56,7.61,1.33,6.65,3.17,16.37,5.33,28.59,4.33,24.44,9.85,58.93,15.45,99l-.89-.56c15.83-5,33.06-9.78,51-14.4a1299.53,1299.53,0,0,1,133.48-27c8.61-1.36,16.45-2.27,23.32-3.18s12.79-1.56,17.64-2.05l11.17-1.12,2.91-.26a5.79,5.79,0,0,1,1,0"/><path class="cls-5" d="M459.58,284.91c-.08,0-.39-1.22-1.18-3.47a37.07,37.07,0,0,0-5.25-9,47,47,0,0,0-16.8-13.19,40.59,40.59,0,0,0-5-1.8A27.51,27.51,0,0,0,420,256.31a23.91,23.91,0,0,0-11.56,4.55,38.71,38.71,0,0,0-9.25,10.05c-5.36,7.95-8.85,17.63-13,27.68-2.16,5-5,10.1-9.59,13.77a18.3,18.3,0,0,1-8,3.81,16,16,0,0,1-9-1c-11.62-4.61-16.79-18-28.53-22.07a23,23,0,0,0-17.43,1.43,22,22,0,0,0-6.9,5.33,35.08,35.08,0,0,0-4.6,7.39c-2.62,5.17-4.59,10.92-9,15a13.35,13.35,0,0,1-7.91,3.56A15.47,15.47,0,0,1,277,324a29.79,29.79,0,0,1-11.4-11.2c-2.64-4.53-4.25-9.28-6-13.75a66.42,66.42,0,0,0-6-12.42,25,25,0,0,0-9.13-8.47,23.63,23.63,0,0,0-20.92-.61,35.5,35.5,0,0,0-13.28,9.58,25.57,25.57,0,0,0-5,9.1c-.71,2.3-.81,3.58-.91,3.56a16.36,16.36,0,0,1,.63-3.63,25,25,0,0,1,4.83-9.38,35.44,35.44,0,0,1,13.39-10,24.43,24.43,0,0,1,21.71.45,25.86,25.86,0,0,1,9.58,8.75,65.76,65.76,0,0,1,6.15,12.6c1.79,4.46,3.45,9.2,6,13.53a28.57,28.57,0,0,0,10.92,10.67,14.12,14.12,0,0,0,7.56,1.61,12,12,0,0,0,7.13-3.24c4.07-3.7,6.05-9.32,8.68-14.58a36.39,36.39,0,0,1,4.79-7.7,23.37,23.37,0,0,1,7.34-5.68,24.4,24.4,0,0,1,18.52-1.51c6.25,2.06,10.73,6.88,14.88,11.22s8.39,8.73,13.72,10.9a14.54,14.54,0,0,0,8.18,1,16.93,16.93,0,0,0,7.37-3.52c4.35-3.44,7.1-8.34,9.25-13.23,4.09-9.92,7.68-19.76,13.19-27.81A39.49,39.49,0,0,1,407.81,260a24.82,24.82,0,0,1,12.09-4.66,28.24,28.24,0,0,1,11.72,1.23,40.29,40.29,0,0,1,5.09,1.9,49.7,49.7,0,0,1,4.47,2.44,45.72,45.72,0,0,1,12.41,11.19,35.12,35.12,0,0,1,5.08,9.27c.41,1.14.56,2.06.73,2.65a5.49,5.49,0,0,1,.18.92"/><path class="cls-5" d="M189.19,262c.07.39-1.25,1-3,1.3s-3.16.27-3.23-.11,1.25-1,3-1.3,3.16-.27,3.23.11"/><path class="cls-5" d="M193.7,293.88c.17.35-.83,1.17-2.23,1.83s-2.68.88-2.84.53.83-1.18,2.23-1.83,2.67-.89,2.84-.53"/><path class="cls-5" d="M199.34,328.71c.13.37-.9,1.07-2.3,1.56s-2.65.58-2.78.21.9-1.07,2.31-1.56,2.64-.58,2.77-.21"/><path class="cls-5" d="M206.1,363c.12.38-1,1.08-2.6,1.57s-2.91.58-3,.2,1-1.08,2.61-1.57,2.91-.58,3-.2"/><path class="cls-5" d="M398.52,198.44a13.65,13.65,0,0,1,3.33-.75c2.19-.38,5.41-.86,9.5-1.43,8.17-1.16,19.83-2.67,33.74-4.38l.64-.08.06.65c1.09,11.72,2.34,25.21,3.66,39.52l.05.6.07.69-.69.08-45.62,5.59-.61.07-.06-.6c-1.28-12-2.35-22-3.12-29.14q-.48-5-.78-8a20.07,20.07,0,0,1-.17-2.77,22.06,22.06,0,0,1,.5,2.94c.28,2,.65,4.74,1.11,8.11.9,7.1,2.15,17,3.66,28.77l-.68-.53,45.59-5.81-.62.78-.06-.6c-1.26-14.31-2.46-27.81-3.49-39.53l.71.57-46.72,5.3"/><path class="cls-5" d="M440.89,205.39c0,.42-7.85.42-17.43,1.45s-17.25,2.63-17.35,2.22,7.5-2.64,17.2-3.65,17.61-.39,17.58,0"/><path class="cls-5" d="M441.38,215.61c0,.42-7.31.7-16.27,1.58s-16.19,2-16.27,1.57,7.09-2.14,16.14-3,16.41-.52,16.4-.15"/><path class="cls-5" d="M430.46,224.55c.05.39-4.11,1.24-9.29,1.9s-9.41.87-9.46.47,4.11-1.24,9.28-1.9,9.42-.86,9.47-.47"/><path class="cls-5" d="M960.82,227.62c-99.91-30.45-184.19-56.45-297.36-55.73L646.17,349.76c117.54,10.4,156.82,18.09,265.36,57.38Z"/><g class="cls-6"><g class="cls-9"><path class="cls-8" d="M960.82,227.62c-99.91-30.45-184.19-56.45-297.36-55.73L646.17,349.76c117.54,10.4,156.82,18.09,265.36,57.38Z"/></g></g><path class="cls-5" d="M734.65,258.2l4.41-37.74A44.25,44.25,0,0,0,708.25,229c-10.75,7.85-18.6,20.68-18.94,37.31,0,1.82,0,3.67.16,5.58a.66.66,0,0,0,0,.14h0l44.08-5Z"/><path class="cls-5" d="M780.21,252c-4.36-14-14.84-26.07-31.4-29.92-.44-.11-.89-.2-1.34-.3l-.86-.17c-.84-.16-1.7-.28-2.57-.4l-.11,0h-.12l-4.41,37.74-1,8.87L780,283l0,0a48.13,48.13,0,0,0,2.15-9.66,51.83,51.83,0,0,0-2-21.33"/><g class="cls-10"><g class="cls-11"><path d="M780.21,252c-4.36-14-14.84-26.07-31.4-29.92-.44-.11-.89-.2-1.34-.3l-.86-.17c-.84-.16-1.7-.28-2.57-.4l-.11,0h-.12l-4.41,37.74-1,8.87L780,283l0,0a48.13,48.13,0,0,0,2.15-9.66,51.83,51.83,0,0,0-2-21.33"/></g></g><path class="cls-5" d="M735.27,272.05l-44.07,5c1.83,21.34,17.41,39,38.34,41.61s40.54-10.95,47.4-31.37l-41.61-15.19"/><path class="cls-5" d="M922.21,261.52a22.48,22.48,0,0,1-3.89-1.57c-2.46-1.11-6-2.67-10.48-4.53A325,325,0,0,0,872.39,243a321.5,321.5,0,0,0-36.7-8.13c-4.75-.77-8.61-1.33-11.28-1.68a23.26,23.26,0,0,1-4.14-.72,22.86,22.86,0,0,1,4.19.16c2.7.18,6.59.59,11.38,1.23a266.49,266.49,0,0,1,72.41,20.66c4.4,2,7.92,3.69,10.31,5a23.86,23.86,0,0,1,3.65,2.07"/><path class="cls-5" d="M919.18,280.09a23.62,23.62,0,0,1-3.89-1.58c-2.46-1.11-6-2.67-10.47-4.52a313.68,313.68,0,0,0-72.16-20.59c-4.75-.77-8.61-1.33-11.28-1.68a25.92,25.92,0,0,1-4.14-.71,23,23,0,0,1,4.2.16c2.7.18,6.58.59,11.37,1.23a265.54,265.54,0,0,1,72.41,20.66c4.41,2,7.93,3.68,10.31,4.95a23,23,0,0,1,3.65,2.08"/><path class="cls-5" d="M916.16,298.65a22.48,22.48,0,0,1-3.89-1.57c-2.46-1.11-6-2.67-10.48-4.53A313.1,313.1,0,0,0,829.64,272c-4.76-.77-8.61-1.33-11.29-1.68a23.25,23.25,0,0,1-4.13-.72,22.86,22.86,0,0,1,4.19.16c2.7.18,6.59.59,11.38,1.23a266.49,266.49,0,0,1,72.41,20.66c4.4,2,7.92,3.69,10.31,5a25,25,0,0,1,3.65,2.07"/><path class="cls-5" d="M910.1,317.22a23,23,0,0,1-3.77-1.57c-2.37-1.11-5.83-2.66-10.14-4.52a297.42,297.42,0,0,0-70-20.59c-4.62-.77-8.37-1.33-11-1.69a21.89,21.89,0,0,1-4-.71,21.68,21.68,0,0,1,4.08.16c2.62.18,6.41.59,11.06,1.24a252.09,252.09,0,0,1,70.28,20.67c4.26,2,7.67,3.68,10,4.94a21.8,21.8,0,0,1,3.52,2.07"/><path class="cls-5" d="M897,332a18,18,0,0,1-3.4-1.35l-9.1-4.05a222.11,222.11,0,0,0-62.82-17.92l-9.86-1.36a17.5,17.5,0,0,1-3.61-.65,18,18,0,0,1,3.67.09c2.35.14,5.74.45,9.93.92a190.31,190.31,0,0,1,63.11,18c3.8,1.82,6.85,3.34,8.92,4.46A18.42,18.42,0,0,1,897,332"/><path class="cls-5" d="M852.56,334.12c-.06.21-2.75-.46-7.11-1.47s-10.38-2.31-17.1-3.47-12.84-2-17.27-2.63-7.18-1-7.16-1.24,2.8-.13,7.27.24,10.64,1.05,17.4,2.22a156.27,156.27,0,0,1,17.12,3.9c4.31,1.27,6.91,2.28,6.85,2.45"/><path class="cls-5" d="M680.8,193s.76-.06,2.3-.12l6.88-.23c6.07-.15,14.85-.05,26.09.58a415.6,415.6,0,0,1,91.64,16.4l.51.16-.09.53c-6.89,39.42-15.07,86.29-23.83,136.44q-.54,3.06-1.06,6l-.14.77-.76-.2a602.06,602.06,0,0,0-61.18-12.62c-19.72-3-38.58-5.17-56.09-6.28l-.67,0,.07-.66c4.82-42.08,8.86-77.32,11.7-102.12,1.44-12.27,2.57-21.94,3.36-28.62.39-3.24.7-5.75.91-7.52.11-.8.19-1.42.26-1.91a2.88,2.88,0,0,1,.1-.61,3.57,3.57,0,0,1,0,.69c0,.5-.1,1.15-.18,2q-.27,2.7-.77,7.64c-.71,6.72-1.74,16.46-3,28.79-2.68,24.72-6.49,59.87-11,101.82l-.59-.71c17.59,1.07,36.46,3.18,56.23,6.18A599.76,599.76,0,0,1,782.71,352l-.88.57c.34-2,.7-4,1.06-6,8.83-50.14,17.09-97,24-136.41l.41.69A425.33,425.33,0,0,0,716,193.91c-11.18-.74-20-.94-26-.92h-6.84c-1.56,0-2.41,0-2.41,0"/><polyline class="cls-5" points="571.71 556.44 669.13 578.01 684.02 556.44 681.61 528.66 666.81 515.14 615.77 515.14 568.13 558.05"/><g class="cls-10"><g class="cls-12"><polyline points="571.71 556.44 669.13 578.01 684.02 556.44 681.61 528.66 666.81 515.14 615.77 515.14 568.13 558.05"/></g></g><path class="cls-13" d="M720.27,355.8l123-16.56,19.36-5.46s44.32-9.73,48.46-11.21c4.78-1.71,6.75.18,7.26,2,.8,2.82-1.9,6-6,7.56-1.41.55-23.89,8.34-23.89,8.34a54.92,54.92,0,0,1,7.59,2.19c5.38,1.82,10.54,8.76,13.13,16.84s2.59,10.57-.5,11.72a4.19,4.19,0,0,1-3.58-.5,8.32,8.32,0,0,1-3.69-4.62c-4.31-12.88-12.38-13.9-12.38-13.9l-2.53.71s8.32,5.81,8.18,12.84a8,8,0,0,1-.65,3,10.63,10.63,0,0,1-11.85,14c-1.77-.3-3.69-1.35-4-3.13a5.66,5.66,0,0,1,.58-2.75,9.15,9.15,0,0,0,.43-1.44l-7.37,1S855.2,377.8,848,379.22L732.85,413.91a29.82,29.82,0,1,1-12.58-58.11"/><path class="cls-13" d="M846.09,342.38c.19,2.58,2.77,4.37,5.3,4.9s5.17.19,7.73.53c7.66,1,13.62,8,21.32,8.67,1.07.09,2.43-.13,2.74-1.16s-.52-1.86-1.27-2.52l-19.19-17"/><path class="cls-14" d="M862.72,335.84a10.56,10.56,0,0,1,2.26,1.62c1.4,1.12,3.38,2.77,5.82,4.83l8.49,7.3,2.44,2.13c.73.73,2,1.36,2.23,3.12a2.16,2.16,0,0,1-1.32,2,4.51,4.51,0,0,1-2.07.34,16.63,16.63,0,0,1-3.7-.74c-4.83-1.57-8.56-4.49-12.3-6.24a19.49,19.49,0,0,0-5.48-1.82c-1.78-.27-3.53-.21-5.15-.33-3.27-.08-5.93-1.48-7-3s-.9-2.73-.85-2.69a7.66,7.66,0,0,0,1.28,2.32c1.14,1.29,3.48,2.4,6.62,2.36,1.56.05,3.32-.07,5.27.16a19.9,19.9,0,0,1,5.88,1.81c3.92,1.76,7.69,4.62,12.17,6.06a15.34,15.34,0,0,0,3.34.67c1.06.08,2-.31,1.88-.87s-.89-1.41-1.72-2.13l-2.41-2.16-8.29-7.54c-2.34-2.16-4.22-3.92-5.5-5.17s-2-2-1.89-2.05"/><path class="cls-14" d="M886.3,352.64c0,.2,1.89-.81,4.83-.06a8.15,8.15,0,0,1,4.21,2.89,20.69,20.69,0,0,1,3,5.75,33.22,33.22,0,0,0,2.8,6.13,10.62,10.62,0,0,0,4,3.87,4.16,4.16,0,0,0,3.76.09c.8-.43,1.1-.83,1.08-.86s-.44.23-1.22.52a3.93,3.93,0,0,1-3.32-.34,10.53,10.53,0,0,1-3.59-3.74,37,37,0,0,1-2.66-6,20.05,20.05,0,0,0-3.24-6,8.57,8.57,0,0,0-4.72-3,7.65,7.65,0,0,0-3.76.12c-.85.26-1.26.55-1.23.59"/><path class="cls-14" d="M913.92,331.48a27,27,0,0,0-4.48,1.52l-10.69,3.93L888,340.69a26.84,26.84,0,0,0-4.42,1.68,21.44,21.44,0,0,0,4.62-1c2.81-.79,6.66-2,10.86-3.52s7.95-3,10.62-4.19a20.67,20.67,0,0,0,4.23-2.14"/><path class="cls-14" d="M883,359.5c0,.05.34.43,1,1.12A4.4,4.4,0,0,1,885.4,364a2.37,2.37,0,0,1-1.45,1.82,12.5,12.5,0,0,1-3,.82,5.28,5.28,0,0,0-3.32,1.78,4.48,4.48,0,0,0-.56,4,5.13,5.13,0,0,0,2.76,3,6.52,6.52,0,0,0,3.71.55,20.54,20.54,0,0,0,5.7-2.13,12.22,12.22,0,0,0,3.29-2.45c.64-.75.81-1.28.76-1.3s-.34.41-1,1a14.37,14.37,0,0,1-3.33,2.12,22.74,22.74,0,0,1-5.54,1.86c-2,.29-4.68-.71-5.44-2.95a3.64,3.64,0,0,1,.41-3.21,4.63,4.63,0,0,1,2.77-1.48,12.25,12.25,0,0,0,3.15-1,3.07,3.07,0,0,0,1.74-2.44,4.61,4.61,0,0,0-1.79-3.72,3.83,3.83,0,0,0-1.23-.86"/><path class="cls-14" d="M880.41,374.83s-.52,0-1.22.57a4.08,4.08,0,0,0-1.37,3.42,5.48,5.48,0,0,0,3.26,4.37,9,9,0,0,0,6.67.1,10.89,10.89,0,0,0,5.31-4.05,10.35,10.35,0,0,0,1.78-5.14,10,10,0,0,0-.39-3.62c-.27-.82-.52-1.23-.57-1.21s.65,1.83.3,4.77a10.13,10.13,0,0,1-6.74,8.36,8.4,8.4,0,0,1-6,0,4.87,4.87,0,0,1-2.95-3.65,3.91,3.91,0,0,1,1-3.08c.55-.6,1-.77,1-.84"/><path class="cls-14" d="M859.94,364.72c.09,0,0-.88-.79-2.13a8.91,8.91,0,0,0-4.48-3.66l.05.83a25,25,0,0,0,2.81-1.56c5.31-3.35,7.94-7.86,7.71-7.94s-3.1,3.93-8.22,7.15c-.91.58-1.83,1.1-2.7,1.54l-1,.48,1,.35a9.4,9.4,0,0,1,4.32,3.13c.83,1.08,1.14,1.86,1.25,1.81"/><path class="cls-14" d="M898.24,351.58c-.17-.17-1.48,1.26-1.62,3.54s.93,3.86,1.13,3.71-.34-1.68-.19-3.65.91-3.44.68-3.6"/><path class="cls-13" d="M324.41,394.38s-18-29.11-21.15-31.58-31.61-12.88-34-12.11-36.89,6.65-32.93,10.74,28-.35,28-.35l3.22,1.61s-20.76,3.31-25.13,5.83c-4,2.33-2.64,7.25,1.16,6.86s21.84-3.88,22.91-3.14-19.62,4.86-21.85,6.18c-3,1.77-3.29,7.1.49,6.84,2.23-.16,21.74-5.2,21.74-5.2s-15.47,6-16.9,7.32c-2.33,2.22-.48,5.59,2.87,4.85,2.3-.51,13.23-5.72,16.32-6.39,0,0,2.88.77,5.49,6.59,1.22,2.72,6.77,19.69,16.93,19.46,9-.19,17.83,7.23,17.83,7.23Z"/><path class="cls-14" d="M236.36,361.51c-.06.19,2.27,1.16,6.28,1.74a36.71,36.71,0,0,0,7.1.29c2.63-.29,5.51-.69,8.53-1.11l6.43-.94-.38,0c8.49,3,14.72,5,14.85,4.67s-5.88-2.89-14.33-6.12l-.17-.07-.22,0-6.37.86-8.44,1.24a45.66,45.66,0,0,1-6.89.05c-3.92-.27-6.33-.84-6.39-.6"/><path class="cls-13" d="M310.94,390.93c-2.1,1.95-5.55,1.47-8,0s-4.34-3.74-6.69-5.39c-7-4.94-17.1-3.77-23.86-9-.94-.73-1.88-1.93-1.36-3s1.83-1.11,2.94-1.08l28.38.68"/><path class="cls-14" d="M302.35,373.08a10.77,10.77,0,0,0-3.06-.39c-2-.15-4.83-.3-8.36-.46l-12.41-.47-3.59-.12c-1.14.06-2.65-.38-4.17.87a2.4,2.4,0,0,0-.46,2.64,4.91,4.91,0,0,0,1.42,1.84,18.74,18.74,0,0,0,3.57,2.2c5.11,2.36,10.35,2.8,14.7,4.2a21.38,21.38,0,0,1,5.83,2.65c1.65,1.12,3,2.49,4.43,3.61,2.72,2.41,5.94,3.27,8,2.83s2.78-1.55,2.71-1.55a8.49,8.49,0,0,1-2.79.92c-1.9.19-4.64-.67-7.16-3.07-1.31-1.14-2.65-2.56-4.4-3.84a22.08,22.08,0,0,0-6.15-3c-4.51-1.52-9.73-2-14.46-4.25a17,17,0,0,1-3.22-2c-.92-.74-1.37-1.74-.87-2.12s1.79-.48,3-.44l3.59.06,12.42.12c3.53,0,6.4,0,8.38-.05a11.5,11.5,0,0,0,3.07-.24"/><path class="cls-5" d="M464.3,1039l-6.56,72.19-21.65,55.61a7.42,7.42,0,0,0,11.4,8.61c12.19-9.28,56.88-43.68,57.06-49,.21-6.15,12-75.69,12-75.69Z"/><g class="cls-15"><g class="cls-16"><path class="cls-8" d="M440.79,1176.57l64.32-55-.35,3a11.2,11.2,0,0,1-3.46,6.91c-5.18,4.85-19.8,17.94-53.59,43.92a7.41,7.41,0,0,1-6.92,1.14"/></g></g><g class="cls-15"><g class="cls-17"><path class="cls-8" d="M493,1096.63a4.5,4.5,0,0,0-1.89,5.7,4.34,4.34,0,0,0,5.63,1.92c2-1,3.15-4.18,2-6s-4.41-2.8-6.08-1.35"/></g></g><path class="cls-18" d="M460.84,1147c-.43.15-1.62-3.81-5.68-6.33s-8.07-2.07-8.11-2.53c0-.18.94-.64,2.65-.68a11.87,11.87,0,0,1,10.66,6.84c.67,1.58.66,2.66.48,2.7"/><path class="cls-18" d="M454.61,1156c-.38.27-2.42-2.34-6-3.83s-6.86-1.24-6.93-1.71,3.48-1.52,7.56.25,5.8,5.13,5.4,5.29"/><path class="cls-18" d="M471.8,1135.7c-.38.31-3.5-3.72-8.9-6.53s-10.44-3.22-10.4-3.71,5.39-.78,11.14,2.31,8.53,7.77,8.16,7.93"/><path class="cls-18" d="M475.63,1113.92c-.24.41-4-1.7-9.19-2.48s-9.4,0-9.5-.47,4.21-2,9.75-1.1,9.2,3.75,8.94,4.05"/><path class="cls-18" d="M478.09,1092.78c-.27.39-4-2.47-9.49-2.84s-9.62,1.74-9.83,1.31c-.1-.16.79-1,2.56-1.75a16.25,16.25,0,0,1,14.51,1.15c1.62,1,2.37,2,2.25,2.13"/><path class="cls-18" d="M469.18,1085.93a6.41,6.41,0,0,1,.21-2.74,19.11,19.11,0,0,1,3-6.88c.93-1.25,1.94-2.88,4.06-3.6a3,3,0,0,1,3.27,1,4.84,4.84,0,0,1,.76,3.38c-.59,4.57-5,8.54-10.24,8.61a12.17,12.17,0,0,1-11.16-7.68,4.24,4.24,0,0,1,.2-3.52,2.94,2.94,0,0,1,3.22-1.19c2.1.56,3.31,2,4.46,3a21.3,21.3,0,0,1,4.28,6.15,6.37,6.37,0,0,1,.82,2.62c-.27.16-1.41-3.75-5.88-8-1.13-1-2.43-2.21-4-2.53a1.56,1.56,0,0,0-1.76.64,2.9,2.9,0,0,0,0,2.32,10.87,10.87,0,0,0,9.76,6.55c4.39,0,8.28-3.51,8.8-7.18a3.56,3.56,0,0,0-.44-2.39,1.63,1.63,0,0,0-1.8-.6c-1.46.41-2.57,1.81-3.49,3-3.63,5-3.79,9.08-4.1,9"/><path class="cls-18" d="M530.68,1081.33l54-427.81-17.28-99.45-101.89,5.4-12.68,514a7.87,7.87,0,0,0,6.34,7.92l59.34,9.14a10.6,10.6,0,0,0,12.14-9.16"/><path class="cls-18" d="M583.16,667.87l98.26,97.25L540,799.5l10.06,71.33,191.38-26a60.23,60.23,0,0,0,41.65-93.59L634.05,532.35l-66.62,21.71Z"/><path class="cls-19" d="M577.73,643.12c.39-.09,1.92,5.38,3.42,12.22s2.4,12.45,2,12.53-1.91-5.39-3.41-12.22-2.4-12.45-2-12.53"/><path class="cls-19" d="M563.42,808.48s.78-.28,2.33-.78l6.88-2.13,26.37-8,96-28.86-.24.91L576.75,644l1.22-.4c-2.34,19.74-4.78,40.35-7.27,61.37-12.16,101.9-23.59,194.09-32.44,260.74C533.87,999,530,1026,527.17,1044.56c-1.57,9.27-2.61,16.5-3.68,21.34-.51,2.39-.9,4.22-1.18,5.51s-.45,1.86-.45,1.86.08-.65.31-1.9.59-3.13,1-5.53c1-4.84,1.92-12.09,3.41-21.37,2.66-18.61,6.37-45.55,10.63-78.9,8.6-66.68,19.87-158.88,32-260.78,2.5-21,4.94-41.63,7.28-61.37l.18-1.51,1,1.11L695.51,768.84l.62.66-.86.26-96.09,28.39-26.45,7.73-6.93,2c-1.57.44-2.38.62-2.38.62"/><path class="cls-19" d="M531.61,1073.26c-.39,0,10.83-90.85,25.07-202.78s26.09-202.67,26.48-202.62-10.83,90.83-25.06,202.8-26.09,202.65-26.49,202.6"/><path class="cls-19" d="M567.2,597.84c.19-.05,1.08,2.48,2.28,6.63s2.7,9.95,4.11,16.4,2.45,12.33,3.08,16.61.89,6.95.7,7-.8-2.58-1.69-6.8l-3.49-16.49c-1.39-6.16-2.63-11.73-3.69-16.44-1-4.21-1.49-6.83-1.3-6.89"/><path class="cls-19" d="M573.52,589.46c-.15-.08,1.38-1.34,4-.43a4.64,4.64,0,0,1,3,3.52,5.1,5.1,0,0,1-2.22,5.21,4.94,4.94,0,0,1-5.65-.56,4.34,4.34,0,0,1,.56-6.9c.64-.36,1.06-.35,1.09-.27s-1.51.76-1.94,3a3.2,3.2,0,0,0,1.13,3.19,3.73,3.73,0,0,0,4.06.34,3.87,3.87,0,0,0,1.67-3.77,3.69,3.69,0,0,0-2.09-2.8c-2-1-3.53-.27-3.58-.5"/><path class="cls-19" d="M710.36,781.76c-.29.33-5.82-4.76-13.79-9.35s-15.09-6.93-15-7.35,7.57,1.36,15.69,6.11,13.33,10.37,13.06,10.59"/><path class="cls-5" d="M498,262.44l-56.42,27.24,24.32,169.73-9.55,76.19a29.74,29.74,0,0,0,9.94,26.12l91.12-1.8,63.8-35.08,29.31-5-12-58,5.37-82.27,66.7,35.61a23.22,23.22,0,0,0,16.75,2l122.27-31.62-6.35-47.11L732.55,351l-84.29-74.48-62.74-14.1L574.33,244H510.14l-4.49,3.37a13.39,13.39,0,0,0-4.64,6.35Z"/><path class="cls-5" d="M441.56,289.68s-18.51,11.72-25.4,33.13c-6.45,20-21,101-21,101l-64.1-39.77-36.94,38.82,85.45,75.36a43.46,43.46,0,0,0,47.58,6.56h0a43.45,43.45,0,0,0,24.19-33.26l10.49-76.8Z"/><polygon class="cls-13" points="634.05 532.35 630.08 526.51 587.89 534.31 580.13 552.28 634.05 532.35"/><path class="cls-5" d="M466.27,561.72c37.7,15.17,78,9.59,113.85-9.44C591,546.54,601,539.4,611.9,533.74s23-9.85,35.2-9,24.58,7.62,29.47,18.86,0,26.56-11.52,30.76l4.08,3.64c16.93-7.87,25-30.67,16.7-47.41-6.34-12.84-19.65-20.5-29.4-31-14.34-15.42-15.83-45.26-15.92-68.49"/><path class="cls-18" d="M549,295.25a13.15,13.15,0,0,1-2.78.16c-1.7.3-4.49.65-6.68,3.08s-3.39,6.3-3.33,10.76a35.81,35.81,0,0,0,3.06,14.43l1.06,2.37-2.08-1.54A111.35,111.35,0,0,1,524,311.94c-10.88-11.36-18.19-23.86-21.85-33.46a73.5,73.5,0,0,1-3.55-11.63,25.87,25.87,0,0,1-.63-4.41c.32-.08,1.12,6.28,5.12,15.67A110.08,110.08,0,0,0,525.05,311a116,116,0,0,0,14,12.48l-1,.83a32.76,32.76,0,0,1-2.35-7.72,33.23,33.23,0,0,1-.63-7.3c0-4.63,1.38-8.85,3.87-11.33a10.6,10.6,0,0,1,7.26-2.94,13.92,13.92,0,0,1,2.8.28"/><path class="cls-5" d="M552.35,295.25c4.65-2,11.53,1,14.86,4.76,2.2,2.51,3.44,6,6.35,7.64s12.07,2.93,14.74.9c0,0,1.63-7.84,2.49-11.09,3.38-12.85,4.84-24.54,6.27-37.65-8.88-4.3-6.43-10-22.4-8.88,0,0,4,11.78.55,22.51"/><path class="cls-18" d="M575.22,273.44c-.15,0,.58-2.13.92-6a44.47,44.47,0,0,0-2-16.3l-.21-.67.67,0c3.53-.2,7.6-.52,11.79,1.06a18,18,0,0,1,5.43,3.92,21.88,21.88,0,0,0,5.52,3.81l.43.21,0,.48c-.71,6.68-1.52,14-2.79,21.51-.83,4.92-1.82,9.69-3,14.24s-2.06,8.91-3,13.05l-.07.27-.18.12a8.91,8.91,0,0,1-4.71,1.15,27.67,27.67,0,0,1-4.42-.29,26.21,26.21,0,0,1-4.12-.9,8.77,8.77,0,0,1-3.62-2c-2-1.87-3-4.09-4.24-5.81a14.76,14.76,0,0,0-4.33-3.94,15.46,15.46,0,0,0-7.92-2.48,18.31,18.31,0,0,0-3,.42,6.15,6.15,0,0,1,3-.84,15.1,15.1,0,0,1,8.34,2.22,15.42,15.42,0,0,1,4.7,4.05c1.37,1.78,2.44,4,4.21,5.57s4.46,2.06,7.16,2.47A25.6,25.6,0,0,0,584,309a7.83,7.83,0,0,0,3.95-.93l-.24.39c.94-4.16,1.83-8.6,3-13.12s2.09-9.25,2.92-14.14c1.25-7.48,2.09-14.74,2.84-21.42l.38.69a23.16,23.16,0,0,1-5.8-4.08,17,17,0,0,0-5-3.74c-3.75-1.48-7.77-1.29-11.24-1.15l.47-.7a42.58,42.58,0,0,1,1.57,16.71,27.46,27.46,0,0,1-.94,4.49,7.5,7.5,0,0,1-.57,1.49"/><path class="cls-18" d="M669.24,533.31c-.11,0,.12-1.1,0-3.16a19.3,19.3,0,0,0-2.71-8.49,28.43,28.43,0,0,0-10.12-9.78c-4.78-2.83-11.06-4.37-18-4.95s-14.74-.26-23.08-.82a86.59,86.59,0,0,1-26-5.52,53.66,53.66,0,0,1-23.49-17.54A40.91,40.91,0,0,1,559,468.91a54.11,54.11,0,0,1-1.54-16c.42-10.89,2.93-21.21,4.43-31.22a233.62,233.62,0,0,0,2.76-29.08A241,241,0,0,0,561,343.28a244.41,244.41,0,0,0-8.11-32.38c-1.18-3.77-2.25-6.64-2.94-8.6-.31-.92-.57-1.66-.76-2.24a3.53,3.53,0,0,1-.22-.78,3.34,3.34,0,0,1,.35.73c.24.56.53,1.29.9,2.19.78,1.93,1.93,4.78,3.2,8.52A226.26,226.26,0,0,1,562,343.1a236.82,236.82,0,0,1,4,49.51,234.36,234.36,0,0,1-2.69,29.26c-1.5,10.07-4,20.35-4.39,31.05-.56,10.65,1.9,21.27,8,29.3a52.52,52.52,0,0,0,22.85,17.14,85.76,85.76,0,0,0,25.63,5.56c8.23.61,16,.29,23.08,1s13.49,2.3,18.37,5.28A28.44,28.44,0,0,1,667,521.38a18.89,18.89,0,0,1,2.52,8.75,11,11,0,0,1-.13,2.38,3.67,3.67,0,0,1-.13.8"/><path class="cls-18" d="M628.07,483.1a27,27,0,0,1-3.18,3.29c-1,1-2.35,2.27-4,3.62s-3.35,3-5.47,4.54a151,151,0,0,1-15.22,10.52A167,167,0,0,1,580,515.34a169.69,169.69,0,0,1-21.5,7.21A151.07,151.07,0,0,1,540.33,526c-2.61.4-5,.53-7.07.72s-3.89.26-5.36.28a27.87,27.87,0,0,1-4.57,0,30.35,30.35,0,0,1,4.54-.51c1.46-.1,3.25-.25,5.31-.52s4.43-.46,7-.92a169.35,169.35,0,0,0,18-3.74,164.46,164.46,0,0,0,41.38-17.33,166.7,166.7,0,0,0,15.28-10.2c2.15-1.51,3.94-3.06,5.58-4.34s3-2.45,4.1-3.42a29.07,29.07,0,0,1,3.55-2.88"/><path class="cls-18" d="M610.34,392.7a6.27,6.27,0,0,1-.24,1.52c-.26,1.14-.57,2.56-1,4.29a67.12,67.12,0,0,1-1.82,6.72c-.83,2.59-1.63,5.58-2.93,8.75l-1.93,5c-.68,1.74-1.55,3.48-2.37,5.32-1.58,3.71-3.68,7.46-5.8,11.46a158.95,158.95,0,0,1-37.65,44.88c-3.57,2.79-6.9,5.51-10.28,7.71-1.67,1.13-3.22,2.29-4.82,3.26l-4.6,2.77c-2.89,1.83-5.7,3.14-8.1,4.41a67.12,67.12,0,0,1-6.3,3l-4.06,1.69a6.15,6.15,0,0,1-1.45.5,5.78,5.78,0,0,1,1.33-.76l3.94-1.94c1.73-.8,3.82-1.81,6.17-3.16s5.11-2.69,7.95-4.57l4.52-2.83c1.57-1,3.1-2.17,4.74-3.3,3.32-2.22,6.6-5,10.12-7.76a163.75,163.75,0,0,0,37.34-44.52c2.14-3.94,4.26-7.65,5.87-11.3.84-1.82,1.73-3.53,2.43-5.25s1.36-3.36,2-4.94c1.35-3.13,2.22-6.08,3.11-8.63s1.56-4.78,2.05-6.62.89-3.1,1.22-4.22a6,6,0,0,1,.52-1.45"/><path class="cls-18" d="M494.28,575.54c-.09.13-2.21-1-5-3.74a38.23,38.23,0,0,1-11.49-27.33c.05-3.89.69-6.23.84-6.2s0,2.4.17,6.18A43.13,43.13,0,0,0,490,571.1c2.56,2.79,4.45,4.25,4.3,4.44"/><path class="cls-18" d="M492.27,554.11c.41.11-.35,3.64.05,8s1.69,7.7,1.3,7.88-2.36-3.1-2.73-7.76,1-8.24,1.38-8.1"/><path class="cls-18" d="M465.11,455.57a4.54,4.54,0,0,1-.33-1.29c-.19-1-.41-2.25-.69-3.74-.58-3.48-1.36-8.13-2.3-13.79-1.94-11.64-4.68-27.71-8-45.41s-6.54-33.69-8.93-45.25l-2.81-13.69c-.28-1.49-.52-2.72-.71-3.73a4.74,4.74,0,0,1-.16-1.33,4.53,4.53,0,0,1,.44,1.26c.26,1,.59,2.21,1,3.68.82,3.19,1.94,7.84,3.26,13.6,2.65,11.51,6,27.47,9.35,45.19s5.89,33.84,7.57,45.53c.84,5.84,1.47,10.58,1.86,13.86.16,1.5.3,2.75.41,3.78a4.63,4.63,0,0,1,.05,1.33"/><path class="cls-18" d="M641.26,455.57a4.66,4.66,0,0,1-.14-1.36c0-1.06-.07-2.35-.12-3.91-.08-3.39-.09-8.3,0-14.37.11-12.14.64-28.91,2-47.38s3.26-35.15,4.7-47.19c.73-5.85,1.35-10.67,1.8-14.26.23-1.54.41-2.82.57-3.86a4.8,4.8,0,0,1,.29-1.34,4.83,4.83,0,0,1,0,1.37c-.09,1.06-.19,2.34-.3,3.9-.35,3.59-.8,8.43-1.36,14.3-1.17,12.07-2.88,28.74-4.28,47.19S642.34,423.83,642,436c-.16,5.89-.3,10.75-.4,14.36l-.15,3.9a4.83,4.83,0,0,1-.15,1.36"/><path class="cls-18" d="M421.19,462.67c-.48.21-4.11-9.82-11.12-20.72s-15.27-17.76-14.91-18.12c.11-.13,2.27,1.43,5.39,4.39a74.53,74.53,0,0,1,10.72,12.95,90,90,0,0,1,7.73,14.9c1.61,4,2.37,6.53,2.19,6.6"/><path class="cls-18" d="M425.93,450.7c-.23.1-1.16-2.09-3.09-5.35a43.05,43.05,0,0,0-9.51-11.14,61.26,61.26,0,0,0-12.59-7.67c-3.46-1.61-5.66-2.5-5.58-2.71s2.37.39,6,1.78a49.17,49.17,0,0,1,13.1,7.49,37.53,37.53,0,0,1,9.49,11.76c1.74,3.46,2.34,5.79,2.2,5.84"/><path class="cls-20" d="M454.27,384.51a3.94,3.94,0,0,1-.57,1.22,12.63,12.63,0,0,1-2.52,2.94,16.76,16.76,0,0,1-13.49,3.64c-6.08-.9-12.56-5.29-16.94-12a57.27,57.27,0,0,1-5.59-11.12c-.77-2-1.54-4-2.19-6.2a16.89,16.89,0,0,1-.78-6.91,9.48,9.48,0,0,1,3.35-6.25,8,8,0,0,1,6.8-1.21,13.3,13.3,0,0,1,9.06,8.58,12.93,12.93,0,0,1-1.13,11.26,14,14,0,0,1-7.85,6,12.6,12.6,0,0,1-8.15-.39,14,14,0,0,1-5.09-3.46,11.72,11.72,0,0,1-2.14-3.22,3.64,3.64,0,0,1-.41-1.29,18.73,18.73,0,0,0,2.95,4.13,14,14,0,0,0,5,3.09,11.85,11.85,0,0,0,7.57.17,13,13,0,0,0,7.14-5.67,11.73,11.73,0,0,0,.9-10.19A12,12,0,0,0,422,350a6.58,6.58,0,0,0-5.61,1,8.1,8.1,0,0,0-2.8,5.31c-.5,4.26,1.46,8.45,2.86,12.41a56.74,56.74,0,0,0,5.38,10.9c4.17,6.49,10.29,10.73,16,11.71a16.49,16.49,0,0,0,13-3.07,19.44,19.44,0,0,0,3.44-3.73"/><path class="cls-20" d="M562.47,426.78a4.74,4.74,0,0,1-.75.65l-2.29,1.78a61.83,61.83,0,0,1-9.48,6,29.4,29.4,0,0,1-7.72,2.57,20.13,20.13,0,0,1-9.65-.63c-6.75-2.15-12.91-7.92-17.44-15.35a56,56,0,0,1,.51-58.48c3.08-4.85,7.2-9.6,13-12.11a16.92,16.92,0,0,1,9.27-1.17,12.82,12.82,0,0,1,8.32,4.7,13.54,13.54,0,0,1,2.59,9.37,21.73,21.73,0,0,1-3,9.37,30.46,30.46,0,0,1-15.31,12.4,39.21,39.21,0,0,1-19.64,2,40.36,40.36,0,0,1-17.71-7.33c-10.32-7.48-17-18.34-20.82-29.18-1.87-5.41-3.4-11.09-2.53-16.71A17,17,0,0,1,473,327a11.77,11.77,0,0,1,6.72-4.38,14.74,14.74,0,0,1,13.86,4.79c3.34,3.74,4.1,8.87,3.35,13.2a21,21,0,0,1-5.65,11.11,26.94,26.94,0,0,1-9.31,6.09,42.54,42.54,0,0,1-17.48,2.65,100.28,100.28,0,0,1-11.13-1.14l-2.86-.46a4,4,0,0,1-1-.21,5.66,5.66,0,0,1,1,.07l2.88.32c2.54.27,6.28.75,11.11.86a42.45,42.45,0,0,0,17.16-2.83,26.2,26.2,0,0,0,8.95-6,20,20,0,0,0,5.31-10.65c.68-4.1-.09-8.91-3.18-12.29A13.6,13.6,0,0,0,480,323.82c-4.83,1-8.21,5.89-8.95,11s.65,10.74,2.53,16.07c3.8,10.63,10.36,21.24,20.38,28.47a39,39,0,0,0,17.11,7.07A37.92,37.92,0,0,0,530,384.5a29.17,29.17,0,0,0,14.59-11.8,20.06,20.06,0,0,0,2.79-8.73,12.11,12.11,0,0,0-2.28-8.42,11.39,11.39,0,0,0-7.43-4.19,15.59,15.59,0,0,0-8.52,1.06c-5.36,2.31-9.37,6.84-12.38,11.57a55,55,0,0,0-.75,57.23c4.39,7.33,10.35,13,16.81,15.12s12.62.3,16.89-1.68a66,66,0,0,0,9.55-5.69l2.38-1.66a5.59,5.59,0,0,1,.83-.53"/><path class="cls-20" d="M486.54,272.36a8.13,8.13,0,0,1-.88,2.46,38.41,38.41,0,0,1-3.53,6.19,45.32,45.32,0,0,1-40.79,19.47,39.69,39.69,0,0,1-7-1.15,8.14,8.14,0,0,1-2.46-.87c.06-.26,3.64.79,9.55,1a47.27,47.27,0,0,0,39.92-19.05c3.56-4.73,5-8.18,5.23-8.06"/><path class="cls-20" d="M527.2,284.08c0,.42-4.12.63-7.77,3.81s-4.62,7.16-5,7c-.17,0-.22-1.09.32-2.71a12.87,12.87,0,0,1,9.73-8.27c1.69-.27,2.74,0,2.74.13"/><path class="cls-20" d="M585.4,300.25a6.2,6.2,0,0,1-2.33-1.07,19.2,19.2,0,0,1-5.18-4.76,18.72,18.72,0,0,1-3.81-9.76,9.25,9.25,0,0,1,1.69-6.18,6.38,6.38,0,0,1,6.37-2.7,7.07,7.07,0,0,1,5,4.81,6.65,6.65,0,0,1-1.26,6.33,8.92,8.92,0,0,1-10,2.64,11.26,11.26,0,0,1-5.44-4.5,5.23,5.23,0,0,1-1-2.37c.11-.05.48.79,1.48,2.05a11.47,11.47,0,0,0,5.32,3.87,7.89,7.89,0,0,0,8.6-2.51,5.27,5.27,0,0,0,1-5.08,5.74,5.74,0,0,0-4-3.84,5,5,0,0,0-5,2.15,8,8,0,0,0-1.49,5.27,18.32,18.32,0,0,0,3.31,9.22c3.33,4.72,6.88,6.2,6.69,6.43"/><path class="cls-20" d="M596.38,268.13c-.34.28-3.34-4.05-9.09-6.34s-10.88-1.44-10.92-1.87c0-.17,1.19-.67,3.32-.83a18.68,18.68,0,0,1,14.9,6.12c1.4,1.61,1.93,2.83,1.79,2.92"/><path class="cls-20" d="M672.05,300.16a2.07,2.07,0,0,1-.54.34l-1.66.86a70,70,0,0,1-6.61,2.81,79.64,79.64,0,0,1-25.92,4.88,37,37,0,0,1-8.8-.86,19.13,19.13,0,0,1-8.69-4.23,12.84,12.84,0,0,1-4.25-9.42,15.89,15.89,0,0,1,3.66-10.35c5-6,14-7.9,21.91-5.63a25.51,25.51,0,0,1,17.56,17,25.11,25.11,0,0,1-5.24,23.86c-5.54,6.2-13.21,9.28-20.38,11s-14.36,1.79-20.87,2.11a114.29,114.29,0,0,0-18,1.76C583.33,336.39,575.65,342,572,346.9s-4,8.66-4.22,8.55c0,0,0-.21.09-.63a16.62,16.62,0,0,1,.44-1.82,21.78,21.78,0,0,1,3.25-6.43c3.57-5.14,11.34-11,22.41-13.3a112.75,112.75,0,0,1,18.17-2c6.52-.36,13.54-.55,20.63-2.21s14.41-4.72,19.63-10.61A23.72,23.72,0,0,0,657.34,296a24.17,24.17,0,0,0-16.57-16.07c-7.42-2.17-15.9-.31-20.52,5.13a14.62,14.62,0,0,0-3.41,9.48,11.66,11.66,0,0,0,3.8,8.57,18.07,18.07,0,0,0,8.13,4,36.26,36.26,0,0,0,8.54.91,82.43,82.43,0,0,0,25.74-4.38c3-1,5.17-1.92,6.68-2.55a17.75,17.75,0,0,1,2.32-.94"/><path class="cls-20" d="M603.4,408.23c-.23.1-1.19-2.31-3.7-5.53a28.29,28.29,0,0,0-28.13-10.57c-4,.77-6.32,1.95-6.42,1.72s2.1-1.65,6.2-2.71a27.18,27.18,0,0,1,29.16,11c2.39,3.5,3,6.09,2.89,6.13"/><path class="cls-20" d="M635.55,429c.12.05-.81,2.55-3.77,5.56A23,23,0,0,1,601.61,437c-3.39-2.51-4.71-4.83-4.59-4.89s1.77,1.87,5.16,4.06a23.47,23.47,0,0,0,28.9-2.29c3-2.7,4.25-5,4.47-4.83"/><path class="cls-20" d="M643.91,374.29c-.12.2-1.77-.8-4.7-1.57a20.18,20.18,0,0,0-21.08,6.74c-1.93,2.33-2.7,4.1-2.92,4s.3-2,2.12-4.62a19.29,19.29,0,0,1,22.18-7.09c3,1.08,4.5,2.42,4.4,2.54"/><path class="cls-20" d="M746.45,349a11.15,11.15,0,0,1,.5,2,16.22,16.22,0,0,1,.35,2.54,21.53,21.53,0,0,1,.09,3.49,34.93,34.93,0,0,1-7.89,20.51,36.31,36.31,0,0,1-11.86,9.78,36.93,36.93,0,0,1-17.19,3.95,46.27,46.27,0,0,1-35.35-17.5,27.55,27.55,0,0,1-5-9.53,18.08,18.08,0,0,1,.17-10.51,13.38,13.38,0,0,1,6.44-7.85,14.86,14.86,0,0,1,9.68-1.15,16.41,16.41,0,0,1,8.18,4.35,18.81,18.81,0,0,1,4.49,7.46,25.05,25.05,0,0,1-.12,15.35,29.24,29.24,0,0,1-6.5,10.91,29.65,29.65,0,0,1-7.57,5.85,28.1,28.1,0,0,1-5.62,2.24,10.63,10.63,0,0,1-2.07.39,40.26,40.26,0,0,0,7.41-3.11A29.64,29.64,0,0,0,698,371.59a24.11,24.11,0,0,0,0-14.68A17.6,17.6,0,0,0,693.7,350a15.16,15.16,0,0,0-7.55-3.94,13.53,13.53,0,0,0-8.79,1.07,12,12,0,0,0-5.73,7.08,16.69,16.69,0,0,0-.14,9.68,26.32,26.32,0,0,0,4.74,9A45.17,45.17,0,0,0,710.46,390a35.88,35.88,0,0,0,16.64-3.69,35.43,35.43,0,0,0,11.61-9.36,35,35,0,0,0,8.12-19.9c.28-5.18-.59-8-.38-8"/><path class="cls-20" d="M767.68,406c-.06.06-.7-.58-1.67-1.88a19.68,19.68,0,0,1-3-6.23,25.59,25.59,0,0,1-.42-10.25,96,96,0,0,1,2.79-12.15,86.52,86.52,0,0,1,9.85-20.32c1.55-2.43,2.86-4.36,3.79-5.67a8.7,8.7,0,0,1,1.57-2c.18.12-1.62,3.19-4.49,8.17s-6.78,11.9-9.34,20.2a108.56,108.56,0,0,0-2.86,11.93,26,26,0,0,0,.09,9.81c1.39,5.48,4,8.19,3.7,8.36"/><path class="cls-20" d="M819.79,342.64c.09,0,.39.66.83,2a34.8,34.8,0,0,1,1.39,5.65,50.75,50.75,0,0,1-8.12,36.79,35.42,35.42,0,0,1-3.64,4.55c-1,1-1.51,1.5-1.58,1.44s1.82-2.43,4.37-6.54a56,56,0,0,0,8-36.09c-.59-4.8-1.47-7.7-1.22-7.77"/><path class="cls-20" d="M639.72,471.33a4.74,4.74,0,0,1-1.21-.61,29.23,29.23,0,0,0-3.35-1.83,39.38,39.38,0,0,0-13.42-3.76,40.84,40.84,0,0,0-20.21,3.24,34.73,34.73,0,0,0-10.09,6.68,20.73,20.73,0,0,0-4,4.92,9.93,9.93,0,0,0-1.39,6,7.23,7.23,0,0,0,2.94,5.17,5.88,5.88,0,0,0,5.61.25c3.76-1.6,5.22-5.94,5.1-9.66a19.54,19.54,0,0,0-10.2-16.56,20.13,20.13,0,0,0-13.47-1.78,39.47,39.47,0,0,0-4.9,1.59,4.75,4.75,0,0,1,1.13-.74,18.74,18.74,0,0,1,3.63-1.39A20.2,20.2,0,0,1,590,464.31a20.54,20.54,0,0,1,11.06,17.44,14.35,14.35,0,0,1-1.17,6.21,9.37,9.37,0,0,1-4.69,4.76,7.31,7.31,0,0,1-7-.35,8.56,8.56,0,0,1-3.58-6.19,11.32,11.32,0,0,1,1.56-6.91,22.08,22.08,0,0,1,4.25-5.24A35.92,35.92,0,0,1,601,467.15a41.19,41.19,0,0,1,20.85-3,37.5,37.5,0,0,1,13.56,4.27,22.76,22.76,0,0,1,3.26,2.08c.72.53,1.08.82,1.05.86"/><path class="cls-20" d="M649.67,494.1c.33.22-1.16,3-3.33,6.31s-4.19,5.75-4.52,5.53,1.16-3.05,3.33-6.32,4.19-5.74,4.52-5.52"/><path class="cls-20" d="M684.61,533.5c-.22.06-.61-1-1.56-2.41a14.29,14.29,0,0,0-11.19-6.23c-1.71-.06-2.8.16-2.87-.06s1-.75,2.84-.95a12.27,12.27,0,0,1,7.06,1.55,12.39,12.39,0,0,1,5,5.18c.81,1.7.84,2.88.68,2.92"/><path class="cls-20" d="M570.93,519.46c.1.21-3.31,1.9-8.62,4.93s-12.54,7.56-18.72,14.47-9.25,15-9.91,21,.46,9.77.15,9.81a8.37,8.37,0,0,1-.78-2.57,26,26,0,0,1-.38-7.34c.41-6.22,3.48-14.73,9.85-21.88s13.88-11.56,19.3-14.41c2.74-1.42,5-2.46,6.59-3.13a9.69,9.69,0,0,1,2.52-.91"/><path class="cls-20" d="M611.37,532.9c-.09.11-1.54-.9-3-3.31A18.38,18.38,0,0,1,610.08,509c1.84-2.13,3.44-2.89,3.51-2.76s-1.19,1.23-2.71,3.38a19.77,19.77,0,0,0-1.62,19.46c1.14,2.36,2.29,3.61,2.11,3.78"/><path class="cls-20" d="M548.16,483c-.06,0-.48-.62-1.57-1.59a11.48,11.48,0,0,0-5.74-2.55,14.3,14.3,0,0,0-9.6,2c-3.38,2-6.43,5.42-9.11,9.62s-5,9.21-8.5,14.11A30.05,30.05,0,0,1,498.46,516a28.07,28.07,0,0,1-20.82-1.21,29.81,29.81,0,0,1-15.33-16.33,17.8,17.8,0,0,1-.47-11.61,16.26,16.26,0,0,1,7.14-8.75,16.77,16.77,0,0,1,10.64-2.44,17.54,17.54,0,0,1,9.44,4.49,23.15,23.15,0,0,1,7.47,17.3,28.6,28.6,0,0,1-5.14,15.72,32,32,0,0,1-9.95,9.36,39.67,39.67,0,0,1-9.45,4.11,41.86,41.86,0,0,1-6.37,1.34c-.73.11-1.3.15-1.68.18s-.57,0-.57,0a17.85,17.85,0,0,1,2.21-.46,51.32,51.32,0,0,0,6.24-1.59,40.63,40.63,0,0,0,9.19-4.26,31.3,31.3,0,0,0,9.54-9.25,27.64,27.64,0,0,0,4.79-15.15,22,22,0,0,0-7.16-16.31,16.24,16.24,0,0,0-8.73-4.12,15.43,15.43,0,0,0-9.74,2.27,15,15,0,0,0-6.51,8,16.43,16.43,0,0,0,.46,10.68,28.51,28.51,0,0,0,14.57,15.55,26.79,26.79,0,0,0,19.82,1.22,28.92,28.92,0,0,0,14.63-10.78c3.43-4.73,5.79-9.75,8.61-14s6-7.73,9.56-9.76a14.81,14.81,0,0,1,10.1-1.86,11.35,11.35,0,0,1,5.83,2.88,7,7,0,0,1,1.38,1.81"/><path class="cls-20" d="M549.08,525.92c-.08.12-2-.95-4.44-3.51A30.31,30.31,0,0,1,537,496.87c.64-3.47,1.66-5.42,1.79-5.36s-.43,2.12-.79,5.51a33.65,33.65,0,0,0,7.37,24.73c2.16,2.63,3.84,4,3.68,4.17"/><path class="cls-20" d="M559.21,462.48c-.07.14-1.94-.93-5.53-2.34a66,66,0,0,0-39.64-3,52.88,52.88,0,0,0-13.2,4.95c-2,1.2-3.89,3-4.37,5.22s.78,4.93,2.84,5.54a3,3,0,0,0,2.91-.88,7.07,7.07,0,0,0,1.64-3.07,25.26,25.26,0,0,0,.64-7.31A33.17,33.17,0,0,0,501,448.12a31.7,31.7,0,0,0-7.76-10,30.9,30.9,0,0,0-9.59-5.51A33.59,33.59,0,0,0,467.67,431c-3.8.61-5.79,1.45-5.84,1.3a6.94,6.94,0,0,1,1.42-.64,27.55,27.55,0,0,1,4.33-1.21A32.72,32.72,0,0,1,484,431.66a31.76,31.76,0,0,1,10,5.56,32.62,32.62,0,0,1,8.18,10.3,34.1,34.1,0,0,1,3.75,14.05,26.55,26.55,0,0,1-.67,7.77,8.59,8.59,0,0,1-2,3.69,4.41,4.41,0,0,1-4.3,1.24,5.42,5.42,0,0,1-3.26-3,6.92,6.92,0,0,1-.6-4.23c.66-2.89,2.87-4.84,5-6.15a53.82,53.82,0,0,1,13.63-5,65.48,65.48,0,0,1,24.37-.89,61.81,61.81,0,0,1,15.79,4.63,37.32,37.32,0,0,1,4,2,5.7,5.7,0,0,1,1.32.83"/><path class="cls-20" d="M344.75,470.39c-.09-.11,1.7-1.33,4.42-4.07a38.53,38.53,0,0,0,8.65-13.66c2.34-6.33,3.29-15.1-.7-23.29a29.48,29.48,0,0,0-8.78-10.84,24.79,24.79,0,0,0-13.86-5.2,16,16,0,0,0-7.28,1.52,9.23,9.23,0,0,0-4.85,4.91,7.11,7.11,0,0,0,1,6.39,10.39,10.39,0,0,0,5.23,3.87c4.19,1.35,8.62.12,11.91-2a20.11,20.11,0,0,0,7.22-8.2c2.95-6.2,3.16-12,3.45-15.81.08-1.81.14-3.28.19-4.46a6.66,6.66,0,0,1,.13-1.57,6.1,6.1,0,0,1,.16,1.57c.05,1,.09,2.53.08,4.48-.13,3.85-.15,9.71-3.09,16.22a21.13,21.13,0,0,1-7.49,8.77c-3.45,2.31-8.26,3.75-13,2.28a11.66,11.66,0,0,1-6-4.36A8.45,8.45,0,0,1,321,419.3a10.61,10.61,0,0,1,5.54-5.73,17.31,17.31,0,0,1,7.95-1.67,26,26,0,0,1,14.67,5.51,30.74,30.74,0,0,1,9.13,11.4A28.83,28.83,0,0,1,361,441.74,33.86,33.86,0,0,1,358.77,453a37.17,37.17,0,0,1-9.21,13.69,28.38,28.38,0,0,1-3.48,2.86,6.11,6.11,0,0,1-1.33.82"/><path class="cls-20" d="M401.78,511.34a11.58,11.58,0,0,1-2.15-2.29,45,45,0,0,1-4.72-7.16A50.83,50.83,0,0,1,398.47,448a44.8,44.8,0,0,1,5.61-6.48,11.42,11.42,0,0,1,2.43-2c.21.2-3.23,3.11-7.21,9a52.28,52.28,0,0,0-3.48,52.82c3.16,6.4,6.19,9.74,6,9.91"/><path class="cls-20" d="M455.57,451.48c-.26.09-1.4-4.14-4.81-10.21a56.56,56.56,0,0,0-43.5-28.77c-6.93-.76-11.27-.16-11.28-.43a10.49,10.49,0,0,1,3-.52,47.67,47.67,0,0,1,8.37-.06,54.46,54.46,0,0,1,44.28,29.29,47.54,47.54,0,0,1,3.23,7.72,11.74,11.74,0,0,1,.7,3"/><g class="cls-10"><g class="cls-21"><path d="M530.77,528.51c-2.63,1.12-2.38,5.31-.18,7.13s5.32,1.88,8.17,1.75a106.25,106.25,0,0,0,81.54-45.8c-24.88,20.41-57.52,28.12-88.91,35.24"/></g></g><g class="cls-10"><g class="cls-22"><path d="M525.86,500.43c-2.71-4.15-.89-10,2.61-13.5s8.27-5.37,12.72-7.57a80.43,80.43,0,0,0,37.09-38.08c5-10.84,8.79-24.14,19.86-28.59-5.64,38.22-34.1,72.16-70.75,84.38"/></g></g><g class="cls-10"><g class="cls-23"><path d="M447.73,357.74a279.35,279.35,0,0,1-6.34,89.94c-1.48,6.25-3.18,12.54-3.07,19s4.09,13.84,9.15,17.79c4.58-10.52,4.66-20.67,6.58-32,1.74-10.22,4.64-34.07,4.65-34.42.4-20.88-4.52-38.75-12.54-57.56"/></g></g><g class="cls-10"><g class="cls-24"><path d="M499.6,267.39a109.66,109.66,0,0,0,31.15,58.44c6.09,5.93,13.65,11.42,22.14,11.14a51.85,51.85,0,0,1-4.25-32.44c7.29,4.6,14.64,9.22,22.67,12.33s16.89,4.66,25.32,2.88q2.64-22.86,5.29-45.73c.2-1.73.37-3.59-.47-5.11s-3.17-2.31-4.36-1a4.19,4.19,0,0,0-.86,2c-3.1,13.37-4.83,25.32-7.93,38.69-2.22,2.2-9.08,1.29-13.59-.37-3.94-1.46-5.44-4.71-8.05-8s-2.14-2.71-6-4.35c-7.09-3-20.71-.61-23.68,5.76s-.72,14.76,1.25,21a95.33,95.33,0,0,1-40.14-55.69"/></g></g><g class="cls-10"><g class="cls-25"><path d="M649.67,331.94c-.55,1.1,17.14,60.76,17.14,60.76l-22.93-13.07Z"/></g></g><path class="cls-13" d="M507.21,158.83v95a23,23,0,0,0,5.42,14.83,69.41,69.41,0,0,0,19.07,15.8l19.16,10.79,15.85-14.15a23.07,23.07,0,0,0,7.68-16.28c.27-6.92.27-13.9.27-13.9S601.51,249,604,222.51c1.18-12.46,1.56-38,1.62-61.54a51.51,51.51,0,0,0-47.27-51.46l-.76-.06a49.23,49.23,0,0,0-50.42,49.38"/><path class="cls-14" d="M574.66,250.92s-16.79-.4-33.67-13.06c0,0,7,20.1,33.6,19.9Z"/><path class="cls-18" d="M597.82,178a3.79,3.79,0,0,1-4,3.51,3.63,3.63,0,0,1-3.62-3.73,3.79,3.79,0,0,1,4-3.52,3.62,3.62,0,0,1,3.62,3.74"/><path class="cls-18" d="M598.9,171.66c-.52.45-3.21-1.91-7.28-2.23s-7.23,1.46-7.63.92c-.2-.23.35-1.09,1.73-1.93a10.49,10.49,0,0,1,6.16-1.35,10,10,0,0,1,5.74,2.4c1.18,1.06,1.53,2,1.28,2.19"/><path class="cls-18" d="M559.4,176.06a3.8,3.8,0,0,1-4,3.52,3.62,3.62,0,0,1-3.61-3.74,3.78,3.78,0,0,1,4-3.51,3.63,3.63,0,0,1,3.62,3.73"/><path class="cls-18" d="M558.79,169.1c-.51.46-3.21-1.9-7.28-2.23s-7.23,1.47-7.63.93c-.2-.24.35-1.09,1.74-1.93a10.41,10.41,0,0,1,6.16-1.35,10,10,0,0,1,5.74,2.39c1.17,1.06,1.52,2,1.27,2.19"/><path class="cls-18" d="M571.07,200.54c0-.23,2.57-.46,6.72-.65,1.05,0,2.05-.14,2.29-.84s0-1.89-.44-3.14c-.78-2.6-1.58-5.32-2.43-8.18-3.33-11.63-5.66-21.16-5.19-21.29s3.56,9.2,6.9,20.83c.79,2.86,1.56,5.59,2.28,8.21.3,1.21.87,2.61.2,4.13a2.63,2.63,0,0,1-1.83,1.38,7.07,7.07,0,0,1-1.79.09c-4.15-.11-6.71-.31-6.71-.54"/><path class="cls-18" d="M558.85,202.36c.67,0,.31,4.44,3.84,7.89s8.27,3.36,8.25,4c0,.28-1.12.77-3.11.66a11.05,11.05,0,0,1-6.92-3.07,9.59,9.59,0,0,1-2.93-6.59c0-1.86.57-2.92.87-2.87"/><path class="cls-18" d="M561.16,153.23c-.49,1.07-4.51.21-9.34.39s-8.8,1.16-9.35.12c-.25-.5.51-1.49,2.16-2.43a16.24,16.24,0,0,1,14.24-.39c1.7.85,2.51,1.8,2.29,2.31"/><path class="cls-18" d="M598.37,159.74c-.79.87-3.52-.32-6.89-.65s-6.28.11-6.86-.91c-.25-.5.28-1.39,1.6-2.16a10,10,0,0,1,11.08,1.26c1.12,1.05,1.43,2,1.07,2.46"/><path class="cls-18" d="M538.4,132.15l-.16.1a21,21,0,0,0-8.86,12.84c0,.19-.09.36-.12.53-1.66,7.48-2.11,15.19-3.85,22.64s-1.41,13.16-8.89,14.84a10,10,0,0,1-10.4-4.22,6.48,6.48,0,0,1-.65-3.55c.09-18.37-3.6-25.5-2-44.59a16.15,16.15,0,0,1,7.77-12.55c4.23-2.53,9.36-5.1,13.62-2.63s9.34,11.26,12.49,15.07"/><path class="cls-13" d="M515.16,171.57c-.44-.24-17.77-6.9-18.69,11.27S514,198.19,514,197.67s1.12-26.1,1.12-26.1"/><path class="cls-14" d="M508.83,190.51c-.07-.06-.33.2-.87.42a3.2,3.2,0,0,1-2.37-.07c-1.88-.8-3.35-3.93-3.27-7.21a10.52,10.52,0,0,1,1.12-4.49,3.66,3.66,0,0,1,2.5-2.31,1.63,1.63,0,0,1,1.83,1c.21.52.08.88.18.92s.4-.29.29-1a2,2,0,0,0-.65-1.17,2.38,2.38,0,0,0-1.73-.55c-1.41,0-2.74,1.25-3.45,2.65a10.78,10.78,0,0,0-1.36,5c-.06,3.67,1.64,7.19,4.22,8.08a3.39,3.39,0,0,0,2.92-.33c.59-.43.71-.83.64-.86"/><path class="cls-18" d="M524,118.31c-3.86-7.62,9.22-17,18.4-19.09s20.6,3.25,29.26,6.94c5.46,2.33,10.84,5.39,16.78,5.63,4,.17,7.88-1,11.73-2s7.84-1.93,11.78-1.33,7.84,3,9,6.84-1.37,8.65-5.35,8.87c5.25-2.34,12.2,1.88,12.55,7.61s-6.05,10.76-11.54,9.08c2.74-1.74,6.42,1.81,5.84,5s-3.7,5.3-6.77,6.35c-7.83,2.7-16.55.91-24.16-2.37s-14.52-8-22-11.45-20.09-9.62-28.1-7.52c-5.9,1.54-10.46,8.12-13.57,6.33s-4.72-5.17-5.06-8.63.43-6.9,1.21-10.29"/><path class="cls-19" d="M617.9,123.88c-.14-.1-1,1.26-3.17,3.22a25,25,0,0,1-10.6,5.65,23.09,23.09,0,0,1-17.23-2.13c-5.93-3.27-10.75-9.23-16.39-14.94S558.06,105.44,551,104.21s-13.86.8-17.83,4.56A15.91,15.91,0,0,0,528,120.15a12.9,12.9,0,0,0,.5,3.39c.27.74.45,1.11.51,1.09a29.54,29.54,0,0,1-.31-4.46A15.68,15.68,0,0,1,534,109.71c3.75-3.34,10.09-5.15,16.68-3.88s13.1,5.5,18.59,11.12,10.5,11.7,16.86,15.12a24.74,24.74,0,0,0,29.12-4.47,16.44,16.44,0,0,0,2.12-2.67c.42-.65.61-1,.56-1.05"/><path class="cls-19" d="M510.61,170.4c.06.06.82-.44,1.62-1.82a12.28,12.28,0,0,0,1.45-6.5c.08-5.87-4.56-12.56-4.55-20.68a18.29,18.29,0,0,1,2.9-10.65,13.9,13.9,0,0,1,7.22-5.27,11.87,11.87,0,0,1,6.12-.32c1.43.35,2.19.76,2.27.62s-.59-.69-2.07-1.29a11.37,11.37,0,0,0-6.66-.23,14.7,14.7,0,0,0-8.23,5.53,19.28,19.28,0,0,0-3.35,11.63,33.07,33.07,0,0,0,2.55,11.71,34.43,34.43,0,0,1,2.53,9c.52,5.39-2.06,8.13-1.8,8.24"/><path class="cls-26" d="M585.36,695.25s-1.39.06-4.1.11l-12,.17c-10.56.16-26.14.57-46.18,1.55s-44.52,2.81-72.83,6c-14.15,1.7-29.26,3.64-45.2,6.29s-32.74,5.72-50.21,9.71-35.67,8.72-54.27,14.79-37.65,13.39-56.27,23.21a184.43,184.43,0,0,0-27,17.24c-8.51,6.67-16.54,14.52-22.1,24.17-.67,1.22-1.39,2.41-2,3.65l-1.56,3.88-.78,2c-.22.66-.34,1.35-.52,2l-1,4.08c-.64,5.54-.85,11.31.82,16.8,2.7,11.15,10.06,20.77,18.5,28.86,17.25,16.19,39.23,27.46,62,36.92S318,913.44,343,919.56c50.12,12.21,103.24,19.4,157.79,23.24a1252.55,1252.55,0,0,0,159.64.63c51.5-3.14,101-9.38,147.39-19.24a622.27,622.27,0,0,0,66.83-18c21.3-7.08,41.45-15.61,59.74-26a164,164,0,0,0,25.18-17.93c7.54-6.71,14.16-14.4,18.24-23.22l1.35-3.36a17.3,17.3,0,0,0,1.17-3.4l.84-3.48c.12-.58.31-1.15.39-1.73l.14-1.78a34.83,34.83,0,0,0-1-13.88,49.34,49.34,0,0,0-5.83-12.42,75.3,75.3,0,0,0-8.52-10.47,127.92,127.92,0,0,0-20.14-16.6,214,214,0,0,0-21.35-12.73,369.08,369.08,0,0,0-41.63-18.53,630,630,0,0,0-69.79-21.52c-19.46-4.86-34.74-7.92-45.11-9.91-5.18-1-9.15-1.7-11.81-2.2s-4-.78-4-.78,5.49.81,15.88,2.7,25.7,4.87,45.2,9.65a618.57,618.57,0,0,1,69.93,21.31,371.34,371.34,0,0,1,41.78,18.47,217,217,0,0,1,21.46,12.74,129.64,129.64,0,0,1,20.33,16.7,76.35,76.35,0,0,1,8.66,10.6,50.13,50.13,0,0,1,6,12.7,36,36,0,0,1,1.09,14.29l-.15,1.82c-.08.6-.27,1.19-.4,1.79l-.85,3.57a19.07,19.07,0,0,1-1.19,3.48l-1.38,3.43c-4.15,9-10.86,16.82-18.47,23.61A164.07,164.07,0,0,1,935,881.17c-18.38,10.5-38.59,19.08-59.93,26.19a621.32,621.32,0,0,1-67,18.12c-46.44,9.92-96,16.19-147.58,19.35a1251.73,1251.73,0,0,1-159.83-.6c-54.62-3.84-107.81-11.05-158-23.3-25.08-6.15-49.45-13.5-72.47-23s-45-20.82-62.43-37.23c-8.54-8.2-16.06-18-18.84-29.5-1.71-5.64-1.51-11.61-.83-17.32l1-4.21c.19-.69.32-1.41.54-2.09l.8-2,1.6-4c.65-1.27,1.39-2.49,2.08-3.73,5.7-9.86,13.84-17.78,22.43-24.51a184,184,0,0,1,27.19-17.32c18.72-9.86,37.87-17.11,56.48-23.22s36.88-10.79,54.38-14.73,34.33-7.11,50.3-9.62S436,704,450.15,702.32c28.34-3.16,52.85-4.84,72.9-5.8s35.63-1.21,46.19-1.28l12,0c2.71,0,4.1,0,4.1,0"/><path class="cls-26" d="M360.46,486.74s-1.57.35-4.63,1-7.64,1.47-13.6,2.75c-11.93,2.48-29.52,6.31-51.85,12.41s-49.5,14.48-79.45,28.08c-7.46,3.43-15.1,7.19-22.72,11.53a210.18,210.18,0,0,0-22.82,14.63,125.55,125.55,0,0,0-21.06,19.36c-6.25,7.48-11.8,16.17-14.27,26.17a48.07,48.07,0,0,0,2.26,30.82c4.07,10,11,18.86,19.05,26.65,16.29,15.62,37,27.46,59,37.64,44.32,20.14,95,33.65,148.67,43.73s111.07,16.14,170.56,18.81A1469.65,1469.65,0,0,0,713.81,757c62.93-5.25,124.16-14.48,181.77-29.62,28.77-7.62,56.65-16.74,82.79-28.42a282.92,282.92,0,0,0,37.4-20c11.71-7.59,22.7-16.2,31.52-26.58s15.24-22.86,15.62-36.12a31.06,31.06,0,0,0-.17-4.92,31.8,31.8,0,0,0-.52-4.88l-1.08-4.78a32.9,32.9,0,0,0-1.56-4.61c-2.14-6.17-5.75-11.64-9.44-16.88-7.91-10.2-17.71-18.54-27.92-25.79a254.31,254.31,0,0,0-32-18.68,451.23,451.23,0,0,0-65.45-25.69c-21.56-6.75-42.59-12.09-62.8-16.57C781,476,713.86,471.27,667.69,468.71c-23.13-1.2-41.11-1.25-53.3-1.56l-13.87-.31c-3.12-.07-4.72-.15-4.72-.15s1.6,0,4.72,0l13.87.16c12.19.21,30.19.17,53.33,1.29,46.2,2.4,113.4,7,194.51,24.35,20.24,4.45,41.3,9.77,62.91,16.51a451,451,0,0,1,65.65,25.68,253.25,253.25,0,0,1,32.13,18.74c10.29,7.28,20.19,15.68,28.22,26,3.76,5.32,7.44,10.88,9.63,17.19a34.09,34.09,0,0,1,1.61,4.72l1.1,4.91a32,32,0,0,1,.54,5,32.76,32.76,0,0,1,.18,5.05,51.05,51.05,0,0,1-4.78,19.69,73,73,0,0,1-11.12,17.24c-8.94,10.53-20,19.22-31.8,26.86a285.19,285.19,0,0,1-37.57,20.09c-26.22,11.73-54.17,20.88-83,28.53-57.72,15.18-119,24.44-182,29.69a1466.64,1466.64,0,0,1-184.41,3.26C470,759,412.64,752.78,358.77,742.77s-104.48-23.7-148.93-43.95c-22.06-10.24-42.82-22.14-59.24-37.93-8.13-7.87-15.13-16.87-19.26-27a49.16,49.16,0,0,1-2.27-31.47c2.55-10.2,8.2-19,14.53-26.55a126.39,126.39,0,0,1,21.25-19.46,214.59,214.59,0,0,1,22.93-14.65c7.67-4.34,15.33-8.08,22.82-11.5,30-13.57,57.31-21.76,79.63-27.9s40-9.76,51.94-12.16,18.29-3.42,18.29-3.42"/><path class="cls-26" d="M456.93,902l-13.73,2.17c-9,1.44-22.24,3.72-39.14,7.42a499.73,499.73,0,0,0-60.64,17.09,283.45,283.45,0,0,0-36.05,15.66,157.73,157.73,0,0,0-18.29,11.19,95.09,95.09,0,0,0-16.82,15,54.94,54.94,0,0,0-6.64,9.57,38,38,0,0,0-4.1,11.13c-.15,1-.39,2-.48,3l-.18,3c0,2,.26,4.06.44,6.09a59.65,59.65,0,0,0,1.58,6l1.16,2.89.59,1.45.77,1.37c4,7.42,9.88,13.83,16.54,19.46a136.67,136.67,0,0,0,22.17,14.88C320,1058.21,337.61,1065,356,1071a536.21,536.21,0,0,0,57.85,14.79c40.09,8.07,82.85,13,127.29,15.22a1037.6,1037.6,0,0,0,137.65-2.4c47-4.07,92.74-11.27,135.59-23.37,21.36-6.16,42-13.52,61.08-23.28A151.72,151.72,0,0,0,902,1034.82c2.11-1.55,3.87-3.49,5.81-5.21s3.5-3.8,5.26-5.68c3.1-4.08,6.1-8.3,7.82-13.09,4.09-9.37,3.07-20.17-1.21-29-4.5-8.85-11.47-16-19-22.07-15.16-12.06-32.38-20.17-49.2-26.92a412.53,412.53,0,0,0-50.07-16c-16.34-4.22-32.22-7.54-47.45-10.22-61-10.65-111.23-12.59-145.77-13.33l-53.75-.3s19.14-.24,53.75,0c34.56.64,84.83,2.49,145.88,13.08,15.25,2.65,31.13,6,47.51,10.17a415.3,415.3,0,0,1,50.17,16c16.86,6.76,34.13,14.88,49.4,27,7.54,6.08,14.59,13.32,19.18,22.32,4.37,9,5.42,20.08,1.25,29.65-1.76,4.88-4.8,9.17-7.94,13.3-1.78,1.9-3.41,4-5.32,5.75s-3.74,3.68-5.85,5.25a153.22,153.22,0,0,1-26.71,17.28c-19.12,9.79-39.83,17.18-61.23,23.35-42.91,12.13-88.69,19.34-135.74,23.42a1037.65,1037.65,0,0,1-137.77,2.38c-44.48-2.21-87.27-7.18-127.4-15.28a537.7,537.7,0,0,1-57.93-14.85c-18.43-6-36.07-12.86-52-21.76a136.94,136.94,0,0,1-22.27-15c-6.7-5.68-12.68-12.15-16.68-19.68l-.78-1.39-.59-1.47-1.18-2.94a59.14,59.14,0,0,1-1.6-6.08c-.19-2.08-.43-4.15-.44-6.21l.18-3.08c.1-1,.34-2,.5-3a38.11,38.11,0,0,1,4.18-11.3,54.85,54.85,0,0,1,6.72-9.67,96.08,96.08,0,0,1,16.94-15,158.28,158.28,0,0,1,18.38-11.2,281.83,281.83,0,0,1,36.14-15.63,493.17,493.17,0,0,1,60.73-17c16.92-3.65,30.18-5.87,39.19-7.26s13.75-2,13.75-2"/><path class="cls-26" d="M816.29,1153.71a28.16,28.16,0,0,0-2.28-10c-2.56-6.31-9.39-14.15-20.15-21.25-21.63-14.23-57.78-26.19-103.28-33.49a627.71,627.71,0,0,0-75.08-7.36,724.62,724.62,0,0,0-86.57,1.59c-15.21,1.21-30.75,3-46.53,5.47a444.35,444.35,0,0,0-47.78,10.08c-8,2.16-16,4.66-23.93,7.56a194.58,194.58,0,0,0-23.35,10.18,94.75,94.75,0,0,0-21.17,14.65c-6.24,5.84-11.34,13.74-11.46,22.57.11,8.84,5.19,16.75,11.43,22.59a94.14,94.14,0,0,0,21.17,14.66,189.44,189.44,0,0,0,23.36,10.19c7.92,2.91,15.92,5.41,23.93,7.57a442.11,442.11,0,0,0,47.79,10.08c15.78,2.51,31.33,4.27,46.54,5.47a720.65,720.65,0,0,0,86.58,1.59,627.51,627.51,0,0,0,75.08-7.36c45.51-7.3,81.65-19.26,103.28-33.49,10.75-7.1,17.58-14.94,20.14-21.25a28.13,28.13,0,0,0,2.28-10c0,.41-.07,1.11-.18,2.63a14.69,14.69,0,0,1-.57,3.19,21.35,21.35,0,0,1-1.42,4.25c-2.54,6.35-9.37,14.25-20.13,21.39-21.64,14.32-57.8,26.34-103.33,33.71a629.8,629.8,0,0,1-75.13,7.43,721.22,721.22,0,0,1-86.64-1.54c-15.23-1.2-30.79-3-46.58-5.46a441.41,441.41,0,0,1-47.86-10.08c-8-2.16-16-4.66-24-7.58a192,192,0,0,1-23.43-10.21,94.54,94.54,0,0,1-21.3-14.75,41.94,41.94,0,0,1-8.12-10.31,24.72,24.72,0,0,1,0-25.38,41.07,41.07,0,0,1,8.12-10.3A94.88,94.88,0,0,1,387.07,1116a192.71,192.71,0,0,1,23.43-10.21c7.93-2.91,15.95-5.41,24-7.57a443.64,443.64,0,0,1,47.85-10.08c15.79-2.51,31.35-4.26,46.57-5.45a721.06,721.06,0,0,1,86.63-1.54,625.88,625.88,0,0,1,75.13,7.43c45.53,7.36,81.69,19.38,103.33,33.7,10.77,7.14,17.6,15,20.14,21.4a20.94,20.94,0,0,1,1.42,4.25,14.49,14.49,0,0,1,.57,3.19c.11,1.51.15,2.21.18,2.63"/><path class="cls-5" d="M208.26,726.86a8.79,8.79,0,1,1-8.78-8.78,8.78,8.78,0,0,1,8.78,8.78"/><path class="cls-5" d="M1002.89,732.81A8.79,8.79,0,1,1,994.1,724a8.79,8.79,0,0,1,8.79,8.78"/><path class="cls-5" d="M644.51,1056.57a8.79,8.79,0,1,1-8.78-8.78,8.79,8.79,0,0,1,8.78,8.78"/><path class="cls-5" d="M377.7,830.78a4.39,4.39,0,1,1-4.39-4.4,4.39,4.39,0,0,1,4.39,4.4"/><path class="cls-5" d="M924,937.24a4.39,4.39,0,1,1-4.39-4.39,4.39,4.39,0,0,1,4.39,4.39"/><path class="cls-5" d="M577.22,1140.43a4.4,4.4,0,1,1-4.39-4.39,4.39,4.39,0,0,1,4.39,4.39"/><path class="cls-5" d="M350.12,371.3a2.21,2.21,0,1,1-2.21-2.21,2.2,2.2,0,0,1,2.21,2.21"/><path class="cls-5" d="M744,709.26c-106.7,28.25-209.55,26.1-321.64,0l-13.09-204.9C525.1,526.91,641.38,524.05,744,499.51Z"/><g class="cls-6"><g class="cls-27"><path class="cls-8" d="M744,709.26c-106.7,28.25-209.55,26.1-321.64,0l-13.09-204.9C525.1,526.91,641.38,524.05,744,499.51Z"/></g></g><path class="cls-5" d="M727.46,678.1a3,3,0,0,1-.67.34l-2,.85c-1.79.71-4.38,1.87-7.83,3.1a291.81,291.81,0,0,1-29.53,9.26c-25.25,6.74-61.29,12.11-101.23,11.55s-75.8-6-101.44-10.85c-12.83-2.44-23.16-4.69-30.27-6.34-3.56-.81-6.32-1.51-8.18-2l-2.12-.54a3.9,3.9,0,0,1-.71-.24,3.47,3.47,0,0,1,.75.09l2.14.42,8.24,1.69c7.14,1.49,17.49,3.59,30.33,5.89,25.66,4.58,61.46,9.9,101.28,10.42s75.73-4.63,101-11.1c12.65-3.17,22.72-6.38,29.59-8.81,3.47-1.14,6.09-2.22,7.91-2.84l2.07-.72a3.31,3.31,0,0,1,.72-.2"/><path class="cls-5" d="M570.69,686.46c-13.38,3.95-27.12,2.9-41.08-1.38V612.15a102.94,102.94,0,0,1,41.08,0Z"/><path class="cls-5" d="M637,682.11a2.24,2.24,0,0,1-.06-.56c0-.43,0-.95-.07-1.58q-.06-2.24-.16-6.09c-.11-5.39-.26-13.06-.45-22.65-.29-19.35-.7-46.44-1.17-77.84l.55.67a110.14,110.14,0,0,0-42.52,0l.58-.71c0,.45,0,1,0,1.45.44,43.1.83,82,1.11,109.82l-.4-.48a96.05,96.05,0,0,0,17.91,2.18,65.61,65.61,0,0,0,13.52-1.1,68.36,68.36,0,0,0,8.3-2.18l2.08-.73a5.17,5.17,0,0,1,.76-.23,3,3,0,0,1-.66.33l-2.09.89a56.12,56.12,0,0,1-8.28,2.45,64.09,64.09,0,0,1-13.64,1.36,94.82,94.82,0,0,1-18.1-2l-.39-.08v-.41c-.39-27.79-.94-66.72-1.55-109.81,0-.5,0-1,0-1.45v-.6l.59-.12a110.92,110.92,0,0,1,43.06,0l.54.12v.55c.23,31.55.44,58.75.58,78.2,0,9.54.05,17.17.06,22.53q0,3.79,0,6c0,.62,0,1.12,0,1.53a2,2,0,0,1,0,.49"/><path class="cls-5" d="M700.15,673.53c-11,6-25.48,6.74-41.09,5.84V558.93c14-3,27.74-3.53,41.09,0Z"/><path class="cls-5" d="M505.47,680.49a28.79,28.79,0,0,1-.14-3.09c-.05-2.12-.1-4.93-.17-8.42-.08-7.33-.18-17.48-.32-29.58l.41.58c-11-4-24.78-7.86-39.56-6.56h-.07l.65-.71c0,15-.07,29.11-.1,41.08l-.38-.57a76.62,76.62,0,0,0,15.86,4.53c4.86.87,9.15,1.38,12.68,1.73l8.22.7a26.57,26.57,0,0,1,2.92.31,23.52,23.52,0,0,1-2.93.07c-1.91,0-4.71-.12-8.27-.36s-7.88-.65-12.79-1.45a75.27,75.27,0,0,1-16.16-4.39l-.38-.15v-.42c0-12-.06-26-.09-41.08V632l.66,0h.07c15.14-1.33,29.08,2.66,40.12,6.83l.41.16v.42c-.13,12.27-.24,22.56-.32,30-.07,3.42-.12,6.19-.16,8.28a22.9,22.9,0,0,1-.14,2.82"/><path class="cls-5" d="M524.79,573.91c0,.19-3.06.42-8,.5s-11.84,0-19.42-.47-14.4-1.15-19.33-1.81-7.95-1.25-7.92-1.43,3.08,0,8,.42,11.76,1,19.31,1.39,14.38.71,19.34.88,8,.32,8,.52"/><path class="cls-5" d="M518.67,582.88c0,.2-2.7.17-7,0s-10.36-.58-17-1.08-12.62-1-16.95-1.52-7-.84-7-1,2.73-.17,7.08,0,10.34.58,17,1.09,12.6,1,16.93,1.5,7,.85,7,1"/><path class="cls-5" d="M533.7,594.63s0-.92,0-2.56.16-4.12.28-7.09c.29-6.22.7-15,1.21-25.72l.53.55a589.28,589.28,0,0,1-76-4.22l.8-.66h0v.26l0,.29,0,.58-.07,1.16-.13,2.32q-.13,2.31-.27,4.59c-.18,3-.35,6-.53,9-.35,5.91-.69,11.63-1,17.11l-.6-.71c22,2.71,41,3.86,54.46,4.38l15.75.47,4.15.13a11.49,11.49,0,0,1,1.51.1,7.77,7.77,0,0,1-1.39.1c-.94,0-2.42.1-4.27.12-3.67.06-9,.06-15.78-.08-13.49-.28-32.54-1.25-54.59-3.87l-.63-.08,0-.63c.31-5.48.64-11.21,1-17.12.17-3,.34-6,.51-9l.27-4.58.13-2.32L459,556l0-.58,0-.29v-.28h0c-.18.14,1.51-1.27.8-.67a643.39,643.39,0,0,0,75.86,4.59h.56l0,.56c-.75,10.86-1.36,19.71-1.79,26-.23,2.92-.4,5.25-.54,7a16.75,16.75,0,0,1-.25,2.35"/><path class="cls-5" d="M543.07,610.08c-.34.2-2.63-3.13-5.29-7.34s-4.42-7.92-4.08-8.11,2.63,3.14,5.3,7.35,4.42,7.91,4.07,8.1"/><path class="cls-5" d="M97.24,343.27l34.88,211S185.36,654,326.83,676.44L304,488.07S173.18,447.61,97.24,343.27"/><g class="cls-6"><g class="cls-28"><path class="cls-8" d="M97.24,343.27l34.88,211S185.36,654,326.83,676.44L304,488.07S173.18,447.61,97.24,343.27"/></g></g><path class="cls-5" d="M308.58,661.4a5.2,5.2,0,0,1-.9-.21l-2.6-.76-10-3c-4.31-1.38-9.68-2.8-15.64-5.23l-9.63-3.67c-3.42-1.28-7-2.63-10.68-4.4-7.36-3.37-15.54-6.83-23.86-11.51-8.51-4.28-17.15-9.7-26.19-15.45a263.42,263.42,0,0,1-52.56-45.56,158,158,0,0,1-19-26.45l0-.09,0-.12c-6.37-41.12-12-77.25-16-103.2-1.93-12.87-3.48-23.22-4.57-30.44-.5-3.5-.88-6.24-1.16-8.2-.11-.88-.2-1.58-.27-2.13a2.87,2.87,0,0,1-.05-.73,3.61,3.61,0,0,1,.18.71l.39,2.11c.34,2,.81,4.68,1.41,8.16,1.18,7.21,2.88,17.53,5,30.38,4.13,25.93,9.89,62,16.45,103.12l-.07-.21a157.91,157.91,0,0,0,18.79,26.15A264.79,264.79,0,0,0,209.85,616c9,5.76,17.55,11.19,26,15.5,8.25,4.71,16.38,8.22,23.7,11.64,3.63,1.78,7.21,3.16,10.61,4.48l9.57,3.76c5.92,2.5,11.26,4,15.53,5.46s7.54,2.5,9.88,3.29l2.56.89a3.37,3.37,0,0,1,.86.35"/><path class="cls-5" d="M296.15,600.15a3.29,3.29,0,0,1-.49.44l-1.49,1.2-5.89,4.58-22.22,17-.34.27-.27-.36C258,613,248.76,600.2,238.28,585.7l.83.14-20.83,14.84-.7.49-.3-.8-26.86-72.85L186.57,517l1.31.07-17,33.68-.73,1.47-.54-1.55L134.2,448.53l.75,0c-2.23,9.39-4,16.81-5.21,22q-.92,3.71-1.43,5.79c-.16.61-.29,1.09-.39,1.48a2.1,2.1,0,0,1-.17.5,1.69,1.69,0,0,1,.06-.52c.08-.4.18-.89.29-1.5.3-1.41.71-3.35,1.23-5.84,1.14-5.18,2.78-12.63,4.86-22.06l.29-1.33.46,1.29,36,102-1.27-.08,16.92-33.7.74-1.48.57,1.55q1.92,5.21,3.86,10.49c9.56,26.07,18.64,50.82,26.74,72.89l-1-.3,20.9-14.75.48-.35.35.49c10.37,14.57,19.5,27.39,26.91,37.78l-.62-.09L288,606l6-4.4,1.57-1.11a2.67,2.67,0,0,1,.56-.34"/><path class="cls-5" d="M291.27,498.94a11.73,11.73,0,0,1-3-.66c-1.89-.51-4.59-1.34-7.91-2.44a268.17,268.17,0,0,1-25.41-10,272.37,272.37,0,0,1-24.28-12.47c-3-1.76-5.42-3.24-7-4.32a11.91,11.91,0,0,1-2.46-1.79,13.09,13.09,0,0,1,2.74,1.31l7.26,3.91c6.14,3.29,14.71,7.68,24.38,12.05s18.63,7.89,25.16,10.32l7.74,2.86a12.94,12.94,0,0,1,2.8,1.19"/><path class="cls-5" d="M296.89,507.7c0,.18-2.67-.22-6.84-1.21a157.14,157.14,0,0,1-16-4.8,152.73,152.73,0,0,1-15.44-6.46c-3.85-1.88-6.13-3.23-6-3.4s2.53.85,6.47,2.48,9.39,3.84,15.51,6,11.73,3.94,15.81,5.17,6.62,2,6.57,2.19"/><path class="cls-5" d="M241.14,585.75c0,1.75-1.07,3.16-2.37,3.16s-2.37-1.41-2.37-3.16,1.06-3.16,2.37-3.16,2.37,1.42,2.37,3.16"/><path class="cls-5" d="M189.39,519.05c0,1.74-1.07,3.16-2.37,3.16s-2.38-1.42-2.38-3.16,1.07-3.16,2.38-3.16,2.37,1.41,2.37,3.16"/><path class="cls-5" d="M137.12,449.43c0,1.75-1.06,3.17-2.37,3.17s-2.37-1.42-2.37-3.17,1.06-3.15,2.37-3.15,2.37,1.41,2.37,3.15"/><path class="cls-5" d="M1020.11,380.86l-17.48,214.38s-51,91.68-191.53,95.17l17.36-215.85s122.57-5,191.65-93.7"/><path class="cls-5" d="M1017.51,369.68c-4.58-14.84-15.68-36-42.11-40.39L944.16,617.66s58.64-11.71,60.22-43.86c.13-2.77,11.87-146.09,14.8-181.58.65-7.76.63-15.09-1.67-22.54"/><g class="cls-6"><g class="cls-29"><path class="cls-8" d="M1020.11,380.86l-17.48,214.38s-51,91.68-191.53,95.17l17.36-215.85s122.57-5,191.65-93.7"/></g></g><path class="cls-5" d="M1015.92,435.51a127.21,127.21,0,0,0-22.39,69.33c-.14,7.11.27,14.48-2.43,21.06s-9.77,12.07-16.63,10.19c-7.17-2-10.37-10.44-16.65-14.41-5.59-3.53-13.15-2.93-18.85.4s-9.75,9-12.39,15.06c-5.1,11.76-5.44,25-9.2,37.26s-13,24.61-25.8,25.16c-4.67.21-9.3-1.21-14-1.07-9.89.3-18.47,7.64-23.08,16.4s-6,18.8-7.31,28.61c0,0,74.91,7.13,159-92.16Z"/><path class="cls-5" d="M896.83,565.56c0,2.65-1.31,4.81-2.93,4.81s-2.94-2.16-2.94-4.81,1.31-4.82,2.94-4.82,2.93,2.16,2.93,4.82"/><path class="cls-5" d="M932.12,476.42c0,2.66-1.32,4.82-2.94,4.82s-2.94-2.16-2.94-4.82,1.32-4.81,2.94-4.81,2.94,2.15,2.94,4.81"/><path class="cls-5" d="M1014.24,445.86a7.06,7.06,0,0,1-.49,1.22l-1.58,3.47c-1.47,3.13-3.56,7.54-6.18,13.1l-22.33,46.52-.31.63-.59-.37-53-33.53,1.05-.33c-.7,1.71-1.45,3.56-2.2,5.42L894.4,565.76l-.24.57-.53-.3c-13.21-7.43-24-13.4-31.49-17.47-3.74-2-6.67-3.59-8.67-4.61l-2.3-1.12a4.08,4.08,0,0,1-.8-.36c.1-.27,4.49,1.61,12.06,5.55s18.45,9.74,31.73,17.06l-.77.27,33.9-83.9c.76-1.86,1.51-3.71,2.2-5.42l.32-.8.73.46,52.89,33.68-.9.26c9.4-19.07,17.25-35,22.81-46.3l6.48-12.95,1.76-3.39a6.34,6.34,0,0,1,.66-1.13"/></g></g></svg>