<svg xmlns="http://www.w3.org/2000/svg" viewBox="0 0 118.45 118.45"><defs><style>.cls-1,.cls-2{fill:#fff;}.cls-1{fill-rule:evenodd;}</style></defs><title>Asset 40</title><g id="Layer_2" data-name="Layer 2"><g id="Text"><path class="cls-1" d="M55.29,79.12h3.93v3.93h3.94V79.12h3.93v3.93H71V79.12H75v3.93c5.06,0,4.17.88,4.17-3.93h3.7v3.93c5.06,0,4.16.88,4.16-3.93h3.71c0,4.81-.9,3.93,4.16,3.93V79.12h3.7c0,4.81-.89,3.93,4.17,3.93V79.12h3.93v3.93h3.93V79.12h3.93V90.69H55.29V79.12Zm63.16-68.21a7.61,7.61,0,0,0-2.11-4.64L116,5.92c-.16-.15-.33-.3-.49-.43a7.38,7.38,0,0,0-4.92-1.56c-4.73,0-6.15,4.34-8.1,4.86,0-4.37-4.67-8.79-9-8.79H25a9.49,9.49,0,0,0-6.22,2.8L18.53,3a7.79,7.79,0,0,0-2,3.08,11.18,11.18,0,0,0-.79,4.3v50.9c5.25,0,4.17,1.29,4.17-7.41V13.19c0-4.12-.57-9.26,7.17-9.26H91.38c3.78,0,7.17,1.89,7.17,5.32,0,5.31.55,3.27-6.3,10.12l-6.48,6.48-4.85,4.87c-.91,1-.75.77-2.49.75-4.31,0-8.65,0-13,0-.11-1.32-2-4.2-2.74-5.12-3.54-4.51-9.75-8.53-15.54-8.53-7.43,0-10.61.88-16.16,5.36C24.29,28.61,21.49,40,25.37,48c2.28,4.69,5,8.28,9.87,10.72,2.12,1.05,5,2.38,8,2.38,0,2.71-.73,9.95,1.62,9.95H89.3c1.71,0,1.62-2.9,1.62-3.93V44.42c0-3,.17-2.37,1.79-4,1.4-1.4,4.48-4.82,5.84-5.73V75H53.44c-.95,0-2.08.78-2.08,1.62V93.23c0,.74,1.18,1.62,2.08,1.62H98.55v2.08a5.59,5.59,0,0,1-5.31,5.57c-8.36.17-18.65,0-27.31,0H63.15c-2.48,0-2.08-.55-2.08,4.17h31.7c5.76,0,10-4.57,10-10.41V94.85H115.9c1.12,0,2.55-.63,2.55-1.62V76.57c0-.84-1.13-1.62-2.09-1.62H102.72V30.77c0-.69,1.43-1.78,1.9-2.26l10.76-10.75a11.8,11.8,0,0,0,2-2.21,7.37,7.37,0,0,0,1.11-3.3V10.91ZM73.8,48.58a27.3,27.3,0,0,1,.46-3l2.6,2.49a19.33,19.33,0,0,1-3.06.52ZM47.42,57.14V35.63H62.69c.06,2.4,1.37,5.76-1,10.8a18,18,0,0,1-8,8.67c-3.58,1.86-5.25,1.55-6.29,2Zm21.75-6c0,2.76,2,2.26,4.15,1.83l5.59-1.12c2.87-.57,2.64-.24,4.43-2a30.89,30.89,0,0,1,3.41-3.3V67.09H47.42v-6c5.67,0,11-3.42,14.53-7.45a10.85,10.85,0,0,0,1.11-1.43,11.53,11.53,0,0,0,1-1.52c2.69-5,3-6.72,3-12.5,0-1.28-.23-1.37-.23-2.54h9c-1.65,2.46-4.43,3.39-5,6.1-.39,1.85-1.71,7.92-1.71,9.4ZM43.26,34.7V56.91a14.36,14.36,0,0,1-6.09-1.77,17.34,17.34,0,0,1-7.72-8C23.93,36,32,21.75,45.34,21.75c5.65,0,9.75,2.42,13.14,5.83a13.25,13.25,0,0,1,2.59,3.88l-15.68.05c-1.56.25-2.13,1.31-2.13,3.19ZM80.8,46.56l-4.86-5,28.68-28.8,5.09,5L80.8,46.56ZM107.52,9.77c.78-.54,3.12-3.35,5.8-.94a2.75,2.75,0,0,1,.8,1.05c.95,2.15-.08,3.85-1.69,4.93Z"/><path class="cls-1" d="M3.93,60.15l54.43,54.31-54.43.05V60.15ZM0,55.29V116.6a1.74,1.74,0,0,0,1.85,1.85H63.16a2.15,2.15,0,0,0,2.08-1.85c0-1.69-5.95-7-7.35-8.39L6.54,56.85c-.8-.8-3.32-3.64-4.46-3.64A2.09,2.09,0,0,0,0,55.29Z"/><path class="cls-1" d="M16,90l12.55,12.44-12.55,0V90ZM11.8,84.9v19.67a2.09,2.09,0,0,0,2.08,2.08H33.54a2.15,2.15,0,0,0,2.09-1.85c0-1.59-3.39-4.43-4.92-6L17.06,85.19c-.68-.68-2.07-2.37-3.18-2.37A2.09,2.09,0,0,0,11.8,84.9Z"/><rect class="cls-2" x="23.6" y="7.87" width="4.16" height="3.93"/><rect class="cls-2" x="31.46" y="7.87" width="4.16" height="3.93"/><rect class="cls-2" x="39.33" y="7.87" width="4.16" height="3.93"/></g></g></svg>