<svg xmlns="http://www.w3.org/2000/svg" viewBox="0 0 122.96 122.96"><defs><style>.cls-1,.cls-2{fill:#fff;}.cls-1{fill-rule:evenodd;}</style></defs><title>Asset 39</title><g id="Layer_2" data-name="Layer 2"><g id="Text"><path class="cls-1" d="M105.67,118.87h-1.21c-4.6,0-9.12-4.51-9.12-9.12v-2.64H115c0,3.54-.51,6.27-2.46,8.35a9.48,9.48,0,0,1-6.9,3.41ZM25.37,123a25,25,0,0,0,14.79-6.43c.5-.44,1.15-1.5,1.87-1.5H92c.91,0,1.13,1.29,2.25,2.79,1.91,2.53,6.3,5.14,10,5.14a13.73,13.73,0,0,0,7.06-1.36,14.44,14.44,0,0,0,7.83-12.81V59.08c0-3.66-2.23-5.41-2.4-7.45,3.55,0,6.25-2.62,6.25-5.52V5.52A5.89,5.89,0,0,0,117.43,0H56.92a5.86,5.86,0,0,0-4.1,2.15A7.6,7.6,0,0,0,51.39,7.2v8.65H7.44a4,4,0,0,0-3.19,2.33c-.76,1.77-.41,14-.41,16.4V79.49c0,1.83.05,3.72,0,5.54a3,3,0,0,1-.69,2.19A21.74,21.74,0,0,0,0,97.59v2.68A23.71,23.71,0,0,0,5.58,114.5a12.22,12.22,0,0,0,2.75,2.77A23.93,23.93,0,0,0,22,123Zm70-23.78H115V103H95.34V99.18ZM4.08,99.9C4.08,91.75,7.82,85,15,81.49c13.39-6.65,28.5,3.73,28.5,16.49,0,5-.66,8.79-3.74,12.84a21.41,21.41,0,0,1-2.2,2.6c-.43.41-.72.58-1.19,1s-.82.68-1.34,1.06a19.83,19.83,0,0,1-23.9-1.19c-4.15-3.64-7-8.44-7-14.36Zm103-40.34H115V95.1h-7.92V59.56Zm-11.77,0H103V95.1H95.34V59.56ZM99.9,47.79h10.33l3.6,7.68H96.54L99,49.79a8.12,8.12,0,0,0,.88-2ZM91.26,57.88V111H44.67c.22-1,1.29-2.52,1.87-4.61,2.07-7.4,1.17-15.09-3.45-21.19-3-3.91-5-5.45-9.39-7.66-7.08-3.58-16.5-2.67-23.23,1.9-.52.35-.75.53-1.24.92-.68.55-.49.64-1.31.86V35.78H51.39v8.89c0,3.69,1.83,6.16,4.93,6.83,2,.45,9,.13,11.64.13.52,2.23,1.66,5.06,2.37,7.24,1.92,5.84,6.32,5.36,8.39,3.28,1.8-1.81,2.9-7.95,4.13-10.52H93.66c-.62,1.16-2.4,4.9-2.4,6.25ZM105,36.74c.77.57,2.83,5.72,3.36,6.73h-6.25a22.77,22.77,0,0,1,1.44-3.37A21.29,21.29,0,0,0,105,36.74Zm-97-16.81H51.39V31.7H7.92V19.93ZM95.58,47.55H79.73a46,46,0,0,1-1.89,6c-.47,1.4-1.55,5.74-2.43,5.74s-2-4.07-2.5-5.68a62.78,62.78,0,0,0-2.07-6.09H62.68c-2.17,0-7,.69-7-1.44V5.52a1.86,1.86,0,0,1,1.45-1.44H117A1.81,1.81,0,0,1,118.87,6V45.63c0,2.26-2.1,1.92-4.32,1.92-.27-1.17-1.71-3.83-2.26-5.18l-5.91-12.83a6,6,0,0,0-1.43-2.4Z"/><path class="cls-1" d="M31.46,55.71c1.61,0,1.52.51,2.69,2.36.68,1.09,1.22,2,1.92,3.12,1.31,2,2.48,4.09,3.79,6H23.77c.24-1,3-5,3.6-6s3-5.52,4.09-5.52ZM18.25,67.24c.8,0,1.34-1.31,1.69-1.91l3.88-6.21c1.95-3,3.39-6.53,6.31-7.38,4.71-1.37,6.47,2.61,8,5l4,6.36c.28.47.38.66.64,1l.73,1V43.71H15.85V67.24Zm-6.48-23v23c0,3,2.21,4.32,5.28,4.32H42.51c4.07,0,5.28-1.94,5.28-6V45.39c0-3.19-.94-5.77-4.08-5.77H15.85C13.33,39.62,11.77,41.61,11.77,44.19Z"/><path class="cls-1" d="M70.12,17.29l2.7-2.58c.76.16,3.12,1.69,5.34-.43A2.7,2.7,0,0,0,79.25,12h4.08c.21,2.48,3,4.51,6.49,2.64l2.58,2.7c-1.69,3.58.13,6.21,2.7,6.42v4.09a2,2,0,0,0-1.36.32,4,4,0,0,0-1.28,5.92l-2.7,2.83c-3.69-1.88-6.21.07-6.43,2.69H79.25c-.06-2.44-2.61-4.69-6.48-2.64l-2.59-2.7c.95-1.87,1.28-4-.59-5.64a3,3,0,0,0-2.11-.78V23.77c2.22-.18,4.72-2.56,2.64-6.48Zm5-6.24L72.82,8.83l-8.4,8.52,2.15,2.29-3.17.05v12h3.36l-2.34,2.46c.41.63,7.57,8.08,8.59,8.35l2.11-2c.16,4.12-2.13,3.18,12.29,3.18V40.59c.87.57,1.3,1.62,2.41,1.92l8.46-8.35-2.52-2.4,3.42-.06v-12H96.06l2.1-2.22L89.63,8.83,87.47,11.1l-.06-3.17H75.17Z"/><path class="cls-1" d="M20.89,106.87c-.62,0-1,0-1-.72V92.22c0-2.64,4.59,1.29,6.68,2.69l4.19,2.77c2.83,1.93-1.41,3.93-4.19,5.78-1,.69-4.69,3.41-5.72,3.41ZM15.85,92v14.41a5.2,5.2,0,0,0,5,4.8c1.65,0,3.36-1.28,4.47-2l4-2.69c4-2.66,6.39-3.36,6.39-7.78,0-3.36-3.57-5-6.34-6.87-2.06-1.37-6.12-4.66-8.55-4.66A5,5,0,0,0,15.85,92Z"/><path class="cls-1" d="M75.41,25.94c0-3.7,2.7-6,6.24-6,4.84,0,7.4,6.46,3.92,9.92a5.91,5.91,0,0,1-10.16-3.91Zm-4.09-.24c0,9.14,10.93,13.14,16.76,7.39,7-7,1.34-17.24-6.19-17.24h-1.2C75.75,15.85,71.32,20.63,71.32,25.7Z"/><path class="cls-1" d="M55.47,75.89v3.6H83.33c0-2.85.41-4.32-.72-4.32H56.19C55.64,75.17,55.47,75.33,55.47,75.89Z"/><rect class="cls-2" x="55.47" y="91.26" width="27.86" height="4.08"/><rect class="cls-2" x="55.47" y="83.33" width="27.86" height="4.08"/><path class="cls-1" d="M67.24,68c0,2.48-.34,3.6.72,3.6H83.33c0-2.84.41-4.32-.72-4.32H68C67.41,67.24,67.24,67.41,67.24,68Z"/><path class="cls-1" d="M55.47,68v3.6h7.45c1.07,0,.72-1.12.72-3.6,0-.55-.17-.72-.72-.72H56.19C55.64,67.24,55.47,67.41,55.47,68Z"/><path class="cls-1" d="M13.69,24.5c0,4.12-.84,3.36,4.32,3.36V23.77C15.16,23.77,13.69,23.37,13.69,24.5Z"/><path class="cls-1" d="M67.24,102.54c0,1.07,1.12.72,3.6.72,1.11,0,.72-1.35.72-4.08H67.24Z"/><rect class="cls-2" x="19.69" y="47.55" width="4.08" height="4.08"/><rect class="cls-2" x="29.78" y="23.77" width="4.08" height="4.08"/><rect class="cls-2" x="79.25" y="99.18" width="4.08" height="4.08"/><rect class="cls-2" x="21.85" y="23.77" width="4.08" height="4.08"/><rect class="cls-2" x="55.47" y="99.18" width="4.08" height="4.08"/></g></g></svg>