<svg id="Layer_1" data-name="Layer 1" xmlns="http://www.w3.org/2000/svg" xmlns:xlink="http://www.w3.org/1999/xlink" viewBox="0 0 1477.88 1099.68"><defs><style>.cls-1{fill:url(#linear-gradient);}.cls-2{fill:url(#linear-gradient-2);}.cls-3{fill:url(#linear-gradient-3);}.cls-4{fill:url(#linear-gradient-4);}.cls-5,.cls-6,.cls-7{fill:none;}.cls-5,.cls-6{stroke-linecap:round;}.cls-10,.cls-5,.cls-6,.cls-7{stroke-miterlimit:10;}.cls-5{stroke:url(#linear-gradient-5);}.cls-6{stroke:url(#linear-gradient-6);}.cls-7{stroke-width:10px;stroke:url(#linear-gradient-7);}.cls-8{fill:url(#linear-gradient-8);}.cls-9{fill:url(#linear-gradient-9);}.cls-10{fill:url(#linear-gradient-10);stroke:url(#linear-gradient-11);}</style><linearGradient id="linear-gradient" x1="1262.55" y1="2343.27" x2="-807.4" y2="93.86" gradientTransform="matrix(1, 0, 0, -1, 0, 1948)" gradientUnits="userSpaceOnUse"><stop offset="0" stop-color="#272c6b"/><stop offset="1" stop-color="#5475b9"/></linearGradient><linearGradient id="linear-gradient-2" x1="13.1" y1="1543.55" x2="900.6" y2="1543.55" xlink:href="#linear-gradient"/><linearGradient id="linear-gradient-3" x1="13" y1="1442.99" x2="342.39" y2="1442.99" xlink:href="#linear-gradient"/><linearGradient id="linear-gradient-4" x1="13" y1="1696.3" x2="1400.3" y2="1696.3" gradientTransform="matrix(1, 0, 0, -1, 0, 1948)" gradientUnits="userSpaceOnUse"><stop offset="0.02" stop-color="#0034e3" stop-opacity="0.6"/><stop offset="0.22" stop-color="#004de7" stop-opacity="0.5"/><stop offset="0.61" stop-color="#008ef3" stop-opacity="0.26"/><stop offset="1" stop-color="#00d2ff" stop-opacity="0"/></linearGradient><linearGradient id="linear-gradient-5" x1="717.76" y1="1802.9" x2="814.8" y2="1802.9" gradientTransform="matrix(1, 0, 0, -1, 0, 1948)" gradientUnits="userSpaceOnUse"><stop offset="0" stop-color="#00d2ff"/><stop offset="0.31" stop-color="#57e1ff"/><stop offset="0.64" stop-color="#b1f1ff"/><stop offset="0.88" stop-color="#e9fbff"/><stop offset="1" stop-color="#fff"/></linearGradient><linearGradient id="linear-gradient-6" x1="12.6" y1="1589.07" x2="228.3" y2="1589.07" xlink:href="#linear-gradient-5"/><linearGradient id="linear-gradient-7" x1="223.5" y1="1552" x2="626.5" y2="1552" gradientTransform="matrix(1, 0, 0, -1, -12.6, 1935.5)" xlink:href="#linear-gradient"/><linearGradient id="linear-gradient-8" x1="381.51" y1="2115.45" x2="491.21" y2="2115.45" gradientTransform="matrix(1, 0, 0, -1, 0, 2522)" gradientUnits="userSpaceOnUse"><stop offset="0" stop-color="#282d6c"/><stop offset="1" stop-color="#5374b8"/></linearGradient><linearGradient id="linear-gradient-9" x1="380.76" y1="2115.45" x2="491.96" y2="2115.45" xlink:href="#linear-gradient-8"/><linearGradient id="linear-gradient-10" x1="334.55" y1="2112.79" x2="374.84" y2="2112.79" xlink:href="#linear-gradient-8"/><linearGradient id="linear-gradient-11" x1="333.95" y1="408.98" x2="375.43" y2="408.98" gradientUnits="userSpaceOnUse"><stop offset="0" stop-color="#282d6c"/><stop offset="0.38" stop-color="#384889"/><stop offset="1" stop-color="#5374b8"/></linearGradient></defs><path class="cls-1" d="M1483.4,13H181.9A168.88,168.88,0,0,0,13,181.9v914.9c78.4,23.2,164,22.7,232.8-19.2,50-30.4,84.8-78.2,111.2-131.3V580.8A196.65,196.65,0,0,1,227.8,369c12.9-96,95.2-170,194.7-170a196,196,0,0,1,156.9,78.2h843.4c2.1-2.5,4.2-5.1,6.2-7.8C1484,197.7,1502,101.2,1483.4,13Z" transform="translate(-12.6 -12.5)"/><path class="cls-2" d="M900.6,13c-15.4,36.2-38.3,68.8-68.9,94.5-29,24.4-62.1,41.4-97.6,54-28.9,10.3-59.4,17.8-90.5,24-49.5,9.9-100.7,16.6-149.6,26.8a196.24,196.24,0,0,0-71.4-13.4c-99.5,0-181.8,74-194.7,170.1a197.85,197.85,0,0,0,3.4,71.5c-5,16.8-9.4,33.9-13.8,51.1-12.7,50-24.8,100.6-47,146.2-33.2,68.3-90,123-157.4,158.1v-614C13,88.6,88.6,13,181.9,13Z" transform="translate(-12.6 -12.5)"/><path class="cls-3" d="M307.7,856.5c-42.6,72.7-119.9,122-201.9,136a326.75,326.75,0,0,1-92.1,2.3.77.77,0,0,1-.7-.8V67A54.05,54.05,0,0,1,67.1,13H259.7a.84.84,0,0,1,.7.4,157,157,0,0,1,14,51.6,172.34,172.34,0,0,1,.5,25.9c-4.6,91.7-75.2,178.2-90.2,266.9-3.9,23-4,46.1,1.7,69.6,5.8,23.7,17,44.6,30.8,64.2,29.6,42.2,71.3,78.4,96.9,123.9C355.1,688.3,350.3,783.8,307.7,856.5Z" transform="translate(-12.6 -12.5)"/><path class="cls-4" d="M1400.3,13c-34,94-90.3,180-163.9,247.7-6.1,5.6-12.4,11.1-18.8,16.5H754.5c-11.1-8.4-22-17.1-32.7-25.9l-3-2.4c-25.2-20.8-50.1-42.5-75.4-63.3-45.8-37.7-93.4-72.7-147.7-95.8C425.8,60.2,339.7,55.6,275,91a170.16,170.16,0,0,0-39.9,30.1c-60.3,61.4-73.3,151.1-102.3,229.3C111,409.3,80,461.6,13,490.4V67.6A54.67,54.67,0,0,1,67.6,13Z" transform="translate(-12.6 -12.5)"/><path class="cls-5" d="M718.3,277.2c-.1-7.2,0-14.3.2-21.5.1-2.3.2-4.6.3-6.8a380.21,380.21,0,0,1,15.1-87.3A411.72,411.72,0,0,1,814.3,13" transform="translate(-12.6 -12.5)"/><path class="cls-6" d="M227.8,369.1a422.4,422.4,0,0,0-42.9-11.2,455.34,455.34,0,0,0-52-7.5,462.39,462.39,0,0,0-119.8,5.5" transform="translate(-12.6 -12.5)"/><circle class="cls-7" cx="412.4" cy="383.5" r="196.5"/><path class="cls-8" d="M479.81,513.6h-86.9a11.39,11.39,0,0,1-11.4-11.4V310.9a11.39,11.39,0,0,1,11.4-11.4h86.9a11.39,11.39,0,0,1,11.4,11.4V502.2A11.39,11.39,0,0,1,479.81,513.6Zm-86.9-212.3a9.6,9.6,0,0,0-9.6,9.6V502.2a9.6,9.6,0,0,0,9.6,9.6h86.9a9.6,9.6,0,0,0,9.6-9.6V310.9a9.6,9.6,0,0,0-9.6-9.6Zm43.2,208.3a8.6,8.6,0,1,1,8.6-8.6,8.6,8.6,0,0,1-8.6,8.6Zm0-15.5A6.9,6.9,0,1,0,443,501h0A6.91,6.91,0,0,0,436.11,494.1Zm48.2-9.3h-97.4V321.3h97.4Zm-4.3-1.7h2.5V323h-93.9V483.1h3.9V458.4h87.4v24.7Zm-85.7,0h83.9v-23h-83.9Zm63.5-29.5h-45V438.7h45Zm-43.2-1.8h41.5V440.4h-41.5Zm65.5-30.6h-25.5V395.8H480Zm-23.7-1.7h21.9V397.6h-22Zm-7.3,1.7h-25.5V395.8H449Zm-23.7-1.7h21.9V397.6h-22Zm-8.2,1.7h-25.5V395.8h25.5Zm-23.7-1.8h21.9V397.5h-22Zm86.4-32.3h-87.3V326.6h87.3Zm-85.5-1.8h83.8v-57h-83.8ZM450,316.8h-23.6a3.4,3.4,0,0,1,0-6.8h23.5a3.4,3.4,0,0,1,.1,6.8Zm-23.6-5.1a1.69,1.69,0,0,0-1.7,1.7,1.63,1.63,0,0,0,1.7,1.7h23.5a1.69,1.69,0,0,0,1.7-1.7,1.63,1.63,0,0,0-1.7-1.7h-23.5Z" transform="translate(-12.6 -12.5)"/><path class="cls-9" d="M479.81,514.35h-86.9a12.16,12.16,0,0,1-12.15-12.15V310.9a12.16,12.16,0,0,1,12.15-12.15h86.9A12.16,12.16,0,0,1,492,310.9V502.2A12.16,12.16,0,0,1,479.81,514.35Zm-86.9-214.1a10.67,10.67,0,0,0-10.65,10.65V502.2a10.67,10.67,0,0,0,10.65,10.65h86.9a10.67,10.67,0,0,0,10.65-10.65V310.9a10.67,10.67,0,0,0-10.65-10.65Zm86.9,212.3h-86.9a10.36,10.36,0,0,1-10.35-10.35V310.9a10.36,10.36,0,0,1,10.35-10.35h86.9a10.36,10.36,0,0,1,10.35,10.35V502.2A10.36,10.36,0,0,1,479.81,512.55Zm-86.9-210.5a8.86,8.86,0,0,0-8.85,8.85V502.2a8.86,8.86,0,0,0,8.85,8.85h86.9a8.86,8.86,0,0,0,8.85-8.85V310.9a8.86,8.86,0,0,0-8.85-8.85Zm43.2,208.3a9.35,9.35,0,0,1,0-18.7,9.25,9.25,0,0,1,9.35,9.35A9.36,9.36,0,0,1,436.11,510.35Zm0-17.2A7.85,7.85,0,1,0,444,501,7.77,7.77,0,0,0,436.11,493.15Zm0,15.5a7.65,7.65,0,1,1,7.65-7.67A7.66,7.66,0,0,1,436.11,508.65Zm0-13.8a6.15,6.15,0,1,0,6.15,6.15A6.16,6.16,0,0,0,436.11,494.85Zm48.95-9.3h-98.9v-165h98.9Zm-97.4-1.5h95.9v-162h-95.9Zm95.6-.2h-4.1v-24.7h-85.9v24.7h-5.4V322.25h95.4Zm-2.6-1.5h1.1V323.75h-92.4v158.6h2.4v-24.7h88.9Zm-1.7,1.5h-85.4v-24.5H479Zm-83.9-1.5h82.4v-21.5h-82.4Zm63.5-28h-46.5V438h46.5Zm-45-1.5h43.5v-13.4h-43.5Zm43.3-.3h-43v-12.9h43Zm-41.5-1.5h40v-9.9h-40Zm65.5-29.1h-27v-26.9h26.9Zm-25.5-1.5h24l-.1-23.9h-23.9Zm-5.5,1.5h-27v-26.9h26.9Zm-25.5-1.5h24l-.1-23.9h-23.9ZM418,422H391v-26.9h27Zm-25.5-1.5h24v-23.9h-24Zm86.6-.2h-23.4l-.1-23.4h23.5Zm-21.91-1.5h20.41v-20.4h-20.5Zm-9.09,1.5h-23.4l-.1-23.4h23.5Zm-21.91-1.5h20.41v-20.4h-20.5Zm-10,1.4h-23.4l-.11-23.4h23.51Zm-21.91-1.5h20.41v-20.4h-20.5Zm86.41-30.8h-88.8v-62h88.8Zm-87.3-1.5h85.8v-59h-85.8Zm85.6-.3h-85.3v-58.5H479Zm-83.8-1.5h82.3v-55.5h-82.3Zm54.85-67h-23.6a4.15,4.15,0,1,1,0-8.3h23.5a4.15,4.15,0,0,1,.1,8.3Zm-23.6-6.8a2.65,2.65,0,1,0,0,5.3H450a2.65,2.65,0,0,0-.1-5.3Zm23.5,5.1h-23.5A2.37,2.37,0,0,1,424,313.4a2.42,2.42,0,0,1,2.45-2.45h23.5a2.37,2.37,0,0,1,2.45,2.45A2.43,2.43,0,0,1,449.91,315.85Zm-23.5-3.4a.94.94,0,0,0-1,.95.88.88,0,0,0,1,1h23.5a.94.94,0,0,0,.95-1,.88.88,0,0,0-.95-.95Z" transform="translate(-12.6 -12.5)"/><path class="cls-10" d="M354.3,512.3c-8.8,0-10.32-11.1-10.58-14.48h-.05l0-130.39L344,352.9l-9.41-13.69,20.19-33.09L374.84,339l-9.51,14V497.82h-.06c-.26,3.35-1.81,14.29-10.74,14.48Zm-7.51-14c.37,3.37,1.87,11.1,7.68,11s7.35-7.65,7.73-11Zm-.12-3.51h15.66V380.42H346.67Zm0-117.79h15.66v-6.6H346.67Zm0-10h15.63v-15l8.94-13.16-15-24.48-.06,16.61c1.94,1,3.23,4,3.23,7.91,0,4.81-2,8.29-4.74,8.29S350,343.77,350,339c0-3.87,1.3-6.89,3.25-7.91l.06-16.82-15.19,24.88L347,352Zm8.1-31.23a7.74,7.74,0,0,0-.67,3.35,7.41,7.41,0,0,0,.7,3.39,7.57,7.57,0,0,0,.69-3.39A7.34,7.34,0,0,0,354.8,335.81Z" transform="translate(-12.6 -12.5)"/></svg>