<svg xmlns="http://www.w3.org/2000/svg" xmlns:xlink="http://www.w3.org/1999/xlink" viewBox="0 0 1101.6 958.61"><defs><style>.cls-1{isolation:isolate;}.cls-2{fill:#af9cda;opacity:0.4;}.cls-3{fill:url(#linear-gradient);}.cls-4{fill:#c0deed;}.cls-5,.cls-6{fill:#eca0a4;}.cls-17,.cls-19,.cls-6{mix-blend-mode:multiply;}.cls-7{fill:#3b2314;}.cls-8{fill:#fff;}.cls-9{fill:#df757b;}.cls-10{fill:#944c52;}.cls-11{fill:#404041;}.cls-12{fill:#231f20;}.cls-13{fill:#1a1a1a;}.cls-14{fill:#e4f5fd;}.cls-15{fill:#b3b3b3;}.cls-16{fill:#4d4d4d;}.cls-17,.cls-18{fill:#2b388f;}.cls-19{fill:#97c5da;}.cls-20{fill:none;}.cls-21,.cls-22,.cls-23,.cls-24,.cls-25,.cls-26,.cls-27,.cls-28,.cls-29,.cls-30,.cls-31,.cls-32,.cls-33,.cls-34,.cls-35,.cls-36,.cls-37,.cls-38,.cls-39,.cls-40,.cls-41,.cls-42,.cls-43,.cls-44,.cls-45,.cls-46,.cls-47,.cls-48,.cls-49,.cls-50,.cls-51,.cls-52,.cls-53,.cls-54,.cls-55,.cls-56,.cls-57,.cls-58,.cls-59,.cls-60,.cls-61,.cls-62{fill:#afafaf;}.cls-21{opacity:0;}.cls-22{opacity:0.02;}.cls-23{opacity:0.05;}.cls-24{opacity:0.07;}.cls-25{opacity:0.1;}.cls-26{opacity:0.12;}.cls-27{opacity:0.15;}.cls-28{opacity:0.17;}.cls-29{opacity:0.2;}.cls-30{opacity:0.22;}.cls-31{opacity:0.24;}.cls-32{opacity:0.27;}.cls-33{opacity:0.29;}.cls-34{opacity:0.32;}.cls-35{opacity:0.34;}.cls-36{opacity:0.37;}.cls-37{opacity:0.39;}.cls-38{opacity:0.41;}.cls-39{opacity:0.44;}.cls-40{opacity:0.46;}.cls-41{opacity:0.49;}.cls-42{opacity:0.51;}.cls-43{opacity:0.54;}.cls-44{opacity:0.56;}.cls-45{opacity:0.59;}.cls-46{opacity:0.61;}.cls-47{opacity:0.63;}.cls-48{opacity:0.66;}.cls-49{opacity:0.68;}.cls-50{opacity:0.71;}.cls-51{opacity:0.73;}.cls-52{opacity:0.76;}.cls-53{opacity:0.78;}.cls-54{opacity:0.8;}.cls-55{opacity:0.83;}.cls-56{opacity:0.85;}.cls-57{opacity:0.88;}.cls-58{opacity:0.9;}.cls-59{opacity:0.93;}.cls-60{opacity:0.95;}.cls-61{opacity:0.98;}.cls-63{fill:#00b456;}.cls-64{fill:#3d83d9;}.cls-65{fill:url(#Degradado_sin_nombre_24);}.cls-66{fill:#395196;}</style><linearGradient id="linear-gradient" x1="43.97" y1="477.94" x2="999.86" y2="477.94" gradientUnits="userSpaceOnUse"><stop offset="0" stop-color="#272c6b"/><stop offset="1" stop-color="#5475b9"/></linearGradient><linearGradient id="Degradado_sin_nombre_24" x1="-7442.36" y1="3056.88" x2="-7348.01" y2="3165.41" gradientTransform="translate(-6398.61 3641.33) rotate(180)" gradientUnits="userSpaceOnUse"><stop offset="0" stop-color="#5d3fd2"/><stop offset="0.42" stop-color="#b829a9"/><stop offset="0.5" stop-color="#bf289d"/><stop offset="0.64" stop-color="#d0257e"/><stop offset="0.78" stop-color="#e62256"/><stop offset="0.81" stop-color="#e83156"/><stop offset="0.87" stop-color="#ee5755"/><stop offset="0.95" stop-color="#f89554"/><stop offset="1" stop-color="#ffc153"/></linearGradient></defs><title>Asset 24</title><g class="cls-1"><g id="Layer_2" data-name="Layer 2"><g id="Text"><circle class="cls-2" cx="520.99" cy="544.7" r="413.91" transform="translate(-232.57 527.94) rotate(-45)"/><path class="cls-3" d="M999.86,477.94a478.53,478.53,0,0,1-247,418.55Q746,900.29,739,903.86a475.42,475.42,0,0,1-194.74,51.51c-2.74.13-5.48.24-8.23.31q-7,.21-14.11.21A478.13,478.13,0,0,1,390,937.46q-17.66-5.06-34.73-11.42-7.08-2.62-14-5.47a474.81,474.81,0,0,1-79.22-41.45C130.79,793.94,44,646.08,44,477.94,44,214,258,0,521.91,0,766.17,0,967.65,183.24,996.34,419.76A479.5,479.5,0,0,1,999.86,477.94Z"/><path class="cls-4" d="M595.59,528.06s116.38,3,178.63,85.4a114.13,114.13,0,0,1,17.36,34.18L814,745.08,712.88,752Z"/><path class="cls-5" d="M752.84,896.49l-2.53-7.17L739,857.2,723.1,812.12v-59L739,751l11.06-1.52,63-8.64h0l17.65,65.06,2.78,10.24,5.69,18.76C837.18,841.88,788.92,876.55,752.84,896.49Z"/><path class="cls-6" d="M830.71,805.88c-33.83,2.3-87.72-4.64-107.61-7.47V753.16l90-12.34Z"/><path class="cls-5" d="M355.31,757.37V926q-7.08-2.62-14-5.47a474.81,474.81,0,0,1-79.22-41.45l-.1-11.57-.6-68.78-.12-14-.24-27.4Z"/><path class="cls-6" d="M355.31,757.37v54.08c-26.86-.46-67.26-7.44-94-12.68l-.36-41.4Z"/><path class="cls-4" d="M500.14,522.92s-137,3.53-210.33,100.56a134.4,134.4,0,0,0-20.44,40.24L243,784.44,362,786.62Z"/><path class="cls-4" d="M739,700.13V903.86a474.14,474.14,0,0,1-97.92,37A411.56,411.56,0,0,1,544.25,958c-2.73.16-5.48.28-8.23.38q-7.49.27-15,.27-17.17,0-34-1.38A411.48,411.48,0,0,1,390,937.46q-17.66-5.06-34.73-11.42-7.08-2.62-14-5.47V700.13c0-72.67,39.73-136.11,97.65-167.81a0,0,0,0,0,0,0,175.25,175.25,0,0,1,29.59-12.84,173,173,0,0,1,17.09-4.67c2-.44,4-.85,6.08-1.21a172.76,172.76,0,0,1,30.94-2.78h35a172.79,172.79,0,0,1,31,2.78c2,.36,4.06.77,6.07,1.21a172,172,0,0,1,17.08,4.66A176.36,176.36,0,0,1,648,536.14h0C702.28,569,739,630.28,739,700.13Z"/><path class="cls-7" d="M451.73,202H416.11V335.71s-.63,61.57,35.62,74.29Z"/><path class="cls-7" d="M628.53,202h35.62V335.71s.64,61.57-35.62,74.29Z"/><path class="cls-5" d="M594.64,447.23v87a54.52,54.52,0,1,1-109,0v-87a54.52,54.52,0,0,1,109,0Z"/><path class="cls-6" d="M594.64,447.23v63.5c-51.75.23-88.88-14.22-109-24.76V447.23a54.52,54.52,0,0,1,109,0Z"/><path class="cls-5" d="M642.66,238.56V393.28c0,51.45-42.08,93.52-93.49,93.52h-18c-51.42,0-93.53-42.07-93.53-93.52V238.56c0-51.45,42.11-93.52,93.53-93.52h18C600.58,145,642.66,187.11,642.66,238.56Z"/><path class="cls-6" d="M642.66,238.56v42.81c-118.82,22.45-177.94-7.44-205.07-31.73V238.56c0-51.45,42.11-93.52,93.53-93.52h18C600.58,145,642.66,187.11,642.66,238.56Z"/><path class="cls-7" d="M664.15,199.13c0-38.44-55.53-69.61-124-69.61s-124,31.17-124,69.61c0,12.84,6.22,24.86,17,35.18v29.85l3.73,65.95h6a9.19,9.19,0,0,0,9.42-8.93V279.27c8.44-7.27,12.11-17,13.71-24.33,20.68,8.67,46.34,13.8,74.14,13.8s53.46-5.13,74.14-13.8c1.6,7.33,5.27,17.06,13.72,24.33v41.91a9.18,9.18,0,0,0,9.41,8.93h6l3.72-65.95V234.31C657.93,224,664.15,212,664.15,199.13Z"/><path class="cls-8" d="M493.36,382.48a47.17,47.17,0,0,0,93.54,0Z"/><path class="cls-9" d="M549.19,364.17H531.07a6.93,6.93,0,0,1-6.92-6.91h0a6.94,6.94,0,0,1,6.92-6.92h18.12a6.94,6.94,0,0,1,6.92,6.92h0A6.93,6.93,0,0,1,549.19,364.17Z"/><path class="cls-10" d="M506,322.54a2.07,2.07,0,0,1-1.47-.61,19.18,19.18,0,0,0-27.11,0,2.07,2.07,0,0,1-2.93-2.92,23.31,23.31,0,0,1,33,0,2.06,2.06,0,0,1,0,2.92A2,2,0,0,1,506,322.54Z"/><path class="cls-7" d="M510.16,297.7a4.14,4.14,0,0,1-2.93-1.22,23,23,0,0,0-32.47,0,4.14,4.14,0,0,1-5.86-5.86,31.25,31.25,0,0,1,44.19,0,4.15,4.15,0,0,1-2.93,7.08Z"/><path class="cls-10" d="M604.29,322.54a2.07,2.07,0,0,1-1.47-.61,19.18,19.18,0,0,0-27.11,0,2.07,2.07,0,1,1-2.93-2.92,23.31,23.31,0,0,1,33,0,2.06,2.06,0,0,1,0,2.92A2,2,0,0,1,604.29,322.54Z"/><path class="cls-7" d="M608.43,297.7a4.14,4.14,0,0,1-2.93-1.22,23,23,0,0,0-32.47,0,4.14,4.14,0,1,1-5.86-5.86,31.25,31.25,0,0,1,44.19,0,4.15,4.15,0,0,1-2.93,7.08Z"/><path d="M539.65,459.13H513.9a11.48,11.48,0,0,1-11.45-11.45h0a11.48,11.48,0,0,1,11.45-11.45h25.75a11.48,11.48,0,0,1,11.45,11.45h0A11.48,11.48,0,0,1,539.65,459.13Z"/><path class="cls-11" d="M506.26,451.34H463.89a40.18,40.18,0,0,1-37.6-25.62l-.21-.73-11.22-63.93a3.82,3.82,0,0,1,7.52-1.32l11.15,63.54a32.59,32.59,0,0,0,30.36,20.43h42.37a3.82,3.82,0,0,1,0,7.63Z"/><path d="M437.6,303.65v64.14a4.3,4.3,0,0,1-4.31,4.31h-9.65c-.54,0-1.07,0-1.57-.07-12.52-1.22-22.44-17-22.44-36.33s9.92-35.07,22.44-36.29c.5,0,1-.08,1.57-.08h9.65A4.31,4.31,0,0,1,437.6,303.65Z"/><path class="cls-11" d="M437.6,303.65v64.14a4.3,4.3,0,0,1-4.31,4.31h-9.65c-.54,0-1.07,0-1.57-.07V299.41c.5,0,1-.08,1.57-.08h9.65A4.31,4.31,0,0,1,437.6,303.65Z"/><path d="M642.66,303.65v64.14A4.3,4.3,0,0,0,647,372.1h9.66c.53,0,1.07,0,1.56-.07,12.52-1.22,22.44-17,22.44-36.33s-9.92-35.07-22.44-36.29c-.49,0-1-.08-1.56-.08H647A4.31,4.31,0,0,0,642.66,303.65Z"/><path class="cls-11" d="M642.66,303.65v64.14A4.3,4.3,0,0,0,647,372.1h9.66c.53,0,1.07,0,1.56-.07V299.41c-.49,0-1-.08-1.56-.08H647A4.31,4.31,0,0,0,642.66,303.65Z"/><path class="cls-12" d="M544.25,595.49V958c-2.73.16-5.48.28-8.23.38V595.49Z"/><path class="cls-13" d="M694.38,647.86v59.31a1.52,1.52,0,0,1-1.51,1.51H676.09a1.49,1.49,0,0,1-1.51-1.51V647.86a1.5,1.5,0,0,1,1.51-1.51h16.78A1.52,1.52,0,0,1,694.38,647.86Z"/><path class="cls-14" d="M614,673.61h88.39a0,0,0,0,1,0,0V797.78a3.87,3.87,0,0,1-3.87,3.87H617.87a3.87,3.87,0,0,1-3.87-3.87V673.61A0,0,0,0,1,614,673.61Z"/><rect class="cls-8" x="614" y="673.61" width="88.39" height="14.48"/><rect class="cls-15" x="677.99" y="659.12" width="12.96" height="49.54"/><path class="cls-16" d="M694.38,647.86V654h-19.8v-6.13a1.5,1.5,0,0,1,1.51-1.51h16.78A1.52,1.52,0,0,1,694.38,647.86Z"/><polygon class="cls-17" points="565.18 843.99 565.18 854 499.29 854 499.82 848.99 500.35 843.99 565.18 843.99"/><polygon class="cls-18" points="573.36 581.23 568.62 592.94 562.21 608.66 558.64 617.43 556.61 622.44 523.64 622.44 521.61 617.43 517.94 608.42 511.66 592.94 506.89 581.23 524.44 556.07 555.81 556.07 573.36 581.23"/><polygon class="cls-19" points="523.58 546.13 533.28 556.07 517.94 608.42 512.73 626.17 505.96 602.62 499.29 579.39 523.58 546.13"/><polygon class="cls-19" points="580.8 579.39 574.19 602.42 567.35 626.17 562.21 608.66 546.8 556.07 547 556.07 556.61 546.23 580.8 579.39"/><polygon class="cls-14" points="533.28 556.07 511.66 592.94 505.96 602.62 503.09 607.52 468.19 518.63 485.61 507.39 523.58 546.13 533.28 556.07"/><polygon class="cls-14" points="612.06 518.63 577.16 607.52 574.19 602.42 568.62 592.94 547 556.07 556.61 546.23 594.64 507.39 612.06 518.63"/><polygon class="cls-15" points="565.18 838.98 565.18 848.99 496.48 848.99 497.55 838.98 565.18 838.98"/><path d="M669.87,315.92H658.43V202c-.1-2.19-3.49-58.22-107.14-66.7H529c-103.65,8.48-107,64.51-107.14,66.89v113.7H410.39V202c.08-3,3.2-68.84,117.89-78.13l.46,0h22.78l.47,0c114.68,9.29,117.81,75.17,117.88,78Z"/><polygon class="cls-17" points="559.48 649.26 521.54 641.82 521.77 639.65 534.69 632.64 546.23 633.01 558.48 639.65 559.48 649.26"/><polygon class="cls-17" points="558.64 617.43 556.61 622.44 523.64 622.44 521.61 617.43 558.64 617.43"/><polygon class="cls-18" points="560.19 640.21 520.07 640.21 522.05 620.72 558.21 620.72 560.19 640.21"/><path class="cls-20" d="M934.9,544.7A414.13,414.13,0,0,1,750.31,889.32q-5.59,3.75-11.32,7.29A411.76,411.76,0,0,1,544.25,958c-2.73.16-5.48.28-8.23.38q-7.49.27-15,.27A413.29,413.29,0,0,1,390,937.46q-17.73-5.9-34.73-13.34-7.1-3.11-14-6.46A414.09,414.09,0,0,1,262,867.55C167.52,791.69,107.08,675.26,107.08,544.7c0-214.49,163.13-390.86,372.1-411.82q18.27-1.84,37-2.06h0c1.59,0,3.18,0,4.78,0a415.21,415.21,0,0,1,80.48,7.83h0q14.17,2.77,28,6.54h0C774.34,184.4,887.66,300.3,923.21,446.63A414.86,414.86,0,0,1,934.9,544.7Z"/><path class="cls-8" d="M147.58,130.36A123.6,123.6,0,0,1,250.12,322.94c0,.37.81,4.14,1.31,6.68,2.31,9.53,8.26,27,22.54,39.48,11.06,9.32-21.83,16.7-45.51,1.06a46.32,46.32,0,0,1-13-12.75l-.09-.15a123.58,123.58,0,1,1-67.81-226.9Z"/><path class="cls-8" d="M64.77,520.58a64.78,64.78,0,0,1,53.75,100.94c0,.19.43,2.17.68,3.5,1.22,5,4.34,14.14,11.82,20.69,5.8,4.89-11.44,8.76-23.85.56a24,24,0,0,1-6.8-6.69l-.05-.07A64.78,64.78,0,1,1,64.77,520.58Z"/><path class="cls-8" d="M904.86,129.88A87.34,87.34,0,0,0,832.41,266c0,.26-.57,2.92-.92,4.72-1.63,6.73-5.84,19.06-15.93,27.89-7.82,6.58,15.42,11.8,32.15.75a32.69,32.69,0,0,0,9.18-9l.06-.1a87.32,87.32,0,1,0,47.91-160.32Z"/><path class="cls-8" d="M994.27,419.73A107.35,107.35,0,0,0,905.21,587c0,.32-.7,3.6-1.13,5.8-2,8.27-7.18,23.44-19.58,34.29-9.61,8.09,19,14.5,39.52.92a40.16,40.16,0,0,0,11.28-11.07.57.57,0,0,1,.08-.13,107.33,107.33,0,1,0,58.89-197.06Z"/><path class="cls-21" d="M250.39,287a79.92,79.92,0,1,0-79.91,79.92A79.92,79.92,0,0,0,250.39,287Z"/><path class="cls-22" d="M249.76,286.19a79.92,79.92,0,1,0-79.91,79.92A79.92,79.92,0,0,0,249.76,286.19Z"/><path class="cls-23" d="M249.13,285.42a79.92,79.92,0,1,0-79.91,79.92A79.92,79.92,0,0,0,249.13,285.42Z"/><path class="cls-24" d="M248.5,284.65a79.92,79.92,0,1,0-79.91,79.92A79.92,79.92,0,0,0,248.5,284.65Z"/><path class="cls-25" d="M247.87,283.88A79.92,79.92,0,1,0,168,363.8,79.92,79.92,0,0,0,247.87,283.88Z"/><path class="cls-26" d="M247.24,283.11A79.92,79.92,0,1,0,167.33,363,79.92,79.92,0,0,0,247.24,283.11Z"/><path class="cls-27" d="M246.61,282.34a79.92,79.92,0,1,0-79.91,79.91A79.92,79.92,0,0,0,246.61,282.34Z"/><path class="cls-28" d="M246,281.56a79.92,79.92,0,1,0-79.91,79.92A79.91,79.91,0,0,0,246,281.56Z"/><path class="cls-29" d="M245.35,280.79a79.92,79.92,0,1,0-79.91,79.92A79.91,79.91,0,0,0,245.35,280.79Z"/><path class="cls-30" d="M244.72,280a79.92,79.92,0,1,0-79.91,79.92A79.92,79.92,0,0,0,244.72,280Z"/><path class="cls-31" d="M244.09,279.25a79.92,79.92,0,1,0-79.91,79.92A79.92,79.92,0,0,0,244.09,279.25Z"/><path class="cls-32" d="M243.46,278.48a79.92,79.92,0,1,0-79.91,79.92A79.92,79.92,0,0,0,243.46,278.48Z"/><path class="cls-33" d="M242.83,277.71a79.92,79.92,0,1,0-79.91,79.92A79.92,79.92,0,0,0,242.83,277.71Z"/><path class="cls-34" d="M242.2,276.94a79.92,79.92,0,1,0-79.91,79.92A79.92,79.92,0,0,0,242.2,276.94Z"/><path class="cls-35" d="M241.57,276.17a79.92,79.92,0,1,0-79.91,79.92A79.92,79.92,0,0,0,241.57,276.17Z"/><path class="cls-36" d="M241,275.4A79.92,79.92,0,1,0,161,355.32,79.92,79.92,0,0,0,241,275.4Z"/><path class="cls-37" d="M240.32,274.63a79.92,79.92,0,1,0-79.92,79.91A79.92,79.92,0,0,0,240.32,274.63Z"/><path class="cls-38" d="M239.69,273.85a79.92,79.92,0,1,0-79.92,79.92A79.92,79.92,0,0,0,239.69,273.85Z"/><path class="cls-39" d="M239.06,273.08A79.92,79.92,0,1,0,159.14,353,79.92,79.92,0,0,0,239.06,273.08Z"/><path class="cls-40" d="M238.43,272.31a79.92,79.92,0,1,0-79.92,79.92A79.92,79.92,0,0,0,238.43,272.31Z"/><path class="cls-41" d="M237.8,271.54a79.92,79.92,0,1,0-79.92,79.92A79.92,79.92,0,0,0,237.8,271.54Z"/><path class="cls-42" d="M237.17,270.77a79.92,79.92,0,1,0-79.92,79.92A79.92,79.92,0,0,0,237.17,270.77Z"/><path class="cls-43" d="M236.54,270a79.92,79.92,0,1,0-79.92,79.92A79.92,79.92,0,0,0,236.54,270Z"/><path class="cls-44" d="M235.91,269.23A79.92,79.92,0,1,0,156,349.15,79.92,79.92,0,0,0,235.91,269.23Z"/><path class="cls-45" d="M235.28,268.46a79.92,79.92,0,1,0-79.92,79.92A79.92,79.92,0,0,0,235.28,268.46Z"/><path class="cls-46" d="M234.65,267.69a79.92,79.92,0,1,0-79.92,79.92A79.92,79.92,0,0,0,234.65,267.69Z"/><path class="cls-47" d="M234,266.92a79.92,79.92,0,1,0-79.92,79.92A79.92,79.92,0,0,0,234,266.92Z"/><path class="cls-48" d="M233.39,266.15a79.92,79.92,0,1,0-79.92,79.91A79.92,79.92,0,0,0,233.39,266.15Z"/><path class="cls-49" d="M232.76,265.37a79.92,79.92,0,1,0-79.92,79.92A79.92,79.92,0,0,0,232.76,265.37Z"/><path class="cls-50" d="M232.13,264.6a79.92,79.92,0,1,0-79.92,79.92A79.92,79.92,0,0,0,232.13,264.6Z"/><path class="cls-51" d="M231.5,263.83a79.92,79.92,0,1,0-79.92,79.92A79.92,79.92,0,0,0,231.5,263.83Z"/><path class="cls-52" d="M230.87,263.06A79.92,79.92,0,1,0,151,343,79.92,79.92,0,0,0,230.87,263.06Z"/><path class="cls-53" d="M230.24,262.29a79.92,79.92,0,1,0-79.92,79.92A79.92,79.92,0,0,0,230.24,262.29Z"/><path class="cls-54" d="M229.61,261.52a79.92,79.92,0,1,0-79.92,79.92A79.92,79.92,0,0,0,229.61,261.52Z"/><path class="cls-55" d="M229,260.75a79.92,79.92,0,1,0-79.91,79.92A79.92,79.92,0,0,0,229,260.75Z"/><path class="cls-56" d="M228.35,260a79.92,79.92,0,1,0-79.91,79.92A79.92,79.92,0,0,0,228.35,260Z"/><path class="cls-57" d="M227.72,259.21a79.92,79.92,0,1,0-79.91,79.92A79.92,79.92,0,0,0,227.72,259.21Z"/><path class="cls-58" d="M227.09,258.44a79.92,79.92,0,1,0-79.91,79.91A79.92,79.92,0,0,0,227.09,258.44Z"/><path class="cls-59" d="M226.46,257.66a79.92,79.92,0,1,0-79.91,79.92A79.91,79.91,0,0,0,226.46,257.66Z"/><path class="cls-60" d="M225.83,256.89a79.92,79.92,0,1,0-79.91,79.92A79.91,79.91,0,0,0,225.83,256.89Z"/><path class="cls-61" d="M225.2,256.12A79.92,79.92,0,1,0,145.29,336,79.91,79.91,0,0,0,225.2,256.12Z"/><path class="cls-62" d="M224.57,255.35a79.92,79.92,0,1,0-79.91,79.92A79.92,79.92,0,0,0,224.57,255.35Z"/><path class="cls-63" d="M224.57,255.35a79.92,79.92,0,1,0-79.91,79.92A79.92,79.92,0,0,0,224.57,255.35Z"/><path class="cls-8" d="M192.69,248.75a47.21,47.21,0,0,0-94.33-.89q-.06,1-.06,2.07a46.43,46.43,0,0,0,6.44,23.63.69.69,0,0,1,.06.56l-8.37,24.7a.43.43,0,0,0,.54.55l25.73-8.18a.72.72,0,0,1,.52.05,47.67,47.67,0,0,0,22.29,5.55,47.08,47.08,0,0,0,47.2-46.86C192.71,249.59,192.69,248.75,192.69,248.75Zm-79,22.28a37.46,37.46,0,0,1-6.46-21.1c0-1.21.06-2.42.18-3.69a38.35,38.35,0,0,1,76.35.71c.09,1.16.13,2.11.13,3a38.36,38.36,0,0,1-54.52,34.46c-1.41-.66-4.08-2.25-4.93-2.76a.69.69,0,0,0-.56-.06l-13,4.11a.37.37,0,0,1-.47-.48l4.18-12.33a.71.71,0,0,0-.09-.63C114.24,271.89,113.83,271.3,113.64,271Z"/><path class="cls-8" d="M168,260.35a10,10,0,0,0-2.33-1.44c-.8-.4-6.71-3.3-7.83-3.7-.95-.34-2-.73-3,.71-.73,1.09-2.88,3.6-3.58,4.39-.49.55-.94.74-2,.19a39.41,39.41,0,0,1-9.08-5.55,33.59,33.59,0,0,1-6.26-7.74c-.5-.85-.18-1.24.44-1.85.38-.37,2.05-2.39,2.18-2.59.26-.4.74-1.37.74-1.37a2.46,2.46,0,0,0-.09-2.32c-.19-.38-3.22-7.68-3.51-8.36-.87-2.07-1.79-2.17-2.67-2.12-.43,0-4.44.06-5.72,1.45l-.22.23a12.72,12.72,0,0,0-3.87,9.43,14.66,14.66,0,0,0,.6,4,26.11,26.11,0,0,0,4.13,8c0,.05,3,4.13,4.45,5.82,4.64,5.34,9.88,9.29,15.17,11.36,6.76,2.64,9.65,3.24,11.29,3.24a25.19,25.19,0,0,0,2.55-.39c2.06-.19,7-2.74,8-5.62C168.3,263.34,168.32,261,168,260.35Z"/><path class="cls-21" d="M123.45,607.22a44.67,44.67,0,1,0-44.67,44.66A44.66,44.66,0,0,0,123.45,607.22Z"/><path class="cls-22" d="M123.1,606.78a44.67,44.67,0,1,0-44.67,44.67A44.66,44.66,0,0,0,123.1,606.78Z"/><path class="cls-23" d="M122.74,606.35A44.67,44.67,0,1,0,78.08,651,44.66,44.66,0,0,0,122.74,606.35Z"/><path class="cls-24" d="M122.39,605.92a44.67,44.67,0,1,0-44.66,44.67A44.67,44.67,0,0,0,122.39,605.92Z"/><path class="cls-25" d="M122,605.49a44.67,44.67,0,1,0-44.67,44.67A44.67,44.67,0,0,0,122,605.49Z"/><path class="cls-26" d="M121.69,605.06A44.67,44.67,0,1,0,77,649.73,44.67,44.67,0,0,0,121.69,605.06Z"/><path class="cls-27" d="M121.34,604.63A44.67,44.67,0,1,0,76.67,649.3,44.67,44.67,0,0,0,121.34,604.63Z"/><path class="cls-28" d="M121,604.2a44.67,44.67,0,1,0-44.66,44.67A44.67,44.67,0,0,0,121,604.2Z"/><path class="cls-29" d="M120.63,603.77A44.67,44.67,0,1,0,76,648.44,44.67,44.67,0,0,0,120.63,603.77Z"/><path class="cls-30" d="M120.28,603.34A44.67,44.67,0,1,0,75.61,648,44.67,44.67,0,0,0,120.28,603.34Z"/><path class="cls-31" d="M119.93,602.91a44.67,44.67,0,1,0-44.67,44.67A44.67,44.67,0,0,0,119.93,602.91Z"/><path class="cls-32" d="M119.58,602.48a44.67,44.67,0,1,0-44.67,44.66A44.66,44.66,0,0,0,119.58,602.48Z"/><path class="cls-33" d="M119.22,602a44.67,44.67,0,1,0-44.66,44.67A44.66,44.66,0,0,0,119.22,602Z"/><path class="cls-34" d="M118.87,601.61a44.67,44.67,0,1,0-44.66,44.67A44.66,44.66,0,0,0,118.87,601.61Z"/><path class="cls-35" d="M118.52,601.18a44.67,44.67,0,1,0-44.67,44.67A44.67,44.67,0,0,0,118.52,601.18Z"/><path class="cls-36" d="M118.17,600.75A44.67,44.67,0,1,0,73.5,645.42,44.67,44.67,0,0,0,118.17,600.75Z"/><path class="cls-37" d="M117.82,600.32A44.67,44.67,0,1,0,73.15,645,44.67,44.67,0,0,0,117.82,600.32Z"/><path class="cls-38" d="M117.46,599.89A44.67,44.67,0,1,0,72.8,644.56,44.67,44.67,0,0,0,117.46,599.89Z"/><path class="cls-39" d="M117.11,599.46a44.67,44.67,0,1,0-44.66,44.67A44.67,44.67,0,0,0,117.11,599.46Z"/><path class="cls-40" d="M116.76,599A44.67,44.67,0,1,0,72.09,643.7,44.67,44.67,0,0,0,116.76,599Z"/><path class="cls-41" d="M116.41,598.6a44.67,44.67,0,1,0-44.67,44.67A44.67,44.67,0,0,0,116.41,598.6Z"/><path class="cls-42" d="M116.06,598.17a44.67,44.67,0,1,0-44.67,44.67A44.67,44.67,0,0,0,116.06,598.17Z"/><path class="cls-43" d="M115.7,597.74A44.67,44.67,0,1,0,71,642.4,44.66,44.66,0,0,0,115.7,597.74Z"/><path class="cls-44" d="M115.35,597.3A44.67,44.67,0,1,0,70.69,642,44.66,44.66,0,0,0,115.35,597.3Z"/><path class="cls-45" d="M115,596.87a44.67,44.67,0,1,0-44.67,44.67A44.66,44.66,0,0,0,115,596.87Z"/><path class="cls-46" d="M114.65,596.44A44.67,44.67,0,1,0,70,641.11,44.67,44.67,0,0,0,114.65,596.44Z"/><path class="cls-47" d="M114.3,596a44.67,44.67,0,1,0-44.67,44.67A44.67,44.67,0,0,0,114.3,596Z"/><path class="cls-48" d="M113.94,595.58a44.67,44.67,0,1,0-44.66,44.67A44.67,44.67,0,0,0,113.94,595.58Z"/><path class="cls-49" d="M113.59,595.15a44.67,44.67,0,1,0-44.66,44.67A44.67,44.67,0,0,0,113.59,595.15Z"/><path class="cls-50" d="M113.24,594.72a44.67,44.67,0,1,0-44.67,44.67A44.67,44.67,0,0,0,113.24,594.72Z"/><path class="cls-51" d="M112.89,594.29A44.67,44.67,0,1,0,68.22,639,44.67,44.67,0,0,0,112.89,594.29Z"/><path class="cls-52" d="M112.53,593.86a44.67,44.67,0,1,0-44.66,44.67A44.66,44.66,0,0,0,112.53,593.86Z"/><path class="cls-53" d="M112.18,593.43A44.67,44.67,0,1,0,67.52,638.1,44.67,44.67,0,0,0,112.18,593.43Z"/><path class="cls-54" d="M111.83,593a44.67,44.67,0,1,0-44.66,44.66A44.66,44.66,0,0,0,111.83,593Z"/><path class="cls-55" d="M111.48,592.56a44.67,44.67,0,1,0-44.67,44.67A44.66,44.66,0,0,0,111.48,592.56Z"/><path class="cls-56" d="M111.13,592.13A44.67,44.67,0,1,0,66.46,636.8,44.66,44.66,0,0,0,111.13,592.13Z"/><path class="cls-57" d="M110.77,591.7a44.67,44.67,0,1,0-44.66,44.67A44.66,44.66,0,0,0,110.77,591.7Z"/><path class="cls-58" d="M110.42,591.27a44.67,44.67,0,1,0-44.66,44.67A44.67,44.67,0,0,0,110.42,591.27Z"/><path class="cls-59" d="M110.07,590.84A44.67,44.67,0,1,0,65.4,635.51,44.67,44.67,0,0,0,110.07,590.84Z"/><path class="cls-60" d="M109.72,590.41a44.67,44.67,0,1,0-44.67,44.67A44.67,44.67,0,0,0,109.72,590.41Z"/><path class="cls-61" d="M109.37,590A44.67,44.67,0,1,0,64.7,634.65,44.67,44.67,0,0,0,109.37,590Z"/><path class="cls-62" d="M109,589.55a44.67,44.67,0,1,0-44.66,44.67A44.66,44.66,0,0,0,109,589.55Z"/><path class="cls-64" d="M109,589.55a44.67,44.67,0,1,0-44.66,44.67A44.66,44.66,0,0,0,109,589.55Z"/><rect class="cls-8" x="43.08" y="578.65" width="10.34" height="29.55"/><path class="cls-8" d="M48.25,563.87A5.18,5.18,0,1,0,53.42,569,5.18,5.18,0,0,0,48.25,563.87Z"/><path class="cls-8" d="M87.4,587.73c-.69-5.57-3.48-9.08-11-9.08-5.34,0-7.47.83-8.69,3.16h0v-3.16H59.33V608.2h8.61V592.73c0-3.86.73-6.78,5.51-6.78s5.08,3.59,5.08,7V608.2H87.4S87.57,589,87.4,587.73Z"/><path class="cls-21" d="M1019.78,486.68a71.91,71.91,0,1,0,71.9,71.91A71.91,71.91,0,0,0,1019.78,486.68Z"/><path class="cls-22" d="M1019.22,486a71.91,71.91,0,1,0,71.89,71.92A71.91,71.91,0,0,0,1019.22,486Z"/><path class="cls-23" d="M1018.65,485.29a71.91,71.91,0,1,0,71.9,71.91A71.91,71.91,0,0,0,1018.65,485.29Z"/><path class="cls-24" d="M1018.08,484.6a71.91,71.91,0,1,0,71.9,71.91A71.9,71.9,0,0,0,1018.08,484.6Z"/><path class="cls-25" d="M1017.52,483.91a71.91,71.91,0,1,0,71.9,71.91A71.9,71.9,0,0,0,1017.52,483.91Z"/><path class="cls-26" d="M1017,483.21a71.91,71.91,0,1,0,71.9,71.92A71.92,71.92,0,0,0,1017,483.21Z"/><path class="cls-27" d="M1016.39,482.52a71.91,71.91,0,1,0,71.89,71.91A71.9,71.9,0,0,0,1016.39,482.52Z"/><path class="cls-28" d="M1015.82,481.83a71.91,71.91,0,1,0,71.9,71.91A71.91,71.91,0,0,0,1015.82,481.83Z"/><path class="cls-29" d="M1015.25,481.14a71.91,71.91,0,1,0,71.9,71.91A71.9,71.9,0,0,0,1015.25,481.14Z"/><path class="cls-30" d="M1014.69,480.44a71.91,71.91,0,1,0,71.9,71.92A71.91,71.91,0,0,0,1014.69,480.44Z"/><path class="cls-31" d="M1014.12,479.75a71.91,71.91,0,1,0,71.9,71.91A71.9,71.9,0,0,0,1014.12,479.75Z"/><path class="cls-32" d="M1013.56,479.06a71.91,71.91,0,1,0,71.9,71.91A71.9,71.9,0,0,0,1013.56,479.06Z"/><path class="cls-33" d="M1013,478.36a71.91,71.91,0,1,0,71.9,71.92A71.92,71.92,0,0,0,1013,478.36Z"/><path class="cls-34" d="M1012.43,477.67a71.91,71.91,0,1,0,71.89,71.91A71.91,71.91,0,0,0,1012.43,477.67Z"/><path class="cls-35" d="M1011.86,477a71.91,71.91,0,1,0,71.9,71.91A71.91,71.91,0,0,0,1011.86,477Z"/><path class="cls-36" d="M1011.29,476.29a71.91,71.91,0,1,0,71.9,71.91A71.9,71.9,0,0,0,1011.29,476.29Z"/><path class="cls-37" d="M1010.73,475.59a71.91,71.91,0,1,0,71.9,71.92A71.91,71.91,0,0,0,1010.73,475.59Z"/><path class="cls-38" d="M1010.16,474.9a71.91,71.91,0,1,0,71.9,71.91A71.91,71.91,0,0,0,1010.16,474.9Z"/><path class="cls-39" d="M1009.6,474.21a71.91,71.91,0,1,0,71.89,71.91A71.9,71.9,0,0,0,1009.6,474.21Z"/><path class="cls-40" d="M1009,473.52a71.91,71.91,0,1,0,71.9,71.91A71.91,71.91,0,0,0,1009,473.52Z"/><path class="cls-41" d="M1008.46,472.82a71.91,71.91,0,1,0,71.9,71.92A71.91,71.91,0,0,0,1008.46,472.82Z"/><path class="cls-42" d="M1007.9,472.13A71.91,71.91,0,1,0,1079.8,544,71.9,71.9,0,0,0,1007.9,472.13Z"/><path class="cls-43" d="M1007.33,471.44a71.91,71.91,0,1,0,71.9,71.91A71.91,71.91,0,0,0,1007.33,471.44Z"/><path class="cls-44" d="M1006.77,470.74a71.91,71.91,0,1,0,71.89,71.92A71.91,71.91,0,0,0,1006.77,470.74Z"/><path class="cls-45" d="M1006.2,470.05A71.91,71.91,0,1,0,1078.1,542,71.91,71.91,0,0,0,1006.2,470.05Z"/><path class="cls-46" d="M1005.63,469.36a71.91,71.91,0,1,0,71.9,71.91A71.9,71.9,0,0,0,1005.63,469.36Z"/><path class="cls-47" d="M1005.07,468.67a71.91,71.91,0,1,0,71.9,71.91A71.9,71.9,0,0,0,1005.07,468.67Z"/><path class="cls-48" d="M1004.5,468a71.91,71.91,0,1,0,71.9,71.92A71.91,71.91,0,0,0,1004.5,468Z"/><path class="cls-49" d="M1003.94,467.28a71.91,71.91,0,1,0,71.9,71.91A71.9,71.9,0,0,0,1003.94,467.28Z"/><path class="cls-50" d="M1003.37,466.59a71.91,71.91,0,1,0,71.9,71.91A71.91,71.91,0,0,0,1003.37,466.59Z"/><path class="cls-51" d="M1002.81,465.9a71.91,71.91,0,1,0,71.89,71.91A71.9,71.9,0,0,0,1002.81,465.9Z"/><path class="cls-52" d="M1002.24,465.2a71.91,71.91,0,1,0,71.9,71.92A71.92,71.92,0,0,0,1002.24,465.2Z"/><path class="cls-53" d="M1001.67,464.51a71.91,71.91,0,1,0,71.9,71.91A71.9,71.9,0,0,0,1001.67,464.51Z"/><path class="cls-54" d="M1001.11,463.82a71.91,71.91,0,1,0,71.9,71.91A71.9,71.9,0,0,0,1001.11,463.82Z"/><path class="cls-55" d="M1000.54,463.12a71.91,71.91,0,1,0,71.9,71.92A71.92,71.92,0,0,0,1000.54,463.12Z"/><path class="cls-56" d="M1000,462.43a71.91,71.91,0,1,0,71.89,71.91A71.91,71.91,0,0,0,1000,462.43Z"/><path class="cls-57" d="M999.41,461.74a71.91,71.91,0,1,0,71.9,71.91A71.91,71.91,0,0,0,999.41,461.74Z"/><path class="cls-58" d="M998.84,461.05a71.91,71.91,0,1,0,71.9,71.91A71.9,71.9,0,0,0,998.84,461.05Z"/><path class="cls-59" d="M998.28,460.35a71.91,71.91,0,1,0,71.9,71.92A71.91,71.91,0,0,0,998.28,460.35Z"/><path class="cls-60" d="M997.71,459.66a71.91,71.91,0,1,0,71.9,71.91A71.91,71.91,0,0,0,997.71,459.66Z"/><path class="cls-61" d="M997.15,459A71.91,71.91,0,1,0,1069,530.88,71.9,71.9,0,0,0,997.15,459Z"/><path class="cls-62" d="M996.58,458.28a71.91,71.91,0,1,0,71.9,71.91A71.91,71.91,0,0,0,996.58,458.28Z"/><path class="cls-65" d="M996.58,458.28a71.91,71.91,0,1,0,71.9,71.91A71.91,71.91,0,0,0,996.58,458.28Z"/><path class="cls-8" d="M996.58,555.85a25.67,25.67,0,1,0-25.68-25.66A25.7,25.7,0,0,0,996.58,555.85Zm-19.45-25.66a19.45,19.45,0,1,1,19.45,19.45A19.48,19.48,0,0,1,977.13,530.19Z"/><path class="cls-8" d="M1022.19,572.83H971a17.45,17.45,0,0,1-17.43-17.43V505A17.45,17.45,0,0,1,971,487.53h51.22A17.45,17.45,0,0,1,1039.62,505V555.4A17.45,17.45,0,0,1,1022.19,572.83ZM971,493.89A11.09,11.09,0,0,0,959.9,505V555.4A11.09,11.09,0,0,0,971,566.47h51.22a11.09,11.09,0,0,0,11.07-11.07V505a11.09,11.09,0,0,0-11.07-11.07Z"/><path class="cls-8" d="M1022.61,501.58a4.05,4.05,0,1,0,4.05,4.06A4.06,4.06,0,0,0,1022.61,501.58Z"/><path class="cls-21" d="M986.24,240.25a61.18,61.18,0,1,0-61.18,61.18A61.17,61.17,0,0,0,986.24,240.25Z"/><path class="cls-22" d="M985.76,239.66a61.18,61.18,0,1,0-61.18,61.18A61.18,61.18,0,0,0,985.76,239.66Z"/><path class="cls-23" d="M985.28,239.07a61.18,61.18,0,1,0-61.18,61.18A61.18,61.18,0,0,0,985.28,239.07Z"/><path class="cls-24" d="M984.8,238.48a61.18,61.18,0,1,0-61.18,61.18A61.18,61.18,0,0,0,984.8,238.48Z"/><path class="cls-25" d="M984.32,237.89a61.18,61.18,0,1,0-61.18,61.18A61.18,61.18,0,0,0,984.32,237.89Z"/><path class="cls-26" d="M983.83,237.3a61.18,61.18,0,1,0-61.18,61.18A61.17,61.17,0,0,0,983.83,237.3Z"/><path class="cls-27" d="M983.35,236.71a61.18,61.18,0,1,0-61.18,61.18A61.17,61.17,0,0,0,983.35,236.71Z"/><path class="cls-28" d="M982.87,236.12a61.18,61.18,0,1,0-61.18,61.18A61.17,61.17,0,0,0,982.87,236.12Z"/><path class="cls-29" d="M982.39,235.53a61.18,61.18,0,1,0-61.18,61.18A61.17,61.17,0,0,0,982.39,235.53Z"/><path class="cls-30" d="M981.9,234.94a61.18,61.18,0,1,0-61.17,61.18A61.16,61.16,0,0,0,981.9,234.94Z"/><path class="cls-31" d="M981.42,234.35a61.18,61.18,0,1,0-61.18,61.18A61.17,61.17,0,0,0,981.42,234.35Z"/><path class="cls-32" d="M980.94,233.76a61.18,61.18,0,1,0-61.18,61.18A61.17,61.17,0,0,0,980.94,233.76Z"/><path class="cls-33" d="M980.46,233.17a61.18,61.18,0,1,0-61.18,61.18A61.17,61.17,0,0,0,980.46,233.17Z"/><path class="cls-34" d="M980,232.58a61.18,61.18,0,1,0-61.18,61.18A61.18,61.18,0,0,0,980,232.58Z"/><path class="cls-35" d="M979.49,232a61.18,61.18,0,1,0-61.18,61.18A61.17,61.17,0,0,0,979.49,232Z"/><path class="cls-36" d="M979,231.4a61.18,61.18,0,1,0-61.18,61.18A61.18,61.18,0,0,0,979,231.4Z"/><path class="cls-37" d="M978.53,230.81A61.18,61.18,0,1,0,917.35,292,61.18,61.18,0,0,0,978.53,230.81Z"/><path class="cls-38" d="M978.05,230.22a61.18,61.18,0,1,0-61.18,61.18A61.18,61.18,0,0,0,978.05,230.22Z"/><path class="cls-39" d="M977.57,229.63a61.18,61.18,0,1,0-61.18,61.18A61.18,61.18,0,0,0,977.57,229.63Z"/><path class="cls-40" d="M977.08,229a61.18,61.18,0,1,0-61.18,61.18A61.18,61.18,0,0,0,977.08,229Z"/><path class="cls-41" d="M976.6,228.45a61.18,61.18,0,1,0-61.18,61.18A61.18,61.18,0,0,0,976.6,228.45Z"/><path class="cls-42" d="M976.12,227.86A61.18,61.18,0,1,0,914.94,289,61.18,61.18,0,0,0,976.12,227.86Z"/><path class="cls-43" d="M975.64,227.27a61.18,61.18,0,1,0-61.18,61.18A61.18,61.18,0,0,0,975.64,227.27Z"/><path class="cls-44" d="M975.15,226.68A61.18,61.18,0,1,0,914,287.86,61.17,61.17,0,0,0,975.15,226.68Z"/><path class="cls-45" d="M974.67,226.09a61.18,61.18,0,1,0-61.18,61.18A61.18,61.18,0,0,0,974.67,226.09Z"/><path class="cls-46" d="M974.19,225.5A61.18,61.18,0,1,0,913,286.68,61.18,61.18,0,0,0,974.19,225.5Z"/><path class="cls-47" d="M973.71,224.91a61.18,61.18,0,1,0-61.18,61.18A61.18,61.18,0,0,0,973.71,224.91Z"/><path class="cls-48" d="M973.23,224.32a61.18,61.18,0,1,0-61.18,61.18A61.18,61.18,0,0,0,973.23,224.32Z"/><path class="cls-49" d="M972.74,223.73a61.18,61.18,0,1,0-61.17,61.18A61.17,61.17,0,0,0,972.74,223.73Z"/><path class="cls-50" d="M972.26,223.14a61.18,61.18,0,1,0-61.18,61.18A61.18,61.18,0,0,0,972.26,223.14Z"/><path class="cls-51" d="M971.78,222.55a61.18,61.18,0,1,0-61.18,61.18A61.18,61.18,0,0,0,971.78,222.55Z"/><path class="cls-52" d="M971.3,222a61.18,61.18,0,1,0-61.18,61.18A61.18,61.18,0,0,0,971.3,222Z"/><path class="cls-53" d="M970.82,221.37a61.18,61.18,0,1,0-61.18,61.18A61.18,61.18,0,0,0,970.82,221.37Z"/><path class="cls-54" d="M970.33,220.78A61.18,61.18,0,1,0,909.15,282,61.17,61.17,0,0,0,970.33,220.78Z"/><path class="cls-55" d="M969.85,220.19a61.18,61.18,0,1,0-61.18,61.18A61.18,61.18,0,0,0,969.85,220.19Z"/><path class="cls-56" d="M969.37,219.6a61.18,61.18,0,1,0-61.18,61.18A61.18,61.18,0,0,0,969.37,219.6Z"/><path class="cls-57" d="M968.89,219a61.18,61.18,0,1,0-61.18,61.19A61.18,61.18,0,0,0,968.89,219Z"/><path class="cls-58" d="M968.41,218.41a61.18,61.18,0,1,0-61.18,61.19A61.18,61.18,0,0,0,968.41,218.41Z"/><path class="cls-59" d="M967.92,217.82A61.18,61.18,0,1,0,906.74,279,61.18,61.18,0,0,0,967.92,217.82Z"/><path class="cls-60" d="M967.44,217.23a61.18,61.18,0,1,0-61.18,61.19A61.18,61.18,0,0,0,967.44,217.23Z"/><path class="cls-61" d="M967,216.64a61.18,61.18,0,1,0-61.18,61.19A61.18,61.18,0,0,0,967,216.64Z"/><path class="cls-62" d="M966.48,216.05a61.18,61.18,0,1,0-61.18,61.19A61.18,61.18,0,0,0,966.48,216.05Z"/><path class="cls-66" d="M966.48,216.05a61.18,61.18,0,1,0-61.18,61.19A61.18,61.18,0,0,0,966.48,216.05Z"/><path class="cls-8" d="M910.69,201.57v-5.8c0-2.82,1.88-3.48,3.2-3.48H922V179.88l-11.19,0c-12.43,0-15.26,9.26-15.26,15.19v6.55h-7.18v14.49h7.25V252.3h14.49V216.06h10.75l1.33-14.49Z"/><path class="cls-18" d="M593.15,952.34a411.61,411.61,0,0,1-48.9,5.62c-2.73.16-5.48.28-8.23.38q-7.49.27-15,.27-17.17,0-34-1.38l17.15-163.87.48-4.43.47-4.43.47-4.44,18.3-174.66.21-1.92,11.44-6.21,4.81-2.6,5.41,2.93,10.85,5.88.89,8.51Z"/></g></g></g></svg>