<svg xmlns="http://www.w3.org/2000/svg" xmlns:xlink="http://www.w3.org/1999/xlink" viewBox="0 0 955.89 959.61"><defs><style>.cls-1{isolation:isolate;}.cls-2{fill:#af9cda;opacity:0.4;}.cls-3{fill:url(#linear-gradient);}.cls-4{fill:#c0deed;}.cls-5,.cls-6{fill:#eca0a4;}.cls-18,.cls-19,.cls-6{mix-blend-mode:multiply;}.cls-7{fill:#3b2314;}.cls-8{fill:#fff;}.cls-9{fill:#df757b;}.cls-10{fill:#944c52;}.cls-11{fill:#404041;}.cls-12{fill:#231f20;}.cls-13{fill:#1a1a1a;}.cls-14{fill:#e4f5fd;}.cls-15{fill:#b3b3b3;}.cls-16{fill:#4d4d4d;}.cls-17,.cls-19{fill:#2b388f;}.cls-18{fill:#97c5da;}.cls-20{fill:none;}</style><linearGradient id="linear-gradient" y1="477.94" x2="955.89" y2="477.94" gradientUnits="userSpaceOnUse"><stop offset="0" stop-color="#272c6b"/><stop offset="1" stop-color="#5475b9"/></linearGradient></defs><title>Asset 34</title><g class="cls-1"><g id="Layer_2" data-name="Layer 2"><g id="Text"><circle class="cls-2" cx="477.02" cy="544.7" r="413.91" transform="translate(-245.45 496.84) rotate(-45)"/><path class="cls-3" d="M955.89,477.94a478.53,478.53,0,0,1-247,418.55Q702,900.29,695,903.86a475.42,475.42,0,0,1-194.74,51.51c-2.74.13-5.48.24-8.23.31q-7,.21-14.11.21a478.13,478.13,0,0,1-131.87-18.43q-17.65-5.06-34.73-11.42-7.08-2.62-14-5.47a474.81,474.81,0,0,1-79.22-41.45C86.82,793.94,0,646.08,0,477.94,0,214,214,0,477.94,0,722.2,0,923.68,183.24,952.37,419.76A479.5,479.5,0,0,1,955.89,477.94Z"/><path class="cls-4" d="M551.62,528.06s116.38,3,178.63,85.4a114.13,114.13,0,0,1,17.36,34.18L770,745.08,668.91,752Z"/><path class="cls-5" d="M708.87,896.49l-2.53-7.17L695,857.2l-15.89-45.08v-59L695,751l11.06-1.52,63-8.64h0l17.65,65.06,2.78,10.24,5.69,18.76C793.21,841.88,745,876.55,708.87,896.49Z"/><path class="cls-6" d="M786.74,805.88c-33.83,2.3-87.72-4.64-107.61-7.47V753.16l90-12.34Z"/><path class="cls-5" d="M311.34,757.37V926q-7.08-2.62-14-5.47a474.81,474.81,0,0,1-79.22-41.45l-.1-11.57-.6-68.78-.12-14-.24-27.4Z"/><path class="cls-6" d="M311.34,757.37v54.08c-26.86-.46-67.26-7.44-94-12.68l-.36-41.4Z"/><path class="cls-4" d="M456.17,522.92s-137,3.53-210.32,100.56a134.19,134.19,0,0,0-20.45,40.24L199,784.44l119.08,2.18Z"/><path class="cls-4" d="M695,700.13V903.86a474.14,474.14,0,0,1-97.92,37A411.56,411.56,0,0,1,500.28,958c-2.73.16-5.48.28-8.23.38q-7.49.27-15,.27-17.17,0-34-1.38a411.48,411.48,0,0,1-96.95-19.77q-17.65-5.06-34.73-11.42-7.08-2.62-14-5.47V700.13C297.3,627.46,337,564,395,532.32a0,0,0,0,0,0,0,175.25,175.25,0,0,1,29.59-12.84,173,173,0,0,1,17.09-4.67c2-.44,4-.85,6.08-1.21a172.76,172.76,0,0,1,30.94-2.78h35a172.79,172.79,0,0,1,31,2.78c2,.36,4.06.77,6.07,1.21a172,172,0,0,1,17.08,4.66A176.36,176.36,0,0,1,604,536.14h0C658.31,569,695,630.28,695,700.13Z"/><path class="cls-7" d="M407.76,202H372.14V335.71s-.63,61.57,35.62,74.29Z"/><path class="cls-7" d="M584.56,202h35.62V335.71s.64,61.57-35.62,74.29Z"/><path class="cls-5" d="M550.68,447.23v87a54.52,54.52,0,1,1-109,0v-87a54.52,54.52,0,0,1,109,0Z"/><path class="cls-6" d="M550.68,447.23v63.5c-51.75.23-88.89-14.22-109-24.76V447.23a54.52,54.52,0,0,1,109,0Z"/><path class="cls-5" d="M598.69,238.56V393.28c0,51.45-42.07,93.52-93.49,93.52H487.15c-51.42,0-93.53-42.07-93.53-93.52V238.56c0-51.45,42.11-93.52,93.53-93.52H505.2C556.62,145,598.69,187.11,598.69,238.56Z"/><path class="cls-6" d="M598.69,238.56v42.81c-118.82,22.45-177.94-7.44-205.07-31.73V238.56c0-51.45,42.11-93.52,93.53-93.52H505.2C556.62,145,598.69,187.11,598.69,238.56Z"/><path class="cls-7" d="M620.18,199.13c0-38.44-55.52-69.61-124-69.61s-124,31.17-124,69.61c0,12.84,6.22,24.86,17,35.18v29.85l3.73,65.95h6a9.19,9.19,0,0,0,9.41-8.93V279.27c8.44-7.27,12.11-17,13.72-24.33,20.68,8.67,46.34,13.8,74.13,13.8s53.46-5.13,74.14-13.8c1.6,7.33,5.27,17.06,13.72,24.33v41.91a9.18,9.18,0,0,0,9.41,8.93h6l3.72-65.95V234.31C614,224,620.18,212,620.18,199.13Z"/><path class="cls-8" d="M449.39,382.48a47.17,47.17,0,0,0,93.54,0Z"/><path class="cls-9" d="M505.23,364.17H487.1a6.94,6.94,0,0,1-6.92-6.91h0a6.94,6.94,0,0,1,6.92-6.92h18.13a6.93,6.93,0,0,1,6.91,6.92h0A6.93,6.93,0,0,1,505.23,364.17Z"/><path class="cls-10" d="M462.05,322.54a2.07,2.07,0,0,1-1.47-.61,19.18,19.18,0,0,0-27.11,0,2.07,2.07,0,1,1-2.93-2.92,23.31,23.31,0,0,1,33,0,2.06,2.06,0,0,1,0,2.92A2,2,0,0,1,462.05,322.54Z"/><path class="cls-7" d="M466.19,297.7a4.14,4.14,0,0,1-2.93-1.22,23,23,0,0,0-32.47,0,4.14,4.14,0,0,1-5.86-5.86,31.25,31.25,0,0,1,44.19,0,4.15,4.15,0,0,1-2.93,7.08Z"/><path class="cls-10" d="M560.32,322.54a2.07,2.07,0,0,1-1.47-.61,19.18,19.18,0,0,0-27.11,0,2.07,2.07,0,1,1-2.93-2.92,23.31,23.31,0,0,1,33,0,2.06,2.06,0,0,1,0,2.92A2,2,0,0,1,560.32,322.54Z"/><path class="cls-7" d="M564.46,297.7a4.14,4.14,0,0,1-2.93-1.22,23,23,0,0,0-32.47,0,4.14,4.14,0,0,1-5.86-5.86,31.25,31.25,0,0,1,44.19,0,4.15,4.15,0,0,1-2.93,7.08Z"/><path d="M495.69,459.13H469.93a11.48,11.48,0,0,1-11.45-11.45h0a11.48,11.48,0,0,1,11.45-11.45h25.76a11.48,11.48,0,0,1,11.44,11.45h0A11.48,11.48,0,0,1,495.69,459.13Z"/><path class="cls-11" d="M462.29,451.34H419.93a40.18,40.18,0,0,1-37.61-25.62l-.21-.73-11.22-63.93a3.82,3.82,0,0,1,7.52-1.32l11.15,63.54a32.61,32.61,0,0,0,30.37,20.43h42.36a3.82,3.82,0,1,1,0,7.63Z"/><path d="M393.63,303.65v64.14a4.3,4.3,0,0,1-4.31,4.31h-9.65c-.54,0-1.07,0-1.57-.07-12.51-1.22-22.44-17-22.44-36.33s9.93-35.07,22.44-36.29c.5,0,1-.08,1.57-.08h9.65A4.31,4.31,0,0,1,393.63,303.65Z"/><path class="cls-11" d="M393.63,303.65v64.14a4.3,4.3,0,0,1-4.31,4.31h-9.65c-.54,0-1.07,0-1.57-.07V299.41c.5,0,1-.08,1.57-.08h9.65A4.31,4.31,0,0,1,393.63,303.65Z"/><path d="M598.69,303.65v64.14A4.3,4.3,0,0,0,603,372.1h9.66c.53,0,1.07,0,1.56-.07,12.52-1.22,22.44-17,22.44-36.33s-9.92-35.07-22.44-36.29c-.49,0-1-.08-1.56-.08H603A4.31,4.31,0,0,0,598.69,303.65Z"/><path class="cls-11" d="M598.69,303.65v64.14A4.3,4.3,0,0,0,603,372.1h9.66c.53,0,1.07,0,1.56-.07V299.41c-.49,0-1-.08-1.56-.08H603A4.31,4.31,0,0,0,598.69,303.65Z"/><path class="cls-12" d="M500.28,595.49V958c-2.73.16-5.48.28-8.23.38V595.49Z"/><path class="cls-13" d="M650.41,647.86v59.31a1.52,1.52,0,0,1-1.51,1.51H632.12a1.49,1.49,0,0,1-1.51-1.51V647.86a1.5,1.5,0,0,1,1.51-1.51H648.9A1.52,1.52,0,0,1,650.41,647.86Z"/><path class="cls-14" d="M570,673.61h88.39a0,0,0,0,1,0,0V797.78a3.87,3.87,0,0,1-3.87,3.87H573.9a3.87,3.87,0,0,1-3.87-3.87V673.61A0,0,0,0,1,570,673.61Z"/><rect class="cls-8" x="570.03" y="673.61" width="88.39" height="14.48"/><rect class="cls-15" x="634.02" y="659.12" width="12.96" height="49.54"/><path class="cls-16" d="M650.41,647.86V654h-19.8v-6.13a1.5,1.5,0,0,1,1.51-1.51H648.9A1.52,1.52,0,0,1,650.41,647.86Z"/><polygon class="cls-17" points="529.39 581.23 524.65 592.94 518.25 608.66 514.67 617.43 512.64 622.44 479.67 622.44 477.64 617.43 473.97 608.42 467.69 592.94 462.92 581.23 480.47 556.07 511.84 556.07 529.39 581.23"/><polygon class="cls-18" points="479.61 546.13 489.32 556.07 473.97 608.42 468.76 626.17 461.99 602.62 455.32 579.39 479.61 546.13"/><polygon class="cls-18" points="536.83 579.39 530.22 602.42 523.38 626.17 518.25 608.66 502.83 556.07 503.03 556.07 512.64 546.23 536.83 579.39"/><polygon class="cls-14" points="489.32 556.07 467.69 592.94 461.99 602.62 459.12 607.52 424.22 518.63 441.64 507.39 479.61 546.13 489.32 556.07"/><polygon class="cls-14" points="568.09 518.63 533.19 607.52 530.22 602.42 524.65 592.94 503.03 556.07 512.64 546.23 550.68 507.39 568.09 518.63"/><path d="M625.91,315.92H614.46V202c-.09-2.19-3.49-58.22-107.14-66.7H485c-103.64,8.48-107,64.51-107.14,66.89v113.7H366.42V202c.08-3,3.2-68.84,117.89-78.13l.46,0h22.78l.47,0c114.68,9.29,117.81,75.17,117.88,78Z"/><polygon class="cls-19" points="515.51 649.26 477.57 641.82 477.81 639.65 490.72 632.64 502.26 633.01 514.51 639.65 515.51 649.26"/><polygon class="cls-19" points="514.67 617.43 512.64 622.44 479.67 622.44 477.64 617.43 514.67 617.43"/><polygon class="cls-17" points="516.22 640.21 476.1 640.21 478.08 620.72 514.24 620.72 516.22 640.21"/><path class="cls-20" d="M890.93,544.7A414.13,414.13,0,0,1,706.34,889.32q-5.6,3.75-11.32,7.29A411.76,411.76,0,0,1,500.28,958c-2.73.16-5.48.28-8.23.38q-7.49.27-15,.27a413.29,413.29,0,0,1-130.95-21.15q-17.73-5.9-34.73-13.34-7.09-3.11-14-6.46A414.09,414.09,0,0,1,218,867.55C123.55,791.69,63.11,675.26,63.11,544.7c0-214.49,163.13-390.86,372.1-411.82q18.27-1.84,37-2.06h0c1.59,0,3.18,0,4.78,0a415.21,415.21,0,0,1,80.48,7.83h0q14.18,2.77,28,6.54h0C730.37,184.4,843.69,300.3,879.24,446.63A414.86,414.86,0,0,1,890.93,544.7Z"/><path class="cls-17" d="M549.18,953.34a411.61,411.61,0,0,1-48.9,5.62c-2.73.16-5.48.28-8.23.38q-7.49.27-15,.27-17.17,0-34-1.38l17.15-163.87.48-4.43.47-4.43.47-4.44,18.3-174.66.21-1.92,11.44-6.21,4.81-2.6,5.41,2.93,10.85,5.88.89,8.51Z"/><polygon class="cls-15" points="523.21 838.98 523.21 848.99 454.51 848.99 455.58 838.98 523.21 838.98"/><polygon class="cls-19" points="519.21 847.99 519.21 858 453.32 858 453.85 852.99 454.38 847.99 519.21 847.99"/></g></g></g></svg>