<svg xmlns="http://www.w3.org/2000/svg" viewBox="0 0 115.44 121.59"><defs><style>.cls-1{fill:#fff;fill-rule:evenodd;}</style></defs><title>Asset 44</title><g id="Layer_2" data-name="Layer 2"><g id="Text"><polygon class="cls-1" points="78 71.7 78.45 72.06 78.18 71.56 78 71.7"/><polygon class="cls-1" points="45.42 116.47 46.02 116.71 45.47 116.36 45.42 116.47"/><polygon class="cls-1" points="27.66 80.98 28.13 81.26 27.91 80.6 27.66 80.98"/><path class="cls-1" d="M94.21,58.43,94,57.88C93.88,58.05,93.46,58.15,94.21,58.43Z"/><path class="cls-1" d="M45.47,116.36l.54.35-.58-.24c-2.61-.14-8.21-2.65-10.86-4l-1.37-.84c.66-.85,1.23-1.4,2-2.45.62-.89,1.1-2,1.71-2.87a26.1,26.1,0,0,1,1.89,2.7,44.91,44.91,0,0,0,6.71,7.32Zm-35.36-4.87H28.6c-1.37,1.69-6.24,3-9.24,3s-7.74-1.36-9.25-3Zm17.22-5.18,0,2.11-15.85.09c-.17-5.94.79-9.22,6.7-9.78s9.33,1.62,9.19,7.58Zm44.1,10.39c1.37-1.59,2.89-2.24,4.33-4.1.65-.83,1.3-1.55,2-2.42A51.24,51.24,0,0,0,85.3,96.13c3.24.44,9.61,3.47,12.88,4.58-.47.93-4.24,4.42-5.4,5.31-7.52,5.75-11.48,7.83-21.35,10.68ZM38.25,94.63a30.63,30.63,0,0,1,.23,5.28c-.22,2.61-.75,1.83.54,4,.74,1.25,1.36,2.2,2.2,3.4,3.23,4.68,10,11,16,10.75l-.06-25.68c-3.3-.23-16.45,1-18.87,2.24Zm22,23.51c7-.82,11.11-5,14.1-8.41,1.93-2.21,7.37-10.57,8-14.37-3.83-1.72-17.39-3.07-22.22-3l.09,25.79ZM15.63,91.71c-.64-5.95,6.95-6.3,7.48-1.34.64,5.87-7,6.17-7.48,1.34Zm8.81,4.9a8,8,0,0,1,5.15,4.58c1.13,3.07.52,5.68.73,8.93,7.61-6.86,6.54-19.41-1.67-25.26a17.37,17.37,0,0,0-9.53-3C6.44,81.73-3.61,99.34,8.39,110.12,8.72,107,7,98.18,14.82,96.58c-1.17-1.86-3.2-3.89-1.86-8.1A6.39,6.39,0,0,1,19.13,84c6.79-.15,9.05,7.57,5.14,12.11-.34.25-.32-.29-.3.3l.47.22Zm59.09-4.18c-6.48-1-9.08-2.16-16.84-2.76-1.75-.14-4.94-.09-6.43-.39l-.1-23.37H71c1.64,6.32,7.65,11.46,14,12.9.21,0,.61.13.8.19l.76.31c-.74,5-2.11,8.66-3.09,13.12ZM80,73.32a15.27,15.27,0,0,0,9.16,3,15.9,15.9,0,0,0,5.36-.88c1.27-.45,3.18-1.09,4-2.15l-18.5,0Zm17.19-3c.17-6.62-.93-10-8-9.83-6.81.12-8,3.42-7.83,9.83ZM27.91,80.6l.22.66L27.66,81c-3.71-1.21-5.72-2.22-10.32-1.73s-6.09,2-9.16,3.43C6.35,79.69,5.05,70,4.94,65.92h21.7A141.18,141.18,0,0,0,27.91,80.6ZM29.6,65.94l27.58,0V89.23c-1.91.49-7.55.49-10.07.78-2.89.33-7.28,1.43-9.75,1.5-1.22-2.09-1.59-3.54-3.06-5.24-1.63-1.9-2.67-1.68-3.24-5a110.72,110.72,0,0,1-1.46-15.3ZM100.28,98.4c6.59-7.36,11.47-19.2,12.18-32.49l-4.81,0a26.36,26.36,0,0,0-1.27,2.83A19.18,19.18,0,0,1,89.6,79.27a68.6,68.6,0,0,1-1.33,7.16c-.49,2.2-1.5,4.8-1.83,6.74,1.25.73,5.45,1.82,7.25,2.52,2.26.9,4.42,1.82,6.59,2.71ZM29.93,58.51c-.56-3.88,2.43-18.85,4-22,1.56.14,3.73.8,5.44,1.14a108.46,108.46,0,0,0,17.42,1.88c.72.24.43.5.43,2.58,0,5.21.24,17.2-.06,20.8L29.59,63c-.1-1.13-.24-3.79.34-4.51Zm58.38-9.63c4.67-1.55,6.81,6.52,2.09,7.83-5.24,1.45-6.92-6.22-2.09-7.83ZM78.18,71.56C78,68.05,77.5,62.8,81.53,60l3.12-1.85a7.44,7.44,0,0,1-2-3.48c-2-9.38,10.06-11.93,12.85-4.81a7.45,7.45,0,0,1-1.5,8c-.15.17-.57.27.18.55,2.38.48,4.45,2.89,5.38,4.87,1.27,2.7,1.11,5.64.62,8.63,1.64-1,3.87-4.57,4.68-7.52,2.62-9.46-4.12-20.25-15.24-20.48C76,43.64,69.23,58.56,75.3,68.38A15.53,15.53,0,0,0,78,71.7l.46.36-.27-.5Zm6.57-30.64.27.49-.44.23c-2,.14-4.84,1.81-6.25,2.75a18.88,18.88,0,0,0-4.56,4.45,18.67,18.67,0,0,0-2.93,6.06c-1,3.5-.49,4.66-.63,8h-10l.08-23.43A96.18,96.18,0,0,0,78.1,37.59c1.68-.33,3.89-1,5.45-1.14l1.2,4.47ZM5,62.93H26.58c.53-4.31.26-7.22,1.16-13.44.79-5.48,2.07-8.73,2.6-12C22.72,39,19.66,38.38,13.77,35c-1.83,1.8-5,8.91-6.07,12.19C6.46,51,4.63,58.65,5,62.93Zm107.28-2,.26,2-4.34,0,.19-.75c-.36-4,.24-5.26-1.29-9.14A19,19,0,0,0,96.8,42.49c-3.93-1.56-5-1-8.87-1.59l-1.55-5.41c5.07-.92,9.47-3.51,14.08-5.08,1.27,2,2.89,3.92,4.32,6.28,3.57,5.88,8.14,18,7.51,24.24ZM37,34c3.29,1,16.92,3,20.22,2.39V10.81c-2.44-.25-6.27,1.71-8,2.78-1.46.92-5.31,3.7-5.39,5.41-.36,8.12-2.73,11.1-6.87,15ZM60.16,10.7V36.52a112.72,112.72,0,0,0,11.62-.89c3.74-.5,7.13-1.45,10.63-2-1.23-4.77-5.17-10.78-8-14.43-3.26-4.17-8.62-8-14.22-8.49ZM33.91,32.37c-1.46,1.66-6.3,3-9.19,3a16.59,16.59,0,0,1-8.46-2.33c-.1-.07-.35-.24-.44-.32a2.73,2.73,0,0,1-.42-.38l18.51,0Zm-17.13-3c-.8-6.44,1.56-9.77,7.93-9.82,6.72-.05,8.27,3.3,7.85,9.83ZM23.47,8c4.86-1.78,7.09,6.49,2.39,7.81C20.57,17.27,19,9.63,23.47,8ZM85.23,32.72c2.34-.43,11.38-3.64,12.89-4.72-1.25-2.13-8.32-7.73-11.55-9.57-3.71-2.12-10.26-5.59-15.1-6.23.86,1.1,4.22,3.15,8,8.91,1.68,2.54,4.94,8.36,5.72,11.61ZM45.88,12.2a19.44,19.44,0,0,1-2.67,2.26l-.34-1.54,3-.72ZM13.74,30.68c-.89-.42-2.23-2.22-3-3.35a15.63,15.63,0,0,1-.94-14.7A16.17,16.17,0,0,1,24.72,3C36,3,42.73,13.44,40.33,23.43c-.5,2.09-2.61,6.51-4.72,7.63.6-5.43-.33-12.37-6.33-13.72.38-.83.64-.71,1.16-1.62,2.67-4.72-.35-11.11-6-11C19.41,4.91,15.14,11,20,17.29c-1.16.75-2.12.88-3.25,1.8-3.66,3-3.07,6.83-3,11.59Zm-2.32,2.18c-2.56,4.63-3.29,5.28-5.57,10.82C1.28,54.8.91,67,3.71,78.66c.54,2.22,1.46,4.26,2,6.25a32.58,32.58,0,0,0-2.38,2.9c-10.81,15.66,7.11,35.74,23.42,28.28,4.91-2.25,2.24-3,7.24-.53a61.84,61.84,0,0,0,7.92,3.28c24.34,7.87,48.44-1.81,62.42-21,16.53-22.71,14.45-52.58-4.76-72.91a26.57,26.57,0,0,0-2.91-2.69c-.55-.44-.82-.81-1.39-1.27a71,71,0,0,0-8.31-5.81c-10.44-6.23-23.86-8.68-36.26-7-3.35.47-6.22,1.51-9.11,2C36.48-.35,22.21-3.13,13.18,3.81a10.13,10.13,0,0,0-1.39,1.05C4.87,12,3.12,21.58,8.92,29.92a9.24,9.24,0,0,0,1.19,1.49A5.45,5.45,0,0,1,11.42,32.86Z"/><path class="cls-1" d="M29.93,58.51c-.58.72-.44,3.38-.34,4.51l27.6-.12c.3-3.6,0-15.59.06-20.8,0-2.08.29-2.34-.43-2.58C57.49,41.8,57,59,57,62.82l-27.31,0Z"/><polygon class="cls-1" points="108.4 62.24 108.21 62.99 112.55 62.97 112.29 60.93 112.34 62.79 108.51 62.82 108.4 62.24"/><path class="cls-1" d="M24.44,96.61c-.19-.31-.08-.19-.17-.52-.34.25-.32-.29-.3.3Z"/><path class="cls-1" d="M84.58,41.64l.44-.23-.27-.49C84.72,41.74,84.85,41.16,84.58,41.64Z"/></g></g></svg>