<svg xmlns="http://www.w3.org/2000/svg" viewBox="0 0 128.93 99.11"><defs><style>.cls-1,.cls-2,.cls-3{fill:#fff;fill-rule:evenodd;}.cls-2{opacity:0.58;}.cls-3{opacity:0.3;}</style></defs><title>Asset 45</title><g id="Layer_2" data-name="Layer 2"><g id="Text"><path class="cls-1" d="M84.71,42.36a24.31,24.31,0,0,0-.4-9.59c-1.11-4.29-.43-.84-.64-4.47-.56-9.95-25.26-11.58-29.8-2.27-1.81,3.7-.95,1.34-2,3.13-1.87,3.34-1.19,9.67-.76,13.2a2.29,2.29,0,0,1-.23.11c-1.73,1-1.48,2.63-.79,6.2.52,2.74.17,4.72,2.7,5A27.31,27.31,0,0,0,54.54,61c1.13,2.72,2.77,2.46,1.58,6.81-1,3.64-.67,3.72-3.45,5.5a51.59,51.59,0,0,1-5.85,3.13C36.44,81.36,28.64,77.89,28.55,94a142.87,142.87,0,0,0,39.57,5.1c9.52,0,32-1.65,39.46-5.23a23.87,23.87,0,0,0-1.21-7.72c-3.12-9-10.6-4.53-22.85-12.79-2.68-1.8-2.39-1.56-3.44-5.23-1.28-4.54.47-5.62,1.15-7.28a30.6,30.6,0,0,0,1.69-7.07l1.74-.54a44.47,44.47,0,0,0,1.11-5.8c.3-2.85.74-3.89-.6-4.85,0,0-.19,0-.22-.12S84.79,42.41,84.71,42.36Z"/><path class="cls-1" d="M88.31,9.3l.12.47-.3-.25c-.65-.22-1.72-1.26-2.21-1.13s-1.52,1-2.16,1.3l.67-2.59c-.49-.52-1.64-1.19-2-1.81,2.48-.17,2.55.08,2.95-.81.27-.59.32-1.33.81-1.8l1,2.47,2.65.11a12.39,12.39,0,0,1-2,1.84l.56,2.2ZM77.06,2.71a7,7,0,0,1,1,2.43l2.72.2a16.3,16.3,0,0,1-2.05,1.71l.66,2.66c-.61-.24-2-1.33-2.31-1.33s-1.58,1.1-2.34,1.32L75.34,7a20.2,20.2,0,0,1-1.91-1.55,7.89,7.89,0,0,1,2.64-.3l1-2.43Zm-11,6.9-.39.11.15-.36.54-2.27a18.62,18.62,0,0,0-2-1.59c.2-.19-.16-.26,1.22-.29.51,0,.9,0,1.45-.08l1-2.46c.6.49.66,1.74,1.15,2.48l2.61.14c-.24.57-1.56,1.33-2,1.86l.64,2.55A12.91,12.91,0,0,1,68.1,8.26l-2,1.35Zm-4.94-.46c.34.32.18,0,.3.65l-.38-.24c-.55-.3-1.75-1.29-2.19-1.16s-1.47,1-2.18,1.3l.69-2.63c-.54-.56-1.53-1-2-1.78l2.72-.16a6.51,6.51,0,0,1,1-2.46L60,5.16l2.75.1c-.36.67-1.41,1.2-2,1.74l.42,2.15ZM50,2.68c.64.65.16.85,1.27,2.47l2.48.19c-.58.72-1.34,1-2,1.76l.65,2.61c-.58-.23-2-1.35-2.32-1.34s-1.68,1.09-2.32,1.32l.6-2.7c-.62-.57-1.33-.92-1.91-1.55L47,5.23l.57,0c.5,0,1,0,1.46-.06L50,2.68ZM68.14,15.84,70,12.63c3.77-.24,16.93.53,19.36-.45a7.1,7.1,0,0,0,2.34-1.63A6.28,6.28,0,0,0,89,.41C87.38-.19,83.47,0,81.51,0H49.65a7.55,7.55,0,0,0-3.27.63,6.29,6.29,0,0,0-2.25,1.72,6.35,6.35,0,0,0,3.5,10c1.6.42,5.9.21,7.8.21h9.92C67,12.64,66.45,14.27,68.14,15.84Z"/><path class="cls-2" d="M123.48,20.35l.1.38-.24-.2c-.51-.18-1.35-1-1.74-.91s-1.19.85-1.7,1l.53-2.1c-.38-.41-1.29-.95-1.59-1.46,2-.14,2,.07,2.32-.65.21-.48.25-1.08.63-1.46l.77,2,2.08.09a9.66,9.66,0,0,1-1.6,1.49l.44,1.78ZM114.64,15a5.6,5.6,0,0,1,.77,2l2.14.17a13.7,13.7,0,0,1-1.61,1.38l.52,2.15c-.48-.2-1.56-1.08-1.81-1.08s-1.24.9-1.84,1.07l.49-2.19a16.41,16.41,0,0,1-1.51-1.25,6,6,0,0,1,2.08-.25l.77-2ZM106,20.6l-.3.09.12-.29.42-1.84a14,14,0,0,0-1.58-1.29c.16-.15-.13-.21,1-.23.4,0,.71,0,1.14-.06l.74-2c.48.4.53,1.41.91,2l2,.11c-.19.47-1.23,1.08-1.59,1.51l.5,2.06a10,10,0,0,1-1.77-1.16L106,20.6Zm-3.87-.37c.26.25.14,0,.23.53l-.3-.2c-.43-.25-1.37-1-1.72-.94s-1.15.85-1.71,1.05l.54-2.12c-.42-.46-1.19-.85-1.59-1.45L99.73,17a5.23,5.23,0,0,1,.82-2l.69,2,2.16.08c-.29.54-1.11,1-1.6,1.41l.34,1.74ZM93.36,15c.51.52.13.69,1,2l2,.16c-.46.58-1.06.84-1.61,1.42l.52,2.11c-.46-.19-1.58-1.09-1.82-1.08s-1.32.88-1.82,1.07l.47-2.19c-.49-.47-1-.74-1.5-1.25l.49-.17.44,0L92.63,17l.73-2Zm14.28,10.66,1.49-2.6c3-.2,13.3.43,15.21-.37a5.44,5.44,0,0,0,1.83-1.32A5.15,5.15,0,0,0,124,13.15c-1.28-.48-4.35-.29-5.89-.29h-25a5.85,5.85,0,0,0-2.57.51,4.84,4.84,0,0,0-1.76,1.4,5.19,5.19,0,0,0,2.75,8.12c1.25.34,4.62.17,6.12.17h7.79C106.76,23.06,106.31,24.38,107.64,25.65Z"/><path class="cls-3" d="M44.45,22.37l.09.38-.24-.2c-.51-.18-1.34-1-1.73-.91s-1.2.85-1.7,1.05l.53-2.1c-.38-.42-1.29-1-1.59-1.47,1.94-.13,2,.07,2.31-.65.21-.48.25-1.08.64-1.46l.76,2,2.09.09A9.37,9.37,0,0,1,44,20.59l.45,1.78ZM35.61,17a5.64,5.64,0,0,1,.77,2l2.14.16a13.7,13.7,0,0,1-1.61,1.38l.52,2.15c-.48-.19-1.57-1.08-1.82-1.08s-1.24.9-1.83,1.07l.48-2.19a17.74,17.74,0,0,1-1.5-1.25A6.2,6.2,0,0,1,34.83,19l.78-2ZM27,22.62l-.3.09.11-.29.43-1.84a16.28,16.28,0,0,0-1.58-1.29c.15-.15-.13-.21.95-.23.4,0,.72,0,1.14-.06l.75-2c.47.4.52,1.41.91,2l2.05.12c-.19.46-1.23,1.08-1.6,1.5l.5,2.07a11,11,0,0,1-1.76-1.17L27,22.62Zm-3.88-.37c.27.26.14,0,.23.53l-.29-.2c-.43-.24-1.37-1-1.72-.94s-1.16.85-1.71,1.05l.54-2.12c-.43-.46-1.2-.85-1.6-1.45L20.69,19a5.18,5.18,0,0,1,.83-2l.69,2,2.15.08c-.28.54-1.1,1-1.59,1.41l.33,1.74ZM14.33,17c.51.53.13.69,1,2l1.95.16c-.45.58-1.05.84-1.6,1.42l.51,2.12a19.21,19.21,0,0,0-1.82-1.09c-.26,0-1.32.88-1.82,1.07L13,20.5c-.48-.46-1-.74-1.5-1.25l.49-.17.45,0,1.14,0,.74-2ZM28.61,27.67l1.49-2.6c3-.19,13.29.43,15.2-.37a5.39,5.39,0,0,0,1.84-1.32A5.15,5.15,0,0,0,45,15.17c-1.28-.48-4.35-.29-5.89-.29h-25a5.68,5.68,0,0,0-2.57.5,5,5,0,0,0-1.77,1.4A5.2,5.2,0,0,0,12.5,24.9c1.25.34,4.63.17,6.13.17h7.79C27.73,25.08,27.28,26.4,28.61,27.67Z"/><path class="cls-1" d="M0,87.11c2.52.53,7.22,2.3,12.2,3.36a89.48,89.48,0,0,0,14.27,1.76l.9-4.34a17.13,17.13,0,0,1,1.39-4c3.07-6.18,7.38-5.17,13.47-7.47a44.26,44.26,0,0,0,7.19-3.26,22.53,22.53,0,0,0-3.31-1.62c-3.29-1.63-4.79-2.37-5.72-4.75-2-5-.74-3.17.63-7.79.84-2.84,1.26-.68,1.94-3.44,1.92-7.83.9-4,.43-7.23a10.1,10.1,0,0,1,.06-1.21C45.43,28,26.38,28.36,21.1,33.37a14.36,14.36,0,0,0-4.64,11.09l.3,3.7c-.1,1.52-1.38,1.94-.32,5.12.76,2.26.69,3.14,1.52,3.91,1.84,1.69.37.13,1.78,3.59.6,1.47,1.36,2.32.78,4.07-1.37,4.1-1.7,3.81-4.69,5.78a37,37,0,0,1-7.25,3.53c-2.83,1.06-5.47,1.41-6.91,3.58C.13,80.06-.07,84,0,87.11Z"/><path class="cls-1" d="M93,61.7l.68-.61a8,8,0,0,1,.77-3.16c.57,1.13.81,2.83,1.55,4.14a8.35,8.35,0,0,0,2.51,2.73l.24-2.93c.81.51,1.09,1.35,1.54,1.91,2,2.4,2.44,1.08,2.59,4.32.27,5.86-3.37,6.66-9.11,8.05a7.66,7.66,0,0,0,2.61,1.14c8.17,2.64,9.17,1.33,12.2,10.22l.55,1.13c6.86,0,15.52-1.6,19.78-5.25,0-10.83-15.05-3.56-15.8-13.81-.37-5.11,1.64-3.66,2.82-7,2.22.86,2.45,1.92,5.87,2.25-1.16-1.86-1.15-2.33-.71-4.78,1.43,1.36.51,2,3.69,2.37-1.07-8.05,4.22-14.41.9-23.72-2.12-6-8.23-10.81-16.26-10.82a43.48,43.48,0,0,0-11,2.57c-8.42,4.54-6.56,14.74-7,20C91,55.26,91.59,57.47,93,61.7Z"/><path class="cls-1" d="M93,61.7c.26.5-.41.45.48.38l.2-1Z"/></g></g></svg>