<svg xmlns="http://www.w3.org/2000/svg" viewBox="0 0 131 120.75"><defs><style>.cls-1{fill:#fff;fill-rule:evenodd;}</style></defs><title>Asset 43</title><g id="Layer_2" data-name="Layer 2"><g id="Bakground"><path class="cls-1" d="M61.52.2H60.39l-.48,0-.72.25h-.76L58,.37l-.58.24h-.59l-.23,0L56.1.82l-.47,0h-.32L54.8,1h-.46c0,.31.06.2-.3.19h-.71L53,1.4l-.34,0h-.18l-.27.25-.35,0-.24,0-.26.19-.29,0-.2,0c0,.3.06.19-.3.19l-.28,0L50,2c0,.3.06.21-.27.19l-.26,0h-.13l-.2.21-.28,0-.22,0-.38.16-.25,0-.25.19h-.38L47.21,3h-.36c0,.29.07.21-.23.2h-.36L46,3.35H45.7l-.33.17-.24,0-.34.16h-.13l-.2.22H44.1c0,.3.06.19-.29.18h-.14c0,.29.08.23-.19.22h-.35l-.3.18h-.14c0,.33.08.26-.26.21l-.26,0-.3.18h-.14c0,.29.06.19-.27.2h-.09c0,.3.07.19-.3.18h-.15c0,.31.07.23-.27.2h-.12c0,.3.06.22-.26.19h-.14l-.19.22-.22,0-.37.15c0,.35.08.28-.27.22l-.12,0c0,.32.07.23-.27.2h-.13c0,.32.07.23-.26.21h-.13c0,.3.07.22-.25.21H37.8c0,.3.06.21-.25.21H37.4c0,.28.06.19-.24.21H37l-.25.21-.38.15c0,.29.07.22-.24.21H36c0,.29.06.2-.25.21l-.36.17c0,.29.07.22-.23.21H35l-.21.24-.38.15c0,.29.07.22-.22.22h-.14c0,.28.06.19-.24.19,0,.28.07.2-.22.2h-.15l-.21.2c0,.27.07.2-.22.19h-.17l-.21.2c0,.28.08.2-.21.2H32.3l-.23.19-.21.22-.37.16c0,.29.08.23-.2.22,0,.29.08.2-.23.2l-.37.16-.2.22-.21.21-.37.16-.2.22-.22.21-.35.17c0,.28.06.21-.22.21l-.18.21c0,.29.09.23-.19.2l-.25.18-.36.17-.2.22-.18.21-.22.18c0,.28.08.21-.2.19,0,.31.09.24-.21.23l-.56.35-.19.23c0,.28.08.2-.2.19l-.2.2-.18.21c0,.27.08.2-.21.18,0,.27.07.2-.2.2l-.2.19c0,.27.07.21-.2.2,0,.27.07.2-.2.19,0,.27.07.2-.2.2l-.19.19c0,.28.07.21-.2.2,0,.27.08.2-.19.2,0,.27.07.2-.2.2l-.19.19-.2.2-.2.2-.19.2-.2.19-.2.2-.19.19c0,.29.07.22-.22.22l-.36.55c0,.31.08.26-.21.22,0,.27.08.19-.2.19l-.18.21-.21.19c0,.29.08.22-.2.22l-.18.34-.21.23-.2.19-.21.2-.17.36c0,.3.07.23-.21.22l-.19.2c0,.29.07.23-.21.23l-.17.35-.22.21c0,.27.08.2-.2.2v.15c0,.32.11.26-.19.24l-.19.19-.21.21,0,.16c.05.32.11.23-.22.23L17.5,25v.15c0,.31.1.25-.19.24,0,.28.08.2-.21.2v.15c0,.32.11.26-.19.24,0,.28.08.2-.21.2l-.16.38-.23.22v.14c0,.31.1.25-.18.24,0,.3.08.23-.2.23v.12c0,.31.09.25-.19.25l-.19.24v.12c0,.32.07.26-.22.26v.12c0,.32.1.27-.19.25L15,29v.12l-.22.23v.15c0,.3.08.23-.21.23v.14c0,.32.11.26-.18.25v.21c0,.27.08.2-.21.18l-.17.28v.09l-.21.25v.14c0,.32.09.26-.2.26v.14c0,.32.1.26-.19.26V32c0,.33.09.26-.2.26v.13c0,.33.1.27-.2.27v.13c0,.35.12.29-.19.29v.1c0,.35.1.29-.2.29v.1l-.19.31v.33c0,.27.07.19-.22.19v.13c0,.33.11.27-.19.27v.13c0,.37.13.31-.18.31v.34c0,.29.08.23-.2.19V36c0,.31.09.25-.2.25v.07l0,.27c0,.29.08.19-.24.19v.12c0,.36.13.29-.18.29v.38c0,.28.06.2-.22.2v.12l-.16.34v.07l0,.25c0,.3.08.23-.19.23v.36l-.21.2,0,.21-.25.34.05.24-.25.36c-.23.2.06.1-.37.19l-3.5.11-.57-.08-.43.22-.19,0c0,.29.07.23-.21.21H4.21l-.3.19h-.1l-.27.21-.38.16c0,.29.08.22-.22.23l-.37.16-.19.22-.19.21L2,42.67l-.19.2-.2.2-.21.2v.15c0,.3.1.24-.18.24L1,43.85V44c0,.33.1.26-.21.26v.12c0,.34.13.27-.19.27v.13c0,.35.12.29-.19.29v.11l0,.26c0,.34.1.28-.2.28l0,.12v.38l-.23.4V64.26l.23.38L.2,65v.13c.33,0,.29-.1.24.2l0,.27v.06c.3,0,.21-.07.21.26l0,.21v.11l.17.27c.31,0,.26-.09.22.19l0,.2.21.23.16.36.22.2.19.2c.27,0,.21-.08.2.19.3,0,.26-.09.22.19l.17.21.22.18.18.22.15,0c.34-.07.25-.13.24.23.29,0,.22-.08.22.2h.14c.3,0,.23-.09.23.21h.14c.32,0,.25-.11.25.19H4.3l.31.17H4.9l.37.24.3-.05.49,0c.87,0,.33-.05.51.19H8.26c.3,0,.21-.06.2.25l0,.34v.15c.31,0,.2-.06.19.3v.35l0,.29.16.35,0,.29v.16c.3,0,.2-.07.19.28l0,.28,0,.17.28.27L9.26,74v.06c.28,0,.19-.06.2.26l0,.28v.28l.24.39,0,.17c.3,0,.21-.07.2.25v.36c.29,0,.22-.07.21.22v.37c.28,0,.2-.07.2.23v.38c.31,0,.25-.08.23.21l0,.26v.13l.2.2v.34l.17.33,0,.24.17.32v.12c.28,0,.21-.07.21.22V80c.3,0,.19-.06.18.29v.13l.21.2,0,.24v.08l.17.34v.11c.3,0,.21-.06.18.28v.14c.29,0,.23-.08.22.19v.21c.28,0,.22-.09.2.18v.34l.18.3v.13c.31,0,.21-.07.19.28v.13c.29,0,.21-.07.19.25V84c.31,0,.22-.07.2.26v.12c.31,0,.21-.07.2.27v.12c.31,0,.22-.06.2.27v.14c.3,0,.21-.07.21.26v.1c.3,0,.2-.06.21.28v.09c.3,0,.2-.07.2.29v.12c.28,0,.19-.06.18.25.3,0,.2-.09.18.26v.13c.31,0,.23-.07.21.25v.13c.3,0,.21-.07.23.24v.09l.18.27c.3,0,.21-.07.18.25v.15c.3,0,.22-.08.23.23v.1l.19.25c.28,0,.2-.06.19.25v.12c.29,0,.21-.07.23.24l.16.36c.3,0,.21-.07.23.24v.12c.28,0,.2-.06.18.24.29,0,.2-.08.2.24v.14l.19.22.21.22.17.36c.29,0,.22-.07.21.21.35,0,.28-.1.22.24l0,.15.22.2.21.22.16.34.24.19.18.26.17.34c.32,0,.27-.09.24.19l.19.25.17.37.21.19.19.21.22.2.35.58.22.19c.29,0,.24-.08.21.19.28,0,.2-.09.18.21.33,0,.25-.1.23.22l.34.57c.29,0,.22-.08.22.2l.19.19.2.19.2.2.2.19c.27,0,.2-.07.19.21.27,0,.2-.08.19.2.29,0,.24-.09.21.19.29,0,.21-.1.22.22l.14.16c.3,0,.22-.06.24.24l.55.51c.34,0,.23-.1.25.26l.15.13c.32,0,.22-.09.21.26.27,0,.21-.08.19.19l.21.19.19.2.2.19.19.21.21.19c.27,0,.2-.07.2.22l.77.55.21.21.19.2.2.2c.29,0,.22-.08.22.2l.35.15c.35,0,.28-.11.24.22l.17.21.2.22.37.15c.3,0,.22-.09.22.22l.2.19.2.22.37.16.21.22c.28,0,.22-.08.22.2h.14c.3,0,.24-.09.23.19.27,0,.2-.07.2.22l.36.17c.3,0,.23-.08.23.2l.2.21h.16c.32,0,.27-.11.24.18.28,0,.2-.08.2.21H33c.32,0,.26-.1.25.19l.2.21h.15c.3,0,.24-.1.23.18.31,0,.24-.08.24.2h.12c.3,0,.24-.08.24.19l.23.2.14,0c.3,0,.22-.08.22.23l.15,0c.33-.06.26-.13.24.21.29,0,.22-.08.22.19h.14c.3,0,.23-.08.23.22h.15c.32,0,.26-.11.24.18l.24.19h.13c.3,0,.24-.07.24.22h.15c.3,0,.23-.08.23.21h.15c.32,0,.24-.1.24.21l.14,0c.37-.07.29-.15.26.22l.25.18h.13l.25.2h.14l.27.19h.12l.25.2h.36l.18.21.28.18h.12l.2,0c.28,0,.2-.07.2.23l.13,0c.35-.06.26-.13.26.22h.15c.32,0,.25-.1.25.2h.14c.36,0,.3-.12.3.18h.34c.29,0,.21-.07.21.22h.11c.34,0,.27-.12.27.19h.16l.29.17.26,0c.34,0,.27-.13.27.19h.17l.23,0c.28,0,.2-.06.2.23h.12c.37,0,.31-.12.31.18h.11l.25,0c.28,0,.19-.07.19.23H46l.2.21h.14l.33.16.24,0,.28,0,.19.22h.11l.28,0c.3,0,.24-.08.24.2h.35c.34,0,.28-.1.28.19l.13,0,.41.24h.29l.27,0c.35,0,.27-.11.27.21l.14,0,.32,0c.35,0,.29-.11.29.19l.15,0h.34c.34,0,.26-.12.26.21h.31c.37,0,.28-.11.26.24l0,.25.18.36,0,.24.19.28v.11l.17.28c.3,0,.21-.07.19.25v.11c.29,0,.21-.07.22.24v.13l.19.24.19.2.2.2c.29,0,.21-.09.23.21l.14.17c.29,0,.22-.07.21.22.3,0,.25-.1.22.18.27,0,.19-.09.19.2.27,0,.2-.07.2.21H55c.31,0,.25-.1.24.19.29,0,.23-.09.23.19h.12c.32,0,.25-.09.25.21H56c.34,0,.28-.11.28.19h.11l.33.18h.16l.38.24h.28l.34,0,.36.24,14.44,0c0-.32-.06-.2.34-.17h.36l.3,0,.36-.16.24,0,.31-.18h.14c0-.29-.07-.21.25-.19h.14c0-.3-.07-.21.25-.21h.11l.25-.22.38-.16.19-.22c0-.27-.08-.2.2-.19,0-.27-.08-.2.21-.18,0-.31-.09-.23.21-.24l.15-.15.22-.21.19-.2.22-.2.17-.36.19-.25c0-.3-.09-.23.19-.23v-.13l0-.21c0-.27-.07-.21.2-.19l0-.2c0-.36-.12-.28.22-.28v0l.18-.35v-.29l.23-.4,0-.27,0-.49,0-2,0-.56-.21-.43,0-.29-.16-.34v-.13l-.21-.2v-.2l-.2-.19v-.2c-.31,0-.23.08-.19-.25l0-.14c-.29,0-.22.07-.23-.21l-.16-.38-.22-.2-.2-.19c-.29,0-.24.09-.21-.19-.27,0-.19.08-.17-.22-.28,0-.22.09-.21-.19-.29,0-.23.09-.21-.18l-.18-.21c-.3,0-.24.08-.24-.19H76c-.3,0-.24.08-.23-.2l-.2-.2h-.17c-.3,0-.23.09-.23-.21H75c-.34,0-.27.11-.27-.19h-.14c-.37,0-.31.12-.31-.18l-.22,0-.37-.15-.29,0H73l-.35-.17H58.31l-.34.17-.35,0-.3,0L57,106l-.23,0-.32.17h-.12c0,.3.06.2-.28.19h-.14c0,.3.07.22-.24.21h-.15l-.21.2c0,.28.07.2-.22.2h-.14c0,.28.06.2-.23.2l-.18.21c0,.27.09.19-.21.18,0,.28.07.21-.21.19,0,.28.08.21-.19.21,0,.27.07.2-.2.19-.06.08-.42.66-.42,0H53.1l-.33,0c-.39,0-.33.13-.33-.19h-.28l-.37-.24-.19,0-.26,0c-.34,0-.26.11-.26-.21h-.17l-.38-.23H50l-.19-.21h-.14l-.26,0c-.27,0-.19.08-.19-.21h-.4l-.19-.22h-.13l-.35-.16-.23,0c-.37,0-.31.14-.31-.17h-.36l-.2-.21h-.14l-.31-.17h-.33l-.2-.22h-.14l-.3-.17h-.12l-.29-.18-.27,0c-.33,0-.26.12-.26-.2h-.13c-.33,0-.27.11-.27-.19h-.14c-.34,0-.28.11-.28-.18H43.7l-.26-.2H43.3l-.29-.18h-.09l-.29-.2h-.12l-.28-.2h-.11l-.25-.22h-.14c-.31,0-.24.08-.24-.21h-.14c-.31,0-.24.08-.24-.22H41c-.31,0-.24.09-.24-.21h-.14c-.34,0-.29.12-.26-.17-.3,0-.24.09-.24-.19l-.12,0c-.32,0-.24.08-.24-.23h-.15c-.3,0-.22.09-.22-.21l-.15,0c-.33.06-.25.13-.25-.2l-.2-.2h-.16c-.31,0-.23.1-.23-.23l-.39-.16-.2-.22h-.16c-.3,0-.24.1-.22-.19-.28,0-.21.07-.21-.21H37c-.31,0-.25.11-.24-.18l-.2-.21-.38-.15c-.3,0-.21.07-.21-.25l-.37-.16c-.3,0-.23.09-.22-.21-.28,0-.21.07-.21-.22l-.36-.16-.21-.21c-.28,0-.21.07-.21-.21l-.36-.17c-.3,0-.22.09-.22-.21-.27,0-.21.07-.2-.2-.27,0-.19.07-.19-.21l-.38-.17-.21-.21-.2-.2-.2-.22-.56-.35c-.29,0-.23.06-.22-.22l-.2-.19-.19-.2-.21-.19c-.28,0-.22.08-.2-.19l-.19-.23A17.13,17.13,0,0,1,28,93.22c-.29,0-.22.08-.22-.21l-.19-.19-.2-.2-.2-.19-.2-.2L26.77,92c-.3,0-.21.09-.21-.22l-.17-.35c-.29,0-.22.07-.22-.21l-.2-.19-.19-.2c-.28,0-.2.07-.21-.22V90.5c-.28,0-.2.06-.2-.24l-.19-.19c-.29,0-.21.07-.23-.22l-.16-.36c-.27,0-.2.07-.2-.21l-.21-.18c-.3,0-.21.08-.19-.25v-.13c-.28,0-.2.07-.2-.23l-.19-.21c-.3,0-.21.08-.19-.23V87.9c-.28,0-.21.08-.21-.2-.28,0-.2.07-.19-.23v-.15l-.21-.2c-.27,0-.19.06-.19-.24v-.14c-.28,0-.21.07-.21-.21-.28,0-.2.06-.2-.23v-.15c-.28,0-.2.07-.2-.22-.29,0-.21.07-.19-.24v-.14l-.22-.21c-.28,0-.2.07-.18-.25V85c-.31,0-.22.07-.21-.27v-.14c-.29,0-.22.07-.21-.22-.3,0-.21.08-.17-.26V84c-.3,0-.22.07-.21-.25v-.14c-.3,0-.22.07-.22-.23v-.14c-.27,0-.19.06-.19-.24-.27,0-.2.09-.2-.18v-.2c-.3,0-.22.07-.18-.26v-.12c-.34,0-.27.08-.22-.26l0-.14c-.31,0-.22.07-.2-.26v-.14c-.31,0-.22.07-.2-.26V81c-.31,0-.22.06-.2-.27v-.13c-.31,0-.22.07-.2-.27v-.09c-.34,0-.24.07-.2-.3v-.13l-.22-.2,0-.23v-.09L18.49,79v-.09c-.34,0-.24.07-.2-.32l0-.13c-.3,0-.24.08-.22-.2v-.33l-.17-.32v-.11c-.31,0-.21.06-.19-.29l0-.26-.16-.34V76.5c-.29,0-.23.08-.22-.2V76c-.32,0-.2.06-.18-.34l0-.26L16.94,75v-.1c-.28,0-.22.07-.21-.21v-.27l0-.24-.16-.36,0-.23-.15-.37V73l-.24-.4,0-.16c-.3,0-.2.07-.19-.29l0-.31,0-.23-.22-.41,0-.22-.26-.31,0-.33,0-.23c-.33,0-.22.07-.19-.32V69.3c-.32,0-.2.06-.18-.34v-.73L15,67.88v-.76l-.18-.54v-.66l-.2-.68,0-.61-.25-.71v-.77l0-.43c-.3-.45-.19-.15-.21-.82v-7l.2-.86V52.8l.19-.71v-.71l.2-.68v-.53l.22-.63,0-.41.23-.59,0-.36v-.41l.24-.36,0-.2,0-.36c0-.35-.12-.29.18-.29v-.32l.22-.43,0-.35L16,45l0-.15v-.25l.18-.29,0-.21,0-.29c0-.33-.1-.27.19-.27v-.31c0-.32-.1-.26.19-.26l0-.25c0-.42-.16-.36.17-.36l0-.23.16-.35,0-.25.16-.34V40.9l.21-.21v-.38l.22-.2V40c0-.37-.13-.31.18-.31v-.34c0-.28-.07-.2.22-.2V39c0-.37-.13-.31.18-.31v-.35c0-.27-.06-.2.21-.17V38l.22-.2v-.13c0-.36-.13-.3.18-.3v-.11c0-.33-.09-.27.2-.27V36.8l.19-.28v-.1l.19-.31v-.32c0-.28-.07-.21.2-.2l.18-.26v-.11l.2-.28v-.12l.2-.26v-.12c0-.34-.09-.28.2-.28v-.1c0-.33-.08-.26.21-.26v-.13c0-.31-.09-.24.21-.24V33.3c0-.33-.12-.26.18-.26l.18-.26v-.11l.22-.23v-.15c0-.31-.09-.24.21-.24v-.13c0-.32-.11-.26.18-.25,0-.29-.08-.22.2-.22l0-.15c0-.37-.13-.32.19-.27,0-.3-.09-.22.2-.22v-.1c0-.31-.06-.23.24-.23l.15-.37c0-.29-.05-.22.24-.22l.15-.37c0-.3-.08-.22.22-.22l.2-.23,0-.13c0-.3-.09-.23.21-.23,0-.29-.07-.22.21-.22v-.13c0-.31-.1-.25.19-.23l.19-.2c0-.3-.08-.24.2-.24v-.13c0-.3-.09-.24.2-.23l.19-.19c0-.3-.07-.23.21-.23l.16-.35c0-.31-.07-.25.21-.23l.21-.18.21-.19.17-.38c0-.3-.08-.25.2-.22l.21-.18.19-.21.22-.19.36-.57c0-.29-.06-.22.22-.21,0-.27-.08-.21.19-.2l.19-.2.2-.2.2-.2.19-.2.2-.19.2-.19c0-.28-.08-.23.19-.21,0-.27-.08-.21.2-.19,0-.27-.08-.2.2-.19,0-.27-.07-.21.2-.2l.19-.2.2-.19.19-.2.2-.2.2-.2.2-.19.19-.2.17-.22L31.3,20l.77-.55c0-.28-.08-.22.2-.22l.19-.19.22-.22.57-.35c0-.29-.08-.22.2-.22l.2-.19c0-.33-.09-.26.22-.22l.36-.16.2-.22.22-.2.36-.17c0-.29-.07-.22.21-.22,0-.27-.07-.2.22-.2h.15c0-.28-.07-.21.21-.2L36,16.3l.36-.16c0-.28-.07-.21.21-.21,0-.28-.06-.2.25-.18H37c0-.29-.08-.23.2-.22,0-.29-.08-.19.25-.18h.12c0-.29-.07-.21.23-.21,0-.3-.08-.22.23-.19h.16l.21-.23h.13l.24-.19c0-.29-.07-.21.24-.19h.16l.22-.23.36-.15c0-.31-.07-.24.24-.22h.16c0-.29-.07-.21.22-.22h.14c0-.29-.07-.2.25-.22h.11l.26-.18c0-.31-.07-.22.26-.19l.13,0c0-.31-.07-.22.26-.2h.13c0-.31-.07-.22.27-.2h.13c0-.3-.07-.21.24-.2h.16c0-.3-.07-.21.25-.2h.13c0-.31-.07-.21.27-.2h.1c0-.32-.07-.22.29-.19h.14c0-.32-.07-.23.27-.2h.11c0-.29-.07-.22.21-.22h.35c0-.3-.06-.21.27-.19h.16c0-.29-.06-.2.26-.18h.14l.19-.22h.34l.31-.17h.13c0-.28-.07-.21.21-.21h.3c0-.33-.06-.2.35-.17h.13l.2-.21h.36c0-.29-.07-.21.23-.2h.35c0-.28-.06-.2.24-.19h.32l.27-.19h.33c0-.28-.06-.19.26-.19h.39c0-.29-.08-.22.2-.21l.26,0h.13l.2-.22.29,0,.2,0c0-.31-.06-.21.3-.2l.28,0h.27l.45-.21h.33l.48-.2h.27c0-.33-.06-.22.33-.19h.34l.38,0,.58-.23h.33l.33-.17h.9l.65-.21h.67l.6-.16h.92L61,7.06l1,0h1.11a9,9,0,0,1,4.82,0H70l.76.24.77,0,.69.19H73l.52,0c.42,0,.37-.15.37.18l.16,0,.47,0,.37.16h.33l.58.23.38,0,.33,0,.33.18h.45l.4.23.25,0,.43.21.45,0,.39.15.21,0,.29,0c.3,0,.24-.08.24.2h.35c.3,0,.23-.09.23.21l.28,0,.34.17.25,0,.35.16.23,0,.33.16.28,0c.38,0,.32-.14.32.18h.34l.2.21h.14l.33.16.23,0c.4-.06.32-.16.32.2h.35c.28,0,.2-.06.2.23h.13c.35,0,.29-.12.29.19h.11c.36,0,.3-.12.3.18h.35c.28,0,.2-.07.2.22h.13c.33,0,.27-.11.27.2h.13c.32,0,.26-.11.26.19h.14c.34,0,.28-.11.28.19h.12c.34,0,.28-.11.28.19h.12c.31,0,.24-.08.24.2h.15c.33,0,.26-.1.26.2h.14c.29,0,.23-.08.23.2h.17c.3,0,.23-.09.23.2h.15c.3,0,.23-.09.23.2H90c.3,0,.24-.1.24.18l.26.18h.12l.25.21H91c.3,0,.23-.07.23.22h.15c.31,0,.24-.1.24.18l.24.19H92c.29,0,.22-.07.22.22h.14c.31,0,.25-.1.24.18.31,0,.25-.09.25.19H93c.29,0,.23-.08.23.2l.22.2.15,0c.29,0,.22-.08.22.22l.23.18h.15l.21.21c.29,0,.22-.08.22.19h.14c.29,0,.23-.08.23.2l.2.21.39.16.19.22c.3,0,.23-.08.23.21h.14l.22.2c.28,0,.2-.07.2.22l.36.18c.3,0,.24-.1.23.19l.2.19.19.2.24.19.34.18.21.22c.29,0,.24-.08.21.19.27,0,.19-.08.19.22l.56.35c.31,0,.23-.08.22.22l.2.2.2.19.19.2.2.2.19.19c.28,0,.2-.06.2.22l2.14,2.14c.29,0,.22-.07.22.2l.19.2.2.2.21.18.18.21c.28,0,.21-.07.19.21.33,0,.26-.1.23.21l.16.34c.29,0,.21-.07.21.23l.21.17.19.21c.28,0,.2-.07.21.22l.17.35c.3,0,.25-.08.22.2.27,0,.19-.08.18.21l.21.23.17.37.21.2.22.21.16.37c.28,0,.22-.07.21.21l.21.22v.11l.19.25.19.21c.33,0,.25-.09.2.23l0,.15.22.18c.34,0,.26-.09.21.26l0,.14c.28,0,.21-.07.21.21.29,0,.2-.07.18.24v.15c.28,0,.21-.07.21.2.29,0,.21-.07.18.25v.14c.29,0,.21-.07.23.22v.12l.18.25c.29,0,.2-.06.19.25V32c.29,0,.2-.06.22.24v.11c.28,0,.2-.06.19.25.29,0,.19-.07.17.27V33c.3,0,.22-.07.21.24v.13c.29,0,.2-.06.22.24v.11l.18.27.2.19v.19c.32,0,.23-.08.18.26v.14c.31,0,.22-.07.2.26v.13c.31,0,.22-.07.19.27v.12c.32,0,.23-.07.2.27V36c.29,0,.22-.07.22.2v.2l.2.19,0,.22v.11l.19.31v.08l.17.31v.16c.3,0,.21-.07.19.27v.12c.29,0,.23-.08.23.2v.32l.17.33v.1c.28,0,.21-.06.21.23v.33l.17.31v.12c.29,0,.21-.07.21.22v.36c.33,0,.22-.07.18.31l0,.25.17.33,0,.25.17.35,0,.23.16.36,0,.24.16.36,0,.22.19.29v.37c.28,0,.21-.07.21.21l0,.29V45l.22.44,0,.2.26.29,0,.35,0,.25c.31,0,.2-.06.18.31l0,.34,0,.21.21.44v.45c.34,0,.21-.07.18.35l0,.47,0,.42.23.63,0,.39.22.41v.71l-.06.34.27.64,0,.68v.51l.2.68v1.52l0,11,.24.59,0,.19c.28,0,.21-.06.21.22v.21c.29,0,.23-.1.22.18l0,.21c.29,0,.23-.09.21.17.31,0,.21-.09.21.24l.15.16c.29,0,.24-.07.22.21.28,0,.2-.07.2.22l.38.15.21,0,.2.21.18,0,.46.2,4.27,0,.93-.29.44.07.26,0,.37-.24h.29l.32-.16h.14c0-.31-.06-.22.26-.19h.14c0-.3-.07-.22.23-.21h.15l.22-.23.38-.16.19-.22c0-.27-.08-.19.2-.19,0-.28-.08-.23.19-.2,0-.27-.08-.19.21-.18,0-.28-.07-.21.2-.2l.19-.2.22-.2.16-.36c0-.3-.06-.23.24-.23l0-.13c0-.33-.13-.27.19-.26l.17-.27v-.12l0-.2c0-.34-.1-.27.2-.27v0l0-.27c-.05-.3-.09-.2.24-.2V65l-.05-.33.23-.39V46.61l-.23-.4v-.38l0-.12c-.3,0-.2.06-.19-.28v-.37c-.31,0-.21.06-.19-.29v-.13c-.32,0-.23.07-.2-.27v-.12c-.31,0-.23.07-.21-.26v-.14l-.22-.19c-.28,0-.2.06-.18-.24v-.15l-.21-.2-.2-.2-.19-.2-.21-.18-.19-.21-.19-.22-.37-.16c-.3,0-.22.06-.22-.23l-.37-.16-.27-.21h-.09c-.38,0-.32.12-.32-.19h-.33l-.2-.21-.21,0-.42-.21-.38,0-.7,0c-.62,0-1.2,0-1.83,0-.24,0-.78,0-1,0-.63-.08-.34.09-.56-.23l-.24-.37,0-.18-.2-.22v-.39l-.21-.2v-.38c-.28,0-.21.07-.21-.21v-.31l-.17-.36V37.8c-.29,0-.21.07-.21-.24V37.2c-.32,0-.21.06-.18-.31l0-.24-.18-.33v-.11c-.31,0-.2.07-.18-.31v-.09c-.32,0-.25.08-.24-.22v-.33L119,35v-.14c-.3,0-.21.06-.19-.27v-.11c-.29,0-.22.07-.22-.21v-.33l-.19-.3v-.1l-.19-.3v-.1c-.31,0-.21.06-.2-.3v-.12c-.3,0-.21.06-.2-.27v-.13c-.29,0-.2.07-.2-.26v-.12c-.29,0-.19.06-.19-.26v-.14c-.29,0-.2.06-.2-.26v-.14l-.21-.25v-.09l-.18-.28c-.29,0-.24.09-.21-.18v-.21c-.29,0-.2.07-.18-.25v-.14c-.29,0-.22.07-.21-.22v-.16l-.22-.23V29l-.19-.25c-.28,0-.2.07-.19-.24v-.12c-.29,0-.2.06-.21-.26V28l-.19-.25c-.28,0-.2.07-.19-.24v-.12c-.28,0-.2.07-.2-.22-.29,0-.21.06-.19-.25v-.14c-.29,0-.21.07-.24-.22l-.15-.38c-.29,0-.22.08-.21-.2-.3,0-.22.08-.19-.24v-.15c-.29,0-.22.08-.21-.2-.29,0-.21.07-.19-.24V25l-.22-.18c-.31,0-.23.08-.2-.24l0-.17-.21-.2-.22-.2-.15-.38c-.29,0-.22.07-.22-.2l-.21-.22-.17-.35c-.28,0-.21.07-.21-.21l-.19-.21c-.29,0-.21.08-.21-.22l-.17-.36c-.28,0-.21.07-.21-.2l-.2-.19c-.27,0-.2.07-.19-.21-.3,0-.21.08-.2-.23v-.13c-.28,0-.2.07-.2-.22l-.21-.19-.18-.21c-.28,0-.22.08-.2-.19-.29,0-.2.09-.21-.22l-.36-.55c-.29,0-.22.07-.22-.22l-.19-.19-.2-.2-.2-.19-.19-.2-.2-.2-.19-.2-.2-.19-.2-.2c-.27,0-.2.07-.19-.2-.27,0-.21.08-.2-.2l-.19-.19-.2-.2c-.27,0-.21.08-.2-.2l-.2-.19-.2-.2-.2-.19c-.29,0-.24.09-.21-.18-.28,0-.2.08-.19-.21l-.18-.21-.2-.19-.2-.22-.56-.34c-.31,0-.23.09-.22-.23-.27,0-.2.08-.2-.19l-.2-.2-.19-.2-.2-.22-.37-.15c-.29,0-.22.08-.22-.22l-.2-.19-.2-.22-.36-.18c-.3,0-.25.09-.22-.19-.27,0-.2.07-.19-.2-.28,0-.21.07-.21-.22l-.37-.15c-.3,0-.24.08-.22-.21l-.2-.22-.38-.16c-.28,0-.2.07-.2-.22-.28,0-.21.07-.21-.21h-.16c-.29,0-.23.08-.22-.19l-.2-.21-.38-.16c-.32,0-.25.07-.25-.23L98,9.85c-.29,0-.22.06-.22-.24l-.38-.15-.21-.23H97c-.32,0-.27.11-.24-.19l-.2-.2h-.16c-.3,0-.24.09-.23-.19l-.25-.18h-.12c-.29,0-.22.06-.22-.23h-.16c-.3,0-.24.1-.24-.19L95,7.87h-.14c-.29,0-.22.06-.22-.22h-.15c-.31,0-.24.1-.24-.2h-.15c-.32,0-.26.12-.25-.18l-.24-.19h-.14l-.25-.21h-.12l-.27-.2h-.11c-.34,0-.28.09-.28-.21h-.11c-.31,0-.24.1-.24-.21h-.17c-.32,0-.25.1-.25-.2H91.5c-.31,0-.24.09-.24-.2H91.1c-.32,0-.25.1-.25-.2h-.14c-.34,0-.28.11-.28-.19h-.11c-.36,0-.3.1-.3-.2h-.33c-.28,0-.2.07-.2-.22h-.13c-.34,0-.28.13-.28-.19H89c-.35,0-.28.12-.28-.18h-.14l-.27-.19h-.35l-.2-.22h-.14l-.31-.17h-.34c-.28,0-.2.07-.2-.21h-.12l-.33-.17-.25,0c-.37,0-.31.14-.31-.17h-.36l-.2-.21H85l-.26,0-.2-.22h-.12L84.1,3l-.23,0-.35-.16-.24,0H83l-.2-.21h-.12l-.27,0-.2-.2H82l-.39-.22h-.28l-.28,0c-.32,0-.25.08-.25-.2h-.14L80.3,2C80,2,80,2.07,80,1.76l-.17,0-.34,0c-.31,0-.24.1-.24-.2l-.35,0-.45-.22-.22,0h-.37l-.33-.24-.23,0H77L76.62,1h-.34L75.67.78,75,.8,74.36.57l-.6,0L73,.37l-.42,0-.78,0L71.07.17l-.78,0-.85,0L68.6,0H62.41Z"/><path class="cls-1" d="M32.46,46c0,.29.07.21-.23.19-.58.34-.21,0-.54.56,0,.31.07.24-.23.24v.13c0,.37.13.31-.18.31v1.28c.29,0,.2-.07.2.25v.34l.19.24.19.21c.29,0,.23-.09.21.18.27,0,.19-.07.19.2l.25.19h.11l.23,0c.35,0,.27-.12.27.22,2,.18,6-.23,7.59.18l.2.22.19.21c.31,0,.21-.07.17.28V52c0,.38.14.32-.19.32l-1,1.13-.22.21c0,.27.07.2-.2.19,0,.29.08.23-.19.21,0,.28.09.22-.2.19,0,.27.08.2-.2.2,0,.27.08.2-.19.19l-.17.23-.23.17c0,.27.07.2-.2.19,0,.27.08.21-.19.2l-.2.2-.19.19-.18.22-.21.18-.2.2-.19.2-.19.2-.21.18-.2.2-.19.2-.2.2-.19.19-.2.2-.2.2-.19.19-.2.21-.2.19-.19.19-.2.2-.2.2-.19.19-.2.21-.2.19-.19.2-.2.19-.19.2-.23.19-.35.57-.21.22-.19.25v.1c0,.32.09.25-.21.25v.14c0,.35.12.3-.18.3v.34l-.21.2,0,.21-.21.43,0,2.14.23.37v.51l.17.35,0,.25.19.28v.14l.19.23c.28,0,.2-.06.18.25v.13c.28,0,.21-.07.21.21l.19.2c.28,0,.2-.07.22.22l.36.35c.31,0,.26-.07.22.21l.19.2c.29,0,.22-.07.22.2H34c.31,0,.24-.09.24.22l.38.15.27.19.25,0,.35.17.22,0,.35,0,.31.24,8,0,.36-.16h.12c0-.3-.07-.22.24-.22l.35-.17c0-.29-.07-.22.21-.22l.17-.36.19-.29V68.11l0-.34V67.7c-.3,0-.2.06-.18-.29v-.16l-.22-.18-.18-.22-.23-.16-.17-.23H44.9c-.35,0-.28.11-.28-.19l-.33,0c-1.06,0-6.94.21-7.28-.25l-.17,0c-.31,0-.25.09-.24-.2l-.2-.19c-.28,0-.2.06-.2-.24v-.15c-.39-.3-.32-.33,0-.68v-.07c0-.32-.07-.25.22-.25l1.54-1.74c0-.32-.09-.27.21-.23,0-.28-.1-.19.22-.17,0-.27-.08-.21.2-.2,0-.27-.08-.2.19-.2,0-.29-.09-.24.18-.21,0-.28-.1-.21.2-.19,0-.29-.08-.22.2-.2,0-.29-.09-.23.19-.2l.21-.18.2-.2.2-.19.19-.2.19-.2.2-.2.2-.2.18-.21c0-.28-.08-.21.2-.19l.21-.19.19-.2.2-.19.19-.2c0-.27-.07-.19.21-.19l.19-.2c0-.29-.09-.23.18-.21l.21-.18c0-.27-.06-.2.21-.19,0-.27-.08-.21.19-.21l.2-.19.19-.2.2-.19.19-.21c0-.28-.08-.21.19-.2,0-.27-.07-.19.21-.18,0-.28-.07-.21.22-.21l.18-.35c0-.3-.09-.25.19-.23,0-.27-.07-.2.22-.2v-.14c0-.34-.13-.29.17-.26v-.19c0-.27-.07-.21.2-.18v-.21c0-.29-.08-.22.2-.22l0-.18.23-.39,0-.23,0-.51,0-1.81,0-.5-.15-.39,0-.24-.17-.3v-.15c-.3,0-.21.07-.2-.25V48.8c-.31,0-.23.08-.23-.24l-.15-.38-.22-.2-.19-.2c-.28,0-.21.08-.19-.2-.28,0-.21.08-.2-.2-.27,0-.21.08-.2-.19l-.2-.19-.2-.22-.38-.14c-.31,0-.23.07-.23-.24h-.14c-.31,0-.24.08-.24-.2h-.15l-.3-.17L42,46l-.27,0c-.32,0-.25.09-.25-.21l-.16,0-.55,0-7.67,0-.34,0Z"/><path class="cls-1" d="M52.46,46h-.13c0,.29.07.22-.22.23l-.37.35c0,.3.08.23-.2.23l-.19.25v.34l-.2.27v6.76l.23.6,0,.17c.3,0,.21-.06.2.26v.36c.28,0,.21-.06.21.23l0,.23v.1l.18.31v.11c.28,0,.2-.06.19.25.3,0,.22-.08.18.25v.13c.29,0,.22-.07.22.2.35,0,.29-.1.22.24l0,.15c.28,0,.22-.07.21.2l.2.19.2.2.19.2.2.2c.27,0,.2-.07.2.21l.37.15c.3,0,.22-.08.22.22l.25.18h.12c.31,0,.25-.06.25.22h.12c.33,0,.27-.09.27.19h.36c.29,0,.21-.09.21.23l.12,0,.27,0,.21.23.16,0h.42l.38.23h2l.39-.22h.56c0-.3-.06-.2.28-.19l.39.13,0,8.41.18.3v.36c.29,0,.2-.06.2.27V70l.19.23.2.2.2.21h.15c.32,0,.25-.1.25.2h.12c.4,0,.34-.15.34.17h1.25c0-.31-.06-.19.33-.16h.11c0-.31-.07-.23.26-.2h.14l.18-.23.22-.18c0-.29-.09-.23.19-.23v-.12c0-.32-.09-.26.21-.26v-.38l.19-.28,0-21.15-.22-.43v-.3l-.18-.26-.19-.21c-.27,0-.21.08-.2-.19-.29,0-.22.09-.2-.19-.28,0-.2.07-.2-.21h-.14c-.34,0-.28.12-.28-.18h-.11l-.3,0h-.87l-.32,0h-.14c0,.3.06.21-.26.2h-.12c0,.29.07.22-.21.21,0,.28.08.21-.21.19,0,.27.08.21-.19.2,0,.28.07.2-.22.2v.13c0,.39.13.32-.19.32l0,.11-.21.47v6.25c0,.28.07.21-.2.21v.13c0,.32.1.25-.21.25-.29.56-.21.49-.76.77,0,.31.08.24-.23.23h-.12c0,.31.06.2-.32.17l-.25,0c-.18.13-.08.15-.46.18-.79,0-.28,0-.46-.18l-.25,0-.34-.16h-.12l-.24-.22-.14,0c-.3,0-.23.08-.22-.22l-.19-.19c-.3,0-.22.07-.21-.23v-.14c-.3,0-.22.08-.22-.25v-.1L56.08,54l0-.41s-.06-.11-.07-.15,0-.11-.06-.16c-.13-.53,0,.17-.06-.36,0-.16,0-.61,0-.8l-.07-4.44.08-.35v-.09c-.31,0-.21.07-.19-.28V46.8l-.22-.19-.19-.2c-.28,0-.22.07-.21-.19-.29,0-.22.08-.22-.21h-.12c-.34,0-.28.11-.28-.19h-.4l-1.11,0-.21,0C52.73,46.12,52.8,46,52.46,46Z"/><path class="cls-1" d="M86.11,46H86l-.2.2c0,.27.07.2-.21.19l-.16.23-.23.17V47c0,.35.12.28-.19.28v.08l.05.34v1.44l.17.28c.29,0,.21-.08.18.23v.15c.29,0,.22-.07.22.22l.36.16c.32,0,.24-.09.24.22h.39c.3,0,.23-.08.23.2l7.76,0c.34,0,.27-.12.27.2v.08c.25.27.11,0,.12.41,0,.63.14,0-.16.24v.33l-.16.37,0,.25,0,.27c0,.31.09.24-.21.24v.34l-.19.27,0,.24c0,.41.17.35-.17.35v.3l-.23.41,0,.13v.27l-.19.27,0,.23,0,.29c0,.27.07.19-.22.19v.39l-.2.21V57l0,.26c0,.34.11.28-.19.28l0,.14-.25.4v.27l0,.29c0,.29.08.23-.2.23v.35l-.19.27,0,.23,0,.29-.22.2v.39c0,.32.09.26-.2.26v.06l0,.33-.27.27,0,.16,0,.3c0,.28.07.19-.24.19v.14l0,.26-.21.21v.38l-.18.28,0,.21,0,.29c0,.27.07.2-.22.2v.39l-.2.22v.37l-.18.28,0,.21,0,.29c0,.34.1.28-.2.28v.32c0,.31.09.25-.19.25l0,.16,0,.32c0,.33.11.26-.2.26v.1l0,.29c0,.28.08.22-.2.22l0,1.06.19.29,0,.2.15.37c.3,0,.24-.08.22.2l.19.21.21.19c.3,0,.24-.09.24.19h.34l.28.19h1.2l.34-.16h.14c0-.29-.07-.22.22-.22.62-.35.22,0,.57-.54,0-.32-.1-.27.2-.24v-.2l.22-.2V69.3l0-.27c0-.31-.08-.25.21-.25l0-.15.24-.4v-.3l.16-.37,0-.22,0-.29c0-.29-.08-.23.2-.23v-.35c0-.35-.11-.29.2-.29l0-.21.16-.38,0-.22v-.28c0-.3-.08-.24.2-.24V64.5c0-.31-.09-.24.19-.24l0-.26,0-.29.22-.2v-.1l0-.28c0-.29-.08-.22.21-.22v-.38c0-.31-.09-.24.19-.24l0-.26.15-.37,0-.22,0-.28c0-.34-.11-.27.21-.27v-.32c0-.33-.1-.26.2-.26l0-.25v-.28l.21-.2v-.12l0-.27c0-.31-.08-.25.2-.25V58.6l.19-.27,0-.24v-.28l.21-.19V57.5l0-.28c0-.31-.08-.25.2-.25v-.34l.19-.26,0-.24,0-.28c0-.28-.07-.21.22-.21v-.38c0-.3-.09-.23.2-.23l0-.19.23-.4v-.28l0-.28c0-.3-.08-.22.21-.22v-.37l.19-.27v-.11l0-.36.17-.34,0-2.08-.24-.32,0-.33v-.11c-.29,0-.23.08-.21-.2v-.34l-.19-.29v-.13l-.19-.24c-.29,0-.21.08-.2-.22V47.8l-.2-.21-.2-.2-.2-.19L98,47l-.2-.22-.37-.15c-.29,0-.22.06-.22-.23H97c-.32,0-.25.09-.25-.2l-.14,0c-.35.05-.28.14-.28-.2l-.19,0-.37-.24-.44.08a75.7,75.7,0,0,0-8.52,0l-.33,0h-.12C86.37,46.11,86.44,46,86.11,46Z"/><path class="cls-1" d="M76.27,46h-.14l-.19.21c0,.27.08.19-.22.19l-.19.2-.21.19V47c0,.35.12.29-.19.29v.08l0,.32c0,.62,0,.2-.24.35l0,.18,0,.41-.24.38v.52l-.19.5v.5l-.2.49v.33l0,.44-.25.31,0,.29,0,.47c0,.36.13.29-.18.29v.6l-.23.35,0,.28-.24.58v.67l-.19.51v.32l0,.44-.25.31,0,.29L73,58l0,.35v.41l-.22.41,0,.22,0,.47c0,.39.15.33-.17.33v.54l-.22.41v.5l-.2.48v.51l-.19.48v.39L72,64c0,.41.15.35-.18.35V65c0,.37.12.31-.18.31v.56l-.22.37V67c0,.41.15.35-.18.35v.43l-.19.51,0,.61c.32,0,.21-.06.19.32v.34l.2.29V70c.28,0,.2-.07.2.24l.2.19c.28,0,.21-.08.21.21h.13c.32,0,.25-.1.25.22h.12l.36.16H74.1l.33-.16h.12c0-.32-.08-.24.25-.21h.14l.18-.23.22-.18c0-.28-.08-.22.2-.22v-.14c0-.31-.09-.24.21-.24l0-.19.24-.41v-.45l-.06-.39.25-.3,0-.25.24-.58,0-.36v-.41l.22-.36,0-.28,0-.45c0-.4-.14-.34.18-.34v-.55l.21-.4v-.51l.19-.49,0-.44-.06-.37.25-.29,0-.21,0-.43.24-.37,0-.36V60c0-.37-.13-.3.19-.3l0-.2,0-.46c0-.41-.16-.35.16-.35l0-.18L78.1,58v-.67l.19-.51v-.31l0-.45.25-.31-.05-.29.23-.57,0-.41,0-.47c0-.4-.15-.34.17-.34l0-.19,0-.46c0-.42-.15-.36.17-.36l0-.43.19-.49v-.51l.2-.48,0-.39.23-.58,0-.36V49l.22-.37,0-.92-.19-.28V47l-.19-.24c-.27,0-.2.07-.19-.23l-.38-.33c-.3,0-.22.08-.22-.25h-.13c-.34,0-.28.13-.28-.18l-.18,0-1.31,0-.23,0C76.54,46.11,76.6,46,76.27,46Z"/></g></g></svg>