<svg xmlns="http://www.w3.org/2000/svg" viewBox="0 0 301.36 370.24"><defs><style>.cls-1,.cls-2{fill:#fff;}.cls-2{fill-rule:evenodd;}</style></defs><title>Asset 2</title><g id="Layer_2" data-name="Layer 2"><g id="Text"><polygon class="cls-1" points="125.71 0 3.66 0 3.66 0.14 3.04 0.14 3.04 121.53 12.68 121.53 12.68 9.64 125.71 9.64 125.71 0"/><path class="cls-1" d="M26.78,343.24a10.68,10.68,0,0,1-.06,1.22,4.2,4.2,0,0,1-.17.81.92.92,0,0,1-.27.42.59.59,0,0,1-.37.12,2.35,2.35,0,0,1-1-.43,13.87,13.87,0,0,0-1.87-.95,19.34,19.34,0,0,0-2.77-.94,14.38,14.38,0,0,0-3.74-.44,10.21,10.21,0,0,0-4.11.79,8.74,8.74,0,0,0-3.15,2.23,10,10,0,0,0-2,3.46,13.46,13.46,0,0,0-.7,4.46,14.54,14.54,0,0,0,.71,4.74,9.6,9.6,0,0,0,2,3.42,8.18,8.18,0,0,0,3.09,2.09,11,11,0,0,0,4,.7,9.27,9.27,0,0,0,2.1-.24,8.19,8.19,0,0,0,1.94-.73v-7.26H14.43c-.29,0-.52-.19-.68-.55a5,5,0,0,1-.24-1.85,9.12,9.12,0,0,1,.06-1.14,2.86,2.86,0,0,1,.18-.74A1.11,1.11,0,0,1,14,352a.61.61,0,0,1,.39-.13H25a1.67,1.67,0,0,1,.69.13,1.46,1.46,0,0,1,.53.4,1.73,1.73,0,0,1,.35.64,2.84,2.84,0,0,1,.12.86v12.47a3,3,0,0,1-.25,1.27,1.84,1.84,0,0,1-1,.86,19.22,19.22,0,0,1-1.95.65c-.77.23-1.58.42-2.41.59s-1.67.28-2.52.36-1.7.12-2.55.12a19.57,19.57,0,0,1-6.72-1.08,13.19,13.19,0,0,1-8.17-8.11A19,19,0,0,1,0,354.38a19.48,19.48,0,0,1,1.16-6.91,14.76,14.76,0,0,1,3.29-5.21A14.47,14.47,0,0,1,9.6,339a18.88,18.88,0,0,1,6.72-1.13,23.28,23.28,0,0,1,3.7.27,22.29,22.29,0,0,1,2.92.68,11.55,11.55,0,0,1,2.07.86,5.2,5.2,0,0,1,1.15.8,2,2,0,0,1,.47,1A8.26,8.26,0,0,1,26.78,343.24Z"/><path class="cls-1" d="M56.48,368.88a1,1,0,0,1-.09.45.8.8,0,0,1-.46.3,4,4,0,0,1-1.07.17c-.47,0-1.1.05-1.91.05s-1.22,0-1.62-.05a3.49,3.49,0,0,1-1-.18,1,1,0,0,1-.49-.34,1.87,1.87,0,0,1-.25-.49l-2.81-7c-.33-.79-.67-1.49-1-2.11a6.49,6.49,0,0,0-1.08-1.53,4,4,0,0,0-1.36-.94,4.78,4.78,0,0,0-1.8-.31h-2v11.94a.64.64,0,0,1-.16.43,1.08,1.08,0,0,1-.52.32,5.18,5.18,0,0,1-1,.19,17,17,0,0,1-3.08,0,5.14,5.14,0,0,1-1-.19,1,1,0,0,1-.51-.32.68.68,0,0,1-.15-.43V340.39a1.93,1.93,0,0,1,.55-1.54,2,2,0,0,1,1.34-.47h8.11c.82,0,1.5,0,2,.05s1,.07,1.45.12a13.12,13.12,0,0,1,3.4.92,8.17,8.17,0,0,1,2.57,1.7,7.36,7.36,0,0,1,1.61,2.5,9.13,9.13,0,0,1,.55,3.3,9.57,9.57,0,0,1-.4,2.87,7,7,0,0,1-1.17,2.31,7.89,7.89,0,0,1-1.91,1.77,10.29,10.29,0,0,1-2.59,1.21,7.67,7.67,0,0,1,1.32.83,7.14,7.14,0,0,1,1.16,1.17,12.19,12.19,0,0,1,1,1.57c.32.59.63,1.26.94,2l2.64,6.17q.36.93.48,1.35A2.57,2.57,0,0,1,56.48,368.88Zm-8.2-21.25a4.71,4.71,0,0,0-.7-2.62,3.84,3.84,0,0,0-2.3-1.5,9.8,9.8,0,0,0-1.11-.19,14.7,14.7,0,0,0-1.7-.08H39.61v8.89h3.24a7.73,7.73,0,0,0,2.38-.33,4.58,4.58,0,0,0,1.69-.92,3.76,3.76,0,0,0,1-1.41A4.94,4.94,0,0,0,48.28,347.63Z"/><path class="cls-1" d="M86.82,367.33a7.44,7.44,0,0,1,.36,1.38.84.84,0,0,1-.19.77,1.57,1.57,0,0,1-.94.31c-.46,0-1.08.06-1.87.06s-1.46,0-1.92,0a5.44,5.44,0,0,1-1.06-.15.89.89,0,0,1-.5-.3,1.73,1.73,0,0,1-.25-.51l-2.1-6.29H66.58l-2,6.12a1.88,1.88,0,0,1-.26.57,1,1,0,0,1-.51.36,3.51,3.51,0,0,1-1,.18c-.43,0-1,.05-1.68.05a16,16,0,0,1-1.75-.07,1.36,1.36,0,0,1-.87-.35,1,1,0,0,1-.17-.79,7.43,7.43,0,0,1,.37-1.35l9.66-27.8a2.26,2.26,0,0,1,.34-.66,1.16,1.16,0,0,1,.61-.39,4.72,4.72,0,0,1,1.18-.17c.5,0,1.16,0,2,0s1.71,0,2.28,0a5.82,5.82,0,0,1,1.32.17,1.29,1.29,0,0,1,.68.4,2.68,2.68,0,0,1,.35.72Zm-14.38-23h0L68,357.67h8.88Z"/><path class="cls-1" d="M112.65,347.89a12.41,12.41,0,0,1-.82,4.68,9.07,9.07,0,0,1-2.4,3.42,10.36,10.36,0,0,1-3.86,2.12,18,18,0,0,1-5.38.73H97.57v10a.64.64,0,0,1-.16.43,1,1,0,0,1-.52.32,5.18,5.18,0,0,1-1,.19,17,17,0,0,1-3.08,0,5.31,5.31,0,0,1-1-.19,1,1,0,0,1-.51-.32.68.68,0,0,1-.15-.43V340.65a2.24,2.24,0,0,1,.6-1.7,2.14,2.14,0,0,1,1.56-.57h7.38c.75,0,1.45,0,2.12.08a22.48,22.48,0,0,1,2.41.37,10.24,10.24,0,0,1,2.85,1,8.39,8.39,0,0,1,2.45,1.9,7.76,7.76,0,0,1,1.55,2.68A10.41,10.41,0,0,1,112.65,347.89Zm-6.65.46a5.73,5.73,0,0,0-.58-2.71,4.07,4.07,0,0,0-1.43-1.57,4.61,4.61,0,0,0-1.78-.64,13.49,13.49,0,0,0-1.93-.14H97.57v10.63h2.86a7,7,0,0,0,2.55-.41,4.38,4.38,0,0,0,1.69-1.15,5.08,5.08,0,0,0,1-1.77A7.26,7.26,0,0,0,106,348.35Z"/><path class="cls-1" d="M136.16,367.21a9.71,9.71,0,0,1-.06,1.18,3,3,0,0,1-.18.76.93.93,0,0,1-.3.42.65.65,0,0,1-.4.14H119.48a2,2,0,0,1-1.34-.47,2,2,0,0,1-.55-1.54V340.39a2,2,0,0,1,.55-1.54,2,2,0,0,1,1.34-.47h15.64a.65.65,0,0,1,.39.12.94.94,0,0,1,.29.42,3.22,3.22,0,0,1,.18.78,9.72,9.72,0,0,1,.06,1.2,9.4,9.4,0,0,1-.06,1.15,3,3,0,0,1-.18.76,1.07,1.07,0,0,1-.29.42.6.6,0,0,1-.39.14H123.94V351h9.46a.64.64,0,0,1,.4.13,1,1,0,0,1,.31.41,2.94,2.94,0,0,1,.18.75,9.4,9.4,0,0,1,.06,1.15,9.13,9.13,0,0,1-.06,1.16,2.75,2.75,0,0,1-.18.74.87.87,0,0,1-.31.4.7.7,0,0,1-.4.12h-9.46v8.84h11.28a.64.64,0,0,1,.4.13,1,1,0,0,1,.3.43,2.93,2.93,0,0,1,.18.76A9.53,9.53,0,0,1,136.16,367.21Z"/><path class="cls-1" d="M170,361.23a8.91,8.91,0,0,1-.75,3.73,7.89,7.89,0,0,1-2.11,2.8,9.18,9.18,0,0,1-3.22,1.75,12.9,12.9,0,0,1-4.06.61,13.61,13.61,0,0,1-2.84-.28,15.7,15.7,0,0,1-2.37-.67,12.34,12.34,0,0,1-1.75-.78,4.14,4.14,0,0,1-1-.68,1.66,1.66,0,0,1-.39-.65,3.11,3.11,0,0,1-.12-.94,3.15,3.15,0,0,1,.05-.67,1.44,1.44,0,0,1,.13-.44.49.49,0,0,1,.22-.23.67.67,0,0,1,.28-.06,2,2,0,0,1,1,.42,12.52,12.52,0,0,0,1.6.92A15,15,0,0,0,157,367a10.5,10.5,0,0,0,3.18.43,8.91,8.91,0,0,0,2.71-.4,6.23,6.23,0,0,0,2.13-1.15,5.25,5.25,0,0,0,1.4-1.85,6.08,6.08,0,0,0,.49-2.51,4.7,4.7,0,0,0-.63-2.49,6.4,6.4,0,0,0-1.66-1.83,13.52,13.52,0,0,0-2.33-1.43c-.87-.43-1.77-.86-2.68-1.28s-1.8-.9-2.67-1.4a11.43,11.43,0,0,1-2.34-1.75,7.92,7.92,0,0,1-1.66-2.36,7.61,7.61,0,0,1-.63-3.22,7.75,7.75,0,0,1,.66-3.26,6.82,6.82,0,0,1,1.84-2.44,8.18,8.18,0,0,1,2.84-1.54,11.73,11.73,0,0,1,3.64-.53,10.52,10.52,0,0,1,2,.19,14,14,0,0,1,1.93.5,11.13,11.13,0,0,1,1.62.67,4.58,4.58,0,0,1,1,.61,2,2,0,0,1,.29.34,1.11,1.11,0,0,1,.1.28,1.88,1.88,0,0,1,.08.4c0,.15,0,.34,0,.57a4.61,4.61,0,0,1,0,.56,3.13,3.13,0,0,1-.11.44.73.73,0,0,1-.19.28.37.37,0,0,1-.25.1,1.73,1.73,0,0,1-.81-.36c-.36-.23-.82-.49-1.37-.78a11.08,11.08,0,0,0-2-.79,8.92,8.92,0,0,0-2.59-.35,7.23,7.23,0,0,0-2.49.39,5.14,5.14,0,0,0-1.77,1.05,4.14,4.14,0,0,0-1.05,1.56,5,5,0,0,0-.36,1.89,4.7,4.7,0,0,0,.63,2.49,6.61,6.61,0,0,0,1.67,1.84,13.11,13.11,0,0,0,2.37,1.44c.87.43,1.77.86,2.68,1.29s1.81.89,2.69,1.38a11.17,11.17,0,0,1,2.36,1.74,7.91,7.91,0,0,1,1.67,2.35A7.46,7.46,0,0,1,170,361.23Z"/><path class="cls-1" d="M195.34,339.73a3.06,3.06,0,0,1-.05.56,1.24,1.24,0,0,1-.15.4.56.56,0,0,1-.24.24.59.59,0,0,1-.31.09h-9.35v28.2a.5.5,0,0,1-.07.27.5.5,0,0,1-.25.19,1.77,1.77,0,0,1-.46.12,3.52,3.52,0,0,1-.7.05,3.58,3.58,0,0,1-.7-.05,1.89,1.89,0,0,1-.46-.12.52.52,0,0,1-.24-.19.5.5,0,0,1-.07-.27V341h-9.35a.58.58,0,0,1-.33-.09.67.67,0,0,1-.23-.24,1.24,1.24,0,0,1-.14-.4,3.06,3.06,0,0,1-.05-.56,3.42,3.42,0,0,1,.05-.59,1.38,1.38,0,0,1,.14-.42.74.74,0,0,1,.23-.26.67.67,0,0,1,.33-.08h21.65a.68.68,0,0,1,.31.08.61.61,0,0,1,.24.26,1.37,1.37,0,0,1,.15.42A3.42,3.42,0,0,1,195.34,339.73Z"/><path class="cls-1" d="M222.77,358.18a14.85,14.85,0,0,1-.81,5.09,10.35,10.35,0,0,1-2.32,3.75,9.65,9.65,0,0,1-3.63,2.31,13.56,13.56,0,0,1-4.77.79,12.62,12.62,0,0,1-4.42-.75,9.52,9.52,0,0,1-3.48-2.22,9.86,9.86,0,0,1-2.28-3.63,14.21,14.21,0,0,1-.81-5V338.86a.48.48,0,0,1,.07-.26.55.55,0,0,1,.26-.2,2.07,2.07,0,0,1,.45-.12,4.21,4.21,0,0,1,.7,0,4.58,4.58,0,0,1,.7,0,1.89,1.89,0,0,1,.46.12.54.54,0,0,1,.24.2.48.48,0,0,1,.07.26V358a13.38,13.38,0,0,0,.57,4.11,7.9,7.9,0,0,0,1.65,3,6.82,6.82,0,0,0,2.61,1.76,9.55,9.55,0,0,0,3.48.6,10,10,0,0,0,3.5-.57,6.64,6.64,0,0,0,2.6-1.73,7.86,7.86,0,0,0,1.63-2.9,12.94,12.94,0,0,0,.57-4.05V338.86a.5.5,0,0,1,.08-.26.45.45,0,0,1,.24-.2,1.77,1.77,0,0,1,.46-.12,4.93,4.93,0,0,1,1.4,0,1.77,1.77,0,0,1,.46.12.45.45,0,0,1,.24.2.5.5,0,0,1,.08.26Z"/><path class="cls-1" d="M254.87,353.58a22.31,22.31,0,0,1-1,7,13.12,13.12,0,0,1-2.93,5,12.41,12.41,0,0,1-4.78,3.08,19.9,19.9,0,0,1-6.79,1H233.2a1.51,1.51,0,0,1-.89-.33,1.37,1.37,0,0,1-.46-1.2V339.9a1.34,1.34,0,0,1,.46-1.19,1.51,1.51,0,0,1,.89-.33h6.59a18.27,18.27,0,0,1,6.74,1.09,12.3,12.3,0,0,1,4.6,3.08,13.11,13.11,0,0,1,2.8,4.8A19.36,19.36,0,0,1,254.87,353.58Zm-3.17.15a17.76,17.76,0,0,0-.69-5.07,10.93,10.93,0,0,0-2.13-4,9.87,9.87,0,0,0-3.65-2.65,14.29,14.29,0,0,0-5.61-1H234.8v26.05h4.84a16.09,16.09,0,0,0,5.41-.79,8.8,8.8,0,0,0,3.7-2.43A10.63,10.63,0,0,0,251,359.7,21.35,21.35,0,0,0,251.7,353.73Z"/><path class="cls-1" d="M264.89,369.22a.5.5,0,0,1-.07.27.52.52,0,0,1-.24.19,1.79,1.79,0,0,1-.45.12,5,5,0,0,1-1.41,0,1.77,1.77,0,0,1-.46-.12.5.5,0,0,1-.25-.19.5.5,0,0,1-.07-.27V338.86a.43.43,0,0,1,.09-.26.55.55,0,0,1,.26-.2,2.18,2.18,0,0,1,.46-.12,4.27,4.27,0,0,1,.67,0,4.43,4.43,0,0,1,.71,0,1.79,1.79,0,0,1,.45.12.54.54,0,0,1,.24.2.48.48,0,0,1,.07.26Z"/><path class="cls-1" d="M299.25,353.68a25,25,0,0,1-.86,6.79,14.32,14.32,0,0,1-2.58,5.18,11.41,11.41,0,0,1-4.33,3.31,16.76,16.76,0,0,1-12.1.06,10.59,10.59,0,0,1-4.11-3.15,13.27,13.27,0,0,1-2.37-5,26.61,26.61,0,0,1-.77-6.66,24.76,24.76,0,0,1,.85-6.68,14.12,14.12,0,0,1,2.58-5.12,11.59,11.59,0,0,1,4.33-3.28A14.85,14.85,0,0,1,286,338a14.59,14.59,0,0,1,5.9,1.09,10.54,10.54,0,0,1,4.13,3.12,13.28,13.28,0,0,1,2.42,4.94A24.88,24.88,0,0,1,299.25,353.68Zm-3.15.27a24.7,24.7,0,0,0-.52-5.22,12,12,0,0,0-1.72-4.24,8.37,8.37,0,0,0-3.18-2.83,10.54,10.54,0,0,0-4.92-1,10.2,10.2,0,0,0-4.9,1.08,9.13,9.13,0,0,0-3.24,2.89,12,12,0,0,0-1.79,4.24,22.74,22.74,0,0,0-.55,5.11,26.91,26.91,0,0,0,.5,5.31,12.08,12.08,0,0,0,1.68,4.27,8.31,8.31,0,0,0,3.17,2.85,10.83,10.83,0,0,0,5,1,10.27,10.27,0,0,0,5-1.1,9.05,9.05,0,0,0,3.24-3,12.17,12.17,0,0,0,1.77-4.28A23.64,23.64,0,0,0,296.1,354Z"/><path class="cls-2" d="M116.38,148.37a6.11,6.11,0,0,1-1-3.82v-5.34a13.07,13.07,0,0,0-2.17-7.63,9.78,9.78,0,0,0-2.91-2.72A12.86,12.86,0,0,0,103.4,127a9.83,9.83,0,0,0-8.76,5.38L84.33,152.69H90.7l9.8-19.58a2.69,2.69,0,0,1,2.41-1.49,4.29,4.29,0,0,1,4,2.7,13.72,13.72,0,0,1,.76,4.89v5.34a9.53,9.53,0,0,0,1.21,4.84,8.12,8.12,0,0,0,3.65,3.3,8.12,8.12,0,0,0-3.65,3.3,9.57,9.57,0,0,0-1.21,4.85v5.33a13.72,13.72,0,0,1-.76,4.89,4.3,4.3,0,0,1-4,2.71H83.43l-.7,1.38a9.87,9.87,0,0,1-2.65,3.24H103.4a12.86,12.86,0,0,0,6.85-1.87,9.75,9.75,0,0,0,2.91-2.71,13.1,13.1,0,0,0,2.17-7.64v-5.33a6.14,6.14,0,0,1,1-3.83,3.81,3.81,0,0,1,3.21-1.35v-5.94A3.81,3.81,0,0,1,116.38,148.37Z"/><path class="cls-2" d="M58.64,157a6.08,6.08,0,0,1,1,3.83v5.33a13.17,13.17,0,0,0,2.17,7.64,9.87,9.87,0,0,0,2.91,2.71,12.86,12.86,0,0,0,6.85,1.87A9.82,9.82,0,0,0,80.38,173L90.7,152.69H84.33l-9.81,19.59a2.69,2.69,0,0,1-2.41,1.49,4.29,4.29,0,0,1-4-2.71,13.5,13.5,0,0,1-.76-4.89v-5.33A9.67,9.67,0,0,0,66.16,156a8.18,8.18,0,0,0-3.65-3.3,8.18,8.18,0,0,0,3.65-3.3,9.63,9.63,0,0,0,1.21-4.84v-5.34a13.5,13.5,0,0,1,.76-4.89,4.28,4.28,0,0,1,4-2.7h5.54V127h-6a12.86,12.86,0,0,0-6.85,1.87,9.9,9.9,0,0,0-2.91,2.72,13.14,13.14,0,0,0-2.17,7.63v5.34a6,6,0,0,1-1,3.82,3.81,3.81,0,0,1-3.2,1.35v5.94a3.81,3.81,0,0,1,3.2,1.35Z"/><path class="cls-2" d="M112.52,152.69a8.12,8.12,0,0,0-3.65,3.3,9.57,9.57,0,0,0-1.21,4.85v5.33a13.72,13.72,0,0,1-.76,4.89,4.3,4.3,0,0,1-4,2.71H83.43l-.7,1.38a9.87,9.87,0,0,1-2.65,3.24H103.4a12.84,12.84,0,0,0,6.85-1.87,9.75,9.75,0,0,0,2.91-2.71,13.1,13.1,0,0,0,2.17-7.64v-5.33a6.14,6.14,0,0,1,1-3.83,3.81,3.81,0,0,1,3.21-1.35v-5.94A60.6,60.6,0,0,0,112.52,152.69Z"/><path class="cls-2" d="M62.51,152.69a8.18,8.18,0,0,0,3.65-3.3,9.63,9.63,0,0,0,1.21-4.84v-5.34a13.5,13.5,0,0,1,.76-4.89,4.28,4.28,0,0,1,4-2.7H91.59l.71-1.39A9.84,9.84,0,0,1,95,127H71.62a12.86,12.86,0,0,0-6.85,1.87,9.78,9.78,0,0,0-2.91,2.72,13.14,13.14,0,0,0-2.17,7.63v5.34a6,6,0,0,1-1,3.82,3.81,3.81,0,0,1-3.2,1.35v5.94A59.58,59.58,0,0,0,62.51,152.69Z"/><path class="cls-2" d="M179.75,148.4a6.11,6.11,0,0,1-1.05-3.82v-5.34a13.14,13.14,0,0,0-2.17-7.63,9.78,9.78,0,0,0-2.91-2.72,12.86,12.86,0,0,0-6.85-1.86A9.81,9.81,0,0,0,158,132.4L147.7,152.72h6.36l9.81-19.58a2.69,2.69,0,0,1,2.41-1.49,4.26,4.26,0,0,1,4,2.71,13.4,13.4,0,0,1,.76,4.88v5.34a9.67,9.67,0,0,0,1.21,4.85,8.12,8.12,0,0,0,3.66,3.29,8.2,8.2,0,0,0-3.66,3.3,9.67,9.67,0,0,0-1.21,4.85v5.33a13.46,13.46,0,0,1-.76,4.89,4.28,4.28,0,0,1-4,2.71H146.8l-.71,1.38a9.84,9.84,0,0,1-2.64,3.24h23.32a12.78,12.78,0,0,0,6.85-1.87,9.75,9.75,0,0,0,2.91-2.71,13.17,13.17,0,0,0,2.17-7.64v-5.33a6.09,6.09,0,0,1,1.05-3.82,3.78,3.78,0,0,1,3.2-1.36v-5.94A3.81,3.81,0,0,1,179.75,148.4Z"/><path class="cls-2" d="M122,157.05a6.09,6.09,0,0,1,1,3.82v5.33a13.17,13.17,0,0,0,2.17,7.64,9.75,9.75,0,0,0,2.91,2.71,12.78,12.78,0,0,0,6.85,1.87,9.83,9.83,0,0,0,8.76-5.38l10.31-20.32H147.7l-9.81,19.59a2.7,2.7,0,0,1-2.41,1.49,4.28,4.28,0,0,1-4-2.71,13.45,13.45,0,0,1-.77-4.89v-5.33a9.66,9.66,0,0,0-1.2-4.85,8.2,8.2,0,0,0-3.66-3.3,8.12,8.12,0,0,0,3.66-3.29,9.66,9.66,0,0,0,1.2-4.85v-5.34a13.39,13.39,0,0,1,.77-4.88,4.26,4.26,0,0,1,4-2.71H141V127h-6a12.86,12.86,0,0,0-6.85,1.86,9.78,9.78,0,0,0-2.91,2.72,13.14,13.14,0,0,0-2.17,7.63v5.34a6.11,6.11,0,0,1-1,3.82,3.81,3.81,0,0,1-3.21,1.35v5.94a3.79,3.79,0,0,1,3.21,1.36Z"/><path class="cls-2" d="M175.89,152.72a8.2,8.2,0,0,0-3.66,3.3,9.67,9.67,0,0,0-1.21,4.85v5.33a13.46,13.46,0,0,1-.76,4.89,4.28,4.28,0,0,1-4,2.71H146.8l-.71,1.38a9.84,9.84,0,0,1-2.64,3.24h23.32a12.78,12.78,0,0,0,6.85-1.87,9.75,9.75,0,0,0,2.91-2.71,13.17,13.17,0,0,0,2.17-7.64v-5.33a6.09,6.09,0,0,1,1.05-3.82,3.78,3.78,0,0,1,3.2-1.36v-5.94A61,61,0,0,0,175.89,152.72Z"/><path class="cls-2" d="M125.87,152.72a8.12,8.12,0,0,0,3.66-3.29,9.66,9.66,0,0,0,1.2-4.85v-5.34a13.39,13.39,0,0,1,.77-4.88,4.26,4.26,0,0,1,4-2.71H155l.7-1.38a9.76,9.76,0,0,1,2.65-3.24H135a12.86,12.86,0,0,0-6.85,1.86,9.78,9.78,0,0,0-2.91,2.72,13.14,13.14,0,0,0-2.17,7.63v5.34a6.11,6.11,0,0,1-1,3.82,3.81,3.81,0,0,1-3.21,1.35v5.94A58.79,58.79,0,0,0,125.87,152.72Z"/><path class="cls-2" d="M245.15,148.89a6.11,6.11,0,0,1-1.05-3.82v-5.34a13.14,13.14,0,0,0-2.17-7.63,9.78,9.78,0,0,0-2.91-2.72,12.86,12.86,0,0,0-6.85-1.87,9.82,9.82,0,0,0-8.76,5.38L213.1,153.21h6.36l9.81-19.58a2.69,2.69,0,0,1,2.41-1.49,4.27,4.27,0,0,1,4,2.7,13.5,13.5,0,0,1,.76,4.89v5.34a9.7,9.7,0,0,0,1.21,4.85,8.21,8.21,0,0,0,3.65,3.29,8.23,8.23,0,0,0-3.65,3.3,9.67,9.67,0,0,0-1.21,4.85v5.33a13.5,13.5,0,0,1-.76,4.89,4.28,4.28,0,0,1-4,2.71H212.2l-.71,1.38a9.84,9.84,0,0,1-2.64,3.24h23.32A12.78,12.78,0,0,0,239,177a9.75,9.75,0,0,0,2.91-2.71,13.17,13.17,0,0,0,2.17-7.64v-5.33a6.09,6.09,0,0,1,1.05-3.82,3.78,3.78,0,0,1,3.2-1.36v-5.94A3.81,3.81,0,0,1,245.15,148.89Z"/><path class="cls-2" d="M187.41,157.54a6.09,6.09,0,0,1,1.05,3.82v5.33a13.1,13.1,0,0,0,2.17,7.64,9.75,9.75,0,0,0,2.91,2.71,12.78,12.78,0,0,0,6.85,1.87,9.83,9.83,0,0,0,8.76-5.38l10.31-20.32H213.1l-9.81,19.59a2.7,2.7,0,0,1-2.41,1.49,4.28,4.28,0,0,1-4-2.71,13.48,13.48,0,0,1-.77-4.89v-5.33a9.66,9.66,0,0,0-1.2-4.85,8.2,8.2,0,0,0-3.66-3.3,8.18,8.18,0,0,0,3.66-3.29,9.69,9.69,0,0,0,1.2-4.85v-5.34a13.48,13.48,0,0,1,.77-4.89,4.27,4.27,0,0,1,4-2.7h5.54v-4.63h-6a12.86,12.86,0,0,0-6.85,1.87,9.78,9.78,0,0,0-2.91,2.72,13.07,13.07,0,0,0-2.17,7.63v5.34a6.11,6.11,0,0,1-1.05,3.82,3.81,3.81,0,0,1-3.21,1.35v5.94a3.79,3.79,0,0,1,3.21,1.36Z"/><path class="cls-2" d="M241.28,153.21a8.23,8.23,0,0,0-3.65,3.3,9.67,9.67,0,0,0-1.21,4.85v5.33a13.5,13.5,0,0,1-.76,4.89,4.28,4.28,0,0,1-4,2.71H212.2l-.71,1.38a9.84,9.84,0,0,1-2.64,3.24h23.32A12.78,12.78,0,0,0,239,177a9.75,9.75,0,0,0,2.91-2.71,13.17,13.17,0,0,0,2.17-7.64v-5.33a6.09,6.09,0,0,1,1.05-3.82,3.78,3.78,0,0,1,3.2-1.36v-5.94A61.44,61.44,0,0,0,241.28,153.21Z"/><path class="cls-2" d="M191.27,153.21a8.18,8.18,0,0,0,3.66-3.29,9.69,9.69,0,0,0,1.2-4.85v-5.34a13.48,13.48,0,0,1,.77-4.89,4.27,4.27,0,0,1,4-2.7h19.48l.7-1.38a9.9,9.9,0,0,1,2.65-3.25H200.39a12.86,12.86,0,0,0-6.85,1.87,9.78,9.78,0,0,0-2.91,2.72,13.07,13.07,0,0,0-2.17,7.63v5.34a6.11,6.11,0,0,1-1.05,3.82,3.81,3.81,0,0,1-3.21,1.35v5.94A58.79,58.79,0,0,0,191.27,153.21Z"/><path class="cls-2" d="M151.39,200.14a6.09,6.09,0,0,1-1-3.82V191a13.1,13.1,0,0,0-2.17-7.64,9.83,9.83,0,0,0-2.9-2.71,12.78,12.78,0,0,0-6.85-1.87,9.85,9.85,0,0,0-8.77,5.38l-10.31,20.32h6.37l9.8-19.59a2.71,2.71,0,0,1,2.42-1.49,4.3,4.3,0,0,1,4,2.71,13.46,13.46,0,0,1,.76,4.89v5.33a9.57,9.57,0,0,0,1.21,4.85,8.12,8.12,0,0,0,3.65,3.3,8,8,0,0,0-3.65,3.29,9.57,9.57,0,0,0-1.21,4.85V218a13.4,13.4,0,0,1-.76,4.88,4.28,4.28,0,0,1-4,2.71H118.44l-.7,1.38a9.64,9.64,0,0,1-2.65,3.24h23.33a12.86,12.86,0,0,0,6.85-1.86,9.86,9.86,0,0,0,2.9-2.72,13.07,13.07,0,0,0,2.17-7.63v-5.34a6.11,6.11,0,0,1,1-3.82,3.82,3.82,0,0,1,3.21-1.36V201.5A3.79,3.79,0,0,1,151.39,200.14Z"/><path class="cls-2" d="M93.66,208.79a6.11,6.11,0,0,1,1,3.82V218a13.14,13.14,0,0,0,2.16,7.63,10,10,0,0,0,2.91,2.72,12.86,12.86,0,0,0,6.85,1.86,9.81,9.81,0,0,0,8.76-5.37l10.32-20.32h-6.37l-9.8,19.58a2.71,2.71,0,0,1-2.42,1.49,4.28,4.28,0,0,1-4-2.71,13.4,13.4,0,0,1-.76-4.88v-5.34a9.57,9.57,0,0,0-1.21-4.85,8,8,0,0,0-3.65-3.29,8.12,8.12,0,0,0,3.65-3.3,9.57,9.57,0,0,0,1.21-4.85V191a13.5,13.5,0,0,1,.76-4.89,4.3,4.3,0,0,1,4-2.71h5.54v-4.62h-6a12.78,12.78,0,0,0-6.85,1.87,10,10,0,0,0-2.91,2.71A13.17,13.17,0,0,0,94.71,191v5.33a6.09,6.09,0,0,1-1,3.82,3.79,3.79,0,0,1-3.21,1.36v5.93a3.82,3.82,0,0,1,3.21,1.36Z"/><path class="cls-2" d="M147.53,204.47a8,8,0,0,0-3.65,3.29,9.57,9.57,0,0,0-1.21,4.85V218a13.4,13.4,0,0,1-.76,4.88,4.28,4.28,0,0,1-4,2.71H118.44l-.7,1.38a9.64,9.64,0,0,1-2.65,3.24h23.33a12.86,12.86,0,0,0,6.85-1.86,9.86,9.86,0,0,0,2.9-2.72,13.07,13.07,0,0,0,2.17-7.63v-5.34a6.11,6.11,0,0,1,1-3.82,3.82,3.82,0,0,1,3.21-1.36V201.5A59.58,59.58,0,0,0,147.53,204.47Z"/><path class="cls-2" d="M97.52,204.47a8.12,8.12,0,0,0,3.65-3.3,9.57,9.57,0,0,0,1.21-4.85V191a13.5,13.5,0,0,1,.76-4.89,4.3,4.3,0,0,1,4-2.71h19.49l.7-1.38a9.74,9.74,0,0,1,2.65-3.24H106.63a12.78,12.78,0,0,0-6.85,1.87,10,10,0,0,0-2.91,2.71A13.17,13.17,0,0,0,94.71,191v5.33a6.09,6.09,0,0,1-1,3.82,3.79,3.79,0,0,1-3.21,1.36v5.93A60.22,60.22,0,0,0,97.52,204.47Z"/><path class="cls-2" d="M215,200.14a6.09,6.09,0,0,1-1.05-3.82V191a13.17,13.17,0,0,0-2.16-7.64,10,10,0,0,0-2.91-2.71,12.78,12.78,0,0,0-6.85-1.87,9.82,9.82,0,0,0-8.76,5.38l-10.32,20.32h6.37l9.8-19.59a2.72,2.72,0,0,1,2.42-1.49,4.3,4.3,0,0,1,4,2.71,13.46,13.46,0,0,1,.76,4.89v5.33a9.57,9.57,0,0,0,1.21,4.85,8.18,8.18,0,0,0,3.65,3.3,8.1,8.1,0,0,0-3.65,3.29,9.57,9.57,0,0,0-1.21,4.85V218a13.4,13.4,0,0,1-.76,4.88,4.28,4.28,0,0,1-4,2.71H182l-.7,1.38a9.64,9.64,0,0,1-2.65,3.24H202a12.86,12.86,0,0,0,6.85-1.86,10,10,0,0,0,2.91-2.72,13.14,13.14,0,0,0,2.16-7.63v-5.34a6.11,6.11,0,0,1,1.05-3.82,3.82,3.82,0,0,1,3.21-1.36V201.5A3.79,3.79,0,0,1,215,200.14Z"/><path class="cls-2" d="M157.26,208.79a6.11,6.11,0,0,1,1.05,3.82V218a13.07,13.07,0,0,0,2.17,7.63,9.86,9.86,0,0,0,2.9,2.72,12.88,12.88,0,0,0,6.85,1.86,9.84,9.84,0,0,0,8.77-5.37l10.31-20.32h-6.37l-9.8,19.58a2.7,2.7,0,0,1-2.41,1.49,4.29,4.29,0,0,1-4-2.71A13.4,13.4,0,0,1,166,218v-5.34a9.57,9.57,0,0,0-1.21-4.85,8,8,0,0,0-3.65-3.29,8.12,8.12,0,0,0,3.65-3.3,9.57,9.57,0,0,0,1.21-4.85V191a13.5,13.5,0,0,1,.76-4.89,4.3,4.3,0,0,1,4-2.71h5.54v-4.62h-6a12.8,12.8,0,0,0-6.85,1.87,9.83,9.83,0,0,0-2.9,2.71,13.1,13.1,0,0,0-2.17,7.64v5.33a6.09,6.09,0,0,1-1.05,3.82,3.79,3.79,0,0,1-3.21,1.36v5.93a3.82,3.82,0,0,1,3.21,1.36Z"/><path class="cls-2" d="M211.13,204.47a8.1,8.1,0,0,0-3.65,3.29,9.57,9.57,0,0,0-1.21,4.85V218a13.4,13.4,0,0,1-.76,4.88,4.28,4.28,0,0,1-4,2.71H182l-.7,1.38a9.64,9.64,0,0,1-2.65,3.24H202a12.86,12.86,0,0,0,6.85-1.86,10,10,0,0,0,2.91-2.72,13.14,13.14,0,0,0,2.16-7.63v-5.34a6.11,6.11,0,0,1,1.05-3.82,3.82,3.82,0,0,1,3.21-1.36V201.5A59.58,59.58,0,0,0,211.13,204.47Z"/><path class="cls-2" d="M161.12,204.47a8.12,8.12,0,0,0,3.65-3.3,9.57,9.57,0,0,0,1.21-4.85V191a13.5,13.5,0,0,1,.76-4.89,4.3,4.3,0,0,1,4-2.71h19.48l.7-1.38a9.74,9.74,0,0,1,2.65-3.24H170.23a12.78,12.78,0,0,0-6.85,1.87,9.83,9.83,0,0,0-2.9,2.71,13.1,13.1,0,0,0-2.17,7.64v5.33a6.09,6.09,0,0,1-1.05,3.82,3.79,3.79,0,0,1-3.21,1.36v5.93A60.22,60.22,0,0,0,161.12,204.47Z"/><path class="cls-2" d="M181.63,251.23a6.09,6.09,0,0,1-1-3.82v-5.33a13.1,13.1,0,0,0-2.17-7.64,9.75,9.75,0,0,0-2.91-2.71,12.78,12.78,0,0,0-6.85-1.87,9.83,9.83,0,0,0-8.76,5.38l-10.31,20.32H156l9.8-19.59a2.7,2.7,0,0,1,2.41-1.49,4.26,4.26,0,0,1,4,2.71,13.41,13.41,0,0,1,.77,4.89v5.33a9.66,9.66,0,0,0,1.2,4.85,8.2,8.2,0,0,0,3.66,3.3,8.12,8.12,0,0,0-3.66,3.29,9.66,9.66,0,0,0-1.2,4.85V269a13.39,13.39,0,0,1-.77,4.88,4.26,4.26,0,0,1-4,2.71H148.68L148,278a9.76,9.76,0,0,1-2.65,3.24h23.32a12.86,12.86,0,0,0,6.85-1.86,9.78,9.78,0,0,0,2.91-2.72,13.07,13.07,0,0,0,2.17-7.63V263.7a6.09,6.09,0,0,1,1-3.82,3.81,3.81,0,0,1,3.21-1.35v-5.94A3.79,3.79,0,0,1,181.63,251.23Z"/><path class="cls-2" d="M123.89,259.88a6.09,6.09,0,0,1,1,3.82V269a13.14,13.14,0,0,0,2.17,7.63,9.78,9.78,0,0,0,2.91,2.72,12.86,12.86,0,0,0,6.85,1.86,9.81,9.81,0,0,0,8.76-5.37L156,255.56h-6.37l-9.81,19.58a2.69,2.69,0,0,1-2.41,1.49,4.27,4.27,0,0,1-4-2.71,13.4,13.4,0,0,1-.76-4.88V263.7a9.67,9.67,0,0,0-1.21-4.85,8.1,8.1,0,0,0-3.65-3.29,8.18,8.18,0,0,0,3.65-3.3,9.67,9.67,0,0,0,1.21-4.85v-5.33a13.43,13.43,0,0,1,.76-4.89,4.27,4.27,0,0,1,4-2.71h5.54v-4.62h-6a12.78,12.78,0,0,0-6.85,1.87,9.75,9.75,0,0,0-2.91,2.71,13.17,13.17,0,0,0-2.17,7.64v5.33a6.09,6.09,0,0,1-1,3.82,3.78,3.78,0,0,1-3.2,1.36v5.94a3.81,3.81,0,0,1,3.2,1.35Z"/><path class="cls-2" d="M177.77,255.56a8.12,8.12,0,0,0-3.66,3.29,9.66,9.66,0,0,0-1.2,4.85V269a13.39,13.39,0,0,1-.77,4.88,4.26,4.26,0,0,1-4,2.71H148.68L148,278a9.76,9.76,0,0,1-2.65,3.24h23.32a12.86,12.86,0,0,0,6.85-1.86,9.78,9.78,0,0,0,2.91-2.72,13.07,13.07,0,0,0,2.17-7.63V263.7a6.09,6.09,0,0,1,1-3.82,3.81,3.81,0,0,1,3.21-1.35v-5.94A58.79,58.79,0,0,0,177.77,255.56Z"/><path class="cls-2" d="M127.76,255.56a8.18,8.18,0,0,0,3.65-3.3,9.67,9.67,0,0,0,1.21-4.85v-5.33a13.43,13.43,0,0,1,.76-4.89,4.27,4.27,0,0,1,4-2.71h19.48l.71-1.38a9.74,9.74,0,0,1,2.65-3.24H136.87a12.78,12.78,0,0,0-6.85,1.87,9.75,9.75,0,0,0-2.91,2.71,13.17,13.17,0,0,0-2.17,7.64v5.33a6.09,6.09,0,0,1-1,3.82,3.78,3.78,0,0,1-3.2,1.36v5.94A61.44,61.44,0,0,0,127.76,255.56Z"/><path class="cls-2" d="M148.87,96.13a6.09,6.09,0,0,1-1.05-3.82V87a13.1,13.1,0,0,0-2.17-7.64,9.63,9.63,0,0,0-2.91-2.71,12.75,12.75,0,0,0-6.85-1.87,9.83,9.83,0,0,0-8.76,5.38l-10.31,20.32h6.37L133,80.87a2.7,2.7,0,0,1,2.41-1.49,4.26,4.26,0,0,1,4,2.71,13.41,13.41,0,0,1,.77,4.89v5.33a9.57,9.57,0,0,0,1.21,4.85,8.12,8.12,0,0,0,3.65,3.3,8,8,0,0,0-3.65,3.29,9.57,9.57,0,0,0-1.21,4.85v5.34a13.39,13.39,0,0,1-.77,4.88,4.26,4.26,0,0,1-4,2.71H115.92l-.7,1.38a9.76,9.76,0,0,1-2.65,3.24h23.32a12.83,12.83,0,0,0,6.85-1.86,9.78,9.78,0,0,0,2.91-2.72,13.07,13.07,0,0,0,2.17-7.63V108.6a6.09,6.09,0,0,1,1.05-3.82,3.82,3.82,0,0,1,3.21-1.36V97.49A3.82,3.82,0,0,1,148.87,96.13Z"/><path class="cls-2" d="M91.13,104.78a6.09,6.09,0,0,1,1.05,3.82v5.34a13.14,13.14,0,0,0,2.17,7.63,9.74,9.74,0,0,0,2.91,2.71,12.78,12.78,0,0,0,6.85,1.87,9.81,9.81,0,0,0,8.76-5.37l10.32-20.32h-6.37L107,120a2.69,2.69,0,0,1-2.41,1.49,4.27,4.27,0,0,1-4-2.71,13.4,13.4,0,0,1-.76-4.88V108.6a9.67,9.67,0,0,0-1.21-4.85A8.1,8.1,0,0,0,95,100.46a8.18,8.18,0,0,0,3.65-3.3,9.67,9.67,0,0,0,1.21-4.85V87a13.43,13.43,0,0,1,.76-4.89,4.27,4.27,0,0,1,4-2.71h5.54V74.76h-6a12.78,12.78,0,0,0-6.85,1.87,9.74,9.74,0,0,0-2.91,2.71A13.17,13.17,0,0,0,92.18,87v5.33a6.09,6.09,0,0,1-1.05,3.82,3.78,3.78,0,0,1-3.2,1.36v5.93a3.81,3.81,0,0,1,3.2,1.36Z"/><path class="cls-2" d="M145,100.46a8,8,0,0,0-3.65,3.29,9.57,9.57,0,0,0-1.21,4.85v5.34a13.39,13.39,0,0,1-.77,4.88,4.26,4.26,0,0,1-4,2.71H115.92l-.7,1.38a9.76,9.76,0,0,1-2.65,3.24h23.32a12.75,12.75,0,0,0,6.85-1.87,9.63,9.63,0,0,0,2.91-2.71,13.07,13.07,0,0,0,2.17-7.63V108.6a6.09,6.09,0,0,1,1.05-3.82,3.82,3.82,0,0,1,3.21-1.36V97.49A58.79,58.79,0,0,0,145,100.46Z"/><path class="cls-2" d="M95,100.46a8.18,8.18,0,0,0,3.65-3.3,9.67,9.67,0,0,0,1.21-4.85V87a13.43,13.43,0,0,1,.76-4.89,4.27,4.27,0,0,1,4-2.71h19.48l.71-1.38a9.74,9.74,0,0,1,2.65-3.24H104.11a12.78,12.78,0,0,0-6.85,1.87,9.87,9.87,0,0,0-2.91,2.71A13.17,13.17,0,0,0,92.18,87v5.33a6.09,6.09,0,0,1-1.05,3.82,3.78,3.78,0,0,1-3.2,1.36v5.93A60.22,60.22,0,0,0,95,100.46Z"/><path class="cls-2" d="M213,96.13a6,6,0,0,1-1.06-3.82V87a13.17,13.17,0,0,0-2.16-7.64,9.87,9.87,0,0,0-2.91-2.71A12.78,12.78,0,0,0,200,74.76a9.82,9.82,0,0,0-8.76,5.38l-10.32,20.32h6.37l9.8-19.59a2.72,2.72,0,0,1,2.42-1.49,4.28,4.28,0,0,1,4,2.71,13.43,13.43,0,0,1,.76,4.89v5.33a9.57,9.57,0,0,0,1.21,4.85,8.18,8.18,0,0,0,3.65,3.3,8.1,8.1,0,0,0-3.65,3.29,9.57,9.57,0,0,0-1.21,4.85v5.34a13.4,13.4,0,0,1-.76,4.88,4.28,4.28,0,0,1-4,2.71H180l-.7,1.38a9.64,9.64,0,0,1-2.65,3.24H200a12.86,12.86,0,0,0,6.85-1.86,10,10,0,0,0,2.91-2.72,13.14,13.14,0,0,0,2.16-7.63V108.6a6,6,0,0,1,1.06-3.82,3.81,3.81,0,0,1,3.2-1.36V97.49A3.81,3.81,0,0,1,213,96.13Z"/><path class="cls-2" d="M155.23,104.78a6.09,6.09,0,0,1,1.05,3.82v5.34a13.07,13.07,0,0,0,2.17,7.63,9.7,9.7,0,0,0,2.9,2.71,12.8,12.8,0,0,0,6.85,1.87,9.84,9.84,0,0,0,8.77-5.37l10.31-20.32h-6.37L171.11,120a2.7,2.7,0,0,1-2.41,1.49,4.29,4.29,0,0,1-4-2.71,13.62,13.62,0,0,1-.76-4.88V108.6a9.57,9.57,0,0,0-1.21-4.85,8,8,0,0,0-3.65-3.29,8.12,8.12,0,0,0,3.65-3.3A9.57,9.57,0,0,0,164,92.31V87a13.64,13.64,0,0,1,.76-4.89,4.29,4.29,0,0,1,4-2.71h5.54V74.76h-6a12.8,12.8,0,0,0-6.85,1.87,9.7,9.7,0,0,0-2.9,2.71A13.1,13.1,0,0,0,156.28,87v5.33a6.09,6.09,0,0,1-1.05,3.82A3.79,3.79,0,0,1,152,97.49v5.93a3.82,3.82,0,0,1,3.21,1.36Z"/><path class="cls-2" d="M209.1,100.46a8.1,8.1,0,0,0-3.65,3.29,9.57,9.57,0,0,0-1.21,4.85v5.34a13.4,13.4,0,0,1-.76,4.88,4.28,4.28,0,0,1-4,2.71H180l-.7,1.38a9.64,9.64,0,0,1-2.65,3.24H200a12.78,12.78,0,0,0,6.85-1.87,9.87,9.87,0,0,0,2.91-2.71,13.14,13.14,0,0,0,2.16-7.63V108.6a6,6,0,0,1,1.06-3.82,3.81,3.81,0,0,1,3.2-1.36V97.49A59.58,59.58,0,0,0,209.1,100.46Z"/><path class="cls-2" d="M159.09,100.46a8.12,8.12,0,0,0,3.65-3.3A9.57,9.57,0,0,0,164,92.31V87a13.64,13.64,0,0,1,.76-4.89,4.29,4.29,0,0,1,4-2.71h19.48l.7-1.38a9.74,9.74,0,0,1,2.65-3.24H168.2a12.8,12.8,0,0,0-6.85,1.87,9.83,9.83,0,0,0-2.9,2.71A13.1,13.1,0,0,0,156.28,87v5.33a6.09,6.09,0,0,1-1.05,3.82A3.79,3.79,0,0,1,152,97.49v5.93A60.22,60.22,0,0,0,159.09,100.46Z"/><path class="cls-2" d="M195.05,70.8c.66-.63.3-.44.57-.93-1.22-2-1.7-5.07-2.62-7.55a37.91,37.91,0,0,0-3.43-6.41c4.08,3.93,10.49,7.75,16.14,4.35a57.12,57.12,0,0,0,6.61-5.14c2.68-2.17,4.71-3,7.33-4.83a58.59,58.59,0,0,1-5.33-4.87c-1.41-1.63-3.1-4.42-4.43-6.35-4.78-6.91-7.54-4.06-15.76-2.93,1.81-1.72,4.55-2.59,6.06-4.38,1.2-1.43,3.19-4.87,4.24-6.4l-9.62-5.45c-5.08-1.86-8.05-.16-12.61.46,1.07-1.48,3.08-2.59,3.78-3.71-9-.78-16.55.92-21,7.75-3.72,5.68-2.85,8.66-2.06,14.55-6.37-1.22-14.92-1.5-21.86-1.52l2.3,5.48c4-.89,15.61-1,19.41.25-2.36,5.07-6.51,9.9-2.08,16.77,2.16,3.33,7.9,7.65,14,8.58l-.92-4.24C178.61,69.59,185.4,71,195.05,70.8Z"/><path class="cls-2" d="M129.22,29.87,135.36,26s14.4,12.36,18.12,43.79l-6,.77S142.69,43,129.22,29.87Z"/><polygon class="cls-1" points="178.69 313.35 300.74 313.35 300.74 313.21 301.36 313.21 301.36 191.82 291.72 191.82 291.72 303.71 178.69 303.71 178.69 313.35"/></g></g></svg>