<svg id="Layer_1" data-name="Layer 1" xmlns="http://www.w3.org/2000/svg" viewBox="0 0 136.53 137.87"><defs><style>.cls-1,.cls-4{fill:#231f20;}.cls-1{opacity:0.2;}.cls-2{fill:#fff;}.cls-3{fill:#2a3473;}</style></defs><circle class="cls-1" cx="70.15" cy="71.49" r="66.38"/><circle class="cls-2" cx="66.38" cy="66.38" r="66.38"/><circle class="cls-3" cx="67.17" cy="66.64" r="55.74"/><path class="cls-2" d="M256,326.49s26.89,10.21,42.21-9.19,3.75-38.81,3.75-38.81S259.37,291.76,256,326.49Z" transform="translate(-245.41 -268.4)"/><path class="cls-4" d="M271.22,292.08a6.07,6.07,0,0,1,5,2.3q2.16,2.73,2.16,9c0,4.2-.72,7.21-2.18,9.05a6.05,6.05,0,0,1-5,2.27,6.34,6.34,0,0,1-5.22-2.49q-2-2.49-2-8.88c0-4.18.73-7.18,2.18-9A6.07,6.07,0,0,1,271.22,292.08Zm0,3.53a2.12,2.12,0,0,0-1.38.49,3.41,3.41,0,0,0-.94,1.76,24.47,24.47,0,0,0-.44,5.56,24.11,24.11,0,0,0,.4,5.36,3.73,3.73,0,0,0,1,2,2.19,2.19,0,0,0,2.75,0,3.37,3.37,0,0,0,.94-1.76,36.51,36.51,0,0,0,0-10.91,3.81,3.81,0,0,0-1-1.95A2.09,2.09,0,0,0,271.22,295.61Z" transform="translate(-245.41 -268.4)"/><path class="cls-4" d="M295.63,310.41v3.95h-14.9a10.16,10.16,0,0,1,1.45-4.24A28.27,28.27,0,0,1,287,304.8a30.32,30.32,0,0,0,3.53-3.64,4.71,4.71,0,0,0,.88-2.6,3,3,0,0,0-.77-2.19,3.26,3.26,0,0,0-4.23,0,4.12,4.12,0,0,0-.91,2.66l-4.24-.42a7,7,0,0,1,2.38-5,8,8,0,0,1,5-1.53,7.22,7.22,0,0,1,5.16,1.77,5.81,5.81,0,0,1,1.87,4.41,7.59,7.59,0,0,1-.53,2.85,11.7,11.7,0,0,1-1.71,2.84,27.29,27.29,0,0,1-2.78,2.83c-1.34,1.23-2.19,2.05-2.55,2.45a7.11,7.11,0,0,0-.87,1.18Z" transform="translate(-245.41 -268.4)"/><path class="cls-2" d="M267.78,341.85a7.27,7.27,0,0,1-.39,2.53,4.16,4.16,0,0,1-2.86,2.69,8.51,8.51,0,0,1-2.46.31H259.5a.61.61,0,0,1-.65-.69v-9.36a.7.7,0,0,1,.19-.53.73.73,0,0,1,.46-.16h2.76a7.49,7.49,0,0,1,2.43.34,4.37,4.37,0,0,1,1.69,1,4.27,4.27,0,0,1,1,1.64A6.38,6.38,0,0,1,267.78,341.85Zm-2.26.08a5.36,5.36,0,0,0-.18-1.42,3.06,3.06,0,0,0-.57-1.14,2.65,2.65,0,0,0-1-.75,4.17,4.17,0,0,0-1.63-.27H261v7.31h1.14a4.2,4.2,0,0,0,1.51-.24,2.37,2.37,0,0,0,1-.7,3,3,0,0,0,.62-1.16A6.11,6.11,0,0,0,265.52,341.93Z" transform="translate(-245.41 -268.4)"/><path class="cls-2" d="M276.93,343.32a5.52,5.52,0,0,1-.25,1.73,3.45,3.45,0,0,1-.75,1.34,3.41,3.41,0,0,1-1.27.88,5.52,5.52,0,0,1-3.5,0,3.06,3.06,0,0,1-1.22-.8,3.2,3.2,0,0,1-.71-1.28,6.18,6.18,0,0,1-.23-1.75,5.61,5.61,0,0,1,.25-1.73,3.61,3.61,0,0,1,.76-1.34,3.39,3.39,0,0,1,1.27-.87,4.8,4.8,0,0,1,1.78-.31,4.93,4.93,0,0,1,1.72.27,3,3,0,0,1,1.21.8,3.2,3.2,0,0,1,.71,1.28A5.89,5.89,0,0,1,276.93,343.32Zm-2.15.09a6.27,6.27,0,0,0-.08-1,2.3,2.3,0,0,0-.3-.8,1.4,1.4,0,0,0-.55-.53,1.75,1.75,0,0,0-.87-.19,1.73,1.73,0,0,0-.81.17,1.41,1.41,0,0,0-.57.49,2.28,2.28,0,0,0-.34.79,4.77,4.77,0,0,0-.11,1.05,5.27,5.27,0,0,0,.09,1,2.51,2.51,0,0,0,.29.8,1.43,1.43,0,0,0,.56.53,1.85,1.85,0,0,0,.86.19,1.9,1.9,0,0,0,.82-.17,1.52,1.52,0,0,0,.57-.5,2.42,2.42,0,0,0,.34-.78A4.8,4.8,0,0,0,274.78,343.41Z" transform="translate(-245.41 -268.4)"/><path class="cls-2" d="M284.19,345.92c0,.15,0,.27,0,.36a1.45,1.45,0,0,1,0,.25.6.6,0,0,1-.05.16.69.69,0,0,1-.13.16,1.75,1.75,0,0,1-.34.23,3.37,3.37,0,0,1-.54.24,3.46,3.46,0,0,1-.67.18,4.54,4.54,0,0,1-.75.07,4,4,0,0,1-1.51-.27,2.94,2.94,0,0,1-1.11-.78,3.43,3.43,0,0,1-.67-1.27,5.62,5.62,0,0,1-.23-1.71,5.8,5.8,0,0,1,.28-1.92,3.58,3.58,0,0,1,.77-1.34,3,3,0,0,1,1.18-.79,4.2,4.2,0,0,1,1.49-.26,3.6,3.6,0,0,1,.66.06,3.39,3.39,0,0,1,.59.16,2.89,2.89,0,0,1,.5.22,1.32,1.32,0,0,1,.31.22.75.75,0,0,1,.13.15.38.38,0,0,1,.06.16c0,.07,0,.15,0,.25s0,.21,0,.35a1.85,1.85,0,0,1-.08.68c-.05.13-.13.19-.21.19a.53.53,0,0,1-.3-.11c-.11-.08-.23-.17-.38-.26a2.42,2.42,0,0,0-.51-.26,1.93,1.93,0,0,0-.71-.11,1.41,1.41,0,0,0-1.25.62,3.23,3.23,0,0,0-.43,1.84,4.13,4.13,0,0,0,.11,1.05,2.08,2.08,0,0,0,.32.77,1.31,1.31,0,0,0,.53.46,1.72,1.72,0,0,0,.74.15,1.82,1.82,0,0,0,.74-.13,3.14,3.14,0,0,0,.55-.28l.39-.29a.48.48,0,0,1,.26-.13.28.28,0,0,1,.13,0,.34.34,0,0,1,.08.16,1.7,1.7,0,0,1,0,.28C284.18,345.59,284.19,345.74,284.19,345.92Z" transform="translate(-245.41 -268.4)"/><path class="cls-2" d="M292.72,347.1a.26.26,0,0,1,0,.15.36.36,0,0,1-.15.1.83.83,0,0,1-.27.06,2.69,2.69,0,0,1-.43,0,2.76,2.76,0,0,1-.44,0,.9.9,0,0,1-.27-.06.32.32,0,0,1-.14-.1.26.26,0,0,1,0-.15v-.85a4.76,4.76,0,0,1-1.25,1,2.84,2.84,0,0,1-1.32.33,2.89,2.89,0,0,1-1.28-.25,2.09,2.09,0,0,1-.84-.68,2.87,2.87,0,0,1-.46-1,6.21,6.21,0,0,1-.13-1.41V339.7a.24.24,0,0,1,0-.15.38.38,0,0,1,.17-.1,1.22,1.22,0,0,1,.32-.06,3.63,3.63,0,0,1,.5,0,3.49,3.49,0,0,1,.51,0,1.22,1.22,0,0,1,.32.06.38.38,0,0,1,.17.1.25.25,0,0,1,.05.15v4.18a4,4,0,0,0,.08.89,1.69,1.69,0,0,0,.22.53,1.26,1.26,0,0,0,.39.34,1.25,1.25,0,0,0,.56.12,1.4,1.4,0,0,0,.8-.29,5.23,5.23,0,0,0,.86-.85V339.7a.24.24,0,0,1,0-.15.38.38,0,0,1,.17-.1,1.14,1.14,0,0,1,.32-.06,3.43,3.43,0,0,1,.5,0,3.49,3.49,0,0,1,.51,0,1.22,1.22,0,0,1,.32.06.4.4,0,0,1,.16.1.25.25,0,0,1,.05.15Z" transform="translate(-245.41 -268.4)"/><path class="cls-2" d="M306.6,347.1a.27.27,0,0,1-.05.15.38.38,0,0,1-.17.1,1.06,1.06,0,0,1-.31.06,6.51,6.51,0,0,1-1,0,1.22,1.22,0,0,1-.32-.06.38.38,0,0,1-.17-.1.26.26,0,0,1,0-.15v-4.39a3.47,3.47,0,0,0-.07-.68,1.6,1.6,0,0,0-.22-.53,1.16,1.16,0,0,0-.36-.34,1.12,1.12,0,0,0-.53-.12,1.29,1.29,0,0,0-.76.29,5.63,5.63,0,0,0-.83.85v4.92a.21.21,0,0,1-.05.15.38.38,0,0,1-.17.1,1.14,1.14,0,0,1-.32.06,6.26,6.26,0,0,1-1,0,1.22,1.22,0,0,1-.32-.06.38.38,0,0,1-.17-.1.27.27,0,0,1-.05-.15v-4.39a2.84,2.84,0,0,0-.07-.68,1.83,1.83,0,0,0-.21-.53,1.09,1.09,0,0,0-.37-.34,1.08,1.08,0,0,0-.52-.12,1.25,1.25,0,0,0-.76.29,5.19,5.19,0,0,0-.83.85v4.92a.21.21,0,0,1-.05.15.38.38,0,0,1-.17.1,1.14,1.14,0,0,1-.32.06,3.63,3.63,0,0,1-.5,0,3.71,3.71,0,0,1-.51,0,1.22,1.22,0,0,1-.32-.06.38.38,0,0,1-.17-.1.27.27,0,0,1-.05-.15v-7.4a.33.33,0,0,1,0-.15.36.36,0,0,1,.15-.1,1,1,0,0,1,.28-.06,2.54,2.54,0,0,1,.43,0,2.68,2.68,0,0,1,.44,0,.9.9,0,0,1,.27.06.28.28,0,0,1,.13.1.25.25,0,0,1,.05.15v.85a4.83,4.83,0,0,1,1.22-1,2.55,2.55,0,0,1,1.27-.34,3.5,3.5,0,0,1,.83.1,2.23,2.23,0,0,1,.65.27,2,2,0,0,1,.49.43,2.3,2.3,0,0,1,.35.56,6.14,6.14,0,0,1,.65-.62,4.92,4.92,0,0,1,.63-.42,2.71,2.71,0,0,1,.63-.24,2.59,2.59,0,0,1,.63-.08,2.93,2.93,0,0,1,1.25.25,2.16,2.16,0,0,1,.81.68,2.69,2.69,0,0,1,.45,1,5.22,5.22,0,0,1,.13,1.21Z" transform="translate(-245.41 -268.4)"/><path class="cls-2" d="M315.49,343.18a.83.83,0,0,1-.17.57.61.61,0,0,1-.47.18h-4.51a2.88,2.88,0,0,0,.12.86,1.51,1.51,0,0,0,.35.65,1.74,1.74,0,0,0,.63.42,2.84,2.84,0,0,0,.93.14,5.39,5.39,0,0,0,1-.08,4.71,4.71,0,0,0,.72-.18l.5-.17a1,1,0,0,1,.33-.08.21.21,0,0,1,.12,0,.21.21,0,0,1,.08.1.55.55,0,0,1,.05.22,3.33,3.33,0,0,1,0,.34,2.91,2.91,0,0,1,0,.31,1.27,1.27,0,0,1,0,.22.53.53,0,0,1-.05.15.27.27,0,0,1-.09.12.75.75,0,0,1-.29.16,5.08,5.08,0,0,1-.62.2,7.63,7.63,0,0,1-.85.16,6.76,6.76,0,0,1-1,.07,5.31,5.31,0,0,1-1.73-.25,2.94,2.94,0,0,1-1.24-.75,3.13,3.13,0,0,1-.75-1.28,6.11,6.11,0,0,1-.24-1.81,5.51,5.51,0,0,1,.26-1.78,3.78,3.78,0,0,1,.74-1.34,3.37,3.37,0,0,1,1.19-.85,4.21,4.21,0,0,1,1.59-.29,4,4,0,0,1,1.59.28,2.75,2.75,0,0,1,1.08.76,3,3,0,0,1,.62,1.15,5.06,5.06,0,0,1,.2,1.44Zm-2-.59a2.16,2.16,0,0,0-.35-1.39,1.37,1.37,0,0,0-1.16-.5,1.54,1.54,0,0,0-.7.15,1.46,1.46,0,0,0-.49.4,1.88,1.88,0,0,0-.3.6,4.24,4.24,0,0,0-.12.74Z" transform="translate(-245.41 -268.4)"/><path class="cls-2" d="M324.28,347.1a.27.27,0,0,1,0,.15.4.4,0,0,1-.16.1,1.22,1.22,0,0,1-.32.06,6.51,6.51,0,0,1-1,0,1.22,1.22,0,0,1-.32-.06.4.4,0,0,1-.16-.1.21.21,0,0,1-.05-.15v-4.22a3.69,3.69,0,0,0-.08-.85,1.6,1.6,0,0,0-.23-.53,1.07,1.07,0,0,0-.39-.34A1.18,1.18,0,0,0,321,341a1.4,1.4,0,0,0-.8.29,4.53,4.53,0,0,0-.85.85v4.92a.27.27,0,0,1-.05.15.38.38,0,0,1-.17.1,1.22,1.22,0,0,1-.32.06,3.71,3.71,0,0,1-.51,0,3.63,3.63,0,0,1-.5,0,1.22,1.22,0,0,1-.32-.06.38.38,0,0,1-.17-.1.27.27,0,0,1-.05-.15v-7.4a.24.24,0,0,1,0-.15.36.36,0,0,1,.15-.1.9.9,0,0,1,.28-.06,2.46,2.46,0,0,1,.43,0,2.76,2.76,0,0,1,.44,0,.9.9,0,0,1,.27.06.34.34,0,0,1,.13.1.24.24,0,0,1,0,.15v.85a4.76,4.76,0,0,1,1.25-1,2.77,2.77,0,0,1,1.33-.34,3,3,0,0,1,1.27.25,2.18,2.18,0,0,1,.84.68,2.7,2.7,0,0,1,.46,1,6,6,0,0,1,.14,1.38Z" transform="translate(-245.41 -268.4)"/><path class="cls-2" d="M330.56,346.37a2.61,2.61,0,0,1-.05.56.57.57,0,0,1-.12.27.65.65,0,0,1-.22.15,2.31,2.31,0,0,1-.34.1,2.63,2.63,0,0,1-.42.07l-.46,0a3.15,3.15,0,0,1-1.08-.16,1.8,1.8,0,0,1-.76-.48,2.13,2.13,0,0,1-.44-.83,4.55,4.55,0,0,1-.14-1.18v-3.79h-.89c-.1,0-.18-.07-.24-.2a1.93,1.93,0,0,1-.08-.65c0-.16,0-.29,0-.41a.83.83,0,0,1,.06-.26.24.24,0,0,1,.11-.13.24.24,0,0,1,.14,0h.88v-1.65a.3.3,0,0,1,.05-.15.34.34,0,0,1,.16-.11,1.68,1.68,0,0,1,.33-.07l.5,0,.51,0a1.73,1.73,0,0,1,.32.07.34.34,0,0,1,.16.11.23.23,0,0,1,.05.15v1.65h1.61a.25.25,0,0,1,.15,0,.23.23,0,0,1,.1.13,1.2,1.2,0,0,1,.07.26c0,.12,0,.25,0,.41a1.66,1.66,0,0,1-.09.65.26.26,0,0,1-.24.2h-1.62v3.48a1.77,1.77,0,0,0,.19.9.74.74,0,0,0,.69.31,1.23,1.23,0,0,0,.29,0l.24-.07.17-.06.13,0a.17.17,0,0,1,.1,0,.19.19,0,0,1,.07.11,2.42,2.42,0,0,1,.05.24A3.79,3.79,0,0,1,330.56,346.37Z" transform="translate(-245.41 -268.4)"/><path class="cls-2" d="M338.21,347.13a.25.25,0,0,1-.08.18.71.71,0,0,1-.27.09,3.27,3.27,0,0,1-.52,0,3.63,3.63,0,0,1-.55,0,.55.55,0,0,1-.24-.09.29.29,0,0,1-.07-.18v-.59a3.36,3.36,0,0,1-1,.76,3.05,3.05,0,0,1-1.3.27,3.71,3.71,0,0,1-1.08-.15,2.3,2.3,0,0,1-.86-.46,2.11,2.11,0,0,1-.56-.75,2.61,2.61,0,0,1-.2-1,2.36,2.36,0,0,1,.26-1.13,2.1,2.1,0,0,1,.75-.79,4,4,0,0,1,1.25-.46,9,9,0,0,1,1.74-.15h.72v-.44a2.18,2.18,0,0,0-.07-.61,1.15,1.15,0,0,0-.23-.44,1,1,0,0,0-.44-.26,2.48,2.48,0,0,0-.66-.08,3.4,3.4,0,0,0-.94.12,5,5,0,0,0-.72.25c-.21.1-.39.18-.53.26a.76.76,0,0,1-.35.12.25.25,0,0,1-.16-.06.56.56,0,0,1-.11-.17.89.89,0,0,1-.07-.26,1.9,1.9,0,0,1,0-.35,1.53,1.53,0,0,1,0-.41.63.63,0,0,1,.16-.27,1.38,1.38,0,0,1,.41-.26,4,4,0,0,1,.68-.27,5,5,0,0,1,.85-.21,5.89,5.89,0,0,1,.95-.08,5.82,5.82,0,0,1,1.49.17,2.6,2.6,0,0,1,1,.53,2,2,0,0,1,.58.91,4.28,4.28,0,0,1,.18,1.31Zm-2-3.17h-.8a4.33,4.33,0,0,0-.86.07,1.63,1.63,0,0,0-.58.22.94.94,0,0,0-.33.36,1.13,1.13,0,0,0-.1.49.92.92,0,0,0,.29.73,1.18,1.18,0,0,0,.82.27,1.55,1.55,0,0,0,.81-.23,3.85,3.85,0,0,0,.75-.65Z" transform="translate(-245.41 -268.4)"/><path class="cls-2" d="M347.37,339.41a.63.63,0,0,1,.48.15.64.64,0,0,1,.14.44v7.1a.27.27,0,0,1-.05.15.45.45,0,0,1-.17.1,1.14,1.14,0,0,1-.32.06,3.63,3.63,0,0,1-.5,0,3.86,3.86,0,0,1-.51,0,1.14,1.14,0,0,1-.32-.06.45.45,0,0,1-.17-.1.27.27,0,0,1-.05-.15v-6h-3.32v3.48a1.67,1.67,0,0,0,.19.9.72.72,0,0,0,.68.31,1.39,1.39,0,0,0,.3,0l.23-.07.18-.06a.31.31,0,0,1,.13,0l.09,0a.15.15,0,0,1,.07.11,2.42,2.42,0,0,1,.05.24,3.79,3.79,0,0,1,0,.38,3.45,3.45,0,0,1,0,.55.67.67,0,0,1-.12.28.83.83,0,0,1-.22.15,2.47,2.47,0,0,1-.35.1,2.63,2.63,0,0,1-.42.07,3.55,3.55,0,0,1-.46,0,3.15,3.15,0,0,1-1.08-.16,1.8,1.8,0,0,1-.76-.48,2.13,2.13,0,0,1-.44-.83,4.55,4.55,0,0,1-.14-1.18v-3.79h-.89c-.1,0-.18-.07-.24-.2a1.93,1.93,0,0,1-.08-.65c0-.16,0-.29,0-.41a2.61,2.61,0,0,1,.06-.26.29.29,0,0,1,.11-.13.24.24,0,0,1,.14,0h.88v-1.65a.3.3,0,0,1,.05-.15.34.34,0,0,1,.16-.11,1.68,1.68,0,0,1,.33-.07l.5,0,.51,0a1.56,1.56,0,0,1,.32.07.45.45,0,0,1,.17.11.3.3,0,0,1,.05.15v1.65Zm.78-2.22a1.18,1.18,0,0,1-.25.87,1.43,1.43,0,0,1-1,.24,1.38,1.38,0,0,1-.95-.23,1.15,1.15,0,0,1-.24-.84,1.18,1.18,0,0,1,.25-.87,2,2,0,0,1,1.9,0A1.13,1.13,0,0,1,348.15,337.19Z" transform="translate(-245.41 -268.4)"/><path class="cls-2" d="M357.58,343.32a5.83,5.83,0,0,1-.25,1.73,3.61,3.61,0,0,1-.76,1.34,3.41,3.41,0,0,1-1.27.88,4.84,4.84,0,0,1-1.78.3,4.93,4.93,0,0,1-1.72-.27,3,3,0,0,1-1.21-.8,3.34,3.34,0,0,1-.72-1.28,6.18,6.18,0,0,1-.23-1.75,5.61,5.61,0,0,1,.25-1.73,3.75,3.75,0,0,1,.76-1.34,3.39,3.39,0,0,1,1.27-.87,4.8,4.8,0,0,1,1.78-.31,5,5,0,0,1,1.73.27,3,3,0,0,1,1.2.8,3.2,3.2,0,0,1,.71,1.28A5.88,5.88,0,0,1,357.58,343.32Zm-2.15.09a5.27,5.27,0,0,0-.09-1,2.3,2.3,0,0,0-.3-.8,1.34,1.34,0,0,0-.55-.53,1.75,1.75,0,0,0-.87-.19,1.73,1.73,0,0,0-.81.17,1.41,1.41,0,0,0-.57.49,2.48,2.48,0,0,0-.34.79,4.77,4.77,0,0,0-.11,1.05,5.27,5.27,0,0,0,.09,1,2.3,2.3,0,0,0,.3.8,1.4,1.4,0,0,0,.55.53,1.85,1.85,0,0,0,.86.19,1.87,1.87,0,0,0,.82-.17,1.48,1.48,0,0,0,.58-.5,2.42,2.42,0,0,0,.33-.78A4.77,4.77,0,0,0,355.43,343.41Z" transform="translate(-245.41 -268.4)"/><path class="cls-2" d="M366.3,347.1a.27.27,0,0,1-.05.15.38.38,0,0,1-.17.1,1.07,1.07,0,0,1-.32.06,3.63,3.63,0,0,1-.5,0,3.86,3.86,0,0,1-.51,0,1.22,1.22,0,0,1-.32-.06.34.34,0,0,1-.16-.1.21.21,0,0,1,0-.15v-4.22a3.69,3.69,0,0,0-.08-.85,1.84,1.84,0,0,0-.23-.53,1.07,1.07,0,0,0-.39-.34A1.2,1.2,0,0,0,363,341a1.4,1.4,0,0,0-.8.29,4.25,4.25,0,0,0-.85.85v4.92a.27.27,0,0,1-.05.15.38.38,0,0,1-.17.1,1.22,1.22,0,0,1-.32.06,3.71,3.71,0,0,1-.51,0,3.63,3.63,0,0,1-.5,0,1.14,1.14,0,0,1-.32-.06.38.38,0,0,1-.17-.1.21.21,0,0,1,0-.15v-7.4a.24.24,0,0,1,0-.15.36.36,0,0,1,.15-.1.9.9,0,0,1,.28-.06,2.42,2.42,0,0,1,.42,0,2.59,2.59,0,0,1,.44,0,.77.77,0,0,1,.27.06.32.32,0,0,1,.14.1.24.24,0,0,1,0,.15v.85a4.76,4.76,0,0,1,1.25-1,2.74,2.74,0,0,1,1.33-.34,3,3,0,0,1,1.27.25,2.26,2.26,0,0,1,.84.68,2.87,2.87,0,0,1,.46,1,6,6,0,0,1,.14,1.38Z" transform="translate(-245.41 -268.4)"/></svg>