<svg id="Layer_1" data-name="Layer 1" xmlns="http://www.w3.org/2000/svg" viewBox="0 0 136.53 137.87"><defs><style>.cls-1,.cls-4{fill:#231f20;}.cls-1{opacity:0.2;}.cls-2{fill:#fff;}.cls-3{fill:#2a3473;}</style></defs><circle class="cls-1" cx="70.15" cy="71.49" r="66.38"/><circle class="cls-2" cx="66.38" cy="66.38" r="66.38"/><circle class="cls-3" cx="67.17" cy="66.64" r="55.74"/><path class="cls-2" d="M369.33,343.87s-26.89-10.21-42.21,9.2-3.75,38.8-3.75,38.8S365.93,378.6,369.33,343.87Z" transform="translate(-245.41 -268.4)"/><path class="cls-4" d="M333.26,351.74a6.07,6.07,0,0,1,5,2.3q2.18,2.73,2.17,9c0,4.2-.73,7.21-2.18,9.05a6.07,6.07,0,0,1-5,2.27,6.34,6.34,0,0,1-5.22-2.49q-2-2.49-2-8.88c0-4.17.72-7.18,2.18-9A6.05,6.05,0,0,1,333.26,351.74Zm0,3.53a2.09,2.09,0,0,0-1.37.49,3.27,3.27,0,0,0-.94,1.76,24,24,0,0,0-.44,5.56,24.29,24.29,0,0,0,.39,5.36,3.73,3.73,0,0,0,1,1.95,2.14,2.14,0,0,0,1.37.48,2.1,2.1,0,0,0,1.38-.49,3.3,3.3,0,0,0,.94-1.76,24.27,24.27,0,0,0,.44-5.54,23.67,23.67,0,0,0-.4-5.37,3.81,3.81,0,0,0-1-1.95A2.08,2.08,0,0,0,333.26,355.27Z" transform="translate(-245.41 -268.4)"/><path class="cls-4" d="M357.72,357.27l-4.11.45a3,3,0,0,0-.79-1.88,2.31,2.31,0,0,0-1.65-.6,2.78,2.78,0,0,0-2.28,1.21q-.93,1.21-1.17,5a5,5,0,0,1,3.95-1.88,6,6,0,0,1,4.56,2,7.34,7.34,0,0,1,1.9,5.24,7.47,7.47,0,0,1-2,5.46,7.27,7.27,0,0,1-10.65-.55q-2.18-2.61-2.17-8.56,0-6.11,2.26-8.79a7.26,7.26,0,0,1,5.86-2.7,6.18,6.18,0,0,1,4.18,1.42A6.57,6.57,0,0,1,357.72,357.27Zm-9.64,9.27a4.86,4.86,0,0,0,.95,3.21,2.82,2.82,0,0,0,2.18,1.12,2.46,2.46,0,0,0,2-.92,4.62,4.62,0,0,0,.79-3,4.84,4.84,0,0,0-.85-3.17,2.73,2.73,0,0,0-4.19,0A4.13,4.13,0,0,0,348.08,366.54Z" transform="translate(-245.41 -268.4)"/><path class="cls-2" d="M285.25,306.23a.24.24,0,0,1-.05.14.28.28,0,0,1-.15.1,1.67,1.67,0,0,1-.3.07l-.48,0-.47,0a1.67,1.67,0,0,1-.3-.07.28.28,0,0,1-.15-.1.24.24,0,0,1-.05-.14V298h0l-2.93,8.21a.32.32,0,0,1-.1.17.43.43,0,0,1-.19.11,1.82,1.82,0,0,1-.31.05h-.45l-.45,0a1.13,1.13,0,0,1-.31-.06.56.56,0,0,1-.19-.11.31.31,0,0,1-.1-.15L275.43,298h0v8.22a.33.33,0,0,1,0,.14.32.32,0,0,1-.16.1,1.67,1.67,0,0,1-.3.07l-.48,0-.47,0a1.67,1.67,0,0,1-.3-.07.28.28,0,0,1-.15-.1.24.24,0,0,1-.05-.14v-9a.82.82,0,0,1,.22-.61.75.75,0,0,1,.56-.21h1.34a2.77,2.77,0,0,1,.62.06,1.19,1.19,0,0,1,.44.2,1.12,1.12,0,0,1,.32.36,3.3,3.3,0,0,1,.22.55l2.18,6h0l2.27-6a3.3,3.3,0,0,1,.22-.55,1.56,1.56,0,0,1,.28-.37,1.07,1.07,0,0,1,.38-.2,2,2,0,0,1,.51-.06h1.38a1.06,1.06,0,0,1,.37.06.6.6,0,0,1,.25.16.65.65,0,0,1,.14.26.9.9,0,0,1,.06.34Z" transform="translate(-245.41 -268.4)"/><path class="cls-2" d="M292.71,306.27a.21.21,0,0,1-.08.17.55.55,0,0,1-.25.09,2.93,2.93,0,0,1-.49,0,3,3,0,0,1-.51,0,.46.46,0,0,1-.23-.09.24.24,0,0,1-.07-.17v-.55a3.31,3.31,0,0,1-1,.72,2.83,2.83,0,0,1-1.22.25,3.31,3.31,0,0,1-1-.14,2.28,2.28,0,0,1-.8-.43,1.87,1.87,0,0,1-.53-.71,2.32,2.32,0,0,1-.19-1,2.21,2.21,0,0,1,.24-1.06,1.86,1.86,0,0,1,.71-.74,3.63,3.63,0,0,1,1.18-.44,8.61,8.61,0,0,1,1.63-.14h.68v-.42a1.93,1.93,0,0,0-.07-.57.82.82,0,0,0-.22-.41,1,1,0,0,0-.4-.25,2.28,2.28,0,0,0-.63-.07,3,3,0,0,0-.88.11,4.1,4.1,0,0,0-.68.24l-.5.24a.76.76,0,0,1-.32.11.25.25,0,0,1-.16-.06.37.37,0,0,1-.11-.15,1.31,1.31,0,0,1-.06-.25,1.69,1.69,0,0,1,0-.33,1.76,1.76,0,0,1,0-.38.68.68,0,0,1,.15-.26,1.54,1.54,0,0,1,.38-.25,5.71,5.71,0,0,1,.64-.25,6,6,0,0,1,.81-.19,5.08,5.08,0,0,1,.89-.08,5.62,5.62,0,0,1,1.4.16,2.31,2.31,0,0,1,1,.5,1.93,1.93,0,0,1,.55.85,4.13,4.13,0,0,1,.17,1.24Zm-1.93-3H290a3.75,3.75,0,0,0-.81.07,1.32,1.32,0,0,0-.55.21.84.84,0,0,0-.31.34,1.06,1.06,0,0,0-.1.45.88.88,0,0,0,.28.69,1.08,1.08,0,0,0,.77.25,1.43,1.43,0,0,0,.76-.21,3.24,3.24,0,0,0,.71-.62Z" transform="translate(-245.41 -268.4)"/><path class="cls-2" d="M296.23,296.92a1.07,1.07,0,0,1-.25.82,1.32,1.32,0,0,1-.89.23,1.38,1.38,0,0,1-.9-.22A1.1,1.1,0,0,1,294,297a1.14,1.14,0,0,1,.24-.83,1.34,1.34,0,0,1,.9-.23,1.29,1.29,0,0,1,.89.23A1,1,0,0,1,296.23,296.92Zm-.15,9.33a.19.19,0,0,1-.05.13.28.28,0,0,1-.16.1,1,1,0,0,1-.3.06l-.48,0-.47,0a1,1,0,0,1-.3-.06.28.28,0,0,1-.16-.1.19.19,0,0,1-.05-.13v-7a.21.21,0,0,1,.05-.13.28.28,0,0,1,.16-.1,1.33,1.33,0,0,1,.3-.07,3.18,3.18,0,0,1,.47,0,3.25,3.25,0,0,1,.48,0,1.33,1.33,0,0,1,.3.07.28.28,0,0,1,.16.1.21.21,0,0,1,.05.13Z" transform="translate(-245.41 -268.4)"/><path class="cls-2" d="M304.14,306.25a.19.19,0,0,1-.05.13.28.28,0,0,1-.16.1,1,1,0,0,1-.3.06l-.47,0-.48,0a1,1,0,0,1-.3-.06.28.28,0,0,1-.16-.1.19.19,0,0,1-.05-.13v-4a3.42,3.42,0,0,0-.07-.8,1.69,1.69,0,0,0-.21-.49,1,1,0,0,0-.37-.32,1.08,1.08,0,0,0-.52-.12,1.35,1.35,0,0,0-.76.28,4.19,4.19,0,0,0-.79.79v4.64a.19.19,0,0,1-.05.13.28.28,0,0,1-.16.1,1.05,1.05,0,0,1-.3.06l-.48,0-.47,0a1,1,0,0,1-.3-.06.28.28,0,0,1-.16-.1.15.15,0,0,1,0-.13v-7a.23.23,0,0,1,0-.14.27.27,0,0,1,.14-.1,1.33,1.33,0,0,1,.26-.05,2.36,2.36,0,0,1,.4,0,2.56,2.56,0,0,1,.42,0,1.09,1.09,0,0,1,.25.05.34.34,0,0,1,.13.1.23.23,0,0,1,0,.14v.8a4.38,4.38,0,0,1,1.17-.93,2.67,2.67,0,0,1,1.25-.32,2.73,2.73,0,0,1,1.2.24,2.15,2.15,0,0,1,.79.63,2.66,2.66,0,0,1,.43.95,5.36,5.36,0,0,1,.14,1.29Z" transform="translate(-245.41 -268.4)"/><path class="cls-2" d="M309.48,305.56a2.42,2.42,0,0,1,0,.53.72.72,0,0,1-.11.26.69.69,0,0,1-.21.13,2,2,0,0,1-.32.1l-.4.07-.43,0a3.13,3.13,0,0,1-1-.15,1.65,1.65,0,0,1-.71-.46,1.73,1.73,0,0,1-.41-.77,4.1,4.1,0,0,1-.14-1.11v-3.57h-.83a.25.25,0,0,1-.23-.19,1.71,1.71,0,0,1-.08-.61,3.79,3.79,0,0,1,0-.38.7.7,0,0,1,.06-.25.34.34,0,0,1,.1-.13.28.28,0,0,1,.13,0h.83v-1.55a.24.24,0,0,1,.05-.14.31.31,0,0,1,.15-.11,1.13,1.13,0,0,1,.31-.06l.47,0,.48,0a1,1,0,0,1,.3.06.41.41,0,0,1,.16.11.23.23,0,0,1,0,.14V299h1.52a.33.33,0,0,1,.14,0,.25.25,0,0,1,.09.13.7.7,0,0,1,.06.25,3.79,3.79,0,0,1,0,.38,1.5,1.5,0,0,1-.08.61c0,.13-.12.19-.22.19h-1.53v3.27a1.64,1.64,0,0,0,.18.86.7.7,0,0,0,.64.28,1.29,1.29,0,0,0,.29,0,1.41,1.41,0,0,0,.22-.06l.16-.06.12,0,.09,0a.19.19,0,0,1,.07.11s0,.13,0,.22A3.21,3.21,0,0,1,309.48,305.56Z" transform="translate(-245.41 -268.4)"/><path class="cls-2" d="M316.59,302.56a.78.78,0,0,1-.16.53.57.57,0,0,1-.45.17h-4.24a2.88,2.88,0,0,0,.11.81,1.61,1.61,0,0,0,.33.62,1.49,1.49,0,0,0,.6.39,2.75,2.75,0,0,0,.87.13,4.78,4.78,0,0,0,.9-.08,6.29,6.29,0,0,0,.68-.16l.47-.16a.94.94,0,0,1,.31-.08.2.2,0,0,1,.11,0,.16.16,0,0,1,.08.1.64.64,0,0,1,.05.2c0,.08,0,.19,0,.32s0,.21,0,.29,0,.15,0,.21a.38.38,0,0,1-.05.14.83.83,0,0,1-.08.12,1.87,1.87,0,0,1-.28.15,4.56,4.56,0,0,1-.58.18c-.23.06-.5.11-.8.16a7.43,7.43,0,0,1-1,.06,5.34,5.34,0,0,1-1.63-.23,3,3,0,0,1-1.17-.71,3.07,3.07,0,0,1-.7-1.21,5.73,5.73,0,0,1-.23-1.7,5.39,5.39,0,0,1,.24-1.67,3.49,3.49,0,0,1,.71-1.27,2.89,2.89,0,0,1,1.12-.79,3.7,3.7,0,0,1,1.49-.28,3.9,3.9,0,0,1,1.49.26,2.55,2.55,0,0,1,1,.72,2.83,2.83,0,0,1,.59,1.08,4.91,4.91,0,0,1,.19,1.36Zm-1.91-.56a2.09,2.09,0,0,0-.33-1.3,1.29,1.29,0,0,0-1.1-.48,1.45,1.45,0,0,0-.65.14,1.32,1.32,0,0,0-.46.38,1.7,1.7,0,0,0-.29.57,2.93,2.93,0,0,0-.11.69Z" transform="translate(-245.41 -268.4)"/><path class="cls-2" d="M324.3,306.25a.19.19,0,0,1-.05.13.28.28,0,0,1-.15.1,1.13,1.13,0,0,1-.3.06l-.48,0-.48,0a1,1,0,0,1-.3-.06.28.28,0,0,1-.15-.1.15.15,0,0,1-.05-.13v-4a3.34,3.34,0,0,0-.08-.8,1.69,1.69,0,0,0-.21-.49.92.92,0,0,0-.36-.32,1.11,1.11,0,0,0-.52-.12,1.32,1.32,0,0,0-.76.28,4.21,4.21,0,0,0-.8.79v4.64a.15.15,0,0,1-.05.13.28.28,0,0,1-.16.1,1,1,0,0,1-.3.06l-.47,0-.48,0a1.13,1.13,0,0,1-.3-.06.28.28,0,0,1-.16-.1.19.19,0,0,1-.05-.13v-7a.33.33,0,0,1,0-.14.39.39,0,0,1,.14-.1l.26-.05a4.21,4.21,0,0,1,.82,0,1,1,0,0,1,.25.05.28.28,0,0,1,.13.1.23.23,0,0,1,0,.14v.8a4.41,4.41,0,0,1,1.18-.93,2.63,2.63,0,0,1,1.24-.32,2.67,2.67,0,0,1,1.2.24,2.07,2.07,0,0,1,.79.63,2.68,2.68,0,0,1,.44.95,5.4,5.4,0,0,1,.13,1.29Z" transform="translate(-245.41 -268.4)"/><path class="cls-2" d="M331.61,306.27a.21.21,0,0,1-.08.17.6.6,0,0,1-.25.09,3,3,0,0,1-.49,0,3.19,3.19,0,0,1-.52,0,.45.45,0,0,1-.22-.09.21.21,0,0,1-.07-.17v-.55a3.45,3.45,0,0,1-1,.72,2.86,2.86,0,0,1-1.22.25,3.31,3.31,0,0,1-1-.14,2.42,2.42,0,0,1-.81-.43,2,2,0,0,1-.52-.71,2.32,2.32,0,0,1-.19-1,2.21,2.21,0,0,1,.24-1.06,1.86,1.86,0,0,1,.71-.74,3.49,3.49,0,0,1,1.17-.44,8.8,8.8,0,0,1,1.64-.14h.68v-.42a2.34,2.34,0,0,0-.07-.57.9.9,0,0,0-.22-.41,1,1,0,0,0-.41-.25,2.16,2.16,0,0,0-.62-.07,2.94,2.94,0,0,0-.88.11,4.6,4.6,0,0,0-.69.24l-.49.24a.79.79,0,0,1-.33.11.22.22,0,0,1-.15-.06.37.37,0,0,1-.11-.15,1.26,1.26,0,0,1-.07-.25,3.25,3.25,0,0,1,0-.33,1.29,1.29,0,0,1,0-.38.68.68,0,0,1,.15-.26,1.54,1.54,0,0,1,.38-.25,5,5,0,0,1,.64-.25,5.87,5.87,0,0,1,.8-.19,5.29,5.29,0,0,1,.9-.08,5.68,5.68,0,0,1,1.4.16,2.31,2.31,0,0,1,1,.5,1.83,1.83,0,0,1,.54.85,3.82,3.82,0,0,1,.18,1.24Zm-1.93-3h-.75a3.92,3.92,0,0,0-.82.07,1.33,1.33,0,0,0-.54.21.78.78,0,0,0-.31.34.93.93,0,0,0-.1.45.85.85,0,0,0,.28.69,1.08,1.08,0,0,0,.77.25,1.45,1.45,0,0,0,.76-.21,3.24,3.24,0,0,0,.71-.62Z" transform="translate(-245.41 -268.4)"/><path class="cls-2" d="M339.66,306.25a.18.18,0,0,1,0,.13.32.32,0,0,1-.16.1,1,1,0,0,1-.3.06l-.47,0-.48,0a1,1,0,0,1-.3-.06.28.28,0,0,1-.16-.1.19.19,0,0,1-.05-.13v-4a3.42,3.42,0,0,0-.07-.8,1.47,1.47,0,0,0-.22-.49.86.86,0,0,0-.36-.32,1.08,1.08,0,0,0-.52-.12,1.35,1.35,0,0,0-.76.28,4.19,4.19,0,0,0-.79.79v4.64a.19.19,0,0,1-.05.13.32.32,0,0,1-.16.1,1.13,1.13,0,0,1-.3.06l-.48,0-.48,0a1.13,1.13,0,0,1-.3-.06.37.37,0,0,1-.16-.1.18.18,0,0,1,0-.13v-7a.23.23,0,0,1,0-.14.27.27,0,0,1,.14-.1,1.2,1.2,0,0,1,.26-.05,4.11,4.11,0,0,1,.81,0,1.2,1.2,0,0,1,.26.05.34.34,0,0,1,.13.1.33.33,0,0,1,0,.14v.8a4.23,4.23,0,0,1,1.17-.93,2.67,2.67,0,0,1,1.25-.32,2.73,2.73,0,0,1,1.2.24,2.15,2.15,0,0,1,.79.63,2.66,2.66,0,0,1,.43.95,5.4,5.4,0,0,1,.13,1.29Z" transform="translate(-245.41 -268.4)"/><path class="cls-2" d="M346.31,305.14c0,.13,0,.25,0,.34a1.2,1.2,0,0,1,0,.23.54.54,0,0,1,0,.15.64.64,0,0,1-.12.15,2.38,2.38,0,0,1-.32.22,5.06,5.06,0,0,1-.52.23,3.62,3.62,0,0,1-.63.16,4.05,4.05,0,0,1-.7.07,3.91,3.91,0,0,1-1.42-.25,2.74,2.74,0,0,1-1.05-.74,3.31,3.31,0,0,1-.63-1.19,5.31,5.31,0,0,1-.22-1.61,5.72,5.72,0,0,1,.26-1.81,3.52,3.52,0,0,1,.73-1.26,3,3,0,0,1,1.11-.75,4,4,0,0,1,1.41-.24,3.08,3.08,0,0,1,.61.06,3.39,3.39,0,0,1,.57.14,3.3,3.3,0,0,1,.46.22,1.18,1.18,0,0,1,.3.2l.12.14a.5.5,0,0,1,.05.16.75.75,0,0,1,0,.23,2.92,2.92,0,0,1,0,.33,1.8,1.8,0,0,1-.08.63c-.05.13-.12.19-.21.19a.53.53,0,0,1-.28-.11l-.35-.24a3.05,3.05,0,0,0-.48-.25,1.93,1.93,0,0,0-.67-.1A1.34,1.34,0,0,0,343,301a3.09,3.09,0,0,0-.4,1.74,4.25,4.25,0,0,0,.1,1,2.36,2.36,0,0,0,.3.72,1.29,1.29,0,0,0,.5.43,1.54,1.54,0,0,0,.7.14,1.86,1.86,0,0,0,.7-.12,3.05,3.05,0,0,0,.51-.27,2.37,2.37,0,0,0,.37-.27.43.43,0,0,1,.25-.12.21.21,0,0,1,.11,0,.27.27,0,0,1,.08.15,1.56,1.56,0,0,1,0,.27C346.3,304.83,346.31,305,346.31,305.14Z" transform="translate(-245.41 -268.4)"/><path class="cls-2" d="M353.61,302.56a.78.78,0,0,1-.16.53.57.57,0,0,1-.45.17h-4.24a2.88,2.88,0,0,0,.11.81,1.61,1.61,0,0,0,.33.62,1.56,1.56,0,0,0,.6.39,2.75,2.75,0,0,0,.87.13,4.78,4.78,0,0,0,.9-.08,5.76,5.76,0,0,0,.68-.16l.47-.16a.94.94,0,0,1,.31-.08.2.2,0,0,1,.11,0,.16.16,0,0,1,.08.1.64.64,0,0,1,0,.2c0,.08,0,.19,0,.32s0,.21,0,.29,0,.15,0,.21a.38.38,0,0,1-.05.14.83.83,0,0,1-.08.12,1.87,1.87,0,0,1-.28.15,4.56,4.56,0,0,1-.58.18c-.23.06-.5.11-.8.16a7.43,7.43,0,0,1-1,.06,5.34,5.34,0,0,1-1.63-.23,3,3,0,0,1-1.17-.71,3.07,3.07,0,0,1-.7-1.21,5.73,5.73,0,0,1-.23-1.7,5.39,5.39,0,0,1,.24-1.67,3.64,3.64,0,0,1,.71-1.27,2.89,2.89,0,0,1,1.12-.79,3.7,3.7,0,0,1,1.49-.28,3.9,3.9,0,0,1,1.49.26,2.55,2.55,0,0,1,1,.72,2.83,2.83,0,0,1,.59,1.08,4.91,4.91,0,0,1,.19,1.36ZM351.7,302a2,2,0,0,0-.33-1.3,1.29,1.29,0,0,0-1.1-.48,1.45,1.45,0,0,0-.65.14,1.32,1.32,0,0,0-.46.38,1.52,1.52,0,0,0-.28.57,2.49,2.49,0,0,0-.12.69Z" transform="translate(-245.41 -268.4)"/><path class="cls-2" d="M306.78,322.69a2.76,2.76,0,0,1,.12-.82,2.71,2.71,0,0,1,.39-.73,4,4,0,0,1,.64-.66,6.42,6.42,0,0,1,.88-.61c-.19-.24-.35-.46-.49-.67a6.66,6.66,0,0,1-.35-.61,3.34,3.34,0,0,1-.2-.55,2.31,2.31,0,0,1-.06-.52,2.73,2.73,0,0,1,.19-1,2.13,2.13,0,0,1,.61-.83,3.27,3.27,0,0,1,1.05-.56,5.38,5.38,0,0,1,1.54-.2,5.89,5.89,0,0,1,1.42.15,2.91,2.91,0,0,1,1,.44,1.7,1.7,0,0,1,.57.71,2.19,2.19,0,0,1,.19.94,2.28,2.28,0,0,1-.16.87,2.57,2.57,0,0,1-.48.75,4.72,4.72,0,0,1-.81.69,8.88,8.88,0,0,1-1.13.67c.14.16.29.33.47.51l.54.54.56.54c.18.18.37.34.54.49a2,2,0,0,0,.19-.36,4.34,4.34,0,0,0,.14-.43,3.4,3.4,0,0,0,.09-.46,3.73,3.73,0,0,0,0-.46v-.24a.33.33,0,0,1,0-.15.2.2,0,0,1,.13-.1.84.84,0,0,1,.28-.06l.47,0h.45a1.55,1.55,0,0,1,.29.05.3.3,0,0,1,.15.11.29.29,0,0,1,0,.17v.25a6.3,6.3,0,0,1-.05.75,5.85,5.85,0,0,1-.16.75,4.12,4.12,0,0,1-.27.69,4.21,4.21,0,0,1-.34.63l.47.35.34.22a1.56,1.56,0,0,0,.24.11l.15,0h.16a.14.14,0,0,1,.12.06.3.3,0,0,1,.07.19,2.26,2.26,0,0,1,0,.42c0,.19,0,.34,0,.45a1,1,0,0,1,0,.24.22.22,0,0,1-.1.13.5.5,0,0,1-.22.1,1.9,1.9,0,0,1-.37,0,2.2,2.2,0,0,1-.36,0,2.51,2.51,0,0,1-.43-.17c-.16-.08-.34-.19-.56-.32s-.46-.3-.74-.51a6.59,6.59,0,0,1-.76.45,5.73,5.73,0,0,1-.81.33,5.34,5.34,0,0,1-.88.2,6,6,0,0,1-1,.08,6.4,6.4,0,0,1-1-.08,4.18,4.18,0,0,1-.91-.24,3.57,3.57,0,0,1-.78-.4,2.58,2.58,0,0,1-1-1.34A2.77,2.77,0,0,1,306.78,322.69Zm2.12-.11a1.41,1.41,0,0,0,.13.62,1.33,1.33,0,0,0,.36.49,1.6,1.6,0,0,0,.58.31,2.46,2.46,0,0,0,.8.11,2.38,2.38,0,0,0,.46,0,3.45,3.45,0,0,0,.46-.12,2.53,2.53,0,0,0,.42-.18,2.85,2.85,0,0,0,.37-.23c-.24-.18-.47-.38-.71-.59s-.47-.43-.69-.64l-.64-.64c-.21-.21-.39-.41-.55-.59a2.21,2.21,0,0,0-.46.35,2.44,2.44,0,0,0-.3.37,1.32,1.32,0,0,0-.17.39A1.27,1.27,0,0,0,308.9,322.58Zm.88-5.16a1,1,0,0,0,.05.34,3.59,3.59,0,0,0,.15.37c.07.12.15.26.25.4l.33.47a8.68,8.68,0,0,0,.77-.46,2.81,2.81,0,0,0,.5-.41,1.48,1.48,0,0,0,.27-.4,1.14,1.14,0,0,0,.07-.41.81.81,0,0,0-.07-.35.75.75,0,0,0-.21-.29,1.29,1.29,0,0,0-.37-.19,1.64,1.64,0,0,0-.52-.07,1.86,1.86,0,0,0-.56.07,1.07,1.07,0,0,0-.38.21.93.93,0,0,0-.21.32A1.09,1.09,0,0,0,309.78,317.42Z" transform="translate(-245.41 -268.4)"/><path class="cls-2" d="M295.5,341.48a3.1,3.1,0,0,1-.3,1.4,2.84,2.84,0,0,1-.81,1,3.48,3.48,0,0,1-1.18.61,5,5,0,0,1-1.46.2,5.86,5.86,0,0,1-1-.08,6,6,0,0,1-.79-.21,4.78,4.78,0,0,1-.58-.25,1.77,1.77,0,0,1-.33-.24.56.56,0,0,1-.14-.29,2.51,2.51,0,0,1-.05-.55c0-.16,0-.3,0-.41a1.2,1.2,0,0,1,0-.26.27.27,0,0,1,.09-.15.23.23,0,0,1,.14,0,.62.62,0,0,1,.31.13,5.33,5.33,0,0,0,.51.28,4.53,4.53,0,0,0,.75.29,3.73,3.73,0,0,0,1,.13,2.31,2.31,0,0,0,.67-.09,1.53,1.53,0,0,0,.51-.26,1.11,1.11,0,0,0,.31-.4,1.19,1.19,0,0,0,.11-.54,1,1,0,0,0-.18-.59,1.9,1.9,0,0,0-.49-.44,4.44,4.44,0,0,0-.69-.36l-.79-.35a7.37,7.37,0,0,1-.78-.43,3.18,3.18,0,0,1-.69-.57,2.71,2.71,0,0,1-.49-.79,2.91,2.91,0,0,1-.18-1.08,2.87,2.87,0,0,1,.27-1.28,2.49,2.49,0,0,1,.72-.91,3.07,3.07,0,0,1,1.08-.55,4.68,4.68,0,0,1,1.32-.18,4.37,4.37,0,0,1,.72.06,3.63,3.63,0,0,1,.67.15,3.16,3.16,0,0,1,.55.21,1.45,1.45,0,0,1,.32.19.92.92,0,0,1,.11.14.39.39,0,0,1,0,.14.75.75,0,0,1,0,.23,3.33,3.33,0,0,1,0,.34c0,.15,0,.28,0,.38a1.59,1.59,0,0,1,0,.26.35.35,0,0,1-.08.15.2.2,0,0,1-.14,0,.61.61,0,0,1-.27-.11l-.46-.23a3.78,3.78,0,0,0-.63-.24,2.85,2.85,0,0,0-.79-.1,1.76,1.76,0,0,0-.59.08,1.29,1.29,0,0,0-.42.22,1.07,1.07,0,0,0-.25.35,1.26,1.26,0,0,0-.08.43.88.88,0,0,0,.19.58,1.62,1.62,0,0,0,.49.44,4.57,4.57,0,0,0,.7.36l.79.36a6.8,6.8,0,0,1,.8.42,3.49,3.49,0,0,1,.7.57,2.79,2.79,0,0,1,.49.78A2.86,2.86,0,0,1,295.5,341.48Z" transform="translate(-245.41 -268.4)"/><path class="cls-2" d="M303,344.25a.18.18,0,0,1,0,.13.26.26,0,0,1-.14.1.77.77,0,0,1-.26.06l-.4,0-.42,0a.76.76,0,0,1-.25-.06.23.23,0,0,1-.13-.1.18.18,0,0,1,0-.13v-.81a4.47,4.47,0,0,1-1.18.94,2.62,2.62,0,0,1-1.24.31,2.85,2.85,0,0,1-1.2-.23,2.09,2.09,0,0,1-.79-.64,2.53,2.53,0,0,1-.43-.94,5.62,5.62,0,0,1-.13-1.34v-4.26a.23.23,0,0,1,0-.14.34.34,0,0,1,.16-.1l.3-.05a3.4,3.4,0,0,1,.48,0,3.18,3.18,0,0,1,.47,0,1.54,1.54,0,0,1,.3.05.34.34,0,0,1,.16.1.19.19,0,0,1,.05.14v3.94a3.54,3.54,0,0,0,.07.83,1.52,1.52,0,0,0,.22.5.93.93,0,0,0,.36.32,1.21,1.21,0,0,0,.52.11,1.33,1.33,0,0,0,.76-.27,4.63,4.63,0,0,0,.81-.8v-4.63a.23.23,0,0,1,0-.14.36.36,0,0,1,.15-.1,1.82,1.82,0,0,1,.31-.05,3.18,3.18,0,0,1,.47,0,3.4,3.4,0,0,1,.48,0l.3.05a.36.36,0,0,1,.15.1.24.24,0,0,1,.05.14Z" transform="translate(-245.41 -268.4)"/><path class="cls-2" d="M311.43,340.66a6.67,6.67,0,0,1-.2,1.68,3.91,3.91,0,0,1-.58,1.27,2.61,2.61,0,0,1-.95.8,2.9,2.9,0,0,1-1.31.28,2.47,2.47,0,0,1-.56-.06,1.53,1.53,0,0,1-.49-.18,2.66,2.66,0,0,1-.47-.3,5.81,5.81,0,0,1-.49-.42V347a.23.23,0,0,1,0,.14.33.33,0,0,1-.16.11,1.67,1.67,0,0,1-.3.07l-.48,0-.48,0a1.67,1.67,0,0,1-.3-.07.33.33,0,0,1-.16-.11.24.24,0,0,1,0-.14v-9.73a.33.33,0,0,1,0-.14.32.32,0,0,1,.14-.1,1.33,1.33,0,0,1,.26-.05,2.3,2.3,0,0,1,.4,0,2.18,2.18,0,0,1,.39,0,1.2,1.2,0,0,1,.26.05.32.32,0,0,1,.14.1.23.23,0,0,1,0,.14v.82a6,6,0,0,1,.6-.55,3.61,3.61,0,0,1,.59-.4,2.71,2.71,0,0,1,.63-.24,3.1,3.1,0,0,1,.69-.08,2.67,2.67,0,0,1,1.31.3,2.5,2.5,0,0,1,.88.83,3.72,3.72,0,0,1,.49,1.22A6.4,6.4,0,0,1,311.43,340.66Zm-2.05.14a5.87,5.87,0,0,0-.06-.85,2.5,2.5,0,0,0-.23-.73,1.46,1.46,0,0,0-.42-.52,1.13,1.13,0,0,0-.65-.19,1.32,1.32,0,0,0-.39.06,1.4,1.4,0,0,0-.39.19,3.07,3.07,0,0,0-.41.35,5.12,5.12,0,0,0-.45.52v2.3a4.71,4.71,0,0,0,.79.81,1.27,1.27,0,0,0,.78.28,1.09,1.09,0,0,0,.66-.19,1.6,1.6,0,0,0,.44-.52,2.59,2.59,0,0,0,.25-.71A3.62,3.62,0,0,0,309.38,340.8Z" transform="translate(-245.41 -268.4)"/><path class="cls-2" d="M319.46,340.66a6.67,6.67,0,0,1-.2,1.68,4.13,4.13,0,0,1-.58,1.27,2.64,2.64,0,0,1-1,.8,2.86,2.86,0,0,1-1.3.28,2.4,2.4,0,0,1-.56-.06,1.53,1.53,0,0,1-.49-.18,3.15,3.15,0,0,1-.48-.3q-.22-.18-.48-.42V347a.24.24,0,0,1-.05.14.29.29,0,0,1-.16.11,1.33,1.33,0,0,1-.3.07l-.47,0-.48,0a1.33,1.33,0,0,1-.3-.07.29.29,0,0,1-.16-.11.24.24,0,0,1-.05-.14v-9.73a.23.23,0,0,1,0-.14.32.32,0,0,1,.14-.1l.25-.05a2.49,2.49,0,0,1,.41,0,2.3,2.3,0,0,1,.39,0,1.33,1.33,0,0,1,.26.05.39.39,0,0,1,.14.1.32.32,0,0,1,0,.14v.82c.21-.21.41-.39.6-.55a4.17,4.17,0,0,1,.6-.4,2.41,2.41,0,0,1,.63-.24,3,3,0,0,1,.69-.08,2.67,2.67,0,0,1,1.31.3,2.47,2.47,0,0,1,.87.83,3.52,3.52,0,0,1,.5,1.22A7,7,0,0,1,319.46,340.66Zm-2,.14a4.72,4.72,0,0,0-.07-.85,2.5,2.5,0,0,0-.22-.73,1.38,1.38,0,0,0-.43-.52,1.11,1.11,0,0,0-.65-.19,1.21,1.21,0,0,0-.38.06,1.6,1.6,0,0,0-.4.19,3.86,3.86,0,0,0-.41.35,5.14,5.14,0,0,0-.44.52v2.3a4.71,4.71,0,0,0,.79.81,1.27,1.27,0,0,0,.78.28,1.08,1.08,0,0,0,.65-.19,1.49,1.49,0,0,0,.44-.52,2.6,2.6,0,0,0,.26-.71A4.34,4.34,0,0,0,317.41,340.8Z" transform="translate(-245.41 -268.4)"/><path class="cls-2" d="M327.51,340.69a5.53,5.53,0,0,1-.23,1.63,3.39,3.39,0,0,1-.71,1.26,3.1,3.1,0,0,1-1.2.82,4.35,4.35,0,0,1-1.68.29,4.58,4.58,0,0,1-1.61-.25,2.85,2.85,0,0,1-1.82-2,5.81,5.81,0,0,1-.22-1.64,5.31,5.31,0,0,1,.24-1.63,3.41,3.41,0,0,1,.72-1.26,3.09,3.09,0,0,1,1.19-.82,4.49,4.49,0,0,1,1.67-.29,4.68,4.68,0,0,1,1.63.26,2.93,2.93,0,0,1,1.14.74,3,3,0,0,1,.66,1.21A5.54,5.54,0,0,1,327.51,340.69Zm-2,.08a5.61,5.61,0,0,0-.08-.95,2.3,2.3,0,0,0-.28-.75,1.32,1.32,0,0,0-.52-.5,1.69,1.69,0,0,0-.82-.18,1.67,1.67,0,0,0-.76.16,1.29,1.29,0,0,0-.54.47,2.18,2.18,0,0,0-.32.74,4.25,4.25,0,0,0-.1,1,5.61,5.61,0,0,0,.08.95,2.3,2.3,0,0,0,.28.75,1.39,1.39,0,0,0,.52.5,1.8,1.8,0,0,0,.81.17,1.73,1.73,0,0,0,.78-.16,1.4,1.4,0,0,0,.54-.46,2.26,2.26,0,0,0,.31-.74A4.25,4.25,0,0,0,325.49,340.77Z" transform="translate(-245.41 -268.4)"/><path class="cls-2" d="M333,337.93c0,.18,0,.34,0,.46a1.43,1.43,0,0,1-.05.28.3.3,0,0,1-.08.14.18.18,0,0,1-.13,0l-.14,0-.18-.06-.21-.06-.26,0a1,1,0,0,0-.33.06,1.85,1.85,0,0,0-.34.21,2.23,2.23,0,0,0-.36.38,4.24,4.24,0,0,0-.41.57v4.35a.19.19,0,0,1-.05.13.28.28,0,0,1-.16.1,1.13,1.13,0,0,1-.3.06l-.48,0-.47,0a1,1,0,0,1-.3-.06.28.28,0,0,1-.16-.1.15.15,0,0,1-.05-.13v-7a.23.23,0,0,1,0-.14.27.27,0,0,1,.14-.1A1.33,1.33,0,0,1,329,337a2.36,2.36,0,0,1,.4,0,2.56,2.56,0,0,1,.42,0,1.09,1.09,0,0,1,.25.05.34.34,0,0,1,.13.1.23.23,0,0,1,0,.14v.87a5.69,5.69,0,0,1,.51-.65,3.11,3.11,0,0,1,.46-.4,1.59,1.59,0,0,1,.44-.21,1.67,1.67,0,0,1,.44-.06l.22,0,.24,0a1.14,1.14,0,0,1,.22.07.37.37,0,0,1,.14.07.47.47,0,0,1,.06.09.86.86,0,0,1,0,.13q0,.08,0,.24Z" transform="translate(-245.41 -268.4)"/><path class="cls-2" d="M337.76,343.56a2.42,2.42,0,0,1,0,.53.57.57,0,0,1-.12.26.53.53,0,0,1-.2.13,2,2,0,0,1-.32.1l-.4.07-.44,0a3,3,0,0,1-1-.15,1.65,1.65,0,0,1-.71-.46,1.85,1.85,0,0,1-.42-.77,4.13,4.13,0,0,1-.13-1.11v-3.57h-.83a.25.25,0,0,1-.23-.19,1.71,1.71,0,0,1-.08-.61,3.79,3.79,0,0,1,0-.38.7.7,0,0,1,.06-.25.27.27,0,0,1,.1-.13.28.28,0,0,1,.13,0H334v-1.55a.33.33,0,0,1,0-.14.41.41,0,0,1,.16-.11,1.13,1.13,0,0,1,.3-.06l.48,0,.48,0a1,1,0,0,1,.3.06.5.5,0,0,1,.16.11.23.23,0,0,1,0,.14V337h1.52a.25.25,0,0,1,.13,0,.27.27,0,0,1,.1.13.7.7,0,0,1,.06.25,3.79,3.79,0,0,1,0,.38,1.71,1.71,0,0,1-.08.61c-.05.13-.13.19-.22.19h-1.53v3.27a1.64,1.64,0,0,0,.18.86.69.69,0,0,0,.64.28,1.14,1.14,0,0,0,.28,0,1.28,1.28,0,0,0,.23-.06l.16-.06.12,0,.09,0a.19.19,0,0,1,.07.11s0,.13,0,.22A3.21,3.21,0,0,1,337.76,343.56Z" transform="translate(-245.41 -268.4)"/></svg>