<svg id="Layer_1" data-name="Layer 1" xmlns="http://www.w3.org/2000/svg" viewBox="0 0 136.53 137.87"><defs><style>.cls-1,.cls-4{fill:#231f20;}.cls-1{opacity:0.2;}.cls-2{fill:#fff;}.cls-3{fill:#2a3473;}</style></defs><circle class="cls-1" cx="70.15" cy="71.49" r="66.38"/><circle class="cls-2" cx="66.38" cy="66.38" r="66.38"/><circle class="cls-3" cx="67.17" cy="66.64" r="55.74"/><path class="cls-2" d="M358.77,367.78s-26.11-12.07-23-36.59,25.11-29.83,25.11-29.83S381.2,341.06,358.77,367.78Z" transform="translate(-245.41 -268.4)"/><path class="cls-4" d="M348.33,326.4a6.07,6.07,0,0,1,5,2.3q2.16,2.73,2.16,9t-2.18,9.05a6.05,6.05,0,0,1-5,2.27,6.38,6.38,0,0,1-5.23-2.49q-2-2.49-2-8.88c0-4.18.73-7.18,2.18-9A6.07,6.07,0,0,1,348.33,326.4Zm0,3.53a2.1,2.1,0,0,0-1.38.49,3.23,3.23,0,0,0-.94,1.76A36.15,36.15,0,0,0,346,343.1a3.84,3.84,0,0,0,1,1.95,2.18,2.18,0,0,0,2.74,0,3.27,3.27,0,0,0,.94-1.76,36.08,36.08,0,0,0,.05-10.91,4,4,0,0,0-1-1.95A2.09,2.09,0,0,0,348.33,329.93Z" transform="translate(-245.41 -268.4)"/><path class="cls-4" d="M358.44,343l4.24-.44a3.6,3.6,0,0,0,1.07,2.28,2.92,2.92,0,0,0,2.06.84,2.84,2.84,0,0,0,2.25-1.08,4.9,4.9,0,0,0,.93-3.26,4.49,4.49,0,0,0-.92-3.07,3,3,0,0,0-2.38-1,4.35,4.35,0,0,0-3.29,1.62l-3.45-.5,2.18-11.55h11.25v4h-8l-.67,3.77a6.5,6.5,0,0,1,2.91-.71,6.39,6.39,0,0,1,4.79,2.06,7.37,7.37,0,0,1,2,5.34,8,8,0,0,1-1.59,4.89,7,7,0,0,1-6,2.94,7.45,7.45,0,0,1-5-1.65A6.79,6.79,0,0,1,358.44,343Z" transform="translate(-245.41 -268.4)"/><path class="cls-2" d="M288.72,314c0,.16,0,.3,0,.41a1.26,1.26,0,0,1-.07.28.28.28,0,0,1-.1.15.24.24,0,0,1-.14.05H285.7v8.66a.3.3,0,0,1-.05.15.5.5,0,0,1-.18.11l-.34.06a3.74,3.74,0,0,1-.52,0,3.89,3.89,0,0,1-.53,0l-.34-.06a.38.38,0,0,1-.17-.11.24.24,0,0,1-.06-.15v-8.66h-2.69a.24.24,0,0,1-.14-.05.36.36,0,0,1-.1-.15.9.9,0,0,1-.06-.28,2.49,2.49,0,0,1,0-.41,2.62,2.62,0,0,1,0-.42.9.9,0,0,1,.06-.28.36.36,0,0,1,.1-.15.24.24,0,0,1,.14,0h7.57a.24.24,0,0,1,.14,0,.28.28,0,0,1,.1.15,1.26,1.26,0,0,1,.07.28C288.71,313.69,288.72,313.84,288.72,314Z" transform="translate(-245.41 -268.4)"/><path class="cls-2" d="M294.64,319.65a.81.81,0,0,1-.17.56.63.63,0,0,1-.47.18h-4.51a3.26,3.26,0,0,0,.11.86,1.75,1.75,0,0,0,.36.66,1.57,1.57,0,0,0,.63.41,2.84,2.84,0,0,0,.93.14,5.47,5.47,0,0,0,1-.08c.27-.05.51-.11.72-.17s.37-.12.5-.18A1,1,0,0,1,294,322a.28.28,0,0,1,.13,0,.24.24,0,0,1,.08.11.81.81,0,0,1,0,.21c0,.09,0,.2,0,.34a2.82,2.82,0,0,1,0,.31,1.17,1.17,0,0,1,0,.22.62.62,0,0,1,0,.16l-.09.12a1.2,1.2,0,0,1-.3.16,5,5,0,0,1-.61.19c-.25.06-.54.12-.86.17a8.17,8.17,0,0,1-1,.07,5.7,5.7,0,0,1-1.74-.25,3,3,0,0,1-2-2,6.06,6.06,0,0,1-.24-1.81,5.85,5.85,0,0,1,.25-1.78,3.73,3.73,0,0,1,.75-1.34,3.15,3.15,0,0,1,1.19-.84,4,4,0,0,1,1.58-.29,4.2,4.2,0,0,1,1.59.27,3,3,0,0,1,1.09.76,3.19,3.19,0,0,1,.62,1.15,5.06,5.06,0,0,1,.2,1.44Zm-2-.6a2.12,2.12,0,0,0-.35-1.38,1.36,1.36,0,0,0-1.17-.51,1.52,1.52,0,0,0-.69.15,1.4,1.4,0,0,0-.49.41,1.82,1.82,0,0,0-.3.59,2.94,2.94,0,0,0-.12.74Z" transform="translate(-245.41 -268.4)"/><path class="cls-2" d="M301,321.47a2.59,2.59,0,0,1-.23,1.11,2.19,2.19,0,0,1-.67.81,3,3,0,0,1-1,.49,5.22,5.22,0,0,1-1.28.16A4,4,0,0,1,297,324a5,5,0,0,1-.68-.15,3.69,3.69,0,0,1-.5-.2,1,1,0,0,1-.29-.19.49.49,0,0,1-.14-.27,2.44,2.44,0,0,1-.05-.55,3.84,3.84,0,0,1,0-.39.71.71,0,0,1,.05-.23.23.23,0,0,1,.08-.12.22.22,0,0,1,.12,0,.6.6,0,0,1,.27.1l.45.23a4.31,4.31,0,0,0,.62.23,2.76,2.76,0,0,0,.8.11,1.9,1.9,0,0,0,.5-.06,1.1,1.1,0,0,0,.38-.17.72.72,0,0,0,.25-.27.92.92,0,0,0,.08-.38.64.64,0,0,0-.15-.43,1.47,1.47,0,0,0-.41-.31,5.12,5.12,0,0,0-.57-.25c-.22-.08-.44-.16-.66-.26a6.65,6.65,0,0,1-.66-.32,2.46,2.46,0,0,1-.57-.45,2.2,2.2,0,0,1-.41-.64,2.4,2.4,0,0,1-.15-.89,2.27,2.27,0,0,1,.21-1,2.11,2.11,0,0,1,.6-.76,2.84,2.84,0,0,1,.95-.49,4.07,4.07,0,0,1,1.25-.17,3.75,3.75,0,0,1,.68.05,4.08,4.08,0,0,1,.59.12,2.56,2.56,0,0,1,.45.16,1.65,1.65,0,0,1,.26.15.47.47,0,0,1,.12.13,1.31,1.31,0,0,1,0,.15,1.15,1.15,0,0,1,0,.21,2.73,2.73,0,0,1,0,.32,3.57,3.57,0,0,1,0,.37.67.67,0,0,1,0,.22.16.16,0,0,1-.08.11.2.2,0,0,1-.11,0,.52.52,0,0,1-.23-.09c-.11-.05-.24-.12-.4-.18a4.37,4.37,0,0,0-.55-.19,2.5,2.5,0,0,0-.71-.09,1.83,1.83,0,0,0-.49.06,1.08,1.08,0,0,0-.34.17.74.74,0,0,0-.26.56.59.59,0,0,0,.16.43,1.34,1.34,0,0,0,.41.31,4.76,4.76,0,0,0,.59.25l.66.25a5,5,0,0,1,.66.32,2.63,2.63,0,0,1,.59.45,2.22,2.22,0,0,1,.42.64A2.26,2.26,0,0,1,301,321.47Z" transform="translate(-245.41 -268.4)"/><path class="cls-2" d="M309,315.88a.63.63,0,0,1,.48.15.62.62,0,0,1,.14.43v7.1a.25.25,0,0,1-.05.15.31.31,0,0,1-.17.1,1.42,1.42,0,0,1-.32.07l-.5,0-.51,0a1.56,1.56,0,0,1-.32-.07.28.28,0,0,1-.16-.1.2.2,0,0,1-.06-.15v-6H304.2v3.48a1.71,1.71,0,0,0,.19.91.73.73,0,0,0,.68.3,1.39,1.39,0,0,0,.3,0l.23-.06.18-.07a.31.31,0,0,1,.13,0,.16.16,0,0,1,.09,0,.18.18,0,0,1,.07.12,1.7,1.7,0,0,1,.05.23,3.79,3.79,0,0,1,0,.38,2.67,2.67,0,0,1,0,.56.68.68,0,0,1-.12.27.53.53,0,0,1-.22.15,2.42,2.42,0,0,1-.35.11L305,324l-.46,0a3.15,3.15,0,0,1-1.08-.16,1.71,1.71,0,0,1-.76-.48,2.19,2.19,0,0,1-.44-.83,4.49,4.49,0,0,1-.14-1.18v-3.79h-.89c-.1,0-.18-.06-.24-.19a2,2,0,0,1-.08-.66c0-.16,0-.29,0-.4a2.07,2.07,0,0,1,.06-.26.33.33,0,0,1,.11-.14.23.23,0,0,1,.14,0h.88v-1.66a.24.24,0,0,1,.05-.14.3.3,0,0,1,.16-.12,1.22,1.22,0,0,1,.33-.06,3.63,3.63,0,0,1,.5,0,3.71,3.71,0,0,1,.51,0,1.14,1.14,0,0,1,.32.06.37.37,0,0,1,.17.12.24.24,0,0,1,.05.14v1.66Zm.78-2.23a1.18,1.18,0,0,1-.25.87,1.43,1.43,0,0,1-1,.24,1.4,1.4,0,0,1-.95-.23,1.14,1.14,0,0,1-.24-.84,1.18,1.18,0,0,1,.25-.87,2,2,0,0,1,1.91,0A1.17,1.17,0,0,1,309.77,313.65Z" transform="translate(-245.41 -268.4)"/><path class="cls-2" d="M318.19,323.56a.25.25,0,0,1-.05.15.35.35,0,0,1-.17.1,1.56,1.56,0,0,1-.32.07l-.5,0-.51,0a1.56,1.56,0,0,1-.32-.07.31.31,0,0,1-.17-.1.25.25,0,0,1,0-.15v-4.22a3.25,3.25,0,0,0-.08-.85,1.55,1.55,0,0,0-.23-.52.92.92,0,0,0-.38-.35,1.2,1.2,0,0,0-.55-.12,1.36,1.36,0,0,0-.81.3,4.15,4.15,0,0,0-.84.84v4.92a.25.25,0,0,1,0,.15.35.35,0,0,1-.17.1,1.73,1.73,0,0,1-.32.07l-.51,0-.51,0a1.73,1.73,0,0,1-.32-.07.35.35,0,0,1-.17-.1.25.25,0,0,1-.05-.15v-7.4a.27.27,0,0,1,.05-.15.27.27,0,0,1,.14-.1,1.06,1.06,0,0,1,.28-.06,2.75,2.75,0,0,1,.43,0,2.82,2.82,0,0,1,.44,0,.77.77,0,0,1,.27.06.39.39,0,0,1,.14.1.37.37,0,0,1,0,.15V317a4.6,4.6,0,0,1,1.25-1,2.81,2.81,0,0,1,1.32-.33,2.92,2.92,0,0,1,1.28.25,2.2,2.2,0,0,1,.83.67,2.62,2.62,0,0,1,.46,1,5.49,5.49,0,0,1,.15,1.38Z" transform="translate(-245.41 -268.4)"/><path class="cls-2" d="M326.32,316.67a1.25,1.25,0,0,1-.1.59c-.06.13-.13.19-.22.19h-.87a1.24,1.24,0,0,1,.26.46,1.82,1.82,0,0,1,.08.52,2.74,2.74,0,0,1-.22,1.15,2.2,2.2,0,0,1-.62.85,2.65,2.65,0,0,1-1,.52,4.17,4.17,0,0,1-1.26.18,2.48,2.48,0,0,1-.68-.09,1.4,1.4,0,0,1-.5-.2,1,1,0,0,0-.18.26.73.73,0,0,0-.08.33.46.46,0,0,0,.21.39,1,1,0,0,0,.6.17l1.8.07a4.6,4.6,0,0,1,1.12.18,2.41,2.41,0,0,1,.83.43,1.87,1.87,0,0,1,.52.67,2.11,2.11,0,0,1,.18.89,2.18,2.18,0,0,1-.25,1,2.22,2.22,0,0,1-.72.84,3.68,3.68,0,0,1-1.21.57,6,6,0,0,1-1.69.21,7.57,7.57,0,0,1-1.62-.15,3.45,3.45,0,0,1-1.09-.42,1.57,1.57,0,0,1-.82-1.44,1.83,1.83,0,0,1,.07-.53,2.18,2.18,0,0,1,.21-.47,2.3,2.3,0,0,1,.33-.44,4.55,4.55,0,0,1,.46-.4,1.32,1.32,0,0,1-.55-.52,1.33,1.33,0,0,1-.2-.71,1.83,1.83,0,0,1,.23-.9,2.83,2.83,0,0,1,.58-.72,2.27,2.27,0,0,1-.47-.7,2.7,2.7,0,0,1-.17-1,2.86,2.86,0,0,1,.23-1.16,2.37,2.37,0,0,1,.63-.86,2.7,2.7,0,0,1,1-.54,3.86,3.86,0,0,1,1.25-.19,4.92,4.92,0,0,1,.67,0,4.72,4.72,0,0,1,.59.12H326a.27.27,0,0,1,.23.18A1.5,1.5,0,0,1,326.32,316.67Zm-2.2,7.67a.68.68,0,0,0-.29-.58,1.61,1.61,0,0,0-.83-.21l-1.48,0a1.81,1.81,0,0,0-.35.3,2.12,2.12,0,0,0-.2.28.77.77,0,0,0-.11.25,2.28,2.28,0,0,0,0,.26.67.67,0,0,0,.42.63,2.53,2.53,0,0,0,1.18.22,2.69,2.69,0,0,0,.8-.1,1.57,1.57,0,0,0,.52-.25.9.9,0,0,0,.28-.35A1,1,0,0,0,324.12,324.34Zm-.49-5.91a1.26,1.26,0,0,0-.33-.93,1.23,1.23,0,0,0-.94-.34,1.33,1.33,0,0,0-.54.11,1.08,1.08,0,0,0-.38.28,1.22,1.22,0,0,0-.23.42,1.57,1.57,0,0,0-.07.49,1.19,1.19,0,0,0,.33.89,1.25,1.25,0,0,0,.92.33,1.35,1.35,0,0,0,.55-.1,1.19,1.19,0,0,0,.38-.27,1.2,1.2,0,0,0,.24-.41A1.49,1.49,0,0,0,323.63,318.43Z" transform="translate(-245.41 -268.4)"/><path class="cls-2" d="M300.87,336.54a1.11,1.11,0,0,1,0,.23c0,.09,0,.21-.09.38l-2,6.7a1,1,0,0,1-.11.23.54.54,0,0,1-.21.13,1.18,1.18,0,0,1-.39.07l-.66,0-.66,0a2.28,2.28,0,0,1-.4-.07.52.52,0,0,1-.22-.14.63.63,0,0,1-.09-.22l-1.25-4.5,0-.08v.08l-1.15,4.5a.69.69,0,0,1-.09.23.51.51,0,0,1-.22.13,1.25,1.25,0,0,1-.4.07l-.67,0-.66,0a2.28,2.28,0,0,1-.4-.07.43.43,0,0,1-.21-.14.5.5,0,0,1-.1-.22l-2-6.7c0-.16-.08-.29-.1-.38s0-.17,0-.23a.24.24,0,0,1,.05-.14.28.28,0,0,1,.16-.1,1.8,1.8,0,0,1,.33-.06h1.05a1.84,1.84,0,0,1,.32.06.34.34,0,0,1,.16.11.51.51,0,0,1,.07.17l1.47,5.44,0,.1V342l1.38-5.44a.89.89,0,0,1,.08-.17.5.5,0,0,1,.16-.11,1.7,1.7,0,0,1,.31-.06h.5a3.63,3.63,0,0,1,.5,0,1.05,1.05,0,0,1,.3.06.26.26,0,0,1,.16.1.61.61,0,0,1,.07.14l1.48,5.48,0,.09,0-.1,1.41-5.44a.36.36,0,0,1,.07-.17.34.34,0,0,1,.16-.11,1.67,1.67,0,0,1,.32-.06h1a1.54,1.54,0,0,1,.31.06.28.28,0,0,1,.16.1A.33.33,0,0,1,300.87,336.54Z" transform="translate(-245.41 -268.4)"/><path class="cls-2" d="M303.86,334.05a1.17,1.17,0,0,1-.26.87,1.35,1.35,0,0,1-1,.25,1.38,1.38,0,0,1-.95-.24,1.1,1.1,0,0,1-.25-.84,1.22,1.22,0,0,1,.25-.87,1.42,1.42,0,0,1,1-.25,1.39,1.39,0,0,1,.95.24A1.13,1.13,0,0,1,303.86,334.05ZM303.7,344a.25.25,0,0,1-.05.15.31.31,0,0,1-.17.1,1.73,1.73,0,0,1-.32.07l-.51,0-.5,0a1.73,1.73,0,0,1-.32-.07.31.31,0,0,1-.17-.1.25.25,0,0,1-.05-.15v-7.38a.25.25,0,0,1,.05-.15.38.38,0,0,1,.17-.11,1.73,1.73,0,0,1,.32-.07l.5,0,.51,0a1.73,1.73,0,0,1,.32.07.38.38,0,0,1,.17.11.25.25,0,0,1,.05.15Z" transform="translate(-245.41 -268.4)"/><path class="cls-2" d="M309.57,343.23a2.67,2.67,0,0,1,0,.56.67.67,0,0,1-.12.28.76.76,0,0,1-.22.14,2.42,2.42,0,0,1-.35.11l-.42.07-.46,0a3.23,3.23,0,0,1-1.08-.16,1.73,1.73,0,0,1-.75-.48,1.94,1.94,0,0,1-.44-.83,4.08,4.08,0,0,1-.15-1.18V338h-.88a.25.25,0,0,1-.24-.19,1.72,1.72,0,0,1-.09-.66c0-.16,0-.29,0-.4a1.05,1.05,0,0,1,.07-.26.26.26,0,0,1,.1-.14.24.24,0,0,1,.15,0h.87v-1.65a.25.25,0,0,1,0-.15.32.32,0,0,1,.17-.12,1.22,1.22,0,0,1,.32-.06,6.39,6.39,0,0,1,1,0,1.07,1.07,0,0,1,.32.06.32.32,0,0,1,.17.12.25.25,0,0,1,.05.15v1.65h1.61a.23.23,0,0,1,.14,0,.27.27,0,0,1,.11.14.77.77,0,0,1,.06.26c0,.11,0,.24,0,.4a2,2,0,0,1-.08.66c-.06.13-.14.19-.24.19h-1.62v3.48a1.71,1.71,0,0,0,.19.91.74.74,0,0,0,.68.3,1.39,1.39,0,0,0,.3,0l.24-.06.17-.07.13,0,.09,0a.18.18,0,0,1,.07.12.89.89,0,0,1,.05.23A3.79,3.79,0,0,1,309.57,343.23Z" transform="translate(-245.41 -268.4)"/><path class="cls-2" d="M317.56,344a.25.25,0,0,1-.05.15.31.31,0,0,1-.17.1,1.42,1.42,0,0,1-.32.07l-.5,0-.51,0a1.73,1.73,0,0,1-.32-.07.28.28,0,0,1-.16-.1.2.2,0,0,1,0-.15v-4.22a3.76,3.76,0,0,0-.08-.85,1.78,1.78,0,0,0-.23-.52,1,1,0,0,0-.39-.35,1.18,1.18,0,0,0-.55-.12,1.33,1.33,0,0,0-.8.3,3.93,3.93,0,0,0-.85.84V344a.25.25,0,0,1-.05.15.31.31,0,0,1-.17.1,1.73,1.73,0,0,1-.32.07l-.51,0-.5,0a1.56,1.56,0,0,1-.32-.07.31.31,0,0,1-.17-.1.2.2,0,0,1-.05-.15V333.05a.2.2,0,0,1,.05-.15.32.32,0,0,1,.17-.11,1.09,1.09,0,0,1,.32-.07,3.43,3.43,0,0,1,.5,0,3.49,3.49,0,0,1,.51,0,1.18,1.18,0,0,1,.32.07.32.32,0,0,1,.17.11.25.25,0,0,1,.05.15v4.09a4,4,0,0,1,1.1-.79,2.63,2.63,0,0,1,1.17-.26,2.88,2.88,0,0,1,1.27.25,2.16,2.16,0,0,1,.84.68,2.87,2.87,0,0,1,.46,1,6.3,6.3,0,0,1,.14,1.4Z" transform="translate(-245.41 -268.4)"/><path class="cls-2" d="M273.2,361.43a3.32,3.32,0,0,1-.32,1.48A3.08,3.08,0,0,1,272,364a3.71,3.71,0,0,1-1.27.64,5.67,5.67,0,0,1-2.57.13c-.32-.07-.6-.14-.85-.22a5.21,5.21,0,0,1-.61-.27,2.16,2.16,0,0,1-.35-.25.69.69,0,0,1-.15-.31,2.94,2.94,0,0,1-.05-.59c0-.17,0-.32,0-.43a1.43,1.43,0,0,1,.05-.28.34.34,0,0,1,.1-.16.24.24,0,0,1,.15,0,.7.7,0,0,1,.33.13,4.12,4.12,0,0,0,.54.31,4.69,4.69,0,0,0,.79.3,3.8,3.8,0,0,0,1.07.14,2.26,2.26,0,0,0,.71-.1,1.52,1.52,0,0,0,.54-.27,1.08,1.08,0,0,0,.33-.43,1.32,1.32,0,0,0,.12-.57,1,1,0,0,0-.2-.63,2,2,0,0,0-.52-.46,4.84,4.84,0,0,0-.72-.39l-.84-.37a8.52,8.52,0,0,1-.84-.46,3.83,3.83,0,0,1-.73-.6,3.22,3.22,0,0,1-.52-.84,3,3,0,0,1-.2-1.15,3.09,3.09,0,0,1,.29-1.36,2.83,2.83,0,0,1,.77-1,3.37,3.37,0,0,1,1.15-.58,5.26,5.26,0,0,1,1.4-.19,4.87,4.87,0,0,1,.76.06,4.64,4.64,0,0,1,.71.16,4.35,4.35,0,0,1,.59.22,1.47,1.47,0,0,1,.34.21.64.64,0,0,1,.12.14,1,1,0,0,1,.05.16q0,.09,0,.24v.36c0,.16,0,.29,0,.4a1.7,1.7,0,0,1,0,.28.48.48,0,0,1-.08.16.25.25,0,0,1-.15,0A.67.67,0,0,1,272,356a4.37,4.37,0,0,0-.49-.25,3.47,3.47,0,0,0-.67-.25,2.84,2.84,0,0,0-.84-.11,1.91,1.91,0,0,0-.62.08,1.37,1.37,0,0,0-.45.24,1,1,0,0,0-.26.37,1.22,1.22,0,0,0-.09.46,1,1,0,0,0,.2.62,1.81,1.81,0,0,0,.52.46,4.66,4.66,0,0,0,.74.38l.85.38c.29.13.57.29.85.45a3.29,3.29,0,0,1,.73.61,2.73,2.73,0,0,1,.73,2Z" transform="translate(-245.41 -268.4)"/><path class="cls-2" d="M281,360.45a.81.81,0,0,1-.17.56.64.64,0,0,1-.47.18h-4.51a3.26,3.26,0,0,0,.11.86,1.63,1.63,0,0,0,.36.66,1.57,1.57,0,0,0,.63.41,2.78,2.78,0,0,0,.92.14,5.5,5.5,0,0,0,1-.08,6.8,6.8,0,0,0,.71-.17c.21-.07.37-.12.51-.18a1,1,0,0,1,.32-.08.28.28,0,0,1,.13,0,.24.24,0,0,1,.08.11.56.56,0,0,1,0,.21,3,3,0,0,1,0,.34c0,.12,0,.23,0,.31s0,.16,0,.22a.38.38,0,0,1-.05.16l-.08.12a1.2,1.2,0,0,1-.3.16,5,5,0,0,1-.61.19c-.25.06-.54.12-.86.17a8.2,8.2,0,0,1-1,.07,5.63,5.63,0,0,1-1.73-.25,3,3,0,0,1-2-2,6,6,0,0,1-.25-1.81A5.84,5.84,0,0,1,274,359a3.73,3.73,0,0,1,.75-1.34,3.07,3.07,0,0,1,1.19-.84,4,4,0,0,1,1.58-.29,4.2,4.2,0,0,1,1.59.27,2.85,2.85,0,0,1,1.08.76,3.06,3.06,0,0,1,.63,1.15,5.06,5.06,0,0,1,.2,1.44Zm-2-.6a2.12,2.12,0,0,0-.35-1.38,1.36,1.36,0,0,0-1.17-.51,1.49,1.49,0,0,0-.69.15,1.4,1.4,0,0,0-.49.41,1.73,1.73,0,0,0-.3.59,2.94,2.94,0,0,0-.12.74Z" transform="translate(-245.41 -268.4)"/><path class="cls-2" d="M287.71,363.18c0,.15,0,.27,0,.37l0,.24a1,1,0,0,1-.05.16.76.76,0,0,1-.13.16,2.14,2.14,0,0,1-.34.23,3.5,3.5,0,0,1-.55.25,4.37,4.37,0,0,1-.67.17,3.64,3.64,0,0,1-.74.07,4,4,0,0,1-1.52-.27,2.83,2.83,0,0,1-1.11-.78,3.58,3.58,0,0,1-.67-1.27,6,6,0,0,1-.23-1.71,5.8,5.8,0,0,1,.28-1.92,3.58,3.58,0,0,1,.77-1.34,3.23,3.23,0,0,1,1.18-.79,4.26,4.26,0,0,1,1.5-.26,3.49,3.49,0,0,1,.65.06,3.59,3.59,0,0,1,1.09.38,2.38,2.38,0,0,1,.32.22.64.64,0,0,1,.12.15.43.43,0,0,1,.06.17,1.19,1.19,0,0,1,0,.24c0,.1,0,.22,0,.35a2.1,2.1,0,0,1-.08.68c-.06.13-.13.19-.22.19a.51.51,0,0,1-.3-.11l-.37-.26a3.6,3.6,0,0,0-.52-.26,2.16,2.16,0,0,0-.71-.11,1.45,1.45,0,0,0-1.25.62,3.33,3.33,0,0,0-.43,1.84,4.8,4.8,0,0,0,.11,1.06,2.21,2.21,0,0,0,.32.76,1.3,1.3,0,0,0,.53.46,1.72,1.72,0,0,0,.74.16,2.1,2.1,0,0,0,.75-.13,3.43,3.43,0,0,0,.54-.29,4,4,0,0,0,.39-.29.48.48,0,0,1,.27-.12.16.16,0,0,1,.12,0,.3.3,0,0,1,.08.15c0,.07,0,.17.05.29S287.71,363,287.71,363.18Z" transform="translate(-245.41 -268.4)"/><path class="cls-2" d="M295.65,364.36a.24.24,0,0,1,0,.15.28.28,0,0,1-.15.1,1.31,1.31,0,0,1-.27.07l-.43,0-.44,0a1,1,0,0,1-.27-.07.22.22,0,0,1-.14-.1.25.25,0,0,1-.05-.15v-.85a4.82,4.82,0,0,1-1.24,1,2.87,2.87,0,0,1-1.32.33,3,3,0,0,1-1.28-.25,2.27,2.27,0,0,1-.84-.68,2.78,2.78,0,0,1-.46-1,6.24,6.24,0,0,1-.14-1.42V357a.27.27,0,0,1,.05-.15.38.38,0,0,1,.17-.1,1.22,1.22,0,0,1,.32-.06,6.39,6.39,0,0,1,1,0,1.22,1.22,0,0,1,.32.06.38.38,0,0,1,.17.1.27.27,0,0,1,.05.15v4.18a4,4,0,0,0,.07.89,1.6,1.6,0,0,0,.23.53,1.07,1.07,0,0,0,.39.34,1.2,1.2,0,0,0,.55.12,1.36,1.36,0,0,0,.8-.29,4.86,4.86,0,0,0,.86-.85V357a.27.27,0,0,1,.05-.15.38.38,0,0,1,.17-.1,1.14,1.14,0,0,1,.32-.06,3.63,3.63,0,0,1,.5,0,3.71,3.71,0,0,1,.51,0,1.06,1.06,0,0,1,.31.06.38.38,0,0,1,.17.1.27.27,0,0,1,0,.15Z" transform="translate(-245.41 -268.4)"/><path class="cls-2" d="M301.91,357.65a3.48,3.48,0,0,1,0,.49,1.17,1.17,0,0,1-.05.3.35.35,0,0,1-.08.15.29.29,0,0,1-.14,0l-.15,0-.19-.06-.22-.07a1.27,1.27,0,0,0-.28,0,.93.93,0,0,0-.35.08,1.45,1.45,0,0,0-.36.22,3.57,3.57,0,0,0-.39.39c-.13.17-.28.38-.43.62v4.61a.25.25,0,0,1-.05.15.35.35,0,0,1-.17.1,1.73,1.73,0,0,1-.32.07l-.51,0-.51,0a1.73,1.73,0,0,1-.32-.07.35.35,0,0,1-.17-.1.25.25,0,0,1-.05-.15V357a.27.27,0,0,1,.05-.15.27.27,0,0,1,.14-.1,1.06,1.06,0,0,1,.28-.06,2.75,2.75,0,0,1,.43,0,2.82,2.82,0,0,1,.44,0,.77.77,0,0,1,.27.06.39.39,0,0,1,.14.1.37.37,0,0,1,0,.15v.92a5.36,5.36,0,0,1,.55-.68,2.64,2.64,0,0,1,.49-.43,1.38,1.38,0,0,1,.46-.22,1.89,1.89,0,0,1,.47-.06h.23l.26,0,.23.07.14.07a.23.23,0,0,1,.07.1,1,1,0,0,1,0,.13,1.65,1.65,0,0,1,0,.27C301.91,357.29,301.91,357.45,301.91,357.65Z" transform="translate(-245.41 -268.4)"/><path class="cls-2" d="M309.25,360.45a.77.77,0,0,1-.17.56.61.61,0,0,1-.47.18h-4.5a2.89,2.89,0,0,0,.11.86,1.61,1.61,0,0,0,.35.66,1.68,1.68,0,0,0,.64.41,2.74,2.74,0,0,0,.92.14,5.3,5.3,0,0,0,1-.08,6.46,6.46,0,0,0,.72-.17c.2-.07.37-.12.5-.18a1,1,0,0,1,.33-.08.21.21,0,0,1,.12,0,.19.19,0,0,1,.08.11.54.54,0,0,1,.05.21,3.33,3.33,0,0,1,0,.34v.31c0,.09,0,.16,0,.22a.6.6,0,0,1-.05.16.47.47,0,0,1-.09.12.92.92,0,0,1-.29.16,5.27,5.27,0,0,1-.62.19c-.24.06-.53.12-.85.17a8.2,8.2,0,0,1-1,.07,5.59,5.59,0,0,1-1.73-.25,3.06,3.06,0,0,1-1.24-.76,3.11,3.11,0,0,1-.74-1.28,5.74,5.74,0,0,1-.25-1.81,5.84,5.84,0,0,1,.26-1.78,3.73,3.73,0,0,1,.75-1.34,3.07,3.07,0,0,1,1.19-.84,3.94,3.94,0,0,1,1.58-.29,4.2,4.2,0,0,1,1.59.27,2.85,2.85,0,0,1,1.08.76,3,3,0,0,1,.62,1.15,4.73,4.73,0,0,1,.2,1.44Zm-2-.6a2.12,2.12,0,0,0-.36-1.38,1.35,1.35,0,0,0-1.16-.51,1.54,1.54,0,0,0-.7.15,1.49,1.49,0,0,0-.49.41,1.55,1.55,0,0,0-.29.59,2.94,2.94,0,0,0-.12.74Z" transform="translate(-245.41 -268.4)"/><path class="cls-2" d="M319.23,363.18a3.57,3.57,0,0,1,0,.37,1.57,1.57,0,0,1,0,.24.5.5,0,0,1-.05.16.53.53,0,0,1-.13.16,1.75,1.75,0,0,1-.34.23,3.13,3.13,0,0,1-.55.25,4,4,0,0,1-.66.17,3.67,3.67,0,0,1-.75.07,4,4,0,0,1-1.51-.27,2.83,2.83,0,0,1-1.11-.78,3.59,3.59,0,0,1-.68-1.27,6,6,0,0,1-.23-1.71,6.08,6.08,0,0,1,.28-1.92,3.73,3.73,0,0,1,.78-1.34,3.07,3.07,0,0,1,1.18-.79,4.2,4.2,0,0,1,1.49-.26,3.49,3.49,0,0,1,.65.06,3.27,3.27,0,0,1,.6.16,3.93,3.93,0,0,1,.5.22,1.69,1.69,0,0,1,.31.22l.13.15a1.62,1.62,0,0,1,.06.17q0,.09,0,.24c0,.1,0,.22,0,.35a1.85,1.85,0,0,1-.08.68c-.06.13-.13.19-.22.19a.51.51,0,0,1-.3-.11l-.37-.26a3,3,0,0,0-.51-.26,2.18,2.18,0,0,0-.72-.11,1.43,1.43,0,0,0-1.24.62,3.25,3.25,0,0,0-.43,1.84,4.83,4.83,0,0,0,.1,1.06,2.42,2.42,0,0,0,.32.76,1.26,1.26,0,0,0,.54.46,1.72,1.72,0,0,0,.74.16,2,2,0,0,0,.74-.13,2.72,2.72,0,0,0,.54-.29,4,4,0,0,0,.39-.29.51.51,0,0,1,.27-.12.16.16,0,0,1,.12,0s.06.08.08.15a1.55,1.55,0,0,1,0,.29C319.22,362.85,319.23,363,319.23,363.18Z" transform="translate(-245.41 -268.4)"/><path class="cls-2" d="M327.55,360.59a5.81,5.81,0,0,1-.25,1.72,3.73,3.73,0,0,1-.76,1.35,3.5,3.5,0,0,1-1.27.87,4.84,4.84,0,0,1-1.78.31,4.74,4.74,0,0,1-1.72-.28,3.11,3.11,0,0,1-1.21-.79,3.38,3.38,0,0,1-.72-1.29,6.16,6.16,0,0,1-.23-1.74,5.52,5.52,0,0,1,.25-1.73,3.71,3.71,0,0,1,.76-1.35,3.5,3.5,0,0,1,1.27-.87,4.84,4.84,0,0,1,1.78-.3,5,5,0,0,1,1.73.27,3,3,0,0,1,1.2.79,3.24,3.24,0,0,1,.71,1.29A5.78,5.78,0,0,1,327.55,360.59Zm-2.15.08a5.27,5.27,0,0,0-.09-1,2.38,2.38,0,0,0-.3-.8,1.4,1.4,0,0,0-.55-.53,2.05,2.05,0,0,0-1.68,0,1.44,1.44,0,0,0-.57.5,2.39,2.39,0,0,0-.34.79,4.61,4.61,0,0,0-.11,1,5.2,5.2,0,0,0,.09,1,2.3,2.3,0,0,0,.3.8,1.34,1.34,0,0,0,.55.53,1.74,1.74,0,0,0,.86.19,1.87,1.87,0,0,0,.82-.17,1.4,1.4,0,0,0,.58-.5,2.14,2.14,0,0,0,.33-.78A4.77,4.77,0,0,0,325.4,360.67Z" transform="translate(-245.41 -268.4)"/><path class="cls-2" d="M335.63,364.36a.28.28,0,0,1-.05.16.27.27,0,0,1-.14.1.77.77,0,0,1-.27.06l-.42,0-.43,0a.9.9,0,0,1-.27-.06.36.36,0,0,1-.15-.1.27.27,0,0,1,0-.16v-.82a5,5,0,0,1-1.2,1,3.15,3.15,0,0,1-2.83,0,2.79,2.79,0,0,1-.95-.89,3.73,3.73,0,0,1-.53-1.29,6.69,6.69,0,0,1-.17-1.57,7,7,0,0,1,.21-1.78,4,4,0,0,1,.62-1.34,2.78,2.78,0,0,1,1-.86,3.27,3.27,0,0,1,1.4-.29,2.43,2.43,0,0,1,1.12.25,4.13,4.13,0,0,1,1,.74v-4a.3.3,0,0,1,.05-.15.34.34,0,0,1,.16-.11,1.73,1.73,0,0,1,.32-.07,3.71,3.71,0,0,1,.51,0,3.63,3.63,0,0,1,.5,0,1.56,1.56,0,0,1,.32.07.45.45,0,0,1,.17.11.3.3,0,0,1,.05.15Zm-2.08-4.94a4.72,4.72,0,0,0-.86-.87,1.43,1.43,0,0,0-.86-.3,1.18,1.18,0,0,0-.7.21,1.38,1.38,0,0,0-.47.54,3,3,0,0,0-.27.76,4.12,4.12,0,0,0-.09.86,5.29,5.29,0,0,0,.08.9,2.93,2.93,0,0,0,.24.79,1.56,1.56,0,0,0,.46.55,1.13,1.13,0,0,0,.71.21,1.52,1.52,0,0,0,.42-.06,1.45,1.45,0,0,0,.41-.21,2.06,2.06,0,0,0,.44-.37,6.1,6.1,0,0,0,.49-.56Z" transform="translate(-245.41 -268.4)"/><path class="cls-2" d="M344,360.45a.81.81,0,0,1-.17.56.61.61,0,0,1-.47.18h-4.51a2.88,2.88,0,0,0,.12.86,1.61,1.61,0,0,0,.35.66,1.72,1.72,0,0,0,.63.41,2.84,2.84,0,0,0,.93.14,5.39,5.39,0,0,0,1-.08,6.46,6.46,0,0,0,.72-.17c.2-.07.37-.12.5-.18a1,1,0,0,1,.33-.08.21.21,0,0,1,.12,0,.24.24,0,0,1,.08.11.54.54,0,0,1,.05.21,3.33,3.33,0,0,1,0,.34,2.82,2.82,0,0,1,0,.31,1.27,1.27,0,0,1,0,.22.6.6,0,0,1,0,.16.47.47,0,0,1-.09.12.92.92,0,0,1-.29.16,5.27,5.27,0,0,1-.62.19c-.25.06-.53.12-.85.17a8.34,8.34,0,0,1-1,.07,5.59,5.59,0,0,1-1.73-.25,3.06,3.06,0,0,1-1.24-.76,3.13,3.13,0,0,1-.75-1.28,6.06,6.06,0,0,1-.24-1.81A5.84,5.84,0,0,1,337,359a3.87,3.87,0,0,1,.74-1.34,3.23,3.23,0,0,1,1.19-.84,4,4,0,0,1,1.59-.29,4.2,4.2,0,0,1,1.59.27,2.85,2.85,0,0,1,1.08.76,3,3,0,0,1,.62,1.15,5.06,5.06,0,0,1,.2,1.44Zm-2-.6a2.18,2.18,0,0,0-.36-1.38,1.35,1.35,0,0,0-1.16-.51,1.54,1.54,0,0,0-.7.15,1.49,1.49,0,0,0-.49.41,1.73,1.73,0,0,0-.3.59,3.47,3.47,0,0,0-.12.74Z" transform="translate(-245.41 -268.4)"/></svg>