<?xml version="1.0" encoding="utf-8"?>
<!-- Generator: Adobe Illustrator 24.2.3, SVG Export Plug-In . SVG Version: 6.00 Build 0)  -->
<svg version="1.1" id="Layer_1" xmlns="http://www.w3.org/2000/svg" xmlns:xlink="http://www.w3.org/1999/xlink" x="0px" y="0px"
	 viewBox="0 0 1611.3 1373.1" style="enable-background:new 0 0 1611.3 1373.1;" xml:space="preserve">
<style type="text/css">
	.st0{fill:url(#SVGID_1_);}
	.st1{fill:url(#SVGID_2_);}
	.st2{fill:url(#SVGID_3_);}
	.st3{fill:url(#SVGID_4_);}
	.st4{fill:none;stroke:url(#SVGID_5_);stroke-linecap:round;stroke-miterlimit:10;}
	.st5{fill:none;stroke:url(#SVGID_6_);stroke-linecap:round;stroke-miterlimit:10;}
	.st6{fill:none;stroke:url(#SVGID_7_);stroke-width:10;stroke-miterlimit:10;}
	.st7{fill:url(#SVGID_8_);stroke:url(#SVGID_9_);stroke-width:3;stroke-miterlimit:10;}
</style>
<g>
	<g>
		
			<linearGradient id="SVGID_1_" gradientUnits="userSpaceOnUse" x1="1262.5245" y1="-969.0938" x2="-807.4255" y2="1280.3167" gradientTransform="matrix(1 0 0 1 0 574)">
			<stop  offset="0" style="stop-color:#272C6B"/>
			<stop  offset="1" style="stop-color:#5475B9"/>
		</linearGradient>
		<path class="st0" d="M1483.4,13.2H181.9C88.6,13.2,13,88.8,13,182.1V1097c78.4,23.2,164,22.7,232.8-19.2
			c50-30.4,84.8-78.2,111.2-131.3V581c-87.8-31.1-141.7-119.5-129.2-211.8c12.9-96.1,95.2-170.1,194.7-170.1
			c61.7-0.1,119.8,28.9,156.9,78.2h843.4c2.1-2.5,4.2-5.1,6.2-7.8C1484,197.9,1502,101.4,1483.4,13.2z"/>
		
			<linearGradient id="SVGID_2_" gradientUnits="userSpaceOnUse" x1="13.0999" y1="-169.35" x2="900.6" y2="-169.35" gradientTransform="matrix(1 0 0 1 0 574)">
			<stop  offset="0" style="stop-color:#272C6B"/>
			<stop  offset="1" style="stop-color:#5475B9"/>
		</linearGradient>
		<path class="st1" d="M900.6,13.2c-15.4,36.2-38.3,68.8-68.9,94.5c-29,24.4-62.1,41.4-97.6,54c-28.9,10.3-59.4,17.8-90.5,24
			c-49.5,9.9-100.7,16.6-149.6,26.8c-22.8-8.9-47-13.4-71.4-13.4c-99.5,0-181.8,74-194.7,170.1c-3.2,23.8-2.1,48,3.4,71.5
			c-5,16.8-9.4,33.9-13.8,51.1c-12.7,50-24.8,100.6-47,146.2c-33.2,68.3-90,123-157.4,158.1v-614C13,88.8,88.6,13.2,181.9,13.2
			H900.6z"/>
		
			<linearGradient id="SVGID_3_" gradientUnits="userSpaceOnUse" x1="13" y1="-68.842" x2="342.3904" y2="-68.842" gradientTransform="matrix(1 0 0 1 0 574)">
			<stop  offset="0" style="stop-color:#272C6B"/>
			<stop  offset="1" style="stop-color:#5475B9"/>
		</linearGradient>
		<path class="st2" d="M307.7,856.7c-42.6,72.7-119.9,122-201.9,136c-30.4,5.1-61.5,5.9-92.1,2.3c-0.4,0-0.7-0.4-0.7-0.8v-927
			c0-29.9,24.2-54.1,54.1-54.1h192.6c0.3,0,0.6,0.2,0.7,0.4c7.6,16.3,12.3,33.7,14,51.6c0.8,8.6,1,17.3,0.5,25.9
			c-4.6,91.7-75.2,178.2-90.2,266.9c-3.9,23-4,46.1,1.7,69.6c5.8,23.7,17,44.6,30.8,64.2c29.6,42.2,71.3,78.4,96.9,123.9
			C355.1,688.5,350.3,784,307.7,856.7z"/>
		
			<linearGradient id="SVGID_4_" gradientUnits="userSpaceOnUse" x1="13" y1="-322.1" x2="1400.3" y2="-322.1" gradientTransform="matrix(1 0 0 1 0 574)">
			<stop  offset="2.000000e-02" style="stop-color:#0034E3;stop-opacity:0.6"/>
			<stop  offset="0.22" style="stop-color:#004DE7;stop-opacity:0.5"/>
			<stop  offset="0.61" style="stop-color:#008EF3;stop-opacity:0.26"/>
			<stop  offset="1" style="stop-color:#00D2FF;stop-opacity:0"/>
		</linearGradient>
		<path class="st3" d="M1400.3,13.2c-34,94-90.3,180-163.9,247.7c-6.1,5.6-12.4,11.1-18.8,16.5H754.5c-11.1-8.4-22-17.1-32.7-25.9
			l-3-2.4c-25.2-20.8-50.1-42.5-75.4-63.3C597.6,148.1,550.1,113,495.7,90c-69.9-29.6-156-34.2-220.7,1.2
			c-14.7,8-28.2,18.2-39.9,30.1c-60.3,61.4-73.3,151.1-102.3,229.3C111,409.5,80,461.8,13,490.6V67.8c0-30.2,24.5-54.6,54.6-54.6
			C67.6,13.2,1400.3,13.2,1400.3,13.2z"/>
		
			<linearGradient id="SVGID_5_" gradientUnits="userSpaceOnUse" x1="717.7607" y1="-428.7" x2="814.7" y2="-428.7" gradientTransform="matrix(1 0 0 1 0 574)">
			<stop  offset="0" style="stop-color:#00D2FF"/>
			<stop  offset="0.31" style="stop-color:#57E1FF"/>
			<stop  offset="0.64" style="stop-color:#B1F1FF"/>
			<stop  offset="0.88" style="stop-color:#E9FBFF"/>
			<stop  offset="1" style="stop-color:#FFFFFF"/>
		</linearGradient>
		<path class="st4" d="M718.3,277.4c-0.1-7.2,0-14.3,0.2-21.5c0.1-2.3,0.2-4.6,0.3-6.8c1.6-29.6,6.7-58.9,15.1-87.3
			c16.2-54.6,43.5-105.2,80.3-148.6"/>
		
			<linearGradient id="SVGID_6_" gradientUnits="userSpaceOnUse" x1="12.6" y1="-214.8713" x2="228.3" y2="-214.8713" gradientTransform="matrix(1 0 0 1 0 574)">
			<stop  offset="0" style="stop-color:#00D2FF"/>
			<stop  offset="0.31" style="stop-color:#57E1FF"/>
			<stop  offset="0.64" style="stop-color:#B1F1FF"/>
			<stop  offset="0.88" style="stop-color:#E9FBFF"/>
			<stop  offset="1" style="stop-color:#FFFFFF"/>
		</linearGradient>
		<path class="st5" d="M227.8,369.3c-14.1-4.5-28.4-8.2-42.9-11.2c-17.2-3.5-34.5-6-52-7.5c-40-3.4-80.3-1.5-119.8,5.5"/>
		
			<linearGradient id="SVGID_7_" gradientUnits="userSpaceOnUse" x1="223.5" y1="-177.8" x2="626.5" y2="-177.8" gradientTransform="matrix(1 0 0 1 0 574)">
			<stop  offset="0" style="stop-color:#272C6B"/>
			<stop  offset="1" style="stop-color:#5475B9"/>
		</linearGradient>
		<circle class="st6" cx="425" cy="396.2" r="196.5"/>
	</g>
	
		<linearGradient id="SVGID_8_" gradientUnits="userSpaceOnUse" x1="286.5" y1="-749.35" x2="554.9" y2="-749.35" gradientTransform="matrix(1 0 0 1 0 1148)">
		<stop  offset="0" style="stop-color:#272D6C"/>
		<stop  offset="0.28" style="stop-color:#313D7D"/>
		<stop  offset="0.83" style="stop-color:#4B67AA"/>
		<stop  offset="1" style="stop-color:#5475B9"/>
	</linearGradient>
	
		<linearGradient id="SVGID_9_" gradientUnits="userSpaceOnUse" x1="284.5346" y1="-749.35" x2="556.4" y2="-749.35" gradientTransform="matrix(1 0 0 1 0 1148)">
		<stop  offset="0" style="stop-color:#272D6C"/>
		<stop  offset="0.28" style="stop-color:#313D7D"/>
		<stop  offset="0.83" style="stop-color:#4B67AA"/>
		<stop  offset="1" style="stop-color:#5475B9"/>
	</linearGradient>
	<path class="st7" d="M554.9,505.6H372.4v-1.9c19.8,0,21.8-25.9,22-30.8l-81.6-0.1v21.3c0,0.5,0.3,5.3-2.9,8.2
		c-1.7,1.5-3.9,2.3-6.2,2.2l0,0c-2,0.1-4-0.5-5.6-1.8c-2.8-2.2-3.4-6-3.6-7.7l0,0v-0.9l0,0v-84.6v-9.8l-8-8.9l11.5-14.4v-43.6
		c0-0.1,1.2-6.9,11.2-7.7h10.5V304c0-6.8,6.6-12.3,14.8-12.3h171.9c8.2,0,14.8,5.5,14.8,12.3v21H535c0.1,0,11.6,2.1,9.8,12v122.3
		c0.1,0.7,0.7,6.8-3.1,10.7c-2,1.9-4.5,3-7.2,3.1l-90-0.1v3.6h110.4V505.6z M547.9,503.7h4.7v-25.2H430.1v25.2h4.7v-12.6h2.3v12.6
		h5.1v-12.6h2.3v12.6h4.3v-12.6h2.3v12.6h4.4v-12.6h2.3v12.6h4.5v-12.6h2.3v12.6h4.6v-12.6h2.3v12.6h4.7v-12.6h2.3v12.6h4.4v-12.6
		h2.3v12.6h4.4v-12.6h2.3v12.6h4.4v-12.6h2.3v12.6h4.8v-12.6h2.3v12.6h5.5v-12.6h2.3v12.6h3.7v-12.6h2.3v12.6h5v-12.6h2.3v12.6h4.7
		v-12.6h2.3v12.6h4.5v-12.6h2.3v12.6h5.2v-12.6h2.3L547.9,503.7z M381.5,503.7h46.3v-27.1h1.1l13.3-0.4V473h-45.5
		C396.5,477.3,395.1,497.4,381.5,503.7L381.5,503.7z M296.7,495.1c0.2,1.6,0.8,4.6,2.9,6.4c1.1,0.9,2.5,1.3,3.9,1.2l0,0
		c1.7,0.1,3.3-0.5,4.6-1.6c1.9-1.8,2.3-4.5,2.4-6H296.7z M296.7,493.2h13.8V419h-13.8V493.2z M312.7,470.9l221.6,0.2
		c2.1-0.1,4.1-0.9,5.6-2.4c3.4-3.4,2.6-9.3,2.6-9.4V454H312.7V470.9z M312.7,452.2h229.8V336.8c1.5-7.8-6.8-9.7-7.9-9.9h-13.5v8.1
		h12.8L533,444h-23.6v-0.3c-1,0.2-2.1,0.3-3.1,0.3H334.4c-8.2,0-14.8-5.5-14.8-12.3v-39.4l-6.9,7.5V452.2z M514.2,442.1h16.5
		l0.8-105.3h-10.4v94.8C521.2,436.1,518.4,440,514.2,442.1L514.2,442.1z M321.9,312.4v119.3c0,5.8,5.6,10.4,12.5,10.4h171.9
		c6.9,0,12.6-4.7,12.6-10.4V312.4H321.9z M296.7,416.2h13.8v-4.9h-13.8V416.2z M296.7,409.5h13.8v-10.4l7.8-8.5l-13.4-16.7v11.6
		c1.8,0.6,3,2.6,3,5.2c0,3.1-1.8,5.4-4.1,5.4s-4.1-2.3-4.1-5.4c0-2.5,1.2-4.6,3-5.2v-11.6l-13.4,16.8l7.5,8.4L296.7,409.5z
		 M303.8,387.2c-0.8,0-1.9,1.4-1.9,3.5s1.1,3.5,1.9,3.5s1.9-1.4,1.9-3.5S304.5,387.2,303.8,387.2L303.8,387.2z M310.4,377.3
		l9.2,11.5v-52h-9.2V377.3z M303.8,369.1l4.3,5.4v-39.6h11.5V327h-10.4c-7.7,0.6-8.9,5.4-9,6v40.6L303.8,369.1z M321.9,310.5h197
		V304c0-5.7-5.6-10.4-12.5-10.4h-172c-6.9,0-12.5,4.7-12.5,10.4L321.9,310.5L321.9,310.5z M421.3,468.2c-3.2,0-5.9-2.2-5.9-4.9
		s2.6-4.9,5.9-4.9s5.9,2.2,5.9,4.9S424.5,468.2,421.3,468.2L421.3,468.2z M421.3,460.4c-2,0-3.6,1.3-3.6,3s1.6,3,3.6,3
		s3.6-1.3,3.6-3S423.2,460.4,421.3,460.4L421.3,460.4z M511.5,427.8l-177.6-0.5v-1.9l177.5,0.5L511.5,427.8z M511.5,408.1
		l-177.6-0.5v-1.9l177.5,0.5L511.5,408.1z M415.5,398.3h-67.9c-8.2,0-14.8-5.5-14.8-12.3v-54.6c0-6.8,6.6-12.3,14.8-12.3h67.8
		c8.2,0,14.8,5.5,14.8,12.3V386C430.3,392.8,423.6,398.3,415.5,398.3L415.5,398.3z M347.7,320.9c-6.9,0-12.5,4.7-12.5,10.4v54.6
		c0,5.7,5.6,10.4,12.5,10.4h67.8c6.9,0,12.5-4.7,12.5-10.4v-54.6c0-5.7-5.6-10.4-12.5-10.4H347.7z M512.5,391h-75.6v-1.9h75.6V391z
		 M403.6,388.6h-12.2l-0.1-5.2l-4-1.7l-3.6,3.5l-9-7.6l4.3-3.5l-2.2-4h-5.6v-11.3h5.1l2.1-3.7l-3.5-3.6l8.1-7.3l4.2,3.3l4.1-1.5
		v-5.1h12.4v5.2l3.9,1.4l4.4-3.3l7.9,7.4l-3.5,3.6l1.7,3.9h6V370h-5.4l-2.3,3.9l3.8,4l-8.3,7.3l-4-3.1l-4,1.5L403.6,388.6z
		 M393.7,386.7h7.6l0.1-4.7l6.8-2.5l3.4,2.7l5.3-4.7l-3.5-3.7l3.6-6h4.5v-7.1h-5.3l-2.7-6.1l3.1-3.3l-5.1-4.8l-3.6,3l-6.7-2.3v-4.5
		h-7.8v4.4l-6.9,2.5l-3.6-2.8l-5.2,4.7l3.2,3.3l-3.3,5.9h-4.3v7.5h4.8l3.4,6.3l-3.8,3.2l5.7,4.8l3.2-3.1l6.8,2.9L393.7,386.7z
		 M511.5,380.2h-75.6v-1.9h75.6V380.2z M397.2,374.4c-6.6,0-12-4.5-12-10s5.4-10,12-10s12,4.5,12,10S403.8,374.4,397.2,374.4
		L397.2,374.4z M397.2,356.2c-5.3,0-9.7,3.6-9.7,8.1s4.3,8.2,9.6,8.2s9.7-3.6,9.7-8.1S402.5,356.2,397.2,356.2L397.2,356.2z
		 M512.5,370.6h-75.6v-1.9h75.6V370.6z M512.5,360.1h-75.6v-1.9h75.6V360.1z M360.2,356.2h-8l-0.1-3.2l-1.8-0.8l-2.2,2.1l-5.9-5
		l2.5-2.1l-1-1.9h-3.4v-7.4h3.1l1-1.7l-2.1-2.2l5.3-4.8l2.6,2l1.8-0.7v-3.1h8.1v3.1l1.7,0.6l2.7-2l5.2,4.9l-2.1,2.2l0.8,1.8h3.6v7.1
		h-3.3l-1.1,1.8l2.3,2.4l-5.4,4.8l-2.4-1.9l-1.8,0.6L360.2,356.2z M354.4,354.3h3.5v-2.6l4.5-1.6l1.9,1.5l2.5-2.2l-2-2.1l2.4-3.9
		h2.4v-3.3h-2.9l-1.8-4l1.7-1.8l-2.4-2.2l-2.1,1.5l-4.5-1.6v-2.5H354v2.4l-4.6,1.6l-2-1.5l-2.4,2.2l1.8,1.8l-2.1,3.9h-2.3v3.6h2.6
		l2.3,4.1l-2.1,1.8l2.6,2.2l1.8-1.7l4.5,2L354.4,354.3z M512.5,349.6h-75.6v-1.9h75.6V349.6z M356,347.9c-4.1,0-7.4-2.8-7.4-6.2
		s3.3-6.2,7.4-6.2s7.4,2.8,7.4,6.2S360.1,347.9,356,347.9L356,347.9z M356,337.4c-2.8,0-5.1,2-5.1,4.3s2.3,4.3,5.1,4.3
		s5.1-2,5.1-4.3S358.8,337.4,356,337.4L356,337.4z M511.5,339.1h-75.6v-1.9h75.6V339.1z M511.5,328.7h-75.6v-1.9h75.6V328.7z
		 M369.5,305.8c-2,0-3.7-1.4-3.7-3s1.6-3,3.7-3s3.7,1.4,3.7,3S371.5,305.8,369.5,305.8z M369.5,301.6c-0.6,0.1-1.1,0.7-0.9,1.4
		c0.1,0.6,0.7,1.1,1.4,0.9c0.6-0.1,1-0.6,1-1.2C370.8,302,370.2,301.5,369.5,301.6z M355.5,305.8c-2,0-3.7-1.4-3.7-3s1.6-3,3.7-3
		s3.7,1.4,3.7,3S357.5,305.8,355.5,305.8L355.5,305.8z M355.5,301.6c-0.6,0.1-1.1,0.7-0.9,1.4c0.1,0.6,0.7,1.1,1.4,0.9
		c0.6-0.1,1-0.6,1-1.2C356.8,302,356.1,301.5,355.5,301.6L355.5,301.6z M341.7,305.8c-2,0-3.7-1.4-3.7-3s1.6-3,3.7-3s3.7,1.4,3.7,3
		S343.7,305.8,341.7,305.8L341.7,305.8z M341.7,301.6c-0.6,0.1-1.1,0.7-0.9,1.4c0.1,0.6,0.7,1.1,1.4,0.9c0.6-0.1,1-0.6,1-1.2
		C343,302,342.4,301.5,341.7,301.6L341.7,301.6z"/>
</g>
</svg>
