<?xml version="1.0" encoding="utf-8"?>
<!-- Generator: Adobe Illustrator 24.2.3, SVG Export Plug-In . SVG Version: 6.00 Build 0)  -->
<svg version="1.1" id="Layer_1" xmlns="http://www.w3.org/2000/svg" xmlns:xlink="http://www.w3.org/1999/xlink" x="0px" y="0px"
	 viewBox="0 0 1611.3 1373.1" style="enable-background:new 0 0 1611.3 1373.1;" xml:space="preserve">
<style type="text/css">
	.st0{opacity:0.23;fill:url(#SVGID_1_);enable-background:new    ;}
	.st1{fill:url(#SVGID_2_);}
	.st2{fill:url(#SVGID_3_);}
	.st3{fill:url(#SVGID_4_);}
	.st4{fill:url(#SVGID_5_);}
	.st5{fill:none;stroke:url(#SVGID_6_);stroke-linecap:round;stroke-miterlimit:10;}
	.st6{fill:none;stroke:url(#SVGID_7_);stroke-linecap:round;stroke-miterlimit:10;}
	.st7{fill:none;stroke:url(#SVGID_8_);stroke-width:10;stroke-miterlimit:10;}
	.st8{fill:url(#SVGID_9_);stroke:url(#SVGID_10_);stroke-width:1.5;stroke-miterlimit:10;}
</style>
<g>
	
		<linearGradient id="SVGID_1_" gradientUnits="userSpaceOnUse" x1="13" y1="1255.0018" x2="1611.3424" y2="1255.0018" gradientTransform="matrix(1 0 0 -1 0 1948)">
		<stop  offset="0" style="stop-color:#0034E3"/>
		<stop  offset="0.13" style="stop-color:#0043E6;stop-opacity:0.9"/>
		<stop  offset="0.39" style="stop-color:#006AED;stop-opacity:0.66"/>
		<stop  offset="0.76" style="stop-color:#00A9F8;stop-opacity:0.26"/>
		<stop  offset="1" style="stop-color:#00D2FF;stop-opacity:0"/>
	</linearGradient>
	<path class="st0" d="M1610,13H182C88.7,13,13,88.5,13,181.8l0,0v1178.9c101,23.8,211.7,15.6,292.6-47.2
		c19.3-15.1,36.6-32.7,51.4-52.4V580.8C269.2,549.7,215.3,461.3,227.8,369c12.9-96,95.2-170,194.7-170
		c61.7-0.1,119.8,28.9,156.9,78.2h946.9c13.6-15.8,25.8-32.7,36.5-50.6C1601,162.8,1616.2,87,1610,13z"/>
	
		<linearGradient id="SVGID_2_" gradientUnits="userSpaceOnUse" x1="1262.5491" y1="2343.27" x2="-807.4014" y2="93.8605" gradientTransform="matrix(1 0 0 -1 0 1948)">
		<stop  offset="0" style="stop-color:#272C6B"/>
		<stop  offset="1" style="stop-color:#5475B9"/>
	</linearGradient>
	<path class="st1" d="M1483.4,13H181.9C88.6,13,13,88.6,13,181.9v914.9c78.4,23.2,164,22.7,232.8-19.2
		c50-30.4,84.8-78.2,111.2-131.3V580.8C269.2,549.7,215.3,461.3,227.8,369c12.9-96,95.2-170,194.7-170
		c61.7-0.1,119.8,28.9,156.9,78.2h843.4c2.1-2.5,4.2-5.1,6.2-7.8C1484,197.7,1502,101.2,1483.4,13z"/>
	
		<linearGradient id="SVGID_3_" gradientUnits="userSpaceOnUse" x1="13.0999" y1="1543.55" x2="900.6" y2="1543.55" gradientTransform="matrix(1 0 0 -1 0 1948)">
		<stop  offset="0" style="stop-color:#272C6B"/>
		<stop  offset="1" style="stop-color:#5475B9"/>
	</linearGradient>
	<path class="st2" d="M900.6,13c-15.4,36.2-38.3,68.8-68.9,94.5c-29,24.4-62.1,41.4-97.6,54c-28.9,10.3-59.4,17.8-90.5,24
		c-49.5,9.9-100.7,16.6-149.6,26.8c-22.8-8.9-47-13.4-71.4-13.4c-99.5,0-181.8,74-194.7,170.1c-3.2,23.8-2.1,48,3.4,71.5
		c-5,16.8-9.4,33.9-13.8,51.1c-12.7,50-24.8,100.6-47,146.2c-33.2,68.3-90,123-157.4,158.1v-614C13,88.6,88.6,13,181.9,13H900.6z"/>
	
		<linearGradient id="SVGID_4_" gradientUnits="userSpaceOnUse" x1="13" y1="1442.9874" x2="342.3904" y2="1442.9874" gradientTransform="matrix(1 0 0 -1 0 1948)">
		<stop  offset="0" style="stop-color:#272C6B"/>
		<stop  offset="1" style="stop-color:#5475B9"/>
	</linearGradient>
	<path class="st3" d="M307.7,856.5c-42.6,72.7-119.9,122-201.9,136c-29.1,4.9-58.7,5.8-88,2.8c-2.7-0.3-4.8-2.6-4.8-5.3V66.2
		C13,36.8,36.8,13,66.2,13h190.5c2.1,0,4.1,1.3,4.9,3.3c6.8,15.5,11.1,32,12.8,48.8c0.8,8.6,1,17.3,0.5,25.9
		c-4.6,91.7-75.2,178.2-90.2,266.9c-3.9,23-4,46.1,1.7,69.6c5.8,23.7,17,44.6,30.8,64.2c29.6,42.2,71.3,78.4,96.9,123.9
		C355.1,688.3,350.3,783.8,307.7,856.5z"/>
	
		<linearGradient id="SVGID_5_" gradientUnits="userSpaceOnUse" x1="13" y1="1696.3" x2="1400.3" y2="1696.3" gradientTransform="matrix(1 0 0 -1 0 1948)">
		<stop  offset="2.000000e-02" style="stop-color:#0034E3;stop-opacity:0.6"/>
		<stop  offset="0.22" style="stop-color:#004DE7;stop-opacity:0.5"/>
		<stop  offset="0.61" style="stop-color:#008EF3;stop-opacity:0.26"/>
		<stop  offset="1" style="stop-color:#00D2FF;stop-opacity:0"/>
	</linearGradient>
	<path class="st4" d="M1400.3,13c-34,94-90.3,180-163.9,247.7c-6.1,5.6-12.4,11.1-18.8,16.5H754.5c-11.1-8.4-22-17.1-32.7-25.9
		l-3-2.4c-25.2-20.8-50.1-42.5-75.4-63.3c-45.8-37.7-93.4-72.7-147.7-95.8C425.8,60.2,339.7,55.6,275,91
		c-14.7,8-28.2,18.2-39.9,30.1c-60.3,61.4-73.3,151.1-102.3,229.3C111,409.3,80,461.6,13,490.4V67c0-29.8,24.2-54,54-54H1400.3z"/>
	
		<linearGradient id="SVGID_6_" gradientUnits="userSpaceOnUse" x1="717.7607" y1="1802.9" x2="814.8" y2="1802.9" gradientTransform="matrix(1 0 0 -1 0 1948)">
		<stop  offset="0" style="stop-color:#00D2FF"/>
		<stop  offset="0.31" style="stop-color:#57E1FF"/>
		<stop  offset="0.64" style="stop-color:#B1F1FF"/>
		<stop  offset="0.88" style="stop-color:#E9FBFF"/>
		<stop  offset="1" style="stop-color:#FFFFFF"/>
	</linearGradient>
	<path class="st5" d="M718.3,277.2c-0.1-7.2,0-14.3,0.2-21.5c0.1-2.3,0.2-4.6,0.3-6.8c1.6-29.6,6.7-58.9,15.1-87.3
		C750.1,107,777.5,56.4,814.3,13"/>
	
		<linearGradient id="SVGID_7_" gradientUnits="userSpaceOnUse" x1="12.6" y1="1589.0713" x2="228.3" y2="1589.0713" gradientTransform="matrix(1 0 0 -1 0 1948)">
		<stop  offset="0" style="stop-color:#00D2FF"/>
		<stop  offset="0.31" style="stop-color:#57E1FF"/>
		<stop  offset="0.64" style="stop-color:#B1F1FF"/>
		<stop  offset="0.88" style="stop-color:#E9FBFF"/>
		<stop  offset="1" style="stop-color:#FFFFFF"/>
	</linearGradient>
	<path class="st6" d="M227.8,369.1c-14.1-4.5-28.4-8.2-42.9-11.2c-17.2-3.5-34.5-6-52-7.5c-40-3.4-80.3-1.5-119.8,5.5"/>
	
		<linearGradient id="SVGID_8_" gradientUnits="userSpaceOnUse" x1="223.5" y1="1552" x2="626.5" y2="1552" gradientTransform="matrix(1 0 0 -1 0 1948)">
		<stop  offset="0" style="stop-color:#272C6B"/>
		<stop  offset="1" style="stop-color:#5475B9"/>
	</linearGradient>
	<circle class="st7" cx="425" cy="396" r="196.5"/>
	
		<linearGradient id="SVGID_9_" gradientUnits="userSpaceOnUse" x1="305.9" y1="-177.0075" x2="525.0129" y2="-177.0075" gradientTransform="matrix(1 0 0 1 0 574)">
		<stop  offset="0" style="stop-color:#272D6C"/>
		<stop  offset="0.28" style="stop-color:#313D7D"/>
		<stop  offset="0.83" style="stop-color:#4B67AA"/>
		<stop  offset="1" style="stop-color:#5475B9"/>
	</linearGradient>
	
		<linearGradient id="SVGID_10_" gradientUnits="userSpaceOnUse" x1="305.15" y1="-177.0075" x2="525.7629" y2="-177.0075" gradientTransform="matrix(1 0 0 1 0 574)">
		<stop  offset="0" style="stop-color:#272D6C"/>
		<stop  offset="0.28" style="stop-color:#313D7D"/>
		<stop  offset="0.83" style="stop-color:#4B67AA"/>
		<stop  offset="1" style="stop-color:#5475B9"/>
	</linearGradient>
	<path class="st8" d="M346.4,505.5h-40.5V288.6h40.5V505.5z M307.7,503.8h37v-23.5h-14v-1.8h14V468h-14v-1.8h14v-34.9h-14v-1.8h14
		v-34h-14v-1.8h14v-10.5h-14v-1.8h14v-10.5h-14v-1.8h14v-10.5h-14v-1.8h14v-10.5h-14v-1.8h14V334h-14v-1.8h14v-10.5h-14v-1.8h14V310
		h-14v-1.8h14v-17.9h-37V503.8z M505,503.8L485.5,463l-0.5,0.3v-150c-0.1-0.9-1.1-11.4,5.1-18.5c3.4-4,8.4-6.1,14.8-6.3
		c6.2-0.2,11.1,1.6,14.6,5.4c6.5,7,5.5,18.4,5.4,19.4v150l-0.2-0.1L505,503.8z M495.7,480.2l9.3,19.6l9.5-19.6H495.7z M494.9,478.5
		h20.5l7.9-16.2l-8.7-5.4l-9.6,6.9l-9.9-6.9L487,462L494.9,478.5z M496,455.3l9,6.2l8.7-6.2l0.5-120.6h-18.6L496,455.3z
		 M515.4,455.3l7.8,4.9V334.7h-7.3L515.4,455.3z M486.8,334.7v125.4l7.5-4.8l-0.4-120.6H486.8z M486.8,333h36.4v-18.8h-36.4
		L486.8,333z M486.7,312.5h36.5c0.1-2.7,0.2-11.7-5-17.3c-3.1-3.4-7.5-5-13.2-4.8c-5.9,0.2-10.5,2.1-13.6,5.6
		C486.6,301.6,486.6,309.9,486.7,312.5L486.7,312.5z M459.6,502.7h-86.9c-6.3,0-11.4-5.1-11.4-11.4V300c0-6.3,5.1-11.4,11.4-11.4
		h86.9c6.3,0,11.4,5.1,11.4,11.4v191.3C471,497.6,465.9,502.7,459.6,502.7z M372.7,290.4c-5.3,0-9.6,4.3-9.6,9.6v191.3
		c0,5.3,4.3,9.6,9.6,9.6h86.9c5.3,0,9.6-4.3,9.6-9.6V300c0-5.3-4.3-9.6-9.6-9.6H372.7z M415.9,498.7c-4.8,0-8.6-3.9-8.6-8.6
		c0-4.8,3.9-8.6,8.6-8.6c4.8,0,8.6,3.8,8.6,8.6C424.5,494.8,420.7,498.7,415.9,498.7L415.9,498.7z M415.9,483.2
		c-3.8,0-6.9,3.1-6.9,6.9s3.1,6.9,6.9,6.9s6.9-3.1,6.9-6.9l0,0C422.7,486.2,419.7,483.2,415.9,483.2z M344.4,492.5h-14.9v-1.8h14.9
		V492.5z M464.1,473.9h-97.4V310.4h97.4V473.9z M459.8,472.2h2.5V312.1h-93.9v160.1h3.9v-24.7h87.4v24.7H459.8z M374.1,472.2H458
		v-23h-83.9V472.2z M344.4,456.7h-14.9v-1.8h14.9V456.7z M437.6,442.7h-45v-14.9h45V442.7z M394.4,440.9h41.5v-11.4h-41.5V440.9z
		 M344.4,442.7h-14.9v-1.8h14.9V442.7z M344.4,420h-14.9v-1.8h14.9V420z M459.9,410.3h-25.5v-25.4h25.4L459.9,410.3z M436.2,408.6
		h21.9v-21.9h-22L436.2,408.6z M428.9,410.3h-25.5v-25.4h25.4L428.9,410.3z M405.2,408.6h21.9v-21.9h-22L405.2,408.6z M397,410.3
		h-25.5v-25.4H397V410.3z M373.3,408.5h21.9v-21.9h-22L373.3,408.5z M344.4,407.8h-14.9V406h14.9V407.8z M459.7,376.2h-87.3v-60.5
		h87.3V376.2z M374.2,374.4H458v-57h-83.8V374.4z M429.8,305.9h-23.6c-1.9,0-3.4-1.5-3.4-3.4s1.5-3.4,3.4-3.4l0,0h23.5
		c1.9,0,3.4,1.5,3.4,3.4S431.6,305.9,429.8,305.9L429.8,305.9z M406.2,300.8c-0.9,0-1.7,0.7-1.7,1.7s0.7,1.7,1.7,1.7h23.5
		c0.9,0,1.7-0.7,1.7-1.7s-0.7-1.7-1.7-1.7l0,0H406.2z"/>
</g>
</svg>
