<svg id="Layer_1" data-name="Layer 1" xmlns="http://www.w3.org/2000/svg" viewBox="0 0 482.49 315.67"><defs><style>.cls-1,.cls-21,.cls-24{fill:none;stroke-miterlimit:10;}.cls-1{stroke:#f1f0f0;stroke-width:4.26px;}.cls-2{fill:#f1f0f0;}.cls-3{fill:#703529;}.cls-4{fill:#f9b385;}.cls-11,.cls-5{fill:#e38b6d;}.cls-19,.cls-5,.cls-7{opacity:0.6;}.cls-6{fill:#cee2ea;}.cls-7{fill:#af5141;}.cls-18,.cls-8{fill:#ed6f58;}.cls-8{opacity:0.3;}.cls-9{fill:#cfe3ea;}.cls-10,.cls-19{fill:#142148;}.cls-12,.cls-26{fill:#fff;}.cls-13{fill:#748bc6;}.cls-14{fill:#2a3371;}.cls-15{fill:#192f35;}.cls-16{fill:#1a3036;}.cls-17{fill:#243f87;}.cls-18,.cls-23{opacity:0.2;}.cls-20{fill:#d5def1;}.cls-21{stroke:#142148;stroke-width:6px;}.cls-22{fill:#8dc0bf;}.cls-23,.cls-25{fill:#f9c243;}.cls-24{stroke:#f9c243;stroke-width:8.53px;}.cls-26{opacity:0.8;}</style></defs><path class="cls-1" d="M178.4,435.35c-2.6,51.83,32,78.45,81.93,84.77,56,7.09,113.49-2.48,169.25-7.34,21-1.83,42.08-3.21,63.18-3.1,19.88.11,41.4,5.59,60.93,2.56,48.83-7.58,74-58,66.38-102-4.72-27.29-22.43-53.36-53.79-51.63-22,1.23-41.56,10.8-62.61,16a154,154,0,0,1-84.34-3.15c-13.58-4.45-26.52-10.75-39.73-16.28-26.31-11-54.14-18.9-82.47-19.34s-57.29,7-80.19,24.44C192.78,378.61,179.85,406.41,178.4,435.35Z" transform="translate(-160.19 -242.66)"/><path class="cls-2" d="M611,451c2.59,51.21-31.84,77.5-81.5,83.75-55.7,7-112.9-2.45-168.37-7.25-20.89-1.81-41.85-3.18-62.84-3.06-19.78.11-41.19,5.52-60.62,2.52-48.57-7.49-73.6-57.33-66-100.79,3.53-20.31,11.34-42.78,28.89-55.11s38.19-9.23,57.54-3.84c35.24,9.8,73.64,28.21,111,21,21.41-4.13,40.06-16.25,60.38-23.5s41.92-11.74,63.46-12.07c28.18-.44,57,6.92,79.78,24.13C596.71,394.93,609.58,422.4,611,451Z" transform="translate(-160.19 -242.66)"/><path class="cls-3" d="M575.37,493.93s-19.41,13.68-41.71,1.82l20.85-11.63Z" transform="translate(-160.19 -242.66)"/><path class="cls-3" d="M432.46,402.44s-18.89,35.42-13,45.88L441,436.38Z" transform="translate(-160.19 -242.66)"/><path class="cls-4" d="M424.33,438.4a66.07,66.07,0,0,1-6.83-5.92A99.49,99.49,0,0,1,405.63,418h0c-2.43-3.55-4.7-7.25-6.79-11a229.86,229.86,0,0,1-14.19-31c-3.52-9.36-5.57-16.3-6.11-17.89a1.77,1.77,0,0,0-.14-.33l10.22-29.33c4.94-7.91,7.7,17.75,7.7,17.75,1.36-.8,3-3.14,4-4.41,1.1-1.43,1.94.84,2.09,1.64.85,4.72-2.94,13.69-2.94,13.69l24.36,35.7a49.23,49.23,0,0,0,5,6.16,48.36,48.36,0,0,0,3.67,3.49C434.62,411.62,434.4,429.32,424.33,438.4Z" transform="translate(-160.19 -242.66)"/><path class="cls-5" d="M424.33,438.4a66.07,66.07,0,0,1-6.83-5.92c7.65-8.75,13.49-23.3,15-30,1.16,1.23-1.28-1.1,0,0C434.62,411.62,434.4,429.32,424.33,438.4Z" transform="translate(-160.19 -242.66)"/><path class="cls-6" d="M575.37,493.93c-13.31-2.59-23.8-2.43-32.65-.67a63.42,63.42,0,0,0-9.06,2.5l-2.68,9.6-5.29,19-3.43,12.33-3.13,11.2-1.75,6.32H423l14.94-97.37-18.43-8.5a39.65,39.65,0,0,0,3.28-6.08c5.6-12.6,8.6-31.71,9.69-39.8a48.36,48.36,0,0,0,18.25,9.86c8,2.29,17.73,4.28,26.8,4.06l.93,0c21-.82,30.32,5.55,30.32,5.55,4.74.94,17.11,5.69,27.91,10.44,4.76,2.09,9.21,4.18,12.58,5.93a35.62,35.62,0,0,1,18.09,23.09Z" transform="translate(-160.19 -242.66)"/><path class="cls-7" d="M542.72,493.26a63.42,63.42,0,0,0-9.06,2.5l5.69-20.39Z" transform="translate(-160.19 -242.66)"/><path class="cls-8" d="M405.63,418c-2.43-3.55-4.33-6.75-8.89-14.84C403.89,400.68,408.16,411.21,405.63,418Z" transform="translate(-160.19 -242.66)"/><path class="cls-9" d="M532,501.68l-6.32,22.66-3.43,12.33-84.7,6.46-9.63-16.85C489.86,525,515.77,516.18,532,501.68Z" transform="translate(-160.19 -242.66)"/><path class="cls-5" d="M384.65,376c-3.52-9.36-5.57-16.3-6.11-17.89l15.84-9.81C395,357.2,387.93,369.93,384.65,376Z" transform="translate(-160.19 -242.66)"/><path class="cls-9" d="M484.89,438.32a16.1,16.1,0,0,0,5.52,8.23,20.46,20.46,0,0,0,9.06,4,22.8,22.8,0,0,0,10-.43,21,21,0,0,0,4.7-1.84,25.36,25.36,0,0,0,4.26-2.82l.47.5a21.64,21.64,0,0,1-4.12,3.38,22.56,22.56,0,0,1-4.88,2.26,22,22,0,0,1-10.7.67,20.14,20.14,0,0,1-9.71-4.6,17.2,17.2,0,0,1-3.44-4.17,15,15,0,0,1-1.8-5Z" transform="translate(-160.19 -242.66)"/><path class="cls-4" d="M523.38,404.76l-2.62,20.53a15.07,15.07,0,0,1-30-1.88,14.87,14.87,0,0,1,.19-2.38l.47-3,1.86-11.7,10.43-.54Z" transform="translate(-160.19 -242.66)"/><path class="cls-10" d="M486.84,370.94a30.83,30.83,0,0,1,3.32-9.9,21.13,21.13,0,0,1,15.95-11.59c10.36-1.5,23.77,0,31.06,9.91,8.23,11.23,1.39,33.66-7.43,35.58S486.84,370.94,486.84,370.94Z" transform="translate(-160.19 -242.66)"/><path class="cls-11" d="M513.85,410c-3.52,3.34-11.64,11.15-22.92,11l2.33-14.71,10.43-.54Z" transform="translate(-160.19 -242.66)"/><path class="cls-4" d="M528.87,376.23l-1.57,8.18-.38,2-1.55,8-.89,4.61-1.1,5.69L518,408a23.54,23.54,0,0,1-4.17,2h0a39.42,39.42,0,0,1-19.73,2.25,8.51,8.51,0,0,1-1.74-.41c-4.15-1.42-6.28-5.78-7.21-11.22a59.76,59.76,0,0,1-.48-13,141.05,141.05,0,0,1,2.14-16.73c9.24-8.25,21.84-9.75,31.19-11.58Z" transform="translate(-160.19 -242.66)"/><path class="cls-10" d="M486.84,370.94c14.7-11.58,34.51.15,34.51.15s-3,18.23,2.83,16.73,11.8-13.7,11.8-13.7L522.57,354.8l-29.32,5.05Z" transform="translate(-160.19 -242.66)"/><path class="cls-4" d="M523.42,388.42c2.88-5.06,8.49-6.69,11.51-2.85s3.13,15.91-11.7,13.3Z" transform="translate(-160.19 -242.66)"/><path class="cls-11" d="M498.77,384.42c-1,2.58-2.43,4.88-3.4,7.29-.11.29-.25.63-.32.89a1.44,1.44,0,0,0-.08.69.88.88,0,0,0,.27.52,2.83,2.83,0,0,0,.67.4,15.94,15.94,0,0,0,3.81.66l0,.51a10,10,0,0,1-4.21-.08,3.22,3.22,0,0,1-1.1-.57,2.1,2.1,0,0,1-.72-1.2,2.67,2.67,0,0,1,.09-1.3,6.63,6.63,0,0,1,.36-1,44.07,44.07,0,0,1,4.15-7Z" transform="translate(-160.19 -242.66)"/><path class="cls-10" d="M508.63,385c-.36,1.22-1.35,2-2.22,1.74s-1.27-1.45-.91-2.66,1.35-2,2.22-1.74S509,383.75,508.63,385Z" transform="translate(-160.19 -242.66)"/><ellipse class="cls-10" cx="491.44" cy="383.76" rx="2.3" ry="1.63" transform="translate(-176.15 503.49) rotate(-73.52)"/><path class="cls-10" d="M503.13,380.27a8,8,0,0,1,2.61-1.68,6.36,6.36,0,0,1,6.19.76,8.2,8.2,0,0,1,2.12,2.28l-.39.34a18.47,18.47,0,0,0-2.35-1.64,7,7,0,0,0-2.54-.87,6.94,6.94,0,0,0-2.67.2,15.12,15.12,0,0,0-2.67,1Z" transform="translate(-160.19 -242.66)"/><path class="cls-10" d="M495.39,380.34a3.56,3.56,0,0,0-3.09-1.68,4.42,4.42,0,0,0-1.77.39,9.21,9.21,0,0,0-1.71,1l-.4-.32A4.39,4.39,0,0,1,490,378a4.31,4.31,0,0,1,2.34-.69,3.9,3.9,0,0,1,2.34.79,3.11,3.11,0,0,1,1.23,2.05Z" transform="translate(-160.19 -242.66)"/><path class="cls-12" d="M493.17,399.18l9.56.2s-5.3,7.19-9.19.5Z" transform="translate(-160.19 -242.66)"/><path class="cls-11" d="M525.71,392.27a7.21,7.21,0,0,1,.45-2.45,5.47,5.47,0,0,1,1.44-2.19,3.73,3.73,0,0,1,2.59-.95,3.87,3.87,0,0,1,2.4,1l-.26.45a5.24,5.24,0,0,0-2.12-.3,3.2,3.2,0,0,0-1.74.79,5.9,5.9,0,0,0-1.29,1.67,22.17,22.17,0,0,0-1,2.08Z" transform="translate(-160.19 -242.66)"/><circle class="cls-8" cx="353.61" cy="152.47" r="6.73"/><path class="cls-8" d="M489.9,394.23a6.75,6.75,0,0,1-4.73,6.43,59.76,59.76,0,0,1-.48-13A6.73,6.73,0,0,1,489.9,394.23Z" transform="translate(-160.19 -242.66)"/><path class="cls-10" d="M354.41,366.21s19.18,9.38,15.62,25l-12.68,3.55Z" transform="translate(-160.19 -242.66)"/><path class="cls-4" d="M354.41,366.21c2.06-2,12.61-13.68,12.25-28.25-.28-11,4.61-6.06,5.25,1.56,0,0,2.69-15.59,10.12-14l-2.19,3s2.82-5.28,5.09-3.87.22,5.93.22,5.93,1.06-3.92,3-4.22,3.73,5.84-.62,21.86c0,0,4.72-4.68,6.58-5.47s1.74,11.46-11.49,24.5S360,390.36,360,390.36Z" transform="translate(-160.19 -242.66)"/><path class="cls-13" d="M277.16,430.09c.47.72,77.25-63.88,77.25-63.88l15.62,25-78.37,92.3Z" transform="translate(-160.19 -242.66)"/><path class="cls-11" d="M382.16,325.61c-.91,1.41-1.76,2.88-2.54,4.37s-1.49,3-2.1,4.58a38.06,38.06,0,0,0-1.58,4.77l-.32,1.22-.24,1.24c-.21.82-.25,1.66-.41,2.49l-.34,0a24.46,24.46,0,0,1,.56-5.11,31.36,31.36,0,0,1,1.53-4.91,37.89,37.89,0,0,1,2.25-4.62,31.1,31.1,0,0,1,2.92-4.22Z" transform="translate(-160.19 -242.66)"/><path class="cls-11" d="M385.31,330.6c-.25,1.4-.55,2.78-.86,4.16s-.65,2.75-1,4.12l-1,4.11c-.37,1.36-.74,2.72-1.15,4.08L381,347c.18-1.41.45-2.8.73-4.19s.61-2.76.95-4.14.69-2.74,1.09-4.1.79-2.71,1.25-4.05Z" transform="translate(-160.19 -242.66)"/><path class="cls-11" d="M390,327a57.64,57.64,0,0,1-.43,14.43c-.19,1.19-.4,2.38-.68,3.56-.14.59-.29,1.17-.46,1.76l-.12.43,0,.21a.13.13,0,0,0,0-.1.14.14,0,0,0-.2,0l.31-.28c.9-.79,1.81-1.58,2.73-2.36l1.39-1.15.75-.58a1.12,1.12,0,0,1,1.37.12,1.16,1.16,0,0,1,.32.62l.09.47c0,.31.09.62.09.93a7.39,7.39,0,0,1,0,.94,7.26,7.26,0,0,1-.06.93,17,17,0,0,1-.77,3.6,30.45,30.45,0,0,1-3.12,6.57,57.18,57.18,0,0,1-4.28,5.84c-.77.93-1.6,1.8-2.4,2.7l-2.52,2.59-.24-.24,2.41-2.66c.76-.93,1.54-1.83,2.28-2.77a55,55,0,0,0,4.1-5.86,31.16,31.16,0,0,0,3-6.42,16.35,16.35,0,0,0,.71-3.43,6.35,6.35,0,0,0,0-.87,8.17,8.17,0,0,0,0-.86,8.33,8.33,0,0,0-.08-.86l-.08-.41c0-.14,0-.12-.08-.17a.24.24,0,0,0-.29,0l-.68.52-1.39,1.13c-.92.77-1.82,1.55-2.73,2.33l-.37.32a.69.69,0,0,1-1-.19.74.74,0,0,1-.08-.54l.07-.23.12-.43c.17-.57.32-1.14.45-1.72.29-1.16.52-2.32.74-3.5a65,65,0,0,0,.8-7.11,51.85,51.85,0,0,0,0-7.16Z" transform="translate(-160.19 -242.66)"/><path class="cls-14" d="M246.16,486.19s-26.53-10.46-37.37,9.56c-13.62,25.17,6.85,54.75,6.85,54.75h36Z" transform="translate(-160.19 -242.66)"/><path class="cls-14" d="M220.19,494.44a13.69,13.69,0,0,0-1.77,2.32,18.2,18.2,0,0,0-1.35,2.59,29.7,29.7,0,0,0-1.78,5.58,45.35,45.35,0,0,0-.91,11.68,56.36,56.36,0,0,0,1.81,11.61,67.09,67.09,0,0,0,4,11.08l-.31.15c-.45-.88-.92-1.76-1.32-2.66-.21-.45-.43-.9-.62-1.36l-.58-1.37c-.73-1.85-1.39-3.73-1.94-5.64a51.51,51.51,0,0,1-1.94-11.77,42.12,42.12,0,0,1,1.06-11.89,29.08,29.08,0,0,1,2-5.65A19.7,19.7,0,0,1,218,496.5a13.36,13.36,0,0,1,1.94-2.3Z" transform="translate(-160.19 -242.66)"/><path class="cls-15" d="M314.59,398.39c8.7,5.31,14.71,2.16,16.47-3.57s8.18-27.32-18.67-23.84c0,0-32.9-13.27-46.82,6.3-12.28,17.27-1,29.2-19.78,43.52-13.08,10-27.92,27.52,1.51,57.51l31.91-8.79Z" transform="translate(-160.19 -242.66)"/><path class="cls-15" d="M304.68,423.42c.65,3,7.69,10.91,10.5,13.86,8.52,8.92,10.4,25.65-13.88,30.76l-13.66-31.82Z" transform="translate(-160.19 -242.66)"/><polygon class="cls-4" points="145.7 184.74 142.83 197.96 138.37 218.53 113.46 213.27 119.32 172.93 144.72 184.3 145.7 184.74"/><path class="cls-11" d="M321.21,401.27s7.19,8.05,6.93,10.11-6.93,5.72-6.93,5.72Z" transform="translate(-160.19 -242.66)"/><path class="cls-11" d="M305.89,427.4,303,440.62c-7.66-4.07-13.25-14.16-13.25-14.16l15.13.5Z" transform="translate(-160.19 -242.66)"/><path class="cls-4" d="M322.89,419.6c-1,7.66-3.55,13.55-9,14.08-15.06,1.45-36.73-15.41-36.73-15.41l1.17-30.89,16.38-10.1,26.5,4.92c.31,3.49,1.94,14.15,2.2,24.88A82.09,82.09,0,0,1,322.89,419.6Z" transform="translate(-160.19 -242.66)"/><path class="cls-16" d="M325.37,387.38l-3.27,2.52c-17-13.29-13.5,5.85-15.08,12s-9.65,4.51-15.95.55L289.94,411l-18.92.6-1.1-24,18.87-14.76,34.95,6.82Z" transform="translate(-160.19 -242.66)"/><path class="cls-16" d="M300.92,476.46c9.29-5,6.66-18,3-22.46s-19-11.94-20.87-26c-1-7.81,6.85-17,6.85-17l-16-8.58-16.39,25.78,12.37,44.27Z" transform="translate(-160.19 -242.66)"/><path class="cls-13" d="M312.5,547.91l-78,.06c-3.41-50,9-75.53,19.81-88.08a31,31,0,0,1,27.36-10.54c9,1.1,16.78,5.37,24.69,24l-36.95,17.18,23.72,41.76a27.38,27.38,0,0,0,10,10.13Z" transform="translate(-160.19 -242.66)"/><path class="cls-17" d="M269.37,490.51S281,537,285.29,543.11c4.48,6.37,14.1,4.77,30.87,4.8h0L295,500.72l-25.61-10.21" transform="translate(-160.19 -242.66)"/><path class="cls-13" d="M364.12,535.28l-3.35,12.35-44.61.28H312.5l-9.41-5.51a27.38,27.38,0,0,1-10-10.13l-23.72-41.76,36.95-17.18c4,9.32,8,22.25,12.13,40.17a7.87,7.87,0,0,0,4.51,5.42Z" transform="translate(-160.19 -242.66)"/><path class="cls-4" d="M295,405.84c-1.35-7.45-10.18-8.43-11.71-3.4s-1.16,13.66,9.92,13.15Z" transform="translate(-160.19 -242.66)"/><path class="cls-11" d="M291.43,406.42l-1.38-1.58a6.82,6.82,0,0,0-1.43-1.25,1.29,1.29,0,0,0-1.37-.11,5.81,5.81,0,0,0-1.4,1.28l-.46-.23a3.59,3.59,0,0,1,1.24-2,2.12,2.12,0,0,1,1.34-.45,2.81,2.81,0,0,1,1.32.4,5.41,5.41,0,0,1,1.65,1.69,7.89,7.89,0,0,1,.94,2Z" transform="translate(-160.19 -242.66)"/><path class="cls-18" d="M322.5,422.05c-.37.08-7.45-1.95-7.45-8.62a6.76,6.76,0,0,1,6.67-6.59,5.85,5.85,0,0,1,1.69.24C323.52,411.4,323.43,417.87,322.5,422.05Z" transform="translate(-160.19 -242.66)"/><polygon class="cls-17" points="290.97 305.73 198.13 305.73 215.67 230.19 308.51 230.19 290.97 305.73"/><path class="cls-19" d="M451.16,548.39l17.54-75.54c-26.54,61.41-66,68.21-110.38,75.54" transform="translate(-160.19 -242.66)"/><ellipse class="cls-12" cx="413.51" cy="510.62" rx="6.62" ry="5.57" transform="translate(-377.48 451.83) rotate(-67.25)"/><path class="cls-4" d="M566.23,492.52,566,500.2l-1.26,34.41v0a17.51,17.51,0,0,1-6.87,13.22H519.13l-80.79.27c-1.44,0-2.92-3.35-.78-5,4.71-3.69,12.1-7.75,17.24-11a14.38,14.38,0,0,1,9.56-2.16c5.56.71,13.58,3.53,23.55.58a39.67,39.67,0,0,1,5.27-1.17l32.51-5,12.8-2,.36-21.68.12-6.56c1.22-.33,2.47-.61,3.75-.87A76.42,76.42,0,0,1,566.23,492.52Z" transform="translate(-160.19 -242.66)"/><path class="cls-5" d="M566.23,492.52,566,500.2c-4.72-1.66-23-6.85-27-6.07h0c1.22-.33,2.47-.61,3.75-.87A76.42,76.42,0,0,1,566.23,492.52Z" transform="translate(-160.19 -242.66)"/><path class="cls-8" d="M564.69,534.61v0a17.51,17.51,0,0,1-6.87,13.22H546.07C548.12,536.57,556.69,533.05,564.69,534.61Z" transform="translate(-160.19 -242.66)"/><path class="cls-11" d="M533.58,522.87a16.83,16.83,0,0,1,4.31-1.2,17.46,17.46,0,0,1,4.51-.06,17.71,17.71,0,0,1,4.38,1,14.55,14.55,0,0,1,4,2.14l-.28.43a27.34,27.34,0,0,0-4-1.47,25.89,25.89,0,0,0-4.17-.84,23.21,23.21,0,0,0-4.25-.12,31.31,31.31,0,0,0-4.26.57Z" transform="translate(-160.19 -242.66)"/><rect class="cls-20" x="0.75" y="305.28" width="468.86" height="10.39"/><line class="cls-21" x1="0.75" y1="305.3" x2="469.61" y2="305.3"/><path class="cls-6" d="M231.1,364.84a35.72,35.72,0,1,0-15.45,36.36L228,406.59l-6-10.82A35.68,35.68,0,0,0,231.1,364.84Z" transform="translate(-160.19 -242.66)"/><path class="cls-12" d="M182.57,383.83V373l-.64.32a4.69,4.69,0,0,1-2.09.49,4.76,4.76,0,1,1,2.1-9l.63.31V354.16H192a5.51,5.51,0,0,0-.22,1.57,5.64,5.64,0,0,0,11.28,0,5.52,5.52,0,0,0-.23-1.57h9.43v9.51a5.5,5.5,0,0,0-1.86-.31,5.64,5.64,0,1,0,1.86,11v9.51Z" transform="translate(-160.19 -242.66)"/><path class="cls-22" d="M211.81,354.6v8.48a6.08,6.08,0,1,0-1.42,12,6.18,6.18,0,0,0,1.42-.16v8.48H183V372.25l-1.27.63a4.27,4.27,0,0,1-1.9.44,4.32,4.32,0,1,1,0-8.64,4.27,4.27,0,0,1,1.9.43l1.27.62V354.6h8.42a6,6,0,0,0-.1,1.13,6.08,6.08,0,0,0,12.16,0,6,6,0,0,0-.11-1.13h8.43m.87-.88H202.2a5.21,5.21,0,1,1-9.59,0H182.13v10.6a5.34,5.34,0,0,0-2.29-.52,5.2,5.2,0,0,0,0,10.4,5.08,5.08,0,0,0,2.29-.54v10.61h30.55V373.66a5.12,5.12,0,0,1-2.29.54,5.2,5.2,0,0,1,0-10.4,5.11,5.11,0,0,1,2.29.53V353.72Z" transform="translate(-160.19 -242.66)"/><path class="cls-20" d="M571.24,365.27A35.73,35.73,0,1,1,591,399.46l-11.62,6.87L584,394.86A35.71,35.71,0,0,1,571.24,365.27Z" transform="translate(-160.19 -242.66)"/><path class="cls-12" d="M613,382.5a5.61,5.61,0,0,0-10.12,0h-9.81V371.63l-.59.3a4.67,4.67,0,0,1-2.11.49,4.79,4.79,0,1,1,0-9.57,4.74,4.74,0,0,1,2.11.49l.59.3V352.77h10.54l-.19-.54a4.79,4.79,0,1,1,9,0l-.19.54h10.54V382.5Z" transform="translate(-160.19 -242.66)"/><path class="cls-13" d="M607.94,346.27a4.38,4.38,0,0,1,4.38,4.37,4.21,4.21,0,0,1-.25,1.45l-.38,1.1H622.4v28.9h-9.14a6,6,0,0,0-10.63,0h-9.14V371l-1.19.6a4.24,4.24,0,0,1-1.92.45,4.38,4.38,0,1,1,0-8.75,4.2,4.2,0,0,1,1.92.45l1.19.59V353.19H604.2l-.38-1.1a4.21,4.21,0,0,1-.25-1.45,4.37,4.37,0,0,1,4.37-4.37m0-.83a5.21,5.21,0,0,0-4.9,6.92H592.67V363a5.21,5.21,0,1,0,0,9.33v10.61h10.48a5.2,5.2,0,0,1,9.59,0h10.48V352.36H612.85a5.21,5.21,0,0,0-4.91-6.92Z" transform="translate(-160.19 -242.66)"/><path class="cls-23" d="M403.23,282.91c0,9-6.17,17.55-14.35,20.09H377.82C369.3,300.67,363,292.16,363,282.91a20.1,20.1,0,1,1,40.19,0Z" transform="translate(-160.19 -242.66)"/><line class="cls-24" x1="222.95" x2="222.95" y2="15"/><line class="cls-24" x1="208.87" y1="19.26" x2="195.72" y2="9.45"/><line class="cls-24" x1="237.02" y1="19.26" x2="250.17" y2="9.45"/><line class="cls-24" x1="215.79" y1="16.48" x2="213.05" y2="9.45"/><line class="cls-24" x1="230.11" y1="16.48" x2="232.85" y2="9.45"/><path class="cls-25" d="M396,285.45c0-6.8-6.1-12.28-13.49-11.95-6.55.3-11.92,5.34-12.19,11.44a11.47,11.47,0,0,0,3.55,8.77,12.39,12.39,0,0,1,4,8.82V303h11.06v-1a12.14,12.14,0,0,1,3.71-8.47A11.43,11.43,0,0,0,396,285.45Z" transform="translate(-160.19 -242.66)"/><path class="cls-25" d="M217.42,64.36h11.06a0,0,0,0,1,0,0v1.56a4.25,4.25,0,0,1-4.25,4.25h-2.57a4.25,4.25,0,0,1-4.25-4.25V64.36A0,0,0,0,1,217.42,64.36Z"/><circle class="cls-26" cx="218.83" cy="41.03" r="3.04"/><path class="cls-2" d="M494.1,316v-6.8h-3.25a15.92,15.92,0,0,0-2.23-5.29l2.32-2.32-4.81-4.81-2.38,2.38a15.84,15.84,0,0,0-5.23-2.08v-3.45h-6.8v3.57a15.64,15.64,0,0,0-5,2.17l-2.59-2.59-4.81,4.81L462,304.2a15.36,15.36,0,0,0-2,5h-3.77V316h3.77a15.51,15.51,0,0,0,2,5l-2.65,2.64,4.81,4.81,2.59-2.59a15.64,15.64,0,0,0,5,2.17v3.58h6.8v-3.46a15.62,15.62,0,0,0,5.23-2.08l2.38,2.38,4.81-4.81-2.32-2.32a15.84,15.84,0,0,0,2.23-5.29Z" transform="translate(-160.19 -242.66)"/><circle class="cls-12" cx="314.93" cy="69.9" r="10.62"/><path class="cls-2" d="M528.66,305.23l1.53-4.69-2.23-.73a11.49,11.49,0,0,0-.35-4.14l2.12-1.08-2.23-4.39-2.18,1.11a11.15,11.15,0,0,0-3.13-2.61l.78-2.38-4.69-1.53-.8,2.46a11.3,11.3,0,0,0-3.94.37l-1.2-2.37-4.4,2.23,1.23,2.42a11.22,11.22,0,0,0-2.51,3l-2.6-.85-1.53,4.69,2.6.85a11.41,11.41,0,0,0,.28,3.87L503,302.65l2.23,4.39,2.37-1.2a11.49,11.49,0,0,0,3,2.62l-.8,2.46,4.68,1.53.77-2.38a11.31,11.31,0,0,0,4.07-.26l1.11,2.18,4.39-2.23-1.08-2.13a11.27,11.27,0,0,0,2.73-3.13Z" transform="translate(-160.19 -242.66)"/><circle class="cls-12" cx="356.17" cy="55.96" r="7.69"/><path class="cls-2" d="M311.66,318.93l3.43-4.68-2.24-1.64a13.31,13.31,0,0,0,1.13-4.76l2.77-.43-.88-5.74-2.85.44a13.44,13.44,0,0,0-2.54-4.07l1.74-2.38-4.69-3.43-1.8,2.46a13.44,13.44,0,0,0-4.55-1l-.48-3.09-5.74.89.49,3.16a13.48,13.48,0,0,0-3.9,2.39l-2.59-1.9-3.43,4.69,2.59,1.9a13.41,13.41,0,0,0-1.1,4.44l-3.16.49.88,5.73,3.09-.47a13.24,13.24,0,0,0,2.37,4l-1.8,2.46,4.68,3.43,1.74-2.37a13.72,13.72,0,0,0,4.65,1.2l.44,2.84,5.74-.89-.43-2.77a13.56,13.56,0,0,0,4.2-2.51Z" transform="translate(-160.19 -242.66)"/><circle class="cls-12" cx="300.31" cy="307.02" r="9.06" transform="translate(-180.29 350.34) rotate(-87.38)"/><path class="cls-2" d="M269.7,308.71l3.41-2.45-1.17-1.63a9.69,9.69,0,0,0,1.85-3l2,.33.68-4.15-2.06-.34a9.55,9.55,0,0,0-.84-3.37l1.73-1.25-2.45-3.41-1.79,1.28a9.88,9.88,0,0,0-2.9-1.73l.36-2.24-4.15-.68-.37,2.29a9.54,9.54,0,0,0-3.22.77l-1.37-1.89L256,289.66l1.36,1.9a9.93,9.93,0,0,0-1.76,2.8l-2.28-.37-.68,4.15,2.23.36a10.09,10.09,0,0,0,.72,3.31l-1.79,1.29,2.45,3.41,1.74-1.24a9.87,9.87,0,0,0,2.93,1.87l-.34,2.05,4.15.68.33-2a9.79,9.79,0,0,0,3.46-.79Z" transform="translate(-160.19 -242.66)"/><circle class="cls-12" cx="264.56" cy="297.96" r="6.56" transform="translate(-222.93 -171.96) rotate(-13.62)"/></svg>