<svg xmlns="http://www.w3.org/2000/svg" xmlns:xlink="http://www.w3.org/1999/xlink" viewBox="0 0 1244.16 1168.57"><defs><style>.cls-1{fill:none;}.cls-2{isolation:isolate;}.cls-3{fill:#af9cda;opacity:0.4;}.cls-4{fill:url(#linear-gradient);}.cls-5{fill:#c0deed;}.cls-6{clip-path:url(#clip-path);}.cls-7,.cls-8{fill:#eca0a4;}.cls-28,.cls-30,.cls-8{mix-blend-mode:multiply;}.cls-9{fill:#343435;}.cls-10{fill:#3b2314;}.cls-11,.cls-20{fill:#fff;}.cls-12{fill:#df757b;}.cls-13{fill:#944c52;}.cls-14{fill:#404041;}.cls-15{fill:#231f20;}.cls-16{fill:#1a1a1a;}.cls-17{fill:#e4f5fd;}.cls-18{fill:#b3b3b3;}.cls-19{fill:#4d4d4d;}.cls-20{font-size:4.56px;font-family:OpenSans-Light, OpenSans Light;font-weight:300;}.cls-21{letter-spacing:-0.01em;}.cls-22{letter-spacing:-0.01em;}.cls-23{letter-spacing:0em;}.cls-24{letter-spacing:-0.01em;}.cls-25{letter-spacing:0.01em;}.cls-26{letter-spacing:0em;}.cls-27{letter-spacing:-0.01em;}.cls-28,.cls-29{fill:#2b388f;}.cls-30{fill:#97c5da;}.cls-31,.cls-32,.cls-33,.cls-34,.cls-35,.cls-36,.cls-37,.cls-38,.cls-39,.cls-40,.cls-41,.cls-42,.cls-43,.cls-44,.cls-45,.cls-46,.cls-47,.cls-48,.cls-49,.cls-50,.cls-51,.cls-52,.cls-53,.cls-54,.cls-55,.cls-56,.cls-57,.cls-58,.cls-59,.cls-60,.cls-61,.cls-62,.cls-63,.cls-64,.cls-65,.cls-66,.cls-67,.cls-68,.cls-69,.cls-70,.cls-71,.cls-72{fill:#afafaf;}.cls-31{opacity:0;}.cls-32{opacity:0.02;}.cls-33{opacity:0.05;}.cls-34{opacity:0.07;}.cls-35{opacity:0.1;}.cls-36{opacity:0.12;}.cls-37{opacity:0.15;}.cls-38{opacity:0.17;}.cls-39{opacity:0.2;}.cls-40{opacity:0.22;}.cls-41{opacity:0.24;}.cls-42{opacity:0.27;}.cls-43{opacity:0.29;}.cls-44{opacity:0.32;}.cls-45{opacity:0.34;}.cls-46{opacity:0.37;}.cls-47{opacity:0.39;}.cls-48{opacity:0.41;}.cls-49{opacity:0.44;}.cls-50{opacity:0.46;}.cls-51{opacity:0.49;}.cls-52{opacity:0.51;}.cls-53{opacity:0.54;}.cls-54{opacity:0.56;}.cls-55{opacity:0.59;}.cls-56{opacity:0.61;}.cls-57{opacity:0.63;}.cls-58{opacity:0.66;}.cls-59{opacity:0.68;}.cls-60{opacity:0.71;}.cls-61{opacity:0.73;}.cls-62{opacity:0.76;}.cls-63{opacity:0.78;}.cls-64{opacity:0.8;}.cls-65{opacity:0.83;}.cls-66{opacity:0.85;}.cls-67{opacity:0.88;}.cls-68{opacity:0.9;}.cls-69{opacity:0.93;}.cls-70{opacity:0.95;}.cls-71{opacity:0.98;}.cls-73{fill:#00b456;}.cls-74{fill:#3d83d9;}.cls-75{fill:url(#Degradado_sin_nombre_24);}.cls-76{fill:#395196;}</style><linearGradient id="linear-gradient" x1="43.96" y1="477.95" x2="999.86" y2="477.95" gradientTransform="translate(490.82 -229.06) rotate(45)" gradientUnits="userSpaceOnUse"><stop offset="0" stop-color="#272c6b"/><stop offset="1" stop-color="#5475b9"/></linearGradient><clipPath id="clip-path"><circle class="cls-1" cx="520.99" cy="544.71" r="413.91" transform="translate(-232.57 527.94) rotate(-45)"/></clipPath><linearGradient id="Degradado_sin_nombre_24" x1="-7442.36" y1="3056.89" x2="-7348.01" y2="3165.42" gradientTransform="translate(-6398.61 3641.34) rotate(180)" gradientUnits="userSpaceOnUse"><stop offset="0" stop-color="#5d3fd2"/><stop offset="0.42" stop-color="#b829a9"/><stop offset="0.5" stop-color="#bf289d"/><stop offset="0.64" stop-color="#d0257e"/><stop offset="0.78" stop-color="#e62256"/><stop offset="0.81" stop-color="#e83156"/><stop offset="0.87" stop-color="#ee5755"/><stop offset="0.95" stop-color="#f89554"/><stop offset="1" stop-color="#ffc153"/></linearGradient></defs><title>Asset 23</title><g class="cls-2"><g id="Layer_2" data-name="Layer 2"><g id="Text"><circle class="cls-3" cx="520.99" cy="544.71" r="413.91" transform="translate(-232.57 527.94) rotate(-45)"/><circle class="cls-4" cx="521.91" cy="477.95" r="477.95" transform="translate(-185.09 509.03) rotate(-45)"/><path class="cls-5" d="M595.59,528.06s116.38,3,178.63,85.4a114.18,114.18,0,0,1,17.36,34.19L814,745.08,712.88,752Z"/><g class="cls-6"><path class="cls-7" d="M1240.81,596.28q-12.36,21.38-24.76,42.74c-11.31,19.49-22.59,39-34.13,58.36-4.47,7.54-9,15.08-14.78,21.75-7.88,9.15-17.72,16.35-27.5,23.46-.7.5-1.47,1-2.2,1.54-14.51,10.44-30.43,18.78-46.54,26.56L813.53,948.86a33,33,0,0,1-48.29-17.15L723.1,812.13v-59l90-12.35,17.65,65.07L834.55,820a9.47,9.47,0,0,0,13.88,5.74L1033,720a128.72,128.72,0,0,0,12.28-19.32c7.64-14.44,13.61-29.79,22.59-43.44,7.07-10.81,15.91-20.35,25.42-29.06,4.81-4.37,9.78-8.54,14.85-12.61,2.6-2.1,5.2-4.17,7.84-6.21,2.3-1.77,4.34-4.27,7.51-4.2,9.54.16,7.34,15.38,4.9,20.92-3.43,7.81-9.57,14.14-13.08,21.95a53.59,53.59,0,0,0-3.23,10.25c2.57-1.11,5.13-2.17,7.67-3.27,33.23-14.52,61.23-39.08,84.85-66.6,3.57-4.17,8-8.84,13.51-8.24a8.46,8.46,0,0,1,4.41,1.93,11,11,0,0,1,2.53,3.1c.34-.26.67-.53,1-.8a24.11,24.11,0,0,1,7.81-4.6c2.9-.84,6.37-.43,8.48,1.8C1246,585.47,1243.44,591.68,1240.81,596.28Z"/><path class="cls-8" d="M830.71,805.89c-33.83,2.3-87.72-4.64-107.61-7.48V753.17l90-12.35Z"/><polygon class="cls-7" points="264.06 1110.92 254.7 1166.47 376.27 1166.47 355.31 1141.38 355.31 757.37 260.99 757.37 261.35 798.78 264.06 1110.92"/><path class="cls-8" d="M355.31,757.37v54.09c-26.86-.47-67.26-7.44-94-12.68L261,757.37Z"/><rect x="341.66" y="1048.67" width="396.94" height="117.81"/><rect class="cls-9" x="341.66" y="1048.67" width="396.94" height="37.18"/><rect x="364.84" y="1047.1" width="13.8" height="49.38"/><rect x="462.73" y="1047.1" width="13.8" height="49.38"/><rect x="603.74" y="1047.1" width="13.8" height="49.38"/><rect x="701.63" y="1047.1" width="13.8" height="49.38"/><path class="cls-5" d="M500.14,522.92s-137,3.53-210.33,100.56a134.34,134.34,0,0,0-20.44,40.25L243,784.45,362,786.62Z"/><path class="cls-5" d="M739,986.46l9-12.24L739,953.91V700.14C739,596,657.4,510.82,557.63,510.82h-35c-99.77,0-181.36,85.17-181.36,189.32V953.91l-9.07,20.31,9.05,12.24L327.77,1019l13,39.09H739.49l13-39.09Z"/><path class="cls-10" d="M451.73,202H416.11V335.72s-.63,61.56,35.62,74.28Z"/><path class="cls-10" d="M628.53,202h35.62V335.72s.64,61.56-35.62,74.28Z"/><path class="cls-7" d="M594.64,447.24v87a54.52,54.52,0,1,1-109,0v-87a54.52,54.52,0,0,1,109,0Z"/><path class="cls-8" d="M594.64,447.24v63.49c-51.75.24-88.88-14.21-109-24.76V447.24a54.52,54.52,0,0,1,109,0Z"/><path class="cls-7" d="M642.66,238.57V393.28c0,51.45-42.08,93.53-93.49,93.53h-18c-51.42,0-93.53-42.08-93.53-93.53V238.57c0-51.45,42.11-93.53,93.53-93.53h18C600.58,145,642.66,187.12,642.66,238.57Z"/><path class="cls-8" d="M642.66,238.57v42.8c-118.82,22.46-177.94-7.44-205.07-31.73V238.57c0-51.45,42.11-93.53,93.53-93.53h18C600.58,145,642.66,187.12,642.66,238.57Z"/><path class="cls-10" d="M664.15,199.14c0-38.45-55.53-69.61-124-69.61s-124,31.16-124,69.61c0,12.83,6.22,24.85,17,35.18v29.85l3.73,65.94h6a9.19,9.19,0,0,0,9.42-8.93v-41.9c8.44-7.28,12.11-17,13.71-24.34,20.68,8.67,46.34,13.81,74.14,13.81s53.46-5.14,74.14-13.81c1.6,7.33,5.27,17.06,13.72,24.34v41.9a9.18,9.18,0,0,0,9.41,8.93h6l3.72-65.94V234.32C657.93,224,664.15,212,664.15,199.14Z"/><path class="cls-11" d="M493.36,382.48a47.17,47.17,0,0,0,93.54,0Z"/><path class="cls-12" d="M549.19,364.18H531.07a6.94,6.94,0,0,1-6.92-6.92h0a6.94,6.94,0,0,1,6.92-6.92h18.12a6.94,6.94,0,0,1,6.92,6.92h0A6.94,6.94,0,0,1,549.19,364.18Z"/><path class="cls-13" d="M506,322.55a2.11,2.11,0,0,1-1.47-.61,19.16,19.16,0,0,0-27.11,0,2.07,2.07,0,0,1-2.93-2.93,23.31,23.31,0,0,1,33,0,2.08,2.08,0,0,1-1.46,3.54Z"/><path class="cls-10" d="M510.16,297.7a4.13,4.13,0,0,1-2.93-1.21,22.95,22.95,0,0,0-32.47,0,4.14,4.14,0,0,1-5.86-5.86,31.23,31.23,0,0,1,44.19,0,4.14,4.14,0,0,1-2.93,7.07Z"/><path class="cls-13" d="M604.29,322.55a2.11,2.11,0,0,1-1.47-.61,19.16,19.16,0,0,0-27.11,0,2.07,2.07,0,1,1-2.93-2.93,23.31,23.31,0,0,1,33,0,2.08,2.08,0,0,1-1.46,3.54Z"/><path class="cls-10" d="M608.43,297.7a4.13,4.13,0,0,1-2.93-1.21,22.95,22.95,0,0,0-32.47,0,4.14,4.14,0,1,1-5.86-5.86,31.23,31.23,0,0,1,44.19,0,4.14,4.14,0,0,1-2.93,7.07Z"/><path d="M539.65,459.13H513.9a11.48,11.48,0,0,1-11.45-11.45h0a11.48,11.48,0,0,1,11.45-11.44h25.75a11.48,11.48,0,0,1,11.45,11.44h0A11.48,11.48,0,0,1,539.65,459.13Z"/><path class="cls-14" d="M506.26,451.34H463.89a40.17,40.17,0,0,1-37.6-25.61l-.21-.74-11.22-63.93a3.82,3.82,0,0,1,7.52-1.32l11.15,63.54a32.58,32.58,0,0,0,30.36,20.43h42.37a3.82,3.82,0,0,1,0,7.63Z"/><path d="M437.6,303.65V367.8a4.31,4.31,0,0,1-4.31,4.31h-9.65c-.54,0-1.07,0-1.57-.08-12.52-1.22-22.44-17-22.44-36.32s9.92-35.07,22.44-36.29c.5,0,1-.08,1.57-.08h9.65A4.31,4.31,0,0,1,437.6,303.65Z"/><path class="cls-14" d="M437.6,303.65V367.8a4.31,4.31,0,0,1-4.31,4.31h-9.65c-.54,0-1.07,0-1.57-.08V299.42c.5,0,1-.08,1.57-.08h9.65A4.31,4.31,0,0,1,437.6,303.65Z"/><path d="M642.66,303.65V367.8a4.31,4.31,0,0,0,4.31,4.31h9.66c.53,0,1.07,0,1.56-.08,12.52-1.22,22.44-17,22.44-36.32s-9.92-35.07-22.44-36.29c-.49,0-1-.08-1.56-.08H647A4.31,4.31,0,0,0,642.66,303.65Z"/><path class="cls-14" d="M642.66,303.65V367.8a4.31,4.31,0,0,0,4.31,4.31h9.66c.53,0,1.07,0,1.56-.08V299.42c-.49,0-1-.08-1.56-.08H647A4.31,4.31,0,0,0,642.66,303.65Z"/><rect class="cls-15" x="536.02" y="595.5" width="8.23" height="462.58"/><path class="cls-16" d="M694.38,647.86v59.32a1.52,1.52,0,0,1-1.51,1.51H676.09a1.5,1.5,0,0,1-1.51-1.51V647.86a1.5,1.5,0,0,1,1.51-1.51h16.78A1.52,1.52,0,0,1,694.38,647.86Z"/><path class="cls-17" d="M614,673.61h88.39a0,0,0,0,1,0,0V797.79a3.87,3.87,0,0,1-3.87,3.87H617.87a3.87,3.87,0,0,1-3.87-3.87V673.61A0,0,0,0,1,614,673.61Z"/><rect class="cls-11" x="614" y="673.61" width="88.39" height="14.48"/><rect class="cls-18" x="677.99" y="659.13" width="12.96" height="49.54"/><path class="cls-19" d="M694.38,647.86V654h-19.8v-6.13a1.5,1.5,0,0,1,1.51-1.51h16.78A1.52,1.52,0,0,1,694.38,647.86Z"/><text class="cls-20" transform="translate(534.06 638.43)"><tspan class="cls-21">L</tspan><tspan x="2.09" y="0">o</tspan><tspan class="cls-22" x="4.59" y="0">r</tspan><tspan x="6.04" y="0">em </tspan><tspan x="-8.06" y="5.48">ipsum dolor sit </tspan><tspan x="-11.05" y="10.95">ame</tspan><tspan class="cls-23" x="-2.76" y="10.95">t</tspan><tspan x="-1.26" y="10.95">, </tspan><tspan class="cls-24" x="0.65" y="10.95">c</tspan><tspan x="2.66" y="10.95">onse</tspan><tspan class="cls-25" x="11.79" y="10.95">c</tspan><tspan class="cls-24" x="13.9" y="10.95">t</tspan><tspan x="15.38" y="10.95">etur </tspan><tspan x="-11.43" y="16.43">adipiscing eli</tspan><tspan class="cls-23" x="13.48" y="16.43">t</tspan><tspan x="14.97" y="16.43">, sed </tspan><tspan x="-12.81" y="21.9">do eiusmod </tspan><tspan class="cls-24" x="10.76" y="21.9">t</tspan><tspan x="12.25" y="21.9">empor </tspan><tspan x="-12.7" y="27.38">incididu</tspan><tspan class="cls-26" x="2.74" y="27.38">n</tspan><tspan x="5.25" y="27.38">t ut labo</tspan><tspan class="cls-27" x="21.1" y="27.38">r</tspan><tspan x="22.54" y="27.38">e </tspan><tspan x="-9.63" y="32.85">et dolo</tspan><tspan class="cls-22" x="3.8" y="32.85">r</tspan><tspan x="5.24" y="32.85">e ma</tspan><tspan class="cls-24" x="14.5" y="32.85">g</tspan><tspan x="17.03" y="32.85">na </tspan><tspan x="-0.22" y="38.33">aliqua.</tspan></text><polygon class="cls-28" points="565.18 843.99 565.18 854 499.29 854 499.82 849 500.35 843.99 565.18 843.99"/><polygon class="cls-29" points="573.36 581.23 568.62 592.95 562.21 608.66 558.64 617.44 556.61 622.44 523.64 622.44 521.61 617.44 517.94 608.43 511.66 592.95 506.89 581.23 524.44 556.08 555.81 556.08 573.36 581.23"/><polygon class="cls-30" points="523.58 546.13 533.28 556.08 517.94 608.43 512.73 626.18 505.96 602.62 499.29 579.4 523.58 546.13"/><polygon class="cls-30" points="580.8 579.4 574.19 602.42 567.35 626.18 562.21 608.66 546.8 556.08 547 556.08 556.61 546.23 580.8 579.4"/><polygon class="cls-17" points="533.28 556.08 511.66 592.95 505.96 602.62 503.09 607.53 468.19 518.64 485.61 507.39 523.58 546.13 533.28 556.08"/><polygon class="cls-17" points="612.06 518.64 577.16 607.53 574.19 602.42 568.62 592.95 547 556.08 556.61 546.23 594.64 507.39 612.06 518.64"/><polygon class="cls-18" points="565.18 838.99 565.18 849 496.48 849 497.55 838.99 565.18 838.99"/><path d="M669.87,315.93H658.43V202c-.1-2.19-3.49-58.22-107.14-66.7H529c-103.65,8.48-107,64.51-107.14,66.89V315.93H410.39V202c.08-3,3.2-68.83,117.89-78.13l.46,0h22.78l.47,0c114.68,9.3,117.81,75.17,117.88,78Z"/><polygon class="cls-28" points="559.48 649.27 521.54 641.83 521.77 639.66 534.69 632.65 546.23 633.02 558.48 639.66 559.48 649.27"/><polygon class="cls-28" points="558.64 617.44 556.61 622.44 523.64 622.44 521.61 617.44 558.64 617.44"/><polygon class="cls-29" points="560.19 640.22 520.07 640.22 522.05 620.73 558.21 620.73 560.19 640.22"/></g><path class="cls-11" d="M147.58,130.37A123.59,123.59,0,0,1,250.12,322.94c0,.37.81,4.15,1.31,6.69,2.31,9.52,8.26,27,22.54,39.47,11.06,9.32-21.83,16.71-45.51,1.07a46.22,46.22,0,0,1-13-12.76l-.09-.14a123.58,123.58,0,1,1-67.81-226.9Z"/><path class="cls-11" d="M64.77,520.58a64.78,64.78,0,0,1,53.75,100.94c0,.2.43,2.17.68,3.5,1.22,5,4.34,14.15,11.82,20.7,5.8,4.88-11.44,8.75-23.85.55a24.08,24.08,0,0,1-6.8-6.68.35.35,0,0,1-.05-.08A64.78,64.78,0,1,1,64.77,520.58Z"/><path class="cls-11" d="M904.86,129.88A87.34,87.34,0,0,0,832.41,266c0,.26-.57,2.93-.92,4.72-1.63,6.73-5.84,19.07-15.93,27.89-7.82,6.59,15.42,11.81,32.15.76a32.83,32.83,0,0,0,9.18-9l.06-.11a87.32,87.32,0,1,0,47.91-160.32Z"/><path class="cls-11" d="M994.27,419.73A107.35,107.35,0,0,0,905.21,587c0,.33-.7,3.6-1.13,5.81-2,8.27-7.18,23.43-19.58,34.28-9.61,8.09,19,14.51,39.52.93a40.33,40.33,0,0,0,11.28-11.08l.08-.12a107.33,107.33,0,1,0,58.89-197.07Z"/><path class="cls-31" d="M250.39,287a79.92,79.92,0,1,0-79.91,79.91A79.92,79.92,0,0,0,250.39,287Z"/><path class="cls-32" d="M249.76,286.19a79.92,79.92,0,1,0-79.91,79.92A79.91,79.91,0,0,0,249.76,286.19Z"/><path class="cls-33" d="M249.13,285.42a79.92,79.92,0,1,0-79.91,79.92A79.91,79.91,0,0,0,249.13,285.42Z"/><path class="cls-34" d="M248.5,284.65a79.92,79.92,0,1,0-79.91,79.92A79.91,79.91,0,0,0,248.5,284.65Z"/><path class="cls-35" d="M247.87,283.88A79.92,79.92,0,1,0,168,363.8,79.92,79.92,0,0,0,247.87,283.88Z"/><path class="cls-36" d="M247.24,283.11A79.92,79.92,0,1,0,167.33,363,79.92,79.92,0,0,0,247.24,283.11Z"/><path class="cls-37" d="M246.61,282.34a79.92,79.92,0,1,0-79.91,79.92A79.92,79.92,0,0,0,246.61,282.34Z"/><path class="cls-38" d="M246,281.57a79.92,79.92,0,1,0-79.91,79.92A79.92,79.92,0,0,0,246,281.57Z"/><path class="cls-39" d="M245.35,280.8a79.92,79.92,0,1,0-79.91,79.92A79.92,79.92,0,0,0,245.35,280.8Z"/><path class="cls-40" d="M244.72,280A79.92,79.92,0,1,0,164.81,360,79.92,79.92,0,0,0,244.72,280Z"/><path class="cls-41" d="M244.09,279.26a79.92,79.92,0,1,0-79.91,79.92A79.92,79.92,0,0,0,244.09,279.26Z"/><path class="cls-42" d="M243.46,278.49a79.92,79.92,0,1,0-79.91,79.91A79.92,79.92,0,0,0,243.46,278.49Z"/><path class="cls-43" d="M242.83,277.71a79.92,79.92,0,1,0-79.91,79.92A79.91,79.91,0,0,0,242.83,277.71Z"/><path class="cls-44" d="M242.2,276.94a79.92,79.92,0,1,0-79.91,79.92A79.91,79.91,0,0,0,242.2,276.94Z"/><path class="cls-45" d="M241.57,276.17a79.92,79.92,0,1,0-79.91,79.92A79.92,79.92,0,0,0,241.57,276.17Z"/><path class="cls-46" d="M241,275.4A79.92,79.92,0,1,0,161,355.32,79.93,79.93,0,0,0,241,275.4Z"/><path class="cls-47" d="M240.32,274.63a79.92,79.92,0,1,0-79.92,79.92A79.92,79.92,0,0,0,240.32,274.63Z"/><path class="cls-48" d="M239.69,273.86a79.92,79.92,0,1,0-79.92,79.92A79.92,79.92,0,0,0,239.69,273.86Z"/><path class="cls-49" d="M239.06,273.09A79.92,79.92,0,1,0,159.14,353,79.92,79.92,0,0,0,239.06,273.09Z"/><path class="cls-50" d="M238.43,272.32a79.92,79.92,0,1,0-79.92,79.92A79.92,79.92,0,0,0,238.43,272.32Z"/><path class="cls-51" d="M237.8,271.55a79.92,79.92,0,1,0-79.92,79.92A79.92,79.92,0,0,0,237.8,271.55Z"/><path class="cls-52" d="M237.17,270.78a79.92,79.92,0,1,0-79.92,79.91A79.92,79.92,0,0,0,237.17,270.78Z"/><path class="cls-53" d="M236.54,270a79.92,79.92,0,1,0-79.92,79.92A79.92,79.92,0,0,0,236.54,270Z"/><path class="cls-54" d="M235.91,269.23A79.92,79.92,0,1,0,156,349.15,79.92,79.92,0,0,0,235.91,269.23Z"/><path class="cls-55" d="M235.28,268.46a79.92,79.92,0,1,0-79.92,79.92A79.92,79.92,0,0,0,235.28,268.46Z"/><path class="cls-56" d="M234.65,267.69a79.92,79.92,0,1,0-79.92,79.92A79.92,79.92,0,0,0,234.65,267.69Z"/><path class="cls-57" d="M234,266.92a79.92,79.92,0,1,0-79.92,79.92A79.92,79.92,0,0,0,234,266.92Z"/><path class="cls-58" d="M233.39,266.15a79.92,79.92,0,1,0-79.92,79.92A79.92,79.92,0,0,0,233.39,266.15Z"/><path class="cls-59" d="M232.76,265.38a79.92,79.92,0,1,0-79.92,79.92A79.92,79.92,0,0,0,232.76,265.38Z"/><path class="cls-60" d="M232.13,264.61a79.92,79.92,0,1,0-79.92,79.92A79.92,79.92,0,0,0,232.13,264.61Z"/><path class="cls-61" d="M231.5,263.84a79.92,79.92,0,1,0-79.92,79.92A79.92,79.92,0,0,0,231.5,263.84Z"/><path class="cls-62" d="M230.87,263.07A79.92,79.92,0,1,0,151,343,79.92,79.92,0,0,0,230.87,263.07Z"/><path class="cls-63" d="M230.24,262.3a79.92,79.92,0,1,0-79.92,79.91A79.92,79.92,0,0,0,230.24,262.3Z"/><path class="cls-64" d="M229.61,261.52a79.92,79.92,0,1,0-79.92,79.92A79.92,79.92,0,0,0,229.61,261.52Z"/><path class="cls-65" d="M229,260.75a79.92,79.92,0,1,0-79.91,79.92A79.91,79.91,0,0,0,229,260.75Z"/><path class="cls-66" d="M228.35,260a79.92,79.92,0,1,0-79.91,79.92A79.92,79.92,0,0,0,228.35,260Z"/><path class="cls-67" d="M227.72,259.21a79.92,79.92,0,1,0-79.91,79.92A79.92,79.92,0,0,0,227.72,259.21Z"/><path class="cls-68" d="M227.09,258.44a79.92,79.92,0,1,0-79.91,79.92A79.92,79.92,0,0,0,227.09,258.44Z"/><path class="cls-69" d="M226.46,257.67a79.92,79.92,0,1,0-79.91,79.92A79.92,79.92,0,0,0,226.46,257.67Z"/><path class="cls-70" d="M225.83,256.9a79.92,79.92,0,1,0-79.91,79.92A79.92,79.92,0,0,0,225.83,256.9Z"/><path class="cls-71" d="M225.2,256.13a79.92,79.92,0,1,0-79.91,79.92A79.92,79.92,0,0,0,225.2,256.13Z"/><path class="cls-72" d="M224.57,255.36a79.92,79.92,0,1,0-79.91,79.92A79.92,79.92,0,0,0,224.57,255.36Z"/><path class="cls-73" d="M224.57,255.36a79.92,79.92,0,1,0-79.91,79.92A79.92,79.92,0,0,0,224.57,255.36Z"/><path class="cls-11" d="M192.69,248.75a47.21,47.21,0,0,0-94.33-.88q-.06,1-.06,2.07a46.39,46.39,0,0,0,6.44,23.62.71.71,0,0,1,.06.57l-8.37,24.7a.43.43,0,0,0,.54.55l25.73-8.18a.63.63,0,0,1,.52.05,47.66,47.66,0,0,0,22.29,5.54,47.08,47.08,0,0,0,47.2-46.85C192.71,249.59,192.69,248.75,192.69,248.75Zm-79,22.29a37.49,37.49,0,0,1-6.46-21.1c0-1.22.06-2.42.18-3.69a38.35,38.35,0,0,1,76.35.71c.09,1.16.13,2.1.13,3a38.34,38.34,0,0,1-54.52,34.46c-1.41-.65-4.08-2.25-4.93-2.76a.69.69,0,0,0-.56-.06l-13,4.12a.38.38,0,0,1-.47-.49l4.18-12.33a.68.68,0,0,0-.09-.62Z"/><path class="cls-11" d="M168,260.36a10.07,10.07,0,0,0-2.33-1.45c-.8-.4-6.71-3.29-7.83-3.69-.95-.34-2-.73-3,.71-.73,1.08-2.88,3.59-3.58,4.38-.49.56-.94.74-2,.2a39.22,39.22,0,0,1-9.08-5.56,33.38,33.38,0,0,1-6.26-7.74c-.5-.84-.18-1.23.44-1.85.38-.37,2.05-2.39,2.18-2.58.26-.4.74-1.38.74-1.38a2.46,2.46,0,0,0-.09-2.32c-.19-.37-3.22-7.67-3.51-8.36-.87-2.06-1.79-2.17-2.67-2.12-.43,0-4.44.06-5.72,1.45l-.22.24a12.72,12.72,0,0,0-3.87,9.43,14.6,14.6,0,0,0,.6,3.95,25.89,25.89,0,0,0,4.13,8c0,.06,3,4.13,4.45,5.82,4.64,5.35,9.88,9.3,15.17,11.36,6.76,2.64,9.65,3.25,11.29,3.25a24.81,24.81,0,0,0,2.55-.4c2.06-.18,7-2.74,8-5.61S168.32,261,168,260.36Z"/><path class="cls-31" d="M123.45,607.22a44.67,44.67,0,1,0-44.67,44.67A44.67,44.67,0,0,0,123.45,607.22Z"/><path class="cls-32" d="M123.1,606.79a44.67,44.67,0,1,0-44.67,44.67A44.67,44.67,0,0,0,123.1,606.79Z"/><path class="cls-33" d="M122.74,606.36A44.67,44.67,0,1,0,78.08,651,44.67,44.67,0,0,0,122.74,606.36Z"/><path class="cls-34" d="M122.39,605.93A44.67,44.67,0,1,0,77.73,650.6,44.67,44.67,0,0,0,122.39,605.93Z"/><path class="cls-35" d="M122,605.5a44.67,44.67,0,1,0-44.67,44.67A44.67,44.67,0,0,0,122,605.5Z"/><path class="cls-36" d="M121.69,605.07A44.67,44.67,0,1,0,77,649.73,44.67,44.67,0,0,0,121.69,605.07Z"/><path class="cls-37" d="M121.34,604.64A44.67,44.67,0,1,0,76.67,649.3,44.66,44.66,0,0,0,121.34,604.64Z"/><path class="cls-38" d="M121,604.2a44.67,44.67,0,1,0-44.66,44.67A44.66,44.66,0,0,0,121,604.2Z"/><path class="cls-39" d="M120.63,603.77A44.67,44.67,0,1,0,76,648.44,44.67,44.67,0,0,0,120.63,603.77Z"/><path class="cls-40" d="M120.28,603.34A44.67,44.67,0,1,0,75.61,648,44.67,44.67,0,0,0,120.28,603.34Z"/><path class="cls-41" d="M119.93,602.91a44.67,44.67,0,1,0-44.67,44.67A44.67,44.67,0,0,0,119.93,602.91Z"/><path class="cls-42" d="M119.58,602.48a44.67,44.67,0,1,0-44.67,44.67A44.67,44.67,0,0,0,119.58,602.48Z"/><path class="cls-43" d="M119.22,602.05a44.67,44.67,0,1,0-44.66,44.67A44.67,44.67,0,0,0,119.22,602.05Z"/><path class="cls-44" d="M118.87,601.62a44.67,44.67,0,1,0-44.66,44.67A44.67,44.67,0,0,0,118.87,601.62Z"/><path class="cls-45" d="M118.52,601.19a44.67,44.67,0,1,0-44.67,44.67A44.67,44.67,0,0,0,118.52,601.19Z"/><path class="cls-46" d="M118.17,600.76A44.67,44.67,0,1,0,73.5,645.43,44.67,44.67,0,0,0,118.17,600.76Z"/><path class="cls-47" d="M117.82,600.33A44.67,44.67,0,1,0,73.15,645,44.67,44.67,0,0,0,117.82,600.33Z"/><path class="cls-48" d="M117.46,599.9A44.67,44.67,0,1,0,72.8,644.56,44.66,44.66,0,0,0,117.46,599.9Z"/><path class="cls-49" d="M117.11,599.46a44.67,44.67,0,1,0-44.66,44.67A44.66,44.66,0,0,0,117.11,599.46Z"/><path class="cls-50" d="M116.76,599A44.67,44.67,0,1,0,72.09,643.7,44.67,44.67,0,0,0,116.76,599Z"/><path class="cls-51" d="M116.41,598.6a44.67,44.67,0,1,0-44.67,44.67A44.67,44.67,0,0,0,116.41,598.6Z"/><path class="cls-52" d="M116.06,598.17a44.67,44.67,0,1,0-44.67,44.67A44.67,44.67,0,0,0,116.06,598.17Z"/><path class="cls-53" d="M115.7,597.74A44.67,44.67,0,1,0,71,642.41,44.67,44.67,0,0,0,115.7,597.74Z"/><path class="cls-54" d="M115.35,597.31A44.67,44.67,0,1,0,70.69,642,44.67,44.67,0,0,0,115.35,597.31Z"/><path class="cls-55" d="M115,596.88a44.67,44.67,0,1,0-44.67,44.67A44.67,44.67,0,0,0,115,596.88Z"/><path class="cls-56" d="M114.65,596.45A44.67,44.67,0,1,0,70,641.12,44.67,44.67,0,0,0,114.65,596.45Z"/><path class="cls-57" d="M114.3,596a44.67,44.67,0,1,0-44.67,44.67A44.67,44.67,0,0,0,114.3,596Z"/><path class="cls-58" d="M113.94,595.59a44.67,44.67,0,1,0-44.66,44.67A44.67,44.67,0,0,0,113.94,595.59Z"/><path class="cls-59" d="M113.59,595.16a44.67,44.67,0,1,0-44.66,44.66A44.66,44.66,0,0,0,113.59,595.16Z"/><path class="cls-60" d="M113.24,594.72a44.67,44.67,0,1,0-44.67,44.67A44.66,44.66,0,0,0,113.24,594.72Z"/><path class="cls-61" d="M112.89,594.29A44.67,44.67,0,1,0,68.22,639,44.67,44.67,0,0,0,112.89,594.29Z"/><path class="cls-62" d="M112.53,593.86a44.67,44.67,0,1,0-44.66,44.67A44.66,44.66,0,0,0,112.53,593.86Z"/><path class="cls-63" d="M112.18,593.43A44.67,44.67,0,1,0,67.52,638.1,44.67,44.67,0,0,0,112.18,593.43Z"/><path class="cls-64" d="M111.83,593a44.67,44.67,0,1,0-44.66,44.67A44.67,44.67,0,0,0,111.83,593Z"/><path class="cls-65" d="M111.48,592.57a44.67,44.67,0,1,0-44.67,44.67A44.67,44.67,0,0,0,111.48,592.57Z"/><path class="cls-66" d="M111.13,592.14a44.67,44.67,0,1,0-44.67,44.67A44.67,44.67,0,0,0,111.13,592.14Z"/><path class="cls-67" d="M110.77,591.71a44.67,44.67,0,1,0-44.66,44.67A44.66,44.66,0,0,0,110.77,591.71Z"/><path class="cls-68" d="M110.42,591.28A44.67,44.67,0,1,0,65.76,636,44.67,44.67,0,0,0,110.42,591.28Z"/><path class="cls-69" d="M110.07,590.85A44.67,44.67,0,1,0,65.4,635.52,44.67,44.67,0,0,0,110.07,590.85Z"/><path class="cls-70" d="M109.72,590.42a44.67,44.67,0,1,0-44.67,44.66A44.66,44.66,0,0,0,109.72,590.42Z"/><path class="cls-71" d="M109.37,590A44.67,44.67,0,1,0,64.7,634.65,44.66,44.66,0,0,0,109.37,590Z"/><path class="cls-72" d="M109,589.55a44.67,44.67,0,1,0-44.66,44.67A44.66,44.66,0,0,0,109,589.55Z"/><path class="cls-74" d="M109,589.55a44.67,44.67,0,1,0-44.66,44.67A44.66,44.66,0,0,0,109,589.55Z"/><rect class="cls-11" x="43.08" y="578.65" width="10.34" height="29.55"/><path class="cls-11" d="M48.25,563.88a5.17,5.17,0,1,0,5.17,5.17A5.18,5.18,0,0,0,48.25,563.88Z"/><path class="cls-11" d="M87.4,587.73c-.69-5.57-3.48-9.08-11-9.08-5.34,0-7.47.84-8.69,3.17h0v-3.17H59.33V608.2h8.61V592.73c0-3.86.73-6.77,5.51-6.77s5.08,3.59,5.08,7V608.2H87.4S87.57,589,87.4,587.73Z"/><path class="cls-31" d="M1019.78,486.68a71.91,71.91,0,1,0,71.9,71.92A71.92,71.92,0,0,0,1019.78,486.68Z"/><path class="cls-32" d="M1019.22,486a71.91,71.91,0,1,0,71.89,71.91A71.9,71.9,0,0,0,1019.22,486Z"/><path class="cls-33" d="M1018.65,485.3a71.91,71.91,0,1,0,71.9,71.91A71.91,71.91,0,0,0,1018.65,485.3Z"/><path class="cls-34" d="M1018.08,484.6a71.91,71.91,0,1,0,71.9,71.92A71.91,71.91,0,0,0,1018.08,484.6Z"/><path class="cls-35" d="M1017.52,483.91a71.91,71.91,0,1,0,71.9,71.91A71.9,71.9,0,0,0,1017.52,483.91Z"/><path class="cls-36" d="M1017,483.22a71.91,71.91,0,1,0,71.9,71.91A71.91,71.91,0,0,0,1017,483.22Z"/><path class="cls-37" d="M1016.39,482.53a71.91,71.91,0,1,0,71.89,71.91A71.9,71.9,0,0,0,1016.39,482.53Z"/><path class="cls-38" d="M1015.82,481.83a71.91,71.91,0,1,0,71.9,71.92A71.92,71.92,0,0,0,1015.82,481.83Z"/><path class="cls-39" d="M1015.25,481.14a71.91,71.91,0,1,0,71.9,71.91A71.9,71.9,0,0,0,1015.25,481.14Z"/><path class="cls-40" d="M1014.69,480.45a71.91,71.91,0,1,0,71.9,71.91A71.9,71.9,0,0,0,1014.69,480.45Z"/><path class="cls-41" d="M1014.12,479.75a71.91,71.91,0,1,0,71.9,71.92A71.91,71.91,0,0,0,1014.12,479.75Z"/><path class="cls-42" d="M1013.56,479.06a71.91,71.91,0,1,0,71.9,71.92A71.91,71.91,0,0,0,1013.56,479.06Z"/><path class="cls-43" d="M1013,478.37a71.91,71.91,0,1,0,71.9,71.91A71.91,71.91,0,0,0,1013,478.37Z"/><path class="cls-44" d="M1012.43,477.68a71.91,71.91,0,1,0,71.89,71.91A71.9,71.9,0,0,0,1012.43,477.68Z"/><path class="cls-45" d="M1011.86,477a71.91,71.91,0,1,0,71.9,71.92A71.92,71.92,0,0,0,1011.86,477Z"/><path class="cls-46" d="M1011.29,476.29a71.91,71.91,0,1,0,71.9,71.91A71.9,71.9,0,0,0,1011.29,476.29Z"/><path class="cls-47" d="M1010.73,475.6a71.91,71.91,0,1,0,71.9,71.91A71.9,71.9,0,0,0,1010.73,475.6Z"/><path class="cls-48" d="M1010.16,474.91a71.91,71.91,0,1,0,71.9,71.91A71.91,71.91,0,0,0,1010.16,474.91Z"/><path class="cls-49" d="M1009.6,474.21a71.91,71.91,0,1,0,71.89,71.92A71.91,71.91,0,0,0,1009.6,474.21Z"/><path class="cls-50" d="M1009,473.52a71.91,71.91,0,1,0,71.9,71.91A71.91,71.91,0,0,0,1009,473.52Z"/><path class="cls-51" d="M1008.46,472.83a71.91,71.91,0,1,0,71.9,71.91A71.9,71.9,0,0,0,1008.46,472.83Z"/><path class="cls-52" d="M1007.9,472.13a71.91,71.91,0,1,0,71.9,71.92A71.91,71.91,0,0,0,1007.9,472.13Z"/><path class="cls-53" d="M1007.33,471.44a71.91,71.91,0,1,0,71.9,71.92A71.92,71.92,0,0,0,1007.33,471.44Z"/><path class="cls-54" d="M1006.77,470.75a71.91,71.91,0,1,0,71.89,71.91A71.9,71.9,0,0,0,1006.77,470.75Z"/><path class="cls-55" d="M1006.2,470.06A71.91,71.91,0,1,0,1078.1,542,71.91,71.91,0,0,0,1006.2,470.06Z"/><path class="cls-56" d="M1005.63,469.36a71.91,71.91,0,1,0,71.9,71.92A71.91,71.91,0,0,0,1005.63,469.36Z"/><path class="cls-57" d="M1005.07,468.67a71.91,71.91,0,1,0,71.9,71.91A71.9,71.9,0,0,0,1005.07,468.67Z"/><path class="cls-58" d="M1004.5,468a71.91,71.91,0,1,0,71.9,71.91A71.9,71.9,0,0,0,1004.5,468Z"/><path class="cls-59" d="M1003.94,467.29a71.91,71.91,0,1,0,71.9,71.91A71.9,71.9,0,0,0,1003.94,467.29Z"/><path class="cls-60" d="M1003.37,466.59a71.91,71.91,0,1,0,71.9,71.92A71.92,71.92,0,0,0,1003.37,466.59Z"/><path class="cls-61" d="M1002.81,465.9a71.91,71.91,0,1,0,71.89,71.91A71.9,71.9,0,0,0,1002.81,465.9Z"/><path class="cls-62" d="M1002.24,465.21a71.91,71.91,0,1,0,71.9,71.91A71.91,71.91,0,0,0,1002.24,465.21Z"/><path class="cls-63" d="M1001.67,464.51a71.91,71.91,0,1,0,71.9,71.92A71.91,71.91,0,0,0,1001.67,464.51Z"/><path class="cls-64" d="M1001.11,463.82a71.91,71.91,0,1,0,71.9,71.92A71.91,71.91,0,0,0,1001.11,463.82Z"/><path class="cls-65" d="M1000.54,463.13a71.91,71.91,0,1,0,71.9,71.91A71.91,71.91,0,0,0,1000.54,463.13Z"/><path class="cls-66" d="M1000,462.44a71.91,71.91,0,1,0,71.89,71.91A71.9,71.9,0,0,0,1000,462.44Z"/><path class="cls-67" d="M999.41,461.74a71.91,71.91,0,1,0,71.9,71.92A71.92,71.92,0,0,0,999.41,461.74Z"/><path class="cls-68" d="M998.84,461.05a71.91,71.91,0,1,0,71.9,71.91A71.9,71.9,0,0,0,998.84,461.05Z"/><path class="cls-69" d="M998.28,460.36a71.91,71.91,0,1,0,71.9,71.91A71.9,71.9,0,0,0,998.28,460.36Z"/><path class="cls-70" d="M997.71,459.67a71.91,71.91,0,1,0,71.9,71.91A71.91,71.91,0,0,0,997.71,459.67Z"/><path class="cls-71" d="M997.15,459A71.91,71.91,0,1,0,1069,530.89,71.91,71.91,0,0,0,997.15,459Z"/><path class="cls-72" d="M996.58,458.28a71.91,71.91,0,1,0,71.9,71.91A71.91,71.91,0,0,0,996.58,458.28Z"/><path class="cls-75" d="M996.58,458.28a71.91,71.91,0,1,0,71.9,71.91A71.91,71.91,0,0,0,996.58,458.28Z"/><path class="cls-11" d="M996.58,555.86a25.68,25.68,0,1,0-25.68-25.67A25.7,25.7,0,0,0,996.58,555.86Zm-19.45-25.67a19.45,19.45,0,1,1,19.45,19.45A19.48,19.48,0,0,1,977.13,530.19Z"/><path class="cls-11" d="M1022.19,572.83H971a17.45,17.45,0,0,1-17.43-17.43V505A17.45,17.45,0,0,1,971,487.54h51.22A17.45,17.45,0,0,1,1039.62,505V555.4A17.45,17.45,0,0,1,1022.19,572.83ZM971,493.9A11.09,11.09,0,0,0,959.9,505V555.4A11.08,11.08,0,0,0,971,566.47h51.22a11.08,11.08,0,0,0,11.07-11.07V505a11.09,11.09,0,0,0-11.07-11.07Z"/><path class="cls-11" d="M1022.61,501.58a4.06,4.06,0,1,0,4.05,4.06A4.06,4.06,0,0,0,1022.61,501.58Z"/><path class="cls-31" d="M986.24,240.26a61.18,61.18,0,1,0-61.18,61.18A61.17,61.17,0,0,0,986.24,240.26Z"/><path class="cls-32" d="M985.76,239.67a61.18,61.18,0,1,0-61.18,61.18A61.18,61.18,0,0,0,985.76,239.67Z"/><path class="cls-33" d="M985.28,239.08a61.18,61.18,0,1,0-61.18,61.18A61.18,61.18,0,0,0,985.28,239.08Z"/><path class="cls-34" d="M984.8,238.49a61.18,61.18,0,1,0-61.18,61.18A61.18,61.18,0,0,0,984.8,238.49Z"/><path class="cls-35" d="M984.32,237.9a61.18,61.18,0,1,0-61.18,61.18A61.18,61.18,0,0,0,984.32,237.9Z"/><path class="cls-36" d="M983.83,237.31a61.18,61.18,0,1,0-61.18,61.18A61.18,61.18,0,0,0,983.83,237.31Z"/><path class="cls-37" d="M983.35,236.72a61.18,61.18,0,1,0-61.18,61.18A61.18,61.18,0,0,0,983.35,236.72Z"/><path class="cls-38" d="M982.87,236.12a61.18,61.18,0,1,0-61.18,61.19A61.18,61.18,0,0,0,982.87,236.12Z"/><path class="cls-39" d="M982.39,235.53a61.18,61.18,0,1,0-61.18,61.19A61.18,61.18,0,0,0,982.39,235.53Z"/><path class="cls-40" d="M981.9,234.94a61.18,61.18,0,1,0-61.17,61.19A61.17,61.17,0,0,0,981.9,234.94Z"/><path class="cls-41" d="M981.42,234.35a61.18,61.18,0,1,0-61.18,61.19A61.18,61.18,0,0,0,981.42,234.35Z"/><path class="cls-42" d="M980.94,233.76A61.18,61.18,0,1,0,919.76,295,61.18,61.18,0,0,0,980.94,233.76Z"/><path class="cls-43" d="M980.46,233.17a61.18,61.18,0,1,0-61.18,61.19A61.18,61.18,0,0,0,980.46,233.17Z"/><path class="cls-44" d="M980,232.58a61.18,61.18,0,1,0-61.18,61.19A61.18,61.18,0,0,0,980,232.58Z"/><path class="cls-45" d="M979.49,232a61.18,61.18,0,1,0-61.18,61.19A61.17,61.17,0,0,0,979.49,232Z"/><path class="cls-46" d="M979,231.4a61.18,61.18,0,1,0-61.18,61.19A61.18,61.18,0,0,0,979,231.4Z"/><path class="cls-47" d="M978.53,230.81A61.18,61.18,0,1,0,917.35,292,61.18,61.18,0,0,0,978.53,230.81Z"/><path class="cls-48" d="M978.05,230.22a61.18,61.18,0,1,0-61.18,61.19A61.18,61.18,0,0,0,978.05,230.22Z"/><path class="cls-49" d="M977.57,229.63a61.18,61.18,0,1,0-61.18,61.19A61.18,61.18,0,0,0,977.57,229.63Z"/><path class="cls-50" d="M977.08,229a61.18,61.18,0,1,0-61.18,61.19A61.18,61.18,0,0,0,977.08,229Z"/><path class="cls-51" d="M976.6,228.45a61.18,61.18,0,1,0-61.18,61.19A61.18,61.18,0,0,0,976.6,228.45Z"/><path class="cls-52" d="M976.12,227.86a61.18,61.18,0,1,0-61.18,61.19A61.18,61.18,0,0,0,976.12,227.86Z"/><path class="cls-53" d="M975.64,227.27a61.18,61.18,0,1,0-61.18,61.19A61.18,61.18,0,0,0,975.64,227.27Z"/><path class="cls-54" d="M975.15,226.68A61.18,61.18,0,1,0,914,287.86,61.17,61.17,0,0,0,975.15,226.68Z"/><path class="cls-55" d="M974.67,226.09a61.18,61.18,0,1,0-61.18,61.18A61.18,61.18,0,0,0,974.67,226.09Z"/><path class="cls-56" d="M974.19,225.5A61.18,61.18,0,1,0,913,286.68,61.18,61.18,0,0,0,974.19,225.5Z"/><path class="cls-57" d="M973.71,224.91a61.18,61.18,0,1,0-61.18,61.18A61.18,61.18,0,0,0,973.71,224.91Z"/><path class="cls-58" d="M973.23,224.32a61.18,61.18,0,1,0-61.18,61.18A61.18,61.18,0,0,0,973.23,224.32Z"/><path class="cls-59" d="M972.74,223.73a61.18,61.18,0,1,0-61.17,61.18A61.17,61.17,0,0,0,972.74,223.73Z"/><path class="cls-60" d="M972.26,223.14a61.18,61.18,0,1,0-61.18,61.18A61.18,61.18,0,0,0,972.26,223.14Z"/><path class="cls-61" d="M971.78,222.55a61.18,61.18,0,1,0-61.18,61.18A61.18,61.18,0,0,0,971.78,222.55Z"/><path class="cls-62" d="M971.3,222a61.18,61.18,0,1,0-61.18,61.18A61.18,61.18,0,0,0,971.3,222Z"/><path class="cls-63" d="M970.82,221.37a61.18,61.18,0,1,0-61.18,61.18A61.17,61.17,0,0,0,970.82,221.37Z"/><path class="cls-64" d="M970.33,220.78A61.18,61.18,0,1,0,909.15,282,61.16,61.16,0,0,0,970.33,220.78Z"/><path class="cls-65" d="M969.85,220.19a61.18,61.18,0,1,0-61.18,61.18A61.17,61.17,0,0,0,969.85,220.19Z"/><path class="cls-66" d="M969.37,219.6a61.18,61.18,0,1,0-61.18,61.18A61.17,61.17,0,0,0,969.37,219.6Z"/><path class="cls-67" d="M968.89,219a61.18,61.18,0,1,0-61.18,61.18A61.17,61.17,0,0,0,968.89,219Z"/><path class="cls-68" d="M968.41,218.42a61.18,61.18,0,1,0-61.18,61.18A61.17,61.17,0,0,0,968.41,218.42Z"/><path class="cls-69" d="M967.92,217.83A61.18,61.18,0,1,0,906.74,279,61.17,61.17,0,0,0,967.92,217.83Z"/><path class="cls-70" d="M967.44,217.24a61.18,61.18,0,1,0-61.18,61.18A61.17,61.17,0,0,0,967.44,217.24Z"/><path class="cls-71" d="M967,216.65a61.18,61.18,0,1,0-61.18,61.18A61.18,61.18,0,0,0,967,216.65Z"/><path class="cls-72" d="M966.48,216.06a61.18,61.18,0,1,0-61.18,61.18A61.18,61.18,0,0,0,966.48,216.06Z"/><path class="cls-76" d="M966.48,216.06a61.18,61.18,0,1,0-61.18,61.18A61.18,61.18,0,0,0,966.48,216.06Z"/><path class="cls-11" d="M910.69,201.57v-5.79c0-2.83,1.88-3.49,3.2-3.49H922V179.88l-11.19,0c-12.43,0-15.26,9.26-15.26,15.18v6.55h-7.18v14.5h7.25V252.3h14.49V216.07h10.75l1.33-14.5Z"/></g></g></g></svg>