<?xml version="1.0" encoding="utf-8"?>
<!-- Generator: Adobe Illustrator 24.2.3, SVG Export Plug-In . SVG Version: 6.00 Build 0)  -->
<svg version="1.1" id="Layer_1" xmlns="http://www.w3.org/2000/svg" xmlns:xlink="http://www.w3.org/1999/xlink" x="0px" y="0px"
	 viewBox="0 0 1611.3 1373.1" style="enable-background:new 0 0 1611.3 1373.1;" xml:space="preserve">
<style type="text/css">
	.st0{opacity:0.23;fill:url(#SVGID_1_);enable-background:new    ;}
	.st1{fill:url(#SVGID_2_);}
	.st2{fill:url(#SVGID_3_);}
	.st3{fill:url(#SVGID_4_);}
	.st4{fill:url(#SVGID_5_);}
	.st5{fill:none;stroke:url(#SVGID_6_);stroke-linecap:round;stroke-miterlimit:10;}
	.st6{fill:none;stroke:url(#SVGID_7_);stroke-linecap:round;stroke-miterlimit:10;}
	.st7{fill:none;stroke:url(#SVGID_8_);stroke-width:10;stroke-miterlimit:10;}
	.st8{fill:url(#SVGID_9_);stroke:url(#SVGID_10_);stroke-width:0.75;stroke-miterlimit:10;}
</style>
<g>
	
		<linearGradient id="SVGID_1_" gradientUnits="userSpaceOnUse" x1="13" y1="1255.0018" x2="1611.3424" y2="1255.0018" gradientTransform="matrix(1 0 0 -1 0 1948)">
		<stop  offset="0" style="stop-color:#0034E3"/>
		<stop  offset="0.13" style="stop-color:#0043E6;stop-opacity:0.9"/>
		<stop  offset="0.39" style="stop-color:#006AED;stop-opacity:0.66"/>
		<stop  offset="0.76" style="stop-color:#00A9F8;stop-opacity:0.26"/>
		<stop  offset="1" style="stop-color:#00D2FF;stop-opacity:0"/>
	</linearGradient>
	<path class="st0" d="M1610,13H182C88.7,13,13,88.5,13,181.8l0,0v1178.9c101,23.8,211.7,15.6,292.6-47.2
		c19.3-15.1,36.6-32.7,51.4-52.4V580.8C269.2,549.7,215.3,461.3,227.8,369c12.9-96,95.2-170,194.7-170
		c61.7-0.1,119.8,28.9,156.9,78.2h946.9c13.6-15.8,25.8-32.7,36.5-50.6C1601,162.8,1616.2,87,1610,13z"/>
	
		<linearGradient id="SVGID_2_" gradientUnits="userSpaceOnUse" x1="1262.5491" y1="2343.27" x2="-807.4014" y2="93.8605" gradientTransform="matrix(1 0 0 -1 0 1948)">
		<stop  offset="0" style="stop-color:#272C6B"/>
		<stop  offset="1" style="stop-color:#5475B9"/>
	</linearGradient>
	<path class="st1" d="M1483.4,13H181.9C88.6,13,13,88.6,13,181.9v914.9c78.4,23.2,164,22.7,232.8-19.2
		c50-30.4,84.8-78.2,111.2-131.3V580.8C269.2,549.7,215.3,461.3,227.8,369c12.9-96,95.2-170,194.7-170
		c61.7-0.1,119.8,28.9,156.9,78.2h843.4c2.1-2.5,4.2-5.1,6.2-7.8C1484,197.7,1502,101.2,1483.4,13z"/>
	
		<linearGradient id="SVGID_3_" gradientUnits="userSpaceOnUse" x1="13.0999" y1="1543.55" x2="900.6" y2="1543.55" gradientTransform="matrix(1 0 0 -1 0 1948)">
		<stop  offset="0" style="stop-color:#272C6B"/>
		<stop  offset="1" style="stop-color:#5475B9"/>
	</linearGradient>
	<path class="st2" d="M900.6,13c-15.4,36.2-38.3,68.8-68.9,94.5c-29,24.4-62.1,41.4-97.6,54c-28.9,10.3-59.4,17.8-90.5,24
		c-49.5,9.9-100.7,16.6-149.6,26.8c-22.8-8.9-47-13.4-71.4-13.4c-99.5,0-181.8,74-194.7,170.1c-3.2,23.8-2.1,48,3.4,71.5
		c-5,16.8-9.4,33.9-13.8,51.1c-12.7,50-24.8,100.6-47,146.2c-33.2,68.3-90,123-157.4,158.1v-614C13,88.6,88.6,13,181.9,13H900.6z"/>
	
		<linearGradient id="SVGID_4_" gradientUnits="userSpaceOnUse" x1="13" y1="1442.9874" x2="342.3904" y2="1442.9874" gradientTransform="matrix(1 0 0 -1 0 1948)">
		<stop  offset="0" style="stop-color:#272C6B"/>
		<stop  offset="1" style="stop-color:#5475B9"/>
	</linearGradient>
	<path class="st3" d="M307.7,856.5c-42.6,72.7-119.9,122-201.9,136c-29.1,4.9-58.7,5.8-88,2.8c-2.7-0.3-4.8-2.6-4.8-5.3V66.2
		C13,36.8,36.8,13,66.2,13h190.5c2.1,0,4.1,1.3,4.9,3.3c6.8,15.5,11.1,32,12.8,48.8c0.8,8.6,1,17.3,0.5,25.9
		c-4.6,91.7-75.2,178.2-90.2,266.9c-3.9,23-4,46.1,1.7,69.6c5.8,23.7,17,44.6,30.8,64.2c29.6,42.2,71.3,78.4,96.9,123.9
		C355.1,688.3,350.3,783.8,307.7,856.5z"/>
	
		<linearGradient id="SVGID_5_" gradientUnits="userSpaceOnUse" x1="13" y1="1696.3" x2="1400.3" y2="1696.3" gradientTransform="matrix(1 0 0 -1 0 1948)">
		<stop  offset="2.000000e-02" style="stop-color:#0034E3;stop-opacity:0.6"/>
		<stop  offset="0.22" style="stop-color:#004DE7;stop-opacity:0.5"/>
		<stop  offset="0.61" style="stop-color:#008EF3;stop-opacity:0.26"/>
		<stop  offset="1" style="stop-color:#00D2FF;stop-opacity:0"/>
	</linearGradient>
	<path class="st4" d="M1400.3,13c-34,94-90.3,180-163.9,247.7c-6.1,5.6-12.4,11.1-18.8,16.5H754.5c-11.1-8.4-22-17.1-32.7-25.9
		l-3-2.4c-25.2-20.8-50.1-42.5-75.4-63.3c-45.8-37.7-93.4-72.7-147.7-95.8C425.8,60.2,339.7,55.6,275,91
		c-14.7,8-28.2,18.2-39.9,30.1c-60.3,61.4-73.3,151.1-102.3,229.3C111,409.3,80,461.6,13,490.4V67c0-29.8,24.2-54,54-54H1400.3z"/>
	
		<linearGradient id="SVGID_6_" gradientUnits="userSpaceOnUse" x1="717.7607" y1="1802.9" x2="814.8" y2="1802.9" gradientTransform="matrix(1 0 0 -1 0 1948)">
		<stop  offset="0" style="stop-color:#00D2FF"/>
		<stop  offset="0.31" style="stop-color:#57E1FF"/>
		<stop  offset="0.64" style="stop-color:#B1F1FF"/>
		<stop  offset="0.88" style="stop-color:#E9FBFF"/>
		<stop  offset="1" style="stop-color:#FFFFFF"/>
	</linearGradient>
	<path class="st5" d="M718.3,277.2c-0.1-7.2,0-14.3,0.2-21.5c0.1-2.3,0.2-4.6,0.3-6.8c1.6-29.6,6.7-58.9,15.1-87.3
		C750.1,107,777.5,56.4,814.3,13"/>
	
		<linearGradient id="SVGID_7_" gradientUnits="userSpaceOnUse" x1="12.6" y1="1589.0713" x2="228.3" y2="1589.0713" gradientTransform="matrix(1 0 0 -1 0 1948)">
		<stop  offset="0" style="stop-color:#00D2FF"/>
		<stop  offset="0.31" style="stop-color:#57E1FF"/>
		<stop  offset="0.64" style="stop-color:#B1F1FF"/>
		<stop  offset="0.88" style="stop-color:#E9FBFF"/>
		<stop  offset="1" style="stop-color:#FFFFFF"/>
	</linearGradient>
	<path class="st6" d="M227.8,369.1c-14.1-4.5-28.4-8.2-42.9-11.2c-17.2-3.5-34.5-6-52-7.5c-40-3.4-80.3-1.5-119.8,5.5"/>
	
		<linearGradient id="SVGID_8_" gradientUnits="userSpaceOnUse" x1="223.5" y1="1552" x2="626.5" y2="1552" gradientTransform="matrix(1 0 0 -1 0 1948)">
		<stop  offset="0" style="stop-color:#272C6B"/>
		<stop  offset="1" style="stop-color:#5475B9"/>
	</linearGradient>
	<circle class="st7" cx="425" cy="396" r="196.5"/>
	
		<linearGradient id="SVGID_9_" gradientUnits="userSpaceOnUse" x1="285.4978" y1="-167.3563" x2="562.5" y2="-167.3563" gradientTransform="matrix(1 0 0 1 0 574)">
		<stop  offset="0" style="stop-color:#272D6C"/>
		<stop  offset="0.28" style="stop-color:#313D7D"/>
		<stop  offset="0.84" style="stop-color:#4B67AA"/>
		<stop  offset="1" style="stop-color:#5474B8"/>
	</linearGradient>
	
		<linearGradient id="SVGID_10_" gradientUnits="userSpaceOnUse" x1="285.1228" y1="-167.3563" x2="562.875" y2="-167.3563" gradientTransform="matrix(1 0 0 1 0 574)">
		<stop  offset="0" style="stop-color:#272D6C"/>
		<stop  offset="0.28" style="stop-color:#313D7D"/>
		<stop  offset="0.84" style="stop-color:#4B67AA"/>
		<stop  offset="1" style="stop-color:#5474B8"/>
	</linearGradient>
	<path class="st8" d="M442,506.5H285.5V505c-0.2-37.8,13.5-47.6,21.7-53.5c1.1-0.8,2.2-1.6,3.1-2.3c6.2-5.2,20.8-7.1,26.8-7.7v-11.1
		c-5.5-4.5-9.9-10.2-12.8-16.7l-0.1-0.3v-11.3c-2.7-0.2-8-1.7-10.5-9.4c-1.6-5,0.4-7.3,1.7-8.2c0.4-0.3,0.8-0.5,1.3-0.6
		c-1.2-1.9-1.7-4.1-1.6-6.3v-35.1c0.9-6,6.1-10.4,12.2-10.4c0.4-4.9,3.6-19,27.3-20.9h0.1c5.6-0.1,10.9,1.9,15,5.6
		c1.9-0.2,3.7,0.2,5.3,1.2c1.5,1.1,2.5,2.7,2.8,4.6l10.7-0.2c0.8-0.1,5.6-0.6,8.7,2.5c1.8,1.8,2.6,4.5,2.4,8
		c2.7-0.3,5.3,0.4,7.5,1.9c3.3,2.4,5.1,6.6,5.3,12.6c0.1,3,0.3,6,0.5,8.9c0.7,12.4,1.3,22.5-1.7,27.5c2.5,1.4,4.5,4.4,2.8,9.4
		c-1.6,5.4-6.6,9.1-12.3,9l0,0v9.2l-0.1,0.2c-2.6,6.6-6.5,12.6-11.6,17.6v12c25.3,2.2,32.9,12.1,35.8,15.9c0.3,0.4,0.6,0.7,0.9,1.1
		c13.9,13.9,15.1,45.4,15.2,46.7L442,506.5z M414.6,503.5h24.2c-0.4-6.5-2.9-31.7-14.2-43.1c-0.4-0.4-0.8-0.9-1.1-1.4
		c-2.7-3.5-9.6-12.6-33.4-14.7v9.7l-0.2,0.3c-0.2,0.5-6.1,11.8-26.5,11.8s-25.9-11.1-26.1-11.6l-0.1-0.3v-9.8
		c-5.9,0.6-19.5,2.5-24.9,7c-1,0.8-2.1,1.6-3.3,2.5c-8.1,5.8-20.3,14.6-20.5,49.6h25.8v-23h3v23h94.3v-23h3L414.6,503.5z
		 M340.1,453.5c0.9,1.6,6.4,9.6,23.3,9.6s22.6-8.2,23.6-9.9v-21.3c-6.8,5.5-15.4,8.2-24.2,7.8c-8.1-0.2-16-2.7-22.8-7.2L340.1,453.5
		z M327.1,412.8c1.1,2.6,10.4,23.1,35.8,24s34.7-23,35.7-25.8v-54.6c-32.5,9.6-63.5,2.2-71.5,0V412.8z M401.7,389v10.3
		c4.4,0.1,8.3-2.7,9.5-6.9c1-2.9,0.4-5-1.6-5.9c-2.8-1.1-6,0.1-7.5,2.8L401.7,389z M319.6,386.5c-0.9,0-1.8,0.2-2.6,0.6
		c-1.1,0.8-1.3,2.3-0.5,4.7c1.9,5.9,5.7,7.1,7.7,7.3v-11.6C322.7,386.8,321.2,386.5,319.6,386.5L319.6,386.5z M401.7,352.4V385
		c1.8-1.4,4.1-2.2,6.4-2c3.1-3.6,2.5-14.7,1.8-26.5c-0.2-2.9-0.4-5.9-0.5-9c-0.2-5-1.6-8.5-4.1-10.3c-2.1-1.3-4.7-1.8-7.1-1.1
		l-2.3,0.7l0.4-2.4c0.6-3.4,0.1-5.9-1.3-7.4c-2.2-2.2-6.2-1.6-6.2-1.6h-0.2l-13.5,0.3l-0.1-1.4c0-1.5-0.6-2.8-1.8-3.8
		c-1.1-0.7-2.5-0.9-3.8-0.6l-0.9,0.2l-0.6-0.7c-0.2-0.2-4.5-5.2-13.3-5.2c-25.5,2-24.5,18.6-24.5,19.3l0.1,1.7l-1.7-0.1
		c-8.7-0.6-10.4,6.7-10.5,7.7v34.7c0,4.4,2,5.6,2.5,5.9c1.3,0.1,2.5,0.4,3.7,0.8v-32l2,0.6c0.4,0.1,36.4,11.8,73.6,0L401.7,352.4z
		 M549.1,450.4h-96.2c-7.5,0-13.5-6-13.5-13.5v-94.6c0-7.5,6-13.5,13.5-13.5H549c7.5,0,13.5,6,13.5,13.5v94.5
		C562.5,444.3,556.5,450.3,549.1,450.4L549.1,450.4z M452.9,331.8c-5.8,0-10.5,4.7-10.5,10.5v94.5c0,5.8,4.7,10.5,10.5,10.5H549
		c5.8,0,10.5-4.7,10.5-10.5v-94.5c0-5.8-4.7-10.5-10.5-10.5H452.9z M553,442.2h-18v-8.1h18V442.2z M538.1,439.2H550v-2.1h-12
		L538.1,439.2z M509,439.7h-17.1l-0.1-8.7l-5.9-3l-5.2,5.8L468,421.2l6-6l-3.2-6.9H463v-18.8h7.2l3-6.4l-5-6.1l11.4-12.2l5.9,5.4
		l6.1-2.6v-8.5H509v8.7l5.8,2.4l6.3-5.6l11.1,12.4l-5,6.1l2.5,6.6h8.4v18.1h-7.6l-3.4,6.6l5.4,6.8l-11.7,12.2l-5.7-5.3l-5.9,2.6
		L509,439.7z M494.9,436.7H506l0.1-7.9l9.5-4.1l4.9,4.6l7.8-8.2l-4.9-6.3l5.1-10h6.5v-12.1h-7.5l-3.8-10.2l4.5-5.5l-7.4-8.2
		l-5.4,4.9l-9.4-3.9v-7.7h-11.4v7.5l-9.7,4.1l-5.2-4.7l-7.6,8.1l4.5,5.5l-4.6,9.9h-6v12.8h6.9l4.8,10.5l-5.4,5.3l8.3,8.3l4.6-5.2
		l9.6,4.9L494.9,436.7z M432.5,429.1H426c-2.4,0-6.9-1.6-6.9-7.6V314.7v-0.2c0.7-2.7,3.5-7.7,8.8-7.2l107.3-0.5
		c1.6-0.1,3.2,0.4,4.4,1.5c1.7,1.5,2.6,4,2.6,7.5v5.2h-3v-0.9h2.5l-2.5-4.4c0-2.5-0.5-4.2-1.6-5.2c-0.6-0.5-1.4-0.8-2.2-0.8h-0.2
		l-107.5,0.5h-0.1c-3.8-0.4-5.4,3.9-5.7,4.8v106.4c0,4.5,3.5,4.6,3.9,4.6h6.5L432.5,429.1z M364.5,423.5c-0.4,0-0.8,0-1.2,0
		c-13.6-0.8-13.9-12.3-13.9-12.4h3c0,0.4,0.3,8.9,11,9.5s12.5-9.3,12.5-9.7l3,0.5C378.9,411.4,376.9,423.5,364.5,423.5L364.5,423.5z
		 M500.1,415.7c-9.3,0-16.8-7.6-16.8-16.9s7.6-16.8,16.9-16.8s16.8,7.5,16.8,16.8C517,408.2,509.4,415.7,500.1,415.7L500.1,415.7z
		 M500.1,385.1c-7.6,0-13.8,6.2-13.8,13.9c0,7.6,6.2,13.8,13.9,13.8c7.6,0,13.8-6.2,13.8-13.8C514,391.3,507.7,385.1,500.1,385.1
		L500.1,385.1z M362.5,402.8c-1-0.7-4.2-2.7-3.7-5.4c0.3-1.7,1.9-2.6,3-3.1v-3.5h3v5.8l-1.1,0.3c-1,0.2-1.9,0.8-1.9,1.1
		c0,0,0,0.8,2.4,2.4L362.5,402.8z M346.2,392.5c-3.4,0-6.2-2.8-6.2-6.2c0-3.4,2.8-6.2,6.2-6.2c3.4,0,6.2,2.8,6.2,6.2l0,0
		C352.4,389.7,349.6,392.5,346.2,392.5z M346.2,383.1c-1.8,0-3.2,1.4-3.2,3.2c0,1.8,1.4,3.2,3.2,3.2c1.8,0,3.2-1.4,3.2-3.2l0,0
		C349.4,384.5,348,383.1,346.2,383.1z M381.9,392.2c-3.3,0-5.9-2.7-5.9-5.9s2.7-5.9,5.9-5.9s5.9,2.7,5.9,5.9
		C387.9,389.6,385.2,392.2,381.9,392.2L381.9,392.2L381.9,392.2z M381.9,383.3c-1.6,0-2.9,1.3-2.9,2.9s1.3,2.9,2.9,2.9
		s2.9-1.3,2.9-2.9C384.9,384.7,383.5,383.4,381.9,383.3L381.9,383.3z M375.7,380.8l-2.4-1.8c0.2-0.2,4.3-5.6,9.4-5.2
		c2.8,0.2,5.2,2,7.1,5.4l-2.6,1.5c-1.4-2.5-3-3.8-4.7-3.9C379.7,376.5,376.6,379.6,375.7,380.8L375.7,380.8z M339.8,380.8l-2.4-1.8
		c0.2-0.2,4-5.2,9.1-5.1c3.1,0,5.9,1.8,8.3,5.2l-2.4,1.8c-1.9-2.6-3.8-3.9-5.9-3.9l0,0C342.8,376.8,339.8,380.7,339.8,380.8
		L339.8,380.8z M463.6,377h-18.2v-8.2h18.2V377z M448.4,374h12.2v-2.2h-12.2V374z M467.8,367h-22.4v-7.8h22.4V367z M448.4,364h16.4
		v-1.8h-16.4V364z M555.8,353.9H446v-8.4h109.8V353.9z M449,350.9h103.7v-2.4H449V350.9z M473.4,344h-8.6v-9h8.6V344z M467.8,341
		h2.6v-3h-2.6V341z M463.6,344H455v-9h8.6V344z M458,341h2.6v-3H458V341z M454,344h-8.6v-9h8.6V344z M448.4,341h2.6v-3h-2.6V341z
		 M454,323.3h-8.6v-9h8.6V323.3z M448.4,320.3h2.6v-3h-2.6V320.3z M444.4,323.3h-8.6v-9h8.6V323.3z M438.9,320.3h2.6v-3h-2.6V320.3z
		 M434.4,323.3h-8.6v-9h8.6V323.3z M428.8,320.3h2.6v-3h-2.6V320.3z"/>
</g>
</svg>
