<?xml version="1.0" encoding="utf-8"?>
<!-- Generator: Adobe Illustrator 24.2.3, SVG Export Plug-In . SVG Version: 6.00 Build 0)  -->
<svg version="1.1" id="Layer_1" xmlns="http://www.w3.org/2000/svg" xmlns:xlink="http://www.w3.org/1999/xlink" x="0px" y="0px"
	 viewBox="0 0 1611.3 1373.1" style="enable-background:new 0 0 1611.3 1373.1;" xml:space="preserve">
<style type="text/css">
	.st0{fill:url(#SVGID_1_);}
	.st1{fill:url(#SVGID_2_);}
	.st2{fill:url(#SVGID_3_);}
	.st3{fill:url(#SVGID_4_);}
	.st4{fill:none;stroke:url(#SVGID_5_);stroke-linecap:round;stroke-miterlimit:10;}
	.st5{fill:none;stroke:url(#SVGID_6_);stroke-linecap:round;stroke-miterlimit:10;}
	.st6{fill:none;stroke:url(#SVGID_7_);stroke-width:10;stroke-miterlimit:10;}
	.st7{fill:url(#SVGID_8_);stroke:url(#SVGID_9_);stroke-width:2;stroke-miterlimit:10;}
	.st8{fill:url(#SVGID_10_);stroke:url(#SVGID_11_);stroke-width:2;stroke-miterlimit:10;}
</style>
<g>
	<g>
		
			<linearGradient id="SVGID_1_" gradientUnits="userSpaceOnUse" x1="1262.549" y1="-969.2703" x2="-807.401" y2="1280.1399" gradientTransform="matrix(1 0 0 1 0 574)">
			<stop  offset="0" style="stop-color:#272C6B"/>
			<stop  offset="1" style="stop-color:#5475B9"/>
		</linearGradient>
		<path class="st0" d="M1483.4,13H181.9C88.6,13,13,88.6,13,181.9v914.9c78.4,23.2,164,22.7,232.8-19.2
			c50-30.4,84.8-78.2,111.2-131.3V580.8C269.2,549.7,215.3,461.3,227.8,369c12.9-96,95.2-170,194.7-170
			c61.7-0.1,119.8,28.9,156.9,78.2h843.4c2.1-2.5,4.2-5.1,6.2-7.8C1484,197.7,1502,101.2,1483.4,13z"/>
		
			<linearGradient id="SVGID_2_" gradientUnits="userSpaceOnUse" x1="13.0999" y1="-169.55" x2="900.6" y2="-169.55" gradientTransform="matrix(1 0 0 1 0 574)">
			<stop  offset="0" style="stop-color:#272C6B"/>
			<stop  offset="1" style="stop-color:#5475B9"/>
		</linearGradient>
		<path class="st1" d="M900.6,13c-15.4,36.2-38.3,68.8-68.9,94.5c-29,24.4-62.1,41.4-97.6,54c-28.9,10.3-59.4,17.8-90.5,24
			c-49.5,9.9-100.7,16.6-149.6,26.8c-22.8-8.9-47-13.4-71.4-13.4c-99.5,0-181.8,74-194.7,170.1c-3.2,23.8-2.1,48,3.4,71.5
			c-5,16.8-9.4,33.9-13.8,51.1c-12.7,50-24.8,100.6-47,146.2c-33.2,68.3-90,123-157.4,158.1v-614C13,88.6,88.6,13,181.9,13H900.6z"
			/>
		
			<linearGradient id="SVGID_3_" gradientUnits="userSpaceOnUse" x1="13" y1="-68.992" x2="342.3904" y2="-68.992" gradientTransform="matrix(1 0 0 1 0 574)">
			<stop  offset="0" style="stop-color:#272C6B"/>
			<stop  offset="1" style="stop-color:#5475B9"/>
		</linearGradient>
		<path class="st2" d="M307.7,856.5c-42.6,72.7-119.9,122-201.9,136c-30.4,5.1-61.5,5.9-92.1,2.3c-0.4,0-0.7-0.4-0.7-0.8V67
			c0-29.8,24.2-54,54.1-54h192.6c0.3,0,0.6,0.2,0.7,0.4c7.6,16.3,12.3,33.7,14,51.6c0.8,8.6,1,17.3,0.5,25.9
			c-4.6,91.7-75.2,178.2-90.2,266.9c-3.9,23-4,46.1,1.7,69.6c5.8,23.7,17,44.6,30.8,64.2c29.6,42.2,71.3,78.4,96.9,123.9
			C355.1,688.3,350.3,783.8,307.7,856.5z"/>
		
			<linearGradient id="SVGID_4_" gradientUnits="userSpaceOnUse" x1="13" y1="-322.3" x2="1400.3" y2="-322.3" gradientTransform="matrix(1 0 0 1 0 574)">
			<stop  offset="2.000000e-02" style="stop-color:#0034E3;stop-opacity:0.6"/>
			<stop  offset="0.22" style="stop-color:#004DE7;stop-opacity:0.5"/>
			<stop  offset="0.61" style="stop-color:#008EF3;stop-opacity:0.26"/>
			<stop  offset="1" style="stop-color:#00D2FF;stop-opacity:0"/>
		</linearGradient>
		<path class="st3" d="M1400.3,13c-34,94-90.3,180-163.9,247.7c-6.1,5.6-12.4,11.1-18.8,16.5H754.5c-11.1-8.4-22-17.1-32.7-25.9
			l-3-2.4c-25.2-20.8-50.1-42.5-75.4-63.3c-45.8-37.7-93.4-72.7-147.7-95.8C425.8,60.2,339.7,55.6,275,91
			c-14.7,8-28.2,18.2-39.9,30.1c-60.3,61.4-73.3,151.1-102.3,229.3C111,409.3,80,461.6,13,490.4V67.6C13,37.5,37.5,13,67.6,13
			H1400.3z"/>
		
			<linearGradient id="SVGID_5_" gradientUnits="userSpaceOnUse" x1="717.7607" y1="-428.9" x2="814.8" y2="-428.9" gradientTransform="matrix(1 0 0 1 0 574)">
			<stop  offset="0" style="stop-color:#00D2FF"/>
			<stop  offset="0.31" style="stop-color:#57E1FF"/>
			<stop  offset="0.64" style="stop-color:#B1F1FF"/>
			<stop  offset="0.88" style="stop-color:#E9FBFF"/>
			<stop  offset="1" style="stop-color:#FFFFFF"/>
		</linearGradient>
		<path class="st4" d="M718.3,277.2c-0.1-7.2,0-14.3,0.2-21.5c0.1-2.3,0.2-4.6,0.3-6.8c1.6-29.6,6.7-58.9,15.1-87.3
			C750.2,107,777.5,56.4,814.3,13"/>
		
			<linearGradient id="SVGID_6_" gradientUnits="userSpaceOnUse" x1="12.6" y1="-215.0713" x2="228.3" y2="-215.0713" gradientTransform="matrix(1 0 0 1 0 574)">
			<stop  offset="0" style="stop-color:#00D2FF"/>
			<stop  offset="0.31" style="stop-color:#57E1FF"/>
			<stop  offset="0.64" style="stop-color:#B1F1FF"/>
			<stop  offset="0.88" style="stop-color:#E9FBFF"/>
			<stop  offset="1" style="stop-color:#FFFFFF"/>
		</linearGradient>
		<path class="st5" d="M227.8,369.1c-14.1-4.5-28.4-8.2-42.9-11.2c-17.2-3.5-34.5-6-52-7.5c-40-3.4-80.3-1.5-119.8,5.5"/>
		
			<linearGradient id="SVGID_7_" gradientUnits="userSpaceOnUse" x1="223.5" y1="-178" x2="626.5" y2="-178" gradientTransform="matrix(1 0 0 1 0 574)">
			<stop  offset="0" style="stop-color:#272C6B"/>
			<stop  offset="1" style="stop-color:#5475B9"/>
		</linearGradient>
		<circle class="st6" cx="425" cy="396" r="196.5"/>
	</g>
	
		<linearGradient id="SVGID_8_" gradientUnits="userSpaceOnUse" x1="310.5" y1="-752.0397" x2="539.5" y2="-752.0397" gradientTransform="matrix(1 0 0 1 0 1148)">
		<stop  offset="0" style="stop-color:#272D6C"/>
		<stop  offset="0.28" style="stop-color:#313D7D"/>
		<stop  offset="0.83" style="stop-color:#4B67AA"/>
		<stop  offset="1" style="stop-color:#5475B9"/>
	</linearGradient>
	
		<linearGradient id="SVGID_9_" gradientUnits="userSpaceOnUse" x1="309.5" y1="-752.0397" x2="540.5" y2="-752.0397" gradientTransform="matrix(1 0 0 1 0 1148)">
		<stop  offset="0" style="stop-color:#272D6C"/>
		<stop  offset="0.28" style="stop-color:#313D7D"/>
		<stop  offset="0.83" style="stop-color:#4B67AA"/>
		<stop  offset="1" style="stop-color:#5475B9"/>
	</linearGradient>
	<path class="st7" d="M481.1,508.2H481c-13.3-0.1-18.5-12.2-18.5-12.3l-0.1-0.2v-22.5l0.1-0.3c0.1-0.2,0.1-0.6,0.3-1
		c1.3-4.5,5.8-14.9,18.9-14.9l0,0c6.4-0.2,11.4,1.4,14.8,5c5.2,5.5,4.6,13.5,4.6,13.8l-1.2,22.6l-0.2,0.3
		C499.3,499.1,491.1,508.2,481.1,508.2z M464.4,495.4c0.7,1.5,5.3,10.8,16.6,10.9h0.1c8.2,0,15.5-7.1,16.8-8.6l1.2-21.5
		c-0.5,0.4-1.1,0.8-1.8,1.2l0.4,0.3l-1.1,1.6l-1.1-0.8c-4.4,2.4-9.2,3.7-14.2,3.8c-7.7,0-14.3-4.9-16.7-7L464.4,495.4z M482.3,473.9
		v6.3c3.9-0.3,7.7-1.3,11.2-3.1l0,0l1.2-1.6l0.8,0.6c1.3-0.7,2.5-1.5,3.6-2.4c-0.2-2.6-0.9-6.9-4-10.2c-2.8-3-7-4.4-12.5-4.4v3.7
		c1.7,0.6,3,2.8,3,5.5S484.2,473.4,482.3,473.9z M464.9,473c0.1,0.1,7.1,6.7,15.4,7.2v-6.5c-1.6-0.7-2.7-2.9-2.7-5.4s1.3-4.9,3-5.5
		v-3.7c-10.9,0.6-14.7,9.5-15.8,13.4c-0.1,0.4-0.2,0.6-0.2,0.8L464.9,473z M481.6,464.6c-0.9,0-2,1.5-2,3.7s1,3.7,2,3.7s2-1.5,2-3.7
		S482.5,464.6,481.6,464.6z M438.3,507.3H328v-40.8h110.3V507.3z M330.1,505.3h106.3v-36.8H330L330.1,505.3z M430.3,501.3h-9v-18.7
		h9V501.3z M423.3,499.3h5v-14.7h-5V499.3z M418.5,501.3h-9v-8.5h9V501.3z M411.5,499.3h5v-4.5h-5V499.3z M394.6,501.3h-9v-8.5h9
		V501.3z M387.6,499.3h5v-4.5h-5V499.3z M381.3,501.3h-32.8v-8.5h32.7L381.3,501.3z M350.6,499.3h28.6v-4.5h-28.7L350.6,499.3z
		 M344.5,501.3h-9v-8.5h9V501.3z M337.5,499.3h5v-4.5h-5V499.3z M418.6,491.2h-9v-8.5h9V491.2z M411.6,489.2h5v-4.5h-5V489.2z
		 M406.7,491.2h-9v-8.5h9V491.2z M399.7,489.2h5v-4.5h-5V489.2z M394.7,491.2h-9v-8.5h9V491.2z M387.7,489.2h5v-4.5h-5V489.2z
		 M381.5,491.2h-9v-8.5h9V491.2z M374.5,489.2h5v-4.5h-5V489.2z M370.1,491.2h-9v-8.5h9V491.2z M363.1,489.2h5v-4.5h-5V489.2z
		 M357.9,491.2h-9v-8.5h9V491.2z M350.9,489.2h5v-4.5h-5V489.2z M344.8,491.2h-9v-8.5h9V491.2z M337.8,489.2h5v-4.5h-5V489.2z
		 M430.8,481h-9v-8.5h9V481z M423.8,479h5v-4.5h-5V479z M418.9,481h-9v-8.5h9V481z M411.9,479h5v-4.5h-5V479z M407,481h-21.6v-8.5
		h21.1L407,481z M388,479h17v-4.5h-17.6L388,479z M381.7,481h-9v-8.5h9V481z M374.7,479h5v-4.5h-5V479z M370.4,481h-9v-8.5h9V481z
		 M363.4,479h5v-4.5h-5V479z M358.1,481h-9v-8.5h9V481z M351.1,479h5v-4.5h-5V479z M345,481h-9v-8.5h9V481z M338,479h5v-4.5h-5V479z
		 M444,460.7h-41.4V454l0.1-0.2c0.5-1.2,1.7-3.1,3.6-2.7h3.6v-13.5h-51c-7.2,0-13-5.8-13-13l0,0v-81.3c0-7.2,5.8-13,13-13l0,0h130.3
		c7.2,0,13,5.8,13,13l0,0v81.3c0,7.2-5.8,13-13,13l0,0h-50.9v13.5h2.9c2.2,0.1,3.9,2.1,3.7,4.3v0.1c-0.2,1.3-0.2,2.7,0,4l0.2,1.2
		L444,460.7z M404.7,458.7h38.2c-0.1-1.1,0-2.2,0.1-3.4c0.1-1.1-0.7-2.1-1.8-2.2h-0.1H406c-0.5-0.2-1.1,0.8-1.3,1.3V458.7z
		 M412,451.2h24.4v-13.5H412V451.2z M359,332.3c-6.1,0-11,4.9-11,11v81.3c0,6.1,4.9,11,11,11l0,0h130.3c6.1,0,11-4.9,11-11l0,0
		v-81.3c0-6.1-4.9-11-11-11H359z M422.7,428.7c-1.9-0.1-3.3-1.7-3.2-3.6c0.1-1.9,1.7-3.3,3.6-3.2c1.8,0.1,3.2,1.6,3.2,3.4
		C426.3,427.3,424.7,428.8,422.7,428.7L422.7,428.7L422.7,428.7z M422.7,424c-0.8,0.1-1.3,0.8-1.2,1.6c0.1,0.8,0.8,1.3,1.6,1.2
		c0.7-0.1,1.2-0.7,1.2-1.4C424.3,424.5,423.6,423.9,422.7,424L422.7,424L422.7,424z M476.8,413.5h-2v-38h-5.6v38h-2v-38h-9.9v38h-2
		v-38h-5.6v38h-2v-40h0.4l15.2-30l13.2,29.9h0.4L476.8,413.5z M450.3,373.5h23.9l-5.4-12.3h-12.3L450.3,373.5z M457.5,359.2h10.4
		l-4.8-11L457.5,359.2z M420.8,410.3c-8.6,0-15.6-6.5-15.6-14.5s7-14.5,15.6-14.5s15.6,6.5,15.6,14.5S429.4,410.3,420.8,410.3z
		 M420.8,383.2c-7.5,0-13.6,5.6-13.6,12.5s6.1,12.5,13.6,12.5s13.6-5.6,13.6-12.5S428.3,383.2,420.8,383.2z M396.8,408.3h-27.2V383
		h27.2V408.3z M371.6,406.3h23.2V385h-23.2V406.3z M420.8,404.9c-5.4,0-9.8-4.1-9.8-9.2s4.4-9.2,9.8-9.2s9.8,4.1,9.8,9.2
		S426.2,404.9,420.8,404.9L420.8,404.9z M420.8,388.6c-4.3,0-7.8,3.2-7.8,7.2s3.5,7.2,7.8,7.2s7.8-3.2,7.8-7.2
		S425.1,388.6,420.8,388.6L420.8,388.6z M391.1,403.1h-15.9v-14.8h15.9V403.1z M377.3,401.1h11.9v-10.8h-11.9V401.1z M330.1,396.7
		h-19.6v-18.2h19.6V396.7z M312.5,394.7h15.6v-14.2h-15.6V394.7z M539.5,396.6h-28.2v-85.9h28.2V396.6z M513.4,394.6h24.2v-81.9
		h-24.2V394.6z M532.5,391.5h-6.3v-4.6h6.3V391.5z M528.2,389.5h2.3v-0.6h-2.3V389.5z M532.5,380.7h-6.3v-4.6h6.3V380.7z
		 M528.2,378.7h2.3v-0.6h-2.3V378.7z M330.1,374.2h-19.6v-18.3h19.6V374.2z M312.5,372.2h15.6v-14.3h-15.6V372.2z M418.3,371.8
		h-32.6l16.9-29.7L418.3,371.8z M389.1,369.8H415l-12.5-23.5L389.1,369.8z M532.5,370.8h-6.3v-4.6h6.3V370.8z M528.2,368.8h2.3v-0.6
		h-2.3V368.8z M410.8,367.3H393l9.1-15.7L410.8,367.3z M396.7,365.3h10.8l-5.2-9.6L396.7,365.3z M532.5,361h-6.3v-4.6h6.3V361z
		 M528.2,359h2.3v-0.6h-2.3V359z M330.1,351.6h-19.6v-18.3h19.6V351.6z M312.5,349.6h15.6v-14.3h-15.6V349.6z M532.5,351.2h-6.3
		v-4.7h6.3V351.2z M528.2,349.2h2.3v-0.7h-2.3V349.2z M532.5,341.3h-6.3v-4.6h6.3V341.3z M528.2,339.3h2.3v-0.6h-2.3V339.3z
		 M532.5,331.8h-6.3v-4.6h6.3V331.8z M528.2,329.8h2.3v-0.6h-2.3V329.8z M330.1,329h-19.6v-18.3h19.6V329z M312.5,327h15.6v-14.3
		h-15.6V327z M482.7,324c-2.9-0.2-5.1-2.7-5-5.6c0.2-2.9,2.7-5.1,5.6-5c2.8,0.2,5,2.5,5,5.3C488.2,321.7,485.7,324.1,482.7,324
		L482.7,324z M482.7,315.4c-1.8,0.2-3.2,1.8-3,3.6s1.8,3.2,3.6,3c1.7-0.2,3-1.6,3-3.3C486.3,316.8,484.7,315.3,482.7,315.4
		C482.8,315.4,482.7,315.4,482.7,315.4L482.7,315.4z M359.8,324c-2.9-0.2-5.2-2.7-5-5.6s2.7-5.2,5.6-5c2.8,0.2,5,2.5,5,5.3
		C365.3,321.7,362.8,324.1,359.8,324z M359.8,315.4c-1.8,0.2-3.1,1.8-3,3.6c0.2,1.8,1.8,3.1,3.6,3c1.7-0.2,3-1.6,3-3.3
		C363.3,316.8,361.7,315.3,359.8,315.4z M532.5,321.5h-6.3v-4.6h6.3V321.5z M528.2,319.5h2.3v-0.6h-2.3V319.5z M472.9,321.5h-8.1
		v-5.6h8.1V321.5z M466.8,319.5h4.1v-1.6h-4.1V319.5z M459.1,321.5H451v-5.6h8.1V321.5z M453,319.5h4.1v-1.6H453V319.5z
		 M446.1,321.5H438v-5.6h8.1V321.5z M440,319.5h4.1v-1.6H440V319.5z M433,321.5h-8.1v-5.6h8.1V321.5z M426.9,319.5h4.1v-1.6h-4.1
		V319.5z M420.4,321.5h-8.1v-5.6h8.1V321.5z M414.3,319.5h4.1v-1.6h-4.1V319.5z M406.2,321.5h-8.1v-5.6h8.1V321.5z M400.1,319.5h4.1
		v-1.6h-4.1V319.5z M393.4,321.5h-8.1v-5.6h8.1V321.5z M387.3,319.5h4.1v-1.6h-4.1V319.5z M380.8,321.5h-8.1v-5.6h8.1V321.5z
		 M374.7,319.5h4.1v-1.6h-4.1V319.5z M448,309.7c-9.6,0-17.7-5-19.3-6.1h-13.3v-12.1c-17.3-11.9-31.1-2-33.5-0.1v12.2h-14.6v-13.7
		h13.2c2.3-1.9,17.6-12.9,36.1,0h13.3V302c2.8,1.9,18.7,11.5,32.2,0.6v-12.8h14.6v13.7h-12.5C459.7,307.5,453.9,309.7,448,309.7
		L448,309.7z M464.2,301.6h10.6v-9.7h-10.6V301.6z M417.4,301.6H428v-9.7h-10.6V301.6z M369.4,301.6H380v-9.7h-10.7L369.4,301.6z"/>
	
		<linearGradient id="SVGID_10_" gradientUnits="userSpaceOnUse" x1="346.9" y1="-730.8" x2="501.2" y2="-730.8" gradientTransform="matrix(1 0 0 1 0 1148)">
		<stop  offset="0" style="stop-color:#272D6C"/>
		<stop  offset="0.28" style="stop-color:#313D7D"/>
		<stop  offset="0.83" style="stop-color:#4B67AA"/>
		<stop  offset="1" style="stop-color:#5475B9"/>
	</linearGradient>
	
		<linearGradient id="SVGID_11_" gradientUnits="userSpaceOnUse" x1="345.9" y1="-730.8" x2="502.2" y2="-730.8" gradientTransform="matrix(1 0 0 1 0 1148)">
		<stop  offset="0" style="stop-color:#272D6C"/>
		<stop  offset="0.28" style="stop-color:#313D7D"/>
		<stop  offset="0.83" style="stop-color:#4B67AA"/>
		<stop  offset="1" style="stop-color:#5475B9"/>
	</linearGradient>
	<rect x="346.9" y="416.2" class="st8" width="154.3" height="2"/>
</g>
</svg>
