<?xml version="1.0" encoding="utf-8"?>
<!-- Generator: Adobe Illustrator 24.2.3, SVG Export Plug-In . SVG Version: 6.00 Build 0)  -->
<svg version="1.1" id="Layer_1" xmlns="http://www.w3.org/2000/svg" xmlns:xlink="http://www.w3.org/1999/xlink" x="0px" y="0px"
	 viewBox="0 0 1611.3 1373.1" style="enable-background:new 0 0 1611.3 1373.1;" xml:space="preserve">
<style type="text/css">
	.st0{opacity:0.23;fill:url(#SVGID_1_);enable-background:new    ;}
	.st1{fill:url(#SVGID_2_);}
	.st2{fill:url(#SVGID_3_);}
	.st3{fill:url(#SVGID_4_);}
	.st4{fill:url(#SVGID_5_);}
	.st5{fill:none;stroke:url(#SVGID_6_);stroke-linecap:round;stroke-miterlimit:10;}
	.st6{fill:none;stroke:url(#SVGID_7_);stroke-linecap:round;stroke-miterlimit:10;}
	.st7{fill:none;stroke:url(#SVGID_8_);stroke-width:10;stroke-miterlimit:10;}
	.st8{fill:url(#SVGID_9_);stroke:url(#SVGID_10_);stroke-miterlimit:10;}
	.st9{fill:none;stroke:url(#SVGID_11_);stroke-width:0.25;stroke-miterlimit:10;}
	.st10{fill:url(#SVGID_12_);stroke:url(#SVGID_13_);stroke-miterlimit:10;}
</style>
<g>
	
		<linearGradient id="SVGID_1_" gradientUnits="userSpaceOnUse" x1="13" y1="1255.0018" x2="1611.3424" y2="1255.0018" gradientTransform="matrix(1 0 0 -1 0 1948)">
		<stop  offset="0" style="stop-color:#0034E3"/>
		<stop  offset="0.13" style="stop-color:#0043E6;stop-opacity:0.9"/>
		<stop  offset="0.39" style="stop-color:#006AED;stop-opacity:0.66"/>
		<stop  offset="0.76" style="stop-color:#00A9F8;stop-opacity:0.26"/>
		<stop  offset="1" style="stop-color:#00D2FF;stop-opacity:0"/>
	</linearGradient>
	<path class="st0" d="M1610,13H182C88.7,13,13,88.5,13,181.8l0,0v1178.9c101,23.8,211.7,15.6,292.6-47.2
		c19.3-15.1,36.6-32.7,51.4-52.4V580.8C269.2,549.7,215.3,461.3,227.8,369c12.9-96,95.2-170,194.7-170
		c61.7-0.1,119.8,28.9,156.9,78.2h946.9c13.6-15.8,25.8-32.7,36.5-50.6C1601,162.8,1616.2,87,1610,13z"/>
	
		<linearGradient id="SVGID_2_" gradientUnits="userSpaceOnUse" x1="1262.5491" y1="2343.27" x2="-807.4014" y2="93.8605" gradientTransform="matrix(1 0 0 -1 0 1948)">
		<stop  offset="0" style="stop-color:#272C6B"/>
		<stop  offset="1" style="stop-color:#5475B9"/>
	</linearGradient>
	<path class="st1" d="M1483.4,13H181.9C88.6,13,13,88.6,13,181.9v914.9c78.4,23.2,164,22.7,232.8-19.2
		c50-30.4,84.8-78.2,111.2-131.3V580.8C269.2,549.7,215.3,461.3,227.8,369c12.9-96,95.2-170,194.7-170
		c61.7-0.1,119.8,28.9,156.9,78.2h843.4c2.1-2.5,4.2-5.1,6.2-7.8C1484,197.7,1502,101.2,1483.4,13z"/>
	
		<linearGradient id="SVGID_3_" gradientUnits="userSpaceOnUse" x1="13.0999" y1="1543.55" x2="900.6" y2="1543.55" gradientTransform="matrix(1 0 0 -1 0 1948)">
		<stop  offset="0" style="stop-color:#272C6B"/>
		<stop  offset="1" style="stop-color:#5475B9"/>
	</linearGradient>
	<path class="st2" d="M900.6,13c-15.4,36.2-38.3,68.8-68.9,94.5c-29,24.4-62.1,41.4-97.6,54c-28.9,10.3-59.4,17.8-90.5,24
		c-49.5,9.9-100.7,16.6-149.6,26.8c-22.8-8.9-47-13.4-71.4-13.4c-99.5,0-181.8,74-194.7,170.1c-3.2,23.8-2.1,48,3.4,71.5
		c-5,16.8-9.4,33.9-13.8,51.1c-12.7,50-24.8,100.6-47,146.2c-33.2,68.3-90,123-157.4,158.1v-614C13,88.6,88.6,13,181.9,13H900.6z"/>
	
		<linearGradient id="SVGID_4_" gradientUnits="userSpaceOnUse" x1="13" y1="1442.9874" x2="342.3904" y2="1442.9874" gradientTransform="matrix(1 0 0 -1 0 1948)">
		<stop  offset="0" style="stop-color:#272C6B"/>
		<stop  offset="1" style="stop-color:#5475B9"/>
	</linearGradient>
	<path class="st3" d="M307.7,856.5c-42.6,72.7-119.9,122-201.9,136c-29.1,4.9-58.7,5.8-88,2.8c-2.7-0.3-4.8-2.6-4.8-5.3V66.2
		C13,36.8,36.8,13,66.2,13h190.5c2.1,0,4.1,1.3,4.9,3.3c6.8,15.5,11.1,32,12.8,48.8c0.8,8.6,1,17.3,0.5,25.9
		c-4.6,91.7-75.2,178.2-90.2,266.9c-3.9,23-4,46.1,1.7,69.6c5.8,23.7,17,44.6,30.8,64.2c29.6,42.2,71.3,78.4,96.9,123.9
		C355.1,688.3,350.3,783.8,307.7,856.5z"/>
	
		<linearGradient id="SVGID_5_" gradientUnits="userSpaceOnUse" x1="13" y1="1696.3" x2="1400.3" y2="1696.3" gradientTransform="matrix(1 0 0 -1 0 1948)">
		<stop  offset="2.000000e-02" style="stop-color:#0034E3;stop-opacity:0.6"/>
		<stop  offset="0.22" style="stop-color:#004DE7;stop-opacity:0.5"/>
		<stop  offset="0.61" style="stop-color:#008EF3;stop-opacity:0.26"/>
		<stop  offset="1" style="stop-color:#00D2FF;stop-opacity:0"/>
	</linearGradient>
	<path class="st4" d="M1400.3,13c-34,94-90.3,180-163.9,247.7c-6.1,5.6-12.4,11.1-18.8,16.5H754.5c-11.1-8.4-22-17.1-32.7-25.9
		l-3-2.4c-25.2-20.8-50.1-42.5-75.4-63.3c-45.8-37.7-93.4-72.7-147.7-95.8C425.8,60.2,339.7,55.6,275,91
		c-14.7,8-28.2,18.2-39.9,30.1c-60.3,61.4-73.3,151.1-102.3,229.3C111,409.3,80,461.6,13,490.4V67c0-29.8,24.2-54,54-54H1400.3z"/>
	
		<linearGradient id="SVGID_6_" gradientUnits="userSpaceOnUse" x1="717.7607" y1="1802.9" x2="814.8" y2="1802.9" gradientTransform="matrix(1 0 0 -1 0 1948)">
		<stop  offset="0" style="stop-color:#00D2FF"/>
		<stop  offset="0.31" style="stop-color:#57E1FF"/>
		<stop  offset="0.64" style="stop-color:#B1F1FF"/>
		<stop  offset="0.88" style="stop-color:#E9FBFF"/>
		<stop  offset="1" style="stop-color:#FFFFFF"/>
	</linearGradient>
	<path class="st5" d="M718.3,277.2c-0.1-7.2,0-14.3,0.2-21.5c0.1-2.3,0.2-4.6,0.3-6.8c1.6-29.6,6.7-58.9,15.1-87.3
		C750.1,107,777.5,56.4,814.3,13"/>
	
		<linearGradient id="SVGID_7_" gradientUnits="userSpaceOnUse" x1="12.6" y1="1589.0713" x2="228.3" y2="1589.0713" gradientTransform="matrix(1 0 0 -1 0 1948)">
		<stop  offset="0" style="stop-color:#00D2FF"/>
		<stop  offset="0.31" style="stop-color:#57E1FF"/>
		<stop  offset="0.64" style="stop-color:#B1F1FF"/>
		<stop  offset="0.88" style="stop-color:#E9FBFF"/>
		<stop  offset="1" style="stop-color:#FFFFFF"/>
	</linearGradient>
	<path class="st6" d="M227.8,369.1c-14.1-4.5-28.4-8.2-42.9-11.2c-17.2-3.5-34.5-6-52-7.5c-40-3.4-80.3-1.5-119.8,5.5"/>
	
		<linearGradient id="SVGID_8_" gradientUnits="userSpaceOnUse" x1="223.5" y1="1552" x2="626.5" y2="1552" gradientTransform="matrix(1 0 0 -1 0 1948)">
		<stop  offset="0" style="stop-color:#272C6B"/>
		<stop  offset="1" style="stop-color:#5475B9"/>
	</linearGradient>
	<circle class="st7" cx="425" cy="396" r="196.5"/>
	
		<linearGradient id="SVGID_9_" gradientUnits="userSpaceOnUse" x1="310.5" y1="-169.5397" x2="539.6" y2="-169.5397" gradientTransform="matrix(1 0 0 1 0 574)">
		<stop  offset="0" style="stop-color:#272D6C"/>
		<stop  offset="0.28" style="stop-color:#313D7D"/>
		<stop  offset="0.83" style="stop-color:#4B67AA"/>
		<stop  offset="1" style="stop-color:#5475B9"/>
	</linearGradient>
	
		<linearGradient id="SVGID_10_" gradientUnits="userSpaceOnUse" x1="310" y1="-169.5397" x2="540.1" y2="-169.5397" gradientTransform="matrix(1 0 0 1 0 574)">
		<stop  offset="0" style="stop-color:#272D6C"/>
		<stop  offset="0.28" style="stop-color:#313D7D"/>
		<stop  offset="0.83" style="stop-color:#4B67AA"/>
		<stop  offset="1" style="stop-color:#5475B9"/>
	</linearGradient>
	<path class="st8" d="M481.1,516.7H481c-13.3-0.1-18.5-12.2-18.5-12.3l-0.1-0.2v-22.5l0.1-0.3c0.1-0.2,0.1-0.6,0.3-1
		c1.3-4.5,5.8-14.9,18.9-14.9l0,0c6.4-0.2,11.4,1.4,14.8,5c5.2,5.5,4.6,13.5,4.6,13.8l-1.2,22.6l-0.2,0.3
		C499.3,507.6,491.1,516.7,481.1,516.7z M464.4,503.9c0.7,1.5,5.3,10.8,16.6,10.9h0.1c8.2,0,15.5-7.1,16.8-8.6l1.2-21.5
		c-0.5,0.4-1.1,0.8-1.8,1.2l0.4,0.3l-1.1,1.6l-1.1-0.8c-4.4,2.4-9.2,3.7-14.2,3.8c-7.7,0-14.3-4.9-16.7-7L464.4,503.9z M482.3,482.4
		v6.3c3.9-0.3,7.7-1.3,11.2-3.1l0,0l1.2-1.6l0.8,0.6c1.3-0.7,2.5-1.5,3.6-2.4c-0.2-2.6-0.9-6.9-4-10.2c-2.8-3-7-4.4-12.5-4.4v3.7
		c1.7,0.6,3,2.8,3,5.5S484.2,481.9,482.3,482.4z M464.9,481.5c0.1,0.1,7.1,6.7,15.4,7.2v-6.5c-1.6-0.7-2.7-2.9-2.7-5.4
		s1.3-4.9,3-5.5v-3.7c-10.9,0.6-14.7,9.5-15.8,13.4c-0.1,0.4-0.2,0.6-0.2,0.8L464.9,481.5z M481.6,473.1c-0.9,0-2,1.5-2,3.7
		s1,3.7,2,3.7s2-1.5,2-3.7S482.5,473.1,481.6,473.1z M438.3,515.8H328V475h110.3V515.8z M330.1,513.8h106.3V477H330L330.1,513.8z
		 M430.3,509.8h-9v-18.7h9V509.8z M423.3,507.8h5v-14.7h-5V507.8z M418.5,509.8h-9v-8.5h9V509.8z M411.5,507.8h5v-4.5h-5V507.8z
		 M394.6,509.8h-9v-8.5h9V509.8z M387.6,507.8h5v-4.5h-5V507.8z M381.3,509.8h-32.8v-8.5h32.7L381.3,509.8z M350.6,507.8h28.6v-4.5
		h-28.7L350.6,507.8z M344.5,509.8h-9v-8.5h9V509.8z M337.5,507.8h5v-4.5h-5V507.8z M418.6,499.7h-9v-8.5h9V499.7z M411.6,497.7h5
		v-4.5h-5V497.7z M406.7,499.7h-9v-8.5h9V499.7z M399.7,497.7h5v-4.5h-5V497.7z M394.7,499.7h-9v-8.5h9V499.7z M387.7,497.7h5v-4.5
		h-5V497.7z M381.5,499.7h-9v-8.5h9V499.7z M374.5,497.7h5v-4.5h-5V497.7z M370.1,499.7h-9v-8.5h9V499.7z M363.1,497.7h5v-4.5h-5
		V497.7z M357.9,499.7h-9v-8.5h9V499.7z M350.9,497.7h5v-4.5h-5V497.7z M344.8,499.7h-9v-8.5h9V499.7z M337.8,497.7h5v-4.5h-5V497.7
		z M430.8,489.5h-9V481h9V489.5z M423.8,487.5h5V483h-5V487.5z M418.9,489.5h-9V481h9V489.5z M411.9,487.5h5V483h-5V487.5z
		 M407,489.5h-21.6V481h21.1L407,489.5z M388,487.5h17V483h-17.6L388,487.5z M381.7,489.5h-9V481h9V489.5z M374.7,487.5h5V483h-5
		V487.5z M370.4,489.5h-9V481h9V489.5z M363.4,487.5h5V483h-5V487.5z M358.1,489.5h-9V481h9V489.5z M351.1,487.5h5V483h-5V487.5z
		 M345,489.5h-9V481h9V489.5z M338,487.5h5V483h-5V487.5z M444,469.2h-41.4v-6.7l0.1-0.2c0.5-1.2,1.7-3.1,3.6-2.7h3.6v-13.5h-51
		c-7.2,0-13-5.8-13-13l0,0v-81.3c0-7.2,5.8-13,13-13l0,0h130.3c7.2,0,13,5.8,13,13l0,0v81.3c0,7.2-5.8,13-13,13l0,0h-50.9v13.5h2.9
		c2.2,0.1,3.9,2.1,3.7,4.3v0.1c-0.2,1.3-0.2,2.7,0,4l0.2,1.2L444,469.2z M404.7,467.2h38.2c-0.1-1.1,0-2.2,0.1-3.4
		c0.1-1.1-0.7-2.1-1.8-2.2h-0.1H406c-0.5-0.2-1.1,0.8-1.3,1.3L404.7,467.2z M412,459.7h24.4v-13.5H412V459.7z M359,340.8
		c-6.1,0-11,4.9-11,11v81.3c0,6.1,4.9,11,11,11l0,0h130.3c6.1,0,11-4.9,11-11l0,0v-81.3c0-6.1-4.9-11-11-11H359z M422.7,437.2
		c-1.9-0.1-3.3-1.7-3.2-3.6c0.1-1.9,1.7-3.3,3.6-3.2c1.8,0.1,3.2,1.6,3.2,3.4C426.3,435.8,424.7,437.3,422.7,437.2L422.7,437.2
		L422.7,437.2z M422.7,432.5c-0.8,0.1-1.3,0.8-1.2,1.6c0.1,0.8,0.8,1.3,1.6,1.2c0.7-0.1,1.2-0.7,1.2-1.4
		C424.3,433,423.6,432.4,422.7,432.5L422.7,432.5L422.7,432.5z M476.8,422h-2v-38h-5.6v38h-2v-38h-9.9v38h-2v-38h-5.6v38h-2v-40h0.4
		l15.2-30l13.2,29.9h0.4L476.8,422z M450.3,382h23.9l-5.4-12.3h-12.3L450.3,382z M457.5,367.7h10.4l-4.8-11L457.5,367.7z
		 M420.8,418.8c-8.6,0-15.6-6.5-15.6-14.5s7-14.5,15.6-14.5s15.6,6.5,15.6,14.5S429.4,418.8,420.8,418.8z M420.8,391.7
		c-7.5,0-13.6,5.6-13.6,12.5s6.1,12.5,13.6,12.5s13.6-5.6,13.6-12.5S428.3,391.7,420.8,391.7z M396.8,416.8h-27.2v-25.3h27.2V416.8z
		 M371.6,414.8h23.2v-21.3h-23.2V414.8z M420.8,413.4c-5.4,0-9.8-4.1-9.8-9.2s4.4-9.2,9.8-9.2s9.8,4.1,9.8,9.2
		S426.2,413.4,420.8,413.4L420.8,413.4z M420.8,397.1c-4.3,0-7.8,3.2-7.8,7.2s3.5,7.2,7.8,7.2s7.8-3.2,7.8-7.2
		S425.1,397.1,420.8,397.1L420.8,397.1z M391.1,411.6h-15.9v-14.8h15.9V411.6z M377.3,409.6h11.9v-10.8h-11.9V409.6z M330.1,405.2
		h-19.6V387h19.6V405.2z M312.5,403.2h15.6V389h-15.6V403.2z M539.6,405.1h-28.2v-85.9h28.2V405.1z M513.4,403.1h24.2v-81.9h-24.2
		V403.1z M532.5,400h-6.3v-4.6h6.3V400z M528.2,398h2.3v-0.6h-2.3V398z M532.5,389.2h-6.3v-4.6h6.3V389.2z M528.2,387.2h2.3v-0.6
		h-2.3V387.2z M330.1,382.7h-19.6v-18.3h19.6V382.7z M312.5,380.7h15.6v-14.3h-15.6V380.7z M418.3,380.3h-32.6l16.9-29.7
		L418.3,380.3z M389.1,378.3H415l-12.5-23.5L389.1,378.3z M532.5,379.3h-6.3v-4.6h6.3V379.3z M528.2,377.3h2.3v-0.6h-2.3V377.3z
		 M410.8,375.8h-17.7l9.1-15.7L410.8,375.8z M396.7,373.8h10.8l-5.2-9.6L396.7,373.8z M532.5,369.5h-6.3v-4.6h6.3V369.5z
		 M528.2,367.5h2.3v-0.6h-2.3V367.5z M330.1,360.1h-19.6v-18.3h19.6V360.1z M312.5,358.1h15.6v-14.3h-15.6V358.1z M532.5,359.7h-6.3
		V355h6.3V359.7z M528.2,357.7h2.3V357h-2.3V357.7z M532.5,349.8h-6.3v-4.6h6.3V349.8z M528.2,347.8h2.3v-0.6h-2.3V347.8z
		 M532.5,340.3h-6.3v-4.6h6.3V340.3z M528.2,338.3h2.3v-0.6h-2.3V338.3z M330.1,337.5h-19.6v-18.3h19.6V337.5z M312.5,335.5h15.6
		v-14.3h-15.6V335.5z M482.7,332.5c-2.9-0.2-5.1-2.7-5-5.6c0.2-2.9,2.7-5.1,5.6-5c2.8,0.2,5,2.5,5,5.3
		C488.2,330.2,485.7,332.6,482.7,332.5L482.7,332.5z M482.7,323.9c-1.8,0.2-3.2,1.8-3,3.6s1.8,3.2,3.6,3c1.7-0.2,3-1.6,3-3.3
		C486.3,325.3,484.7,323.8,482.7,323.9C482.8,323.9,482.7,323.9,482.7,323.9L482.7,323.9z M359.8,332.5c-2.9-0.2-5.2-2.7-5-5.6
		s2.7-5.2,5.6-5c2.8,0.2,5,2.5,5,5.3C365.3,330.2,362.8,332.6,359.8,332.5z M359.8,323.9c-1.8,0.2-3.1,1.8-3,3.6
		c0.2,1.8,1.8,3.1,3.6,3c1.7-0.2,3-1.6,3-3.3C363.3,325.3,361.7,323.8,359.8,323.9z M532.5,330h-6.3v-4.6h6.3V330z M528.2,328h2.3
		v-0.6h-2.3V328z M472.9,330h-8.1v-5.6h8.1V330z M466.8,328h4.1v-1.6h-4.1V328z M459.1,330H451v-5.6h8.1V330z M453,328h4.1v-1.6H453
		V328z M446.1,330H438v-5.6h8.1V330z M440,328h4.1v-1.6H440V328z M433,330h-8.1v-5.6h8.1V330z M426.9,328h4.1v-1.6h-4.1V328z
		 M420.4,330h-8.1v-5.6h8.1V330z M414.3,328h4.1v-1.6h-4.1V328z M406.2,330h-8.1v-5.6h8.1V330z M400.1,328h4.1v-1.6h-4.1V328z
		 M393.4,330h-8.1v-5.6h8.1V330z M387.3,328h4.1v-1.6h-4.1V328z M380.8,330h-8.1v-5.6h8.1V330z M374.7,328h4.1v-1.6h-4.1V328z
		 M448,318.2c-9.6,0-17.7-5-19.3-6.1h-13.3V300c-17.3-11.9-31.1-2-33.5-0.1v12.2h-14.6v-13.7h13.2c2.3-1.9,17.6-12.9,36.1,0h13.3
		v12.1c2.8,1.9,18.7,11.5,32.2,0.6v-12.8h14.6V312h-12.5C459.7,316,453.9,318.2,448,318.2L448,318.2z M464.2,310.1h10.6v-9.7h-10.6
		V310.1z M417.4,310.1H428v-9.7h-10.6V310.1z M369.4,310.1H380v-9.7h-10.7L369.4,310.1z"/>
	
		<linearGradient id="SVGID_11_" gradientUnits="userSpaceOnUse" x1="346.9" y1="-148.3" x2="501.2" y2="-148.3" gradientTransform="matrix(1 0 0 1 0 574)">
		<stop  offset="0" style="stop-color:#272D6C"/>
		<stop  offset="0.28" style="stop-color:#313D7D"/>
		<stop  offset="0.83" style="stop-color:#4B67AA"/>
		<stop  offset="1" style="stop-color:#5475B9"/>
	</linearGradient>
	<line class="st9" x1="346.9" y1="425.7" x2="501.2" y2="425.7"/>
	
		<linearGradient id="SVGID_12_" gradientUnits="userSpaceOnUse" x1="346.9" y1="-148.3" x2="501.2" y2="-148.3" gradientTransform="matrix(1 0 0 1 0 574)">
		<stop  offset="0" style="stop-color:#272D6C"/>
		<stop  offset="0.28" style="stop-color:#313D7D"/>
		<stop  offset="0.83" style="stop-color:#4B67AA"/>
		<stop  offset="1" style="stop-color:#5475B9"/>
	</linearGradient>
	
		<linearGradient id="SVGID_13_" gradientUnits="userSpaceOnUse" x1="346.4" y1="-148.3" x2="501.7" y2="-148.3" gradientTransform="matrix(1 0 0 1 0 574)">
		<stop  offset="0" style="stop-color:#272D6C"/>
		<stop  offset="0.28" style="stop-color:#313D7D"/>
		<stop  offset="0.83" style="stop-color:#4B67AA"/>
		<stop  offset="1" style="stop-color:#5475B9"/>
	</linearGradient>
	<rect x="346.9" y="424.7" class="st10" width="154.3" height="2"/>
</g>
</svg>
