<svg id="Layer_1" data-name="Layer 1" xmlns="http://www.w3.org/2000/svg" viewBox="0 0 136.53 137.87"><defs><style>.cls-1,.cls-4{fill:#231f20;}.cls-1{opacity:0.2;}.cls-2{fill:#fff;}.cls-3{fill:#2a3473;}</style></defs><circle class="cls-1" cx="70.15" cy="71.49" r="66.38"/><circle class="cls-2" cx="66.38" cy="66.38" r="66.38"/><circle class="cls-3" cx="67.17" cy="66.64" r="55.74"/><path class="cls-2" d="M370.46,326.49s-26.9,10.21-42.22-9.19-3.74-38.81-3.74-38.81S367.05,291.76,370.46,326.49Z" transform="translate(-245.41 -268.4)"/><path class="cls-4" d="M340.67,295a6.07,6.07,0,0,1,5,2.3q2.16,2.73,2.16,9t-2.18,9.05a6.05,6.05,0,0,1-5,2.27,6.38,6.38,0,0,1-5.23-2.49q-2-2.49-2-8.88c0-4.18.73-7.18,2.18-9A6.07,6.07,0,0,1,340.67,295Zm0,3.53a2.1,2.1,0,0,0-1.38.49,3.23,3.23,0,0,0-.94,1.76,36.15,36.15,0,0,0-.05,10.92,3.84,3.84,0,0,0,1,1.95,2.12,2.12,0,0,0,1.37.48,2.09,2.09,0,0,0,1.37-.49,3.27,3.27,0,0,0,.94-1.76A36.08,36.08,0,0,0,343,301a4,4,0,0,0-1-1.95A2.09,2.09,0,0,0,340.67,298.55Z" transform="translate(-245.41 -268.4)"/><path class="cls-4" d="M359.06,317.3v-4.46H350v-3.73L359.6,295h3.57V309.1h2.76v3.74h-2.76v4.46Zm0-8.2v-7.59L354,309.1Z" transform="translate(-245.41 -268.4)"/><path class="cls-2" d="M288.67,345.29a3.44,3.44,0,0,1-.16,1.1,3,3,0,0,1-.46.87,2.94,2.94,0,0,1-.71.65,4.21,4.21,0,0,1-.9.45,5.76,5.76,0,0,1-1.05.26,9.23,9.23,0,0,1-1.24.08h-3a.73.73,0,0,1-.49-.17.7.7,0,0,1-.2-.56v-9.91a.7.7,0,0,1,.2-.56.73.73,0,0,1,.49-.17H284a8,8,0,0,1,1.77.17A3.42,3.42,0,0,1,287,338a2.22,2.22,0,0,1,.76.9,2.84,2.84,0,0,1,.27,1.28,2.77,2.77,0,0,1-.11.78,2.47,2.47,0,0,1-.3.66,2.52,2.52,0,0,1-.5.53,2.89,2.89,0,0,1-.67.37,2.94,2.94,0,0,1,.89.31,2.41,2.41,0,0,1,.71.56,2.77,2.77,0,0,1,.48.82A2.87,2.87,0,0,1,288.67,345.29Zm-3-4.79a1.66,1.66,0,0,0-.11-.61,1,1,0,0,0-.32-.46,1.33,1.33,0,0,0-.53-.27,2.82,2.82,0,0,0-.85-.1h-1.17V342H284a2.21,2.21,0,0,0,.8-.12,1.27,1.27,0,0,0,.79-.8A1.92,1.92,0,0,0,285.69,340.5Zm.59,4.87a1.8,1.8,0,0,0-.14-.71,1.3,1.3,0,0,0-.38-.52,1.72,1.72,0,0,0-.65-.32,3.68,3.68,0,0,0-1-.12h-1.37v3.24h1.67a2.69,2.69,0,0,0,.81-.11,1.54,1.54,0,0,0,.57-.29,1.45,1.45,0,0,0,.38-.5A1.57,1.57,0,0,0,286.28,345.37Z" transform="translate(-245.41 -268.4)"/><path class="cls-2" d="M297.83,348.4a.29.29,0,0,1,0,.16.37.37,0,0,1-.15.11,1.13,1.13,0,0,1-.3.06,3,3,0,0,1-.45,0,3.18,3.18,0,0,1-.47,0,.9.9,0,0,1-.28-.06.37.37,0,0,1-.15-.11.3.3,0,0,1-.05-.16v-.9a4.76,4.76,0,0,1-1.32,1.05,2.9,2.9,0,0,1-1.39.35,3.09,3.09,0,0,1-1.36-.26,2.44,2.44,0,0,1-.89-.72,2.85,2.85,0,0,1-.48-1.06,6.31,6.31,0,0,1-.15-1.5v-4.8a.25.25,0,0,1,0-.15.37.37,0,0,1,.18-.11,1.81,1.81,0,0,1,.34-.07l.53,0,.54,0a2,2,0,0,1,.34.07.5.5,0,0,1,.18.11.25.25,0,0,1,.05.15V345a4.35,4.35,0,0,0,.08.94,1.51,1.51,0,0,0,.24.56,1.08,1.08,0,0,0,.41.36,1.25,1.25,0,0,0,.59.13,1.44,1.44,0,0,0,.85-.31,5.32,5.32,0,0,0,.91-.89v-5.22a.24.24,0,0,1,0-.15.43.43,0,0,1,.18-.11,1.81,1.81,0,0,1,.34-.07l.53,0,.54,0a1.68,1.68,0,0,1,.33.07.37.37,0,0,1,.18.11.2.2,0,0,1,.05.15Z" transform="translate(-245.41 -268.4)"/><path class="cls-2" d="M302.44,337.91a1.25,1.25,0,0,1-.27.92,2.13,2.13,0,0,1-2,0,1.21,1.21,0,0,1-.26-.89,1.25,1.25,0,0,1,.27-.92,2.11,2.11,0,0,1,2,0A1.17,1.17,0,0,1,302.44,337.91Zm-.17,10.49a.3.3,0,0,1,0,.16.5.5,0,0,1-.18.11,1.39,1.39,0,0,1-.34.06,4.19,4.19,0,0,1-.54,0,4.11,4.11,0,0,1-.53,0,1.31,1.31,0,0,1-.34-.06.37.37,0,0,1-.18-.11.24.24,0,0,1-.05-.16v-7.82a.2.2,0,0,1,.05-.15.37.37,0,0,1,.18-.12,1.81,1.81,0,0,1,.34-.07,3.89,3.89,0,0,1,.53,0,4,4,0,0,1,.54,0,2,2,0,0,1,.34.07.51.51,0,0,1,.18.12.25.25,0,0,1,0,.15Z" transform="translate(-245.41 -268.4)"/><path class="cls-2" d="M306.69,348.4a.3.3,0,0,1-.05.16.5.5,0,0,1-.18.11,1.39,1.39,0,0,1-.34.06,4.11,4.11,0,0,1-.53,0,4.19,4.19,0,0,1-.54,0,1.39,1.39,0,0,1-.34-.06.5.5,0,0,1-.18-.11.3.3,0,0,1,0-.16V336.85a.28.28,0,0,1,0-.16.41.41,0,0,1,.18-.12,1.9,1.9,0,0,1,.34-.08l.54,0,.53,0a1.9,1.9,0,0,1,.34.08.41.41,0,0,1,.18.12.28.28,0,0,1,.05.16Z" transform="translate(-245.41 -268.4)"/><path class="cls-2" d="M316.33,348.4a.31.31,0,0,1,0,.17.37.37,0,0,1-.15.11,1.49,1.49,0,0,1-.28.06H315a1.49,1.49,0,0,1-.28-.06.34.34,0,0,1-.16-.11.31.31,0,0,1-.05-.17v-.87a4.86,4.86,0,0,1-1.27,1,3,3,0,0,1-1.47.36,3.1,3.1,0,0,1-1.52-.34,2.93,2.93,0,0,1-1-.94,3.91,3.91,0,0,1-.56-1.37,7.47,7.47,0,0,1-.18-1.66,7.64,7.64,0,0,1,.22-1.88,4.29,4.29,0,0,1,.66-1.43,2.9,2.9,0,0,1,1.07-.9,3.32,3.32,0,0,1,1.48-.32,2.57,2.57,0,0,1,1.19.27,4.15,4.15,0,0,1,1.07.79v-4.25a.24.24,0,0,1,.05-.16.38.38,0,0,1,.17-.11,1.31,1.31,0,0,1,.34-.08,4,4,0,0,1,.54,0,3.89,3.89,0,0,1,.53,0,1.31,1.31,0,0,1,.34.08.38.38,0,0,1,.17.11.24.24,0,0,1,.05.16Zm-2.19-5.24a5.19,5.19,0,0,0-.91-.91,1.55,1.55,0,0,0-.91-.32,1.33,1.33,0,0,0-.75.22,1.67,1.67,0,0,0-.5.58,3.14,3.14,0,0,0-.28.8,4.6,4.6,0,0,0-.09.91,6,6,0,0,0,.08,1,3,3,0,0,0,.26.83,1.53,1.53,0,0,0,.48.58,1.21,1.21,0,0,0,.75.22,1.68,1.68,0,0,0,.45-.06,2,2,0,0,0,.44-.22,3.08,3.08,0,0,0,.46-.39c.16-.16.33-.36.52-.59Z" transform="translate(-245.41 -268.4)"/><path class="cls-2" d="M320.94,337.91a1.25,1.25,0,0,1-.27.92,1.5,1.5,0,0,1-1,.26,1.52,1.52,0,0,1-1-.25,1.21,1.21,0,0,1-.26-.89,1.25,1.25,0,0,1,.27-.92,1.44,1.44,0,0,1,1-.26,1.48,1.48,0,0,1,1,.25A1.21,1.21,0,0,1,320.94,337.91Zm-.17,10.49a.24.24,0,0,1,0,.16.5.5,0,0,1-.18.11,1.39,1.39,0,0,1-.34.06,4.11,4.11,0,0,1-.53,0,4.19,4.19,0,0,1-.54,0,1.39,1.39,0,0,1-.34-.06.5.5,0,0,1-.18-.11.3.3,0,0,1-.05-.16v-7.82a.25.25,0,0,1,.05-.15.51.51,0,0,1,.18-.12,2,2,0,0,1,.34-.07,4,4,0,0,1,.54,0,3.89,3.89,0,0,1,.53,0,2,2,0,0,1,.34.07.51.51,0,0,1,.18.12.2.2,0,0,1,0,.15Z" transform="translate(-245.41 -268.4)"/><path class="cls-2" d="M330.47,348.4a.25.25,0,0,1-.06.16.38.38,0,0,1-.17.11,1.31,1.31,0,0,1-.34.06,4.11,4.11,0,0,1-.53,0,4.19,4.19,0,0,1-.54,0,1.23,1.23,0,0,1-.34-.06.5.5,0,0,1-.18-.11.3.3,0,0,1-.05-.16v-4.47a4.2,4.2,0,0,0-.08-.9,2.2,2.2,0,0,0-.24-.56,1.29,1.29,0,0,0-.41-.36,1.35,1.35,0,0,0-.59-.12,1.49,1.49,0,0,0-.85.3,4.76,4.76,0,0,0-.9.9v5.21a.24.24,0,0,1-.05.16.37.37,0,0,1-.18.11,1.31,1.31,0,0,1-.34.06,4.11,4.11,0,0,1-.53,0,4.19,4.19,0,0,1-.54,0,1.39,1.39,0,0,1-.34-.06.5.5,0,0,1-.18-.11.3.3,0,0,1,0-.16v-7.84a.24.24,0,0,1,0-.15.34.34,0,0,1,.16-.11,1.54,1.54,0,0,1,.29-.07l.46,0,.46,0a1.23,1.23,0,0,1,.29.07.27.27,0,0,1,.14.11.25.25,0,0,1,.05.15v.91a5,5,0,0,1,1.32-1.06,3.06,3.06,0,0,1,1.4-.35,3,3,0,0,1,1.35.27,2.32,2.32,0,0,1,.89.71,3,3,0,0,1,.49,1.06,6.19,6.19,0,0,1,.15,1.46Z" transform="translate(-245.41 -268.4)"/><path class="cls-2" d="M339.7,341.11a1.59,1.59,0,0,1-.09.62c-.07.14-.15.2-.24.2h-.92a1.21,1.21,0,0,1,.27.48,1.77,1.77,0,0,1,.09.56,3.12,3.12,0,0,1-.23,1.22,2.45,2.45,0,0,1-.66.9,2.94,2.94,0,0,1-1,.55,4.38,4.38,0,0,1-1.34.19,2.73,2.73,0,0,1-.72-.09,2.11,2.11,0,0,1-.53-.22,1.31,1.31,0,0,0-.19.27.72.72,0,0,0-.08.35.5.5,0,0,0,.22.42,1.12,1.12,0,0,0,.63.18l1.91.07A4.71,4.71,0,0,1,338,347a2.49,2.49,0,0,1,.87.46,1.92,1.92,0,0,1,.55.71,2.13,2.13,0,0,1,.19.94,2.43,2.43,0,0,1-.26,1.09,2.47,2.47,0,0,1-.76.89,4.11,4.11,0,0,1-1.28.6,6.42,6.42,0,0,1-1.8.22,7.71,7.71,0,0,1-1.71-.16,3.56,3.56,0,0,1-1.16-.44,1.83,1.83,0,0,1-.66-.67,1.91,1.91,0,0,1-.2-.86,2,2,0,0,1,.07-.55,2.53,2.53,0,0,1,.22-.51,3,3,0,0,1,.36-.46,5.15,5.15,0,0,1,.48-.42,1.4,1.4,0,0,1-.58-.55,1.43,1.43,0,0,1-.21-.76,1.88,1.88,0,0,1,.24-.94,3,3,0,0,1,.61-.77,2.39,2.39,0,0,1-.49-.74,2.82,2.82,0,0,1-.18-1.07,3,3,0,0,1,.24-1.23,2.54,2.54,0,0,1,.67-.91,3,3,0,0,1,1-.57,4,4,0,0,1,1.32-.2,5.53,5.53,0,0,1,.71,0,5.25,5.25,0,0,1,.62.12h2.49c.1,0,.18.07.24.2A1.66,1.66,0,0,1,339.7,341.11Zm-2.32,8.11a.69.69,0,0,0-.31-.61,1.64,1.64,0,0,0-.87-.22l-1.58-.05a2.38,2.38,0,0,0-.36.32,1.75,1.75,0,0,0-.22.3.77.77,0,0,0-.11.27,1.24,1.24,0,0,0,0,.27.72.72,0,0,0,.45.67,2.78,2.78,0,0,0,1.25.23,3.33,3.33,0,0,0,.84-.1A1.72,1.72,0,0,0,337,350a1,1,0,0,0,.3-.37A1.32,1.32,0,0,0,337.38,349.22Zm-.51-6.26a1.23,1.23,0,0,0-1.35-1.33,1.26,1.26,0,0,0-.57.11,1.12,1.12,0,0,0-.41.3,1.14,1.14,0,0,0-.24.43,1.89,1.89,0,0,0-.08.53,1.27,1.27,0,0,0,.35.94,1.35,1.35,0,0,0,1,.35,1.5,1.5,0,0,0,.58-.11,1.09,1.09,0,0,0,.41-.29,1.24,1.24,0,0,0,.24-.42A1.44,1.44,0,0,0,336.87,343Z" transform="translate(-245.41 -268.4)"/></svg>