<svg id="Layer_1" data-name="Layer 1" xmlns="http://www.w3.org/2000/svg" viewBox="0 0 136.53 137.87"><defs><style>.cls-1,.cls-4{fill:#231f20;}.cls-1{opacity:0.2;}.cls-2{fill:#fff;}.cls-3{fill:#2a3473;}</style></defs><circle class="cls-1" cx="70.15" cy="71.49" r="66.38"/><circle class="cls-2" cx="66.38" cy="66.38" r="66.38"/><circle class="cls-3" cx="67.17" cy="66.64" r="55.74"/><path class="cls-2" d="M277.84,290.3s12.56,25.88,37,22.27,29.35-25.67,29.35-25.67S304.14,267.37,277.84,290.3Z" transform="translate(-245.41 -269.44)"/><path class="cls-4" d="M303.65,281.14a6.1,6.1,0,0,1,5,2.3q2.16,2.73,2.16,9t-2.18,9a6,6,0,0,1-5,2.27,6.36,6.36,0,0,1-5.23-2.49q-2-2.49-2-8.88t2.18-9A6.07,6.07,0,0,1,303.65,281.14Zm0,3.53a2.1,2.1,0,0,0-1.38.49,3.27,3.27,0,0,0-.94,1.77,36.15,36.15,0,0,0-.05,10.92,3.88,3.88,0,0,0,1,1.94,2.16,2.16,0,0,0,1.38.49,2.1,2.1,0,0,0,1.37-.5A3.2,3.2,0,0,0,306,298a36.08,36.08,0,0,0,.05-10.91,4,4,0,0,0-1-1.95A2.09,2.09,0,0,0,303.65,284.67Z" transform="translate(-245.41 -269.44)"/><path class="cls-4" d="M313.54,297.54l4.12-.5a3.89,3.89,0,0,0,1.06,2.4,3,3,0,0,0,4.31-.16,3.9,3.9,0,0,0,.9-2.7,3.63,3.63,0,0,0-.86-2.54,2.75,2.75,0,0,0-2.11-.94,7.55,7.55,0,0,0-1.95.32l.47-3.47a3.71,3.71,0,0,0,2.63-.75,2.65,2.65,0,0,0,.91-2.11,2.42,2.42,0,0,0-.67-1.79,2.39,2.39,0,0,0-1.77-.66,2.56,2.56,0,0,0-1.86.76,3.56,3.56,0,0,0-.94,2.21l-3.92-.67a8.81,8.81,0,0,1,1.24-3.22,5.55,5.55,0,0,1,2.3-1.89,7.67,7.67,0,0,1,3.3-.69,6.61,6.61,0,0,1,5,2,5.21,5.21,0,0,1,1.56,3.69q0,2.93-3.2,4.67a5.12,5.12,0,0,1,3.05,1.83,5.26,5.26,0,0,1,1.15,3.43,6.64,6.64,0,0,1-2.14,5,8,8,0,0,1-10.3.33A6.84,6.84,0,0,1,313.54,297.54Z" transform="translate(-245.41 -269.44)"/><path class="cls-2" d="M288.53,343a7.81,7.81,0,0,1-.41,2.67,4.49,4.49,0,0,1-1.18,1.82,4.58,4.58,0,0,1-1.85,1,9.11,9.11,0,0,1-2.61.33h-2.72a.72.72,0,0,1-.48-.17.67.67,0,0,1-.2-.56V338.2a.64.64,0,0,1,.68-.73h2.92a8.34,8.34,0,0,1,2.58.35,4.71,4.71,0,0,1,1.79,1.06,4.54,4.54,0,0,1,1.1,1.73A6.91,6.91,0,0,1,288.53,343Zm-2.39.08a6.06,6.06,0,0,0-.19-1.51,3.25,3.25,0,0,0-.61-1.2,2.9,2.9,0,0,0-1.07-.8,4.38,4.38,0,0,0-1.72-.28h-1.17V347h1.21a4.69,4.69,0,0,0,1.6-.24,2.67,2.67,0,0,0,1.08-.75,3.15,3.15,0,0,0,.65-1.23A6.3,6.3,0,0,0,286.14,343.07Z" transform="translate(-245.41 -269.44)"/><path class="cls-2" d="M297.54,344.39a.86.86,0,0,1-.18.6.65.65,0,0,1-.5.19h-4.77a3.31,3.31,0,0,0,.12.92,1.65,1.65,0,0,0,.37.69,1.72,1.72,0,0,0,.67.43,2.84,2.84,0,0,0,1,.15,5.15,5.15,0,0,0,1-.08,7,7,0,0,0,.76-.19,4.61,4.61,0,0,0,.53-.18,1.13,1.13,0,0,1,.35-.08.28.28,0,0,1,.13,0,.24.24,0,0,1,.08.11.55.55,0,0,1,0,.22,3.57,3.57,0,0,1,0,.37c0,.13,0,.24,0,.33s0,.16,0,.23a.54.54,0,0,1-.14.29,1.19,1.19,0,0,1-.32.17,3.92,3.92,0,0,1-.65.2,7.93,7.93,0,0,1-.9.18A7.49,7.49,0,0,1,294,349a5.61,5.61,0,0,1-1.83-.26,3.26,3.26,0,0,1-1.32-.8,3.34,3.34,0,0,1-.78-1.35,6.19,6.19,0,0,1-.26-1.92,6.1,6.1,0,0,1,.27-1.88,3.89,3.89,0,0,1,.79-1.43,3.41,3.41,0,0,1,1.26-.89,4.26,4.26,0,0,1,1.68-.31,4.47,4.47,0,0,1,1.68.29,3,3,0,0,1,1.15.81,3.28,3.28,0,0,1,.65,1.21,5,5,0,0,1,.22,1.53Zm-2.15-.63a2.28,2.28,0,0,0-.37-1.46,1.44,1.44,0,0,0-1.24-.53,1.67,1.67,0,0,0-.73.15,1.56,1.56,0,0,0-.52.43,2.08,2.08,0,0,0-.32.63,3.34,3.34,0,0,0-.12.78Z" transform="translate(-245.41 -269.44)"/><path class="cls-2" d="M304.87,346.33a2.62,2.62,0,0,1-.25,1.18,2.3,2.3,0,0,1-.7.85,3.17,3.17,0,0,1-1.08.51,4.92,4.92,0,0,1-1.36.17,4.81,4.81,0,0,1-1.55-.23,4.18,4.18,0,0,1-.53-.21,1.55,1.55,0,0,1-.31-.19.71.71,0,0,1-.15-.29,2.86,2.86,0,0,1-.05-.59c0-.17,0-.3,0-.41a1.11,1.11,0,0,1,0-.24.22.22,0,0,1,.09-.13.25.25,0,0,1,.13,0,.68.68,0,0,1,.28.11,3.56,3.56,0,0,0,.48.24,4.68,4.68,0,0,0,.65.25,2.78,2.78,0,0,0,.85.11,2.15,2.15,0,0,0,.53-.06,1.46,1.46,0,0,0,.4-.17.79.79,0,0,0,.26-.29.88.88,0,0,0,.09-.41.67.67,0,0,0-.16-.45,1.48,1.48,0,0,0-.43-.33,5.08,5.08,0,0,0-.61-.26l-.69-.28a5,5,0,0,1-.7-.34,3,3,0,0,1-.6-.47,2.07,2.07,0,0,1-.43-.68,2.44,2.44,0,0,1-.17-.95,2.5,2.5,0,0,1,.22-1,2.37,2.37,0,0,1,.64-.81,3,3,0,0,1,1-.51,4.27,4.27,0,0,1,1.33-.19,5.55,5.55,0,0,1,.72.05,4.92,4.92,0,0,1,.63.14,2.78,2.78,0,0,1,.47.17,1.3,1.3,0,0,1,.28.16.37.37,0,0,1,.12.13.5.5,0,0,1,.05.16c0,.06,0,.13,0,.22a3.28,3.28,0,0,1,0,.34,3.84,3.84,0,0,1,0,.39,1.19,1.19,0,0,1,0,.24.19.19,0,0,1-.09.12.21.21,0,0,1-.12,0,.52.52,0,0,1-.24-.1l-.42-.19a4.86,4.86,0,0,0-.58-.2,2.86,2.86,0,0,0-.75-.09,2,2,0,0,0-.52.06,1,1,0,0,0-.36.17.66.66,0,0,0-.21.27.72.72,0,0,0-.07.33.68.68,0,0,0,.16.46,1.52,1.52,0,0,0,.44.32,5.23,5.23,0,0,0,.62.27l.71.27a5.52,5.52,0,0,1,.7.33,2.64,2.64,0,0,1,.62.48,2.23,2.23,0,0,1,.44.67A2.38,2.38,0,0,1,304.87,346.33Z" transform="translate(-245.41 -269.44)"/><path class="cls-2" d="M308.92,338.05a1.25,1.25,0,0,1-.27.92,1.53,1.53,0,0,1-1,.26,1.51,1.51,0,0,1-1-.25,1.21,1.21,0,0,1-.26-.89,1.25,1.25,0,0,1,.27-.92,1.43,1.43,0,0,1,1-.26,1.45,1.45,0,0,1,1,.25A1.17,1.17,0,0,1,308.92,338.05Zm-.17,10.49a.3.3,0,0,1-.05.16.5.5,0,0,1-.18.11,1.39,1.39,0,0,1-.34.06,4.19,4.19,0,0,1-.54,0,4.11,4.11,0,0,1-.53,0,1.31,1.31,0,0,1-.34-.06.37.37,0,0,1-.18-.11.24.24,0,0,1,0-.16v-7.82a.2.2,0,0,1,0-.15.32.32,0,0,1,.18-.12,1.26,1.26,0,0,1,.34-.07,3.89,3.89,0,0,1,.53,0,4,4,0,0,1,.54,0,1.35,1.35,0,0,1,.34.07.41.41,0,0,1,.18.12.25.25,0,0,1,.05.15Z" transform="translate(-245.41 -269.44)"/><path class="cls-2" d="M318,341.25a1.59,1.59,0,0,1-.09.62c-.07.14-.15.2-.24.2h-.92a1.15,1.15,0,0,1,.27.48,1.77,1.77,0,0,1,.09.56,3.12,3.12,0,0,1-.23,1.22,2.33,2.33,0,0,1-.66.89,2.76,2.76,0,0,1-1,.56,4.61,4.61,0,0,1-1.34.19,2.46,2.46,0,0,1-.72-.1,1.86,1.86,0,0,1-.52-.21,1.31,1.31,0,0,0-.19.27.7.7,0,0,0-.09.35.51.51,0,0,0,.23.42,1.12,1.12,0,0,0,.63.18l1.9.07a4.56,4.56,0,0,1,1.19.19,2.45,2.45,0,0,1,.88.46,2,2,0,0,1,.55.7,2.37,2.37,0,0,1,.19.95,2.43,2.43,0,0,1-.26,1.09,2.47,2.47,0,0,1-.76.89,4.11,4.11,0,0,1-1.28.6,6.42,6.42,0,0,1-1.8.22,7.64,7.64,0,0,1-1.71-.16,3.56,3.56,0,0,1-1.16-.44,1.83,1.83,0,0,1-.66-.67,1.91,1.91,0,0,1-.2-.86,2,2,0,0,1,.07-.55,1.92,1.92,0,0,1,.22-.51,3,3,0,0,1,.36-.46,4,4,0,0,1,.48-.42,1.4,1.4,0,0,1-.58-.55,1.43,1.43,0,0,1-.21-.76,1.85,1.85,0,0,1,.24-.94,2.66,2.66,0,0,1,.61-.77,2.39,2.39,0,0,1-.49-.74,2.81,2.81,0,0,1-.19-1.07,3,3,0,0,1,.25-1.23,2.54,2.54,0,0,1,.67-.91,3.13,3.13,0,0,1,1-.58,4.25,4.25,0,0,1,1.32-.19,5.27,5.27,0,0,1,.7,0,5,5,0,0,1,.63.12h2.49c.1,0,.18.07.24.2A1.66,1.66,0,0,1,318,341.25Zm-2.32,8.11a.69.69,0,0,0-.31-.61,1.73,1.73,0,0,0-.87-.23l-1.58,0a2.38,2.38,0,0,0-.36.32,1.43,1.43,0,0,0-.22.3.77.77,0,0,0-.11.27,1.24,1.24,0,0,0,0,.27.72.72,0,0,0,.45.67,2.78,2.78,0,0,0,1.25.23,3.33,3.33,0,0,0,.84-.1,1.72,1.72,0,0,0,.56-.27.86.86,0,0,0,.29-.38A1,1,0,0,0,315.7,349.36Zm-.52-6.26a1.22,1.22,0,0,0-1.34-1.33,1.26,1.26,0,0,0-.57.11,1,1,0,0,0-.41.3,1.14,1.14,0,0,0-.24.43,1.59,1.59,0,0,0-.08.53,1.27,1.27,0,0,0,.35.94,1.33,1.33,0,0,0,1,.35,1.5,1.5,0,0,0,.58-.11,1,1,0,0,0,.4-.29,1.27,1.27,0,0,0,.25-.42A1.44,1.44,0,0,0,315.18,343.1Z" transform="translate(-245.41 -269.44)"/><path class="cls-2" d="M327,348.54a.3.3,0,0,1-.05.16.5.5,0,0,1-.18.11,1.23,1.23,0,0,1-.34.06,4.11,4.11,0,0,1-.53,0,4.19,4.19,0,0,1-.54,0,1.31,1.31,0,0,1-.34-.06.38.38,0,0,1-.17-.11.25.25,0,0,1-.06-.16v-4.47a3.64,3.64,0,0,0-.08-.9,2.2,2.2,0,0,0-.24-.56,1.19,1.19,0,0,0-.41-.36,1.35,1.35,0,0,0-.59-.12,1.49,1.49,0,0,0-.85.3,4.74,4.74,0,0,0-.89.9v5.21a.25.25,0,0,1-.06.16.37.37,0,0,1-.18.11,1.31,1.31,0,0,1-.34.06,4.11,4.11,0,0,1-.53,0,4.19,4.19,0,0,1-.54,0,1.39,1.39,0,0,1-.34-.06.5.5,0,0,1-.18-.11.3.3,0,0,1-.05-.16V340.7a.33.33,0,0,1,0-.15.41.41,0,0,1,.16-.11,1.67,1.67,0,0,1,.3-.07l.45,0,.47,0a1.26,1.26,0,0,1,.28.07.37.37,0,0,1,.15.11.24.24,0,0,1,0,.15v.91a5,5,0,0,1,1.32-1.06,3.06,3.06,0,0,1,1.4-.35,3,3,0,0,1,1.35.27,2.25,2.25,0,0,1,.89.71,2.87,2.87,0,0,1,.49,1.06,6.13,6.13,0,0,1,.15,1.46Z" transform="translate(-245.41 -269.44)"/><path class="cls-2" d="M331.53,338.05a1.25,1.25,0,0,1-.27.92,1.5,1.5,0,0,1-1,.26,1.54,1.54,0,0,1-1-.25,1.21,1.21,0,0,1-.26-.89,1.25,1.25,0,0,1,.27-.92,1.46,1.46,0,0,1,1-.26,1.47,1.47,0,0,1,1,.25A1.21,1.21,0,0,1,331.53,338.05Zm-.17,10.49a.24.24,0,0,1-.05.16.37.37,0,0,1-.18.11,1.31,1.31,0,0,1-.34.06,4.11,4.11,0,0,1-.53,0,4.19,4.19,0,0,1-.54,0,1.39,1.39,0,0,1-.34-.06.5.5,0,0,1-.18-.11.3.3,0,0,1-.05-.16v-7.82a.25.25,0,0,1,.05-.15.41.41,0,0,1,.18-.12,1.35,1.35,0,0,1,.34-.07,4,4,0,0,1,.54,0,3.89,3.89,0,0,1,.53,0,1.26,1.26,0,0,1,.34.07.32.32,0,0,1,.18.12.2.2,0,0,1,.05.15Z" transform="translate(-245.41 -269.44)"/><path class="cls-2" d="M341.06,348.54a.3.3,0,0,1-.05.16.5.5,0,0,1-.18.11,1.23,1.23,0,0,1-.34.06,4.11,4.11,0,0,1-.53,0,4.19,4.19,0,0,1-.54,0,1.31,1.31,0,0,1-.34-.06.38.38,0,0,1-.17-.11.25.25,0,0,1-.06-.16v-4.47a3.64,3.64,0,0,0-.08-.9,2.2,2.2,0,0,0-.24-.56,1.19,1.19,0,0,0-.41-.36,1.35,1.35,0,0,0-.59-.12,1.49,1.49,0,0,0-.85.3,5.06,5.06,0,0,0-.89.9v5.21a.25.25,0,0,1-.06.16.37.37,0,0,1-.18.11,1.31,1.31,0,0,1-.34.06,4,4,0,0,1-.53,0,4.19,4.19,0,0,1-.54,0,1.39,1.39,0,0,1-.34-.06.5.5,0,0,1-.18-.11.3.3,0,0,1-.05-.16V340.7a.33.33,0,0,1,0-.15.41.41,0,0,1,.16-.11,1.67,1.67,0,0,1,.3-.07l.45,0,.47,0a1.26,1.26,0,0,1,.28.07.37.37,0,0,1,.15.11.24.24,0,0,1,0,.15v.91a5,5,0,0,1,1.32-1.06,3.06,3.06,0,0,1,1.41-.35,3,3,0,0,1,1.34.27,2.25,2.25,0,0,1,.89.71,2.87,2.87,0,0,1,.49,1.06,6.13,6.13,0,0,1,.15,1.46Z" transform="translate(-245.41 -269.44)"/><path class="cls-2" d="M350.3,341.25a1.55,1.55,0,0,1-.1.62c-.06.14-.14.2-.24.2H349a1.29,1.29,0,0,1,.28.48,2.1,2.1,0,0,1,.08.56,3.12,3.12,0,0,1-.23,1.22,2.42,2.42,0,0,1-.65.89,2.93,2.93,0,0,1-1,.56,4.66,4.66,0,0,1-1.34.19,2.46,2.46,0,0,1-.72-.1,1.82,1.82,0,0,1-.53-.21,1.85,1.85,0,0,0-.19.27.82.82,0,0,0-.08.35.5.5,0,0,0,.22.42,1.12,1.12,0,0,0,.63.18l1.91.07a4.71,4.71,0,0,1,1.19.19,2.53,2.53,0,0,1,.88.46,1.94,1.94,0,0,1,.54.7,2.21,2.21,0,0,1,.19.95,2.42,2.42,0,0,1-.25,1.09,2.5,2.5,0,0,1-.77.89,4,4,0,0,1-1.28.6,6.4,6.4,0,0,1-1.79.22,7.64,7.64,0,0,1-1.71-.16,3.47,3.47,0,0,1-1.16-.44,1.69,1.69,0,0,1-.66-.67,1.79,1.79,0,0,1-.21-.86,2,2,0,0,1,.07-.55,2.31,2.31,0,0,1,.22-.51,3,3,0,0,1,.36-.46,4,4,0,0,1,.48-.42,1.46,1.46,0,0,1-.58-.55,1.43,1.43,0,0,1-.21-.76,1.85,1.85,0,0,1,.24-.94,2.7,2.7,0,0,1,.62-.77,2.41,2.41,0,0,1-.5-.74,2.82,2.82,0,0,1-.18-1.07,3,3,0,0,1,.24-1.23,2.66,2.66,0,0,1,.67-.91,3.13,3.13,0,0,1,1-.58,4.25,4.25,0,0,1,1.32-.19,5.43,5.43,0,0,1,.71,0,5.86,5.86,0,0,1,.63.12H350c.1,0,.18.07.24.2A1.46,1.46,0,0,1,350.3,341.25ZM348,349.36a.7.7,0,0,0-.32-.61,1.73,1.73,0,0,0-.87-.23l-1.57,0a2.08,2.08,0,0,0-.37.32,1.91,1.91,0,0,0-.22.3,1,1,0,0,0-.11.27,1.23,1.23,0,0,0,0,.27.71.71,0,0,0,.44.67,2.81,2.81,0,0,0,1.25.23,3.36,3.36,0,0,0,.85-.1,1.76,1.76,0,0,0,.55-.27,1,1,0,0,0,.3-.38A1,1,0,0,0,348,349.36Zm-.52-6.26a1.22,1.22,0,0,0-1.35-1.33,1.32,1.32,0,0,0-.57.11,1.12,1.12,0,0,0-.41.3,1.14,1.14,0,0,0-.24.43,1.89,1.89,0,0,0-.08.53,1.27,1.27,0,0,0,.35.94,1.35,1.35,0,0,0,1,.35,1.46,1.46,0,0,0,.58-.11,1.14,1.14,0,0,0,.65-.71A1.44,1.44,0,0,0,347.46,343.1Z" transform="translate(-245.41 -269.44)"/></svg>