<svg id="Layer_1" data-name="Layer 1" xmlns="http://www.w3.org/2000/svg" viewBox="0 0 136.53 137.87"><defs><style>.cls-1,.cls-4{fill:#231f20;}.cls-1{opacity:0.2;}.cls-2{fill:#fff;}.cls-3{fill:#2a3473;}</style></defs><circle class="cls-1" cx="70.15" cy="71.49" r="66.38"/><circle class="cls-2" cx="66.38" cy="66.38" r="66.38"/><circle class="cls-3" cx="67.17" cy="66.64" r="55.74"/><path class="cls-2" d="M275.39,351.58s26.11-12.07,23-36.59-25.11-29.83-25.11-29.83S253,324.86,275.39,351.58Z" transform="translate(-253.85 -251.18)"/><path class="cls-4" d="M270,308.3a6.07,6.07,0,0,1,5,2.3q2.17,2.73,2.17,9c0,4.2-.73,7.21-2.18,9.05a6.07,6.07,0,0,1-5,2.27,6.34,6.34,0,0,1-5.22-2.49q-2-2.49-2-8.88t2.18-9A6.05,6.05,0,0,1,270,308.3Zm0,3.53a2.09,2.09,0,0,0-1.37.49,3.27,3.27,0,0,0-.94,1.76,24,24,0,0,0-.44,5.56,24.29,24.29,0,0,0,.39,5.36,3.8,3.8,0,0,0,1,1.95,2.14,2.14,0,0,0,1.37.48,2.1,2.1,0,0,0,1.38-.49,3.3,3.3,0,0,0,.94-1.76,24.27,24.27,0,0,0,.44-5.54,23.67,23.67,0,0,0-.4-5.37,3.81,3.81,0,0,0-1-1.95A2.08,2.08,0,0,0,270,311.83Z" transform="translate(-253.85 -251.18)"/><path class="cls-4" d="M290.89,330.58h-4.26v-16a14.58,14.58,0,0,1-5.49,3.23v-3.86a12.56,12.56,0,0,0,3.62-2.07,7.9,7.9,0,0,0,2.68-3.55h3.45Z" transform="translate(-253.85 -251.18)"/><path class="cls-2" d="M311.17,321.81a2.31,2.31,0,0,1,.13.5.27.27,0,0,1-.07.27.54.54,0,0,1-.34.12l-.68,0h-.7a1.59,1.59,0,0,1-.38-.06.27.27,0,0,1-.18-.11.38.38,0,0,1-.09-.18l-.76-2.29h-4.28l-.72,2.23a.67.67,0,0,1-.09.21.52.52,0,0,1-.18.13,1.49,1.49,0,0,1-.36.06l-.62,0a5.18,5.18,0,0,1-.63,0,.45.45,0,0,1-.31-.12.38.38,0,0,1-.07-.29,3.26,3.26,0,0,1,.14-.49l3.5-10.09a.89.89,0,0,1,.13-.24.4.4,0,0,1,.22-.14,1.19,1.19,0,0,1,.43-.06l.72,0,.82,0a1.48,1.48,0,0,1,.48.06.46.46,0,0,1,.25.14,1,1,0,0,1,.13.27ZM306,313.47h0l-1.61,4.83h3.23Z" transform="translate(-253.85 -251.18)"/><path class="cls-2" d="M320.12,322.37a.25.25,0,0,1-.05.15.4.4,0,0,1-.18.11,1.65,1.65,0,0,1-.34.07l-.53,0-.54,0a1.81,1.81,0,0,1-.34-.07.32.32,0,0,1-.17-.11.2.2,0,0,1-.06-.15V317.9a4.13,4.13,0,0,0-.08-.9,2.06,2.06,0,0,0-.24-.56,1.19,1.19,0,0,0-.41-.36,1.35,1.35,0,0,0-.59-.13,1.51,1.51,0,0,0-.85.31,4.46,4.46,0,0,0-.89.9v5.21a.2.2,0,0,1-.06.15.31.31,0,0,1-.18.11,1.81,1.81,0,0,1-.34.07l-.53,0-.54,0a2,2,0,0,1-.34-.07.4.4,0,0,1-.18-.11.25.25,0,0,1-.05-.15v-7.84a.42.42,0,0,1,0-.16.32.32,0,0,1,.16-.1,1.11,1.11,0,0,1,.3-.07l.45,0,.47,0a.88.88,0,0,1,.28.07.28.28,0,0,1,.15.1.29.29,0,0,1,0,.16v.9a5,5,0,0,1,1.32-1.05,3.06,3.06,0,0,1,1.4-.35,3.15,3.15,0,0,1,1.35.26,2.36,2.36,0,0,1,.89.72,2.8,2.8,0,0,1,.49,1.06,6.13,6.13,0,0,1,.15,1.46Z" transform="translate(-253.85 -251.18)"/><path class="cls-2" d="M329,322.4a.23.23,0,0,1-.09.19.57.57,0,0,1-.28.1,3.72,3.72,0,0,1-.55,0,3.91,3.91,0,0,1-.58,0,.45.45,0,0,1-.25-.1.26.26,0,0,1-.08-.19v-.63a3.45,3.45,0,0,1-1.1.81,3.25,3.25,0,0,1-1.38.29,4.08,4.08,0,0,1-1.14-.16,2.58,2.58,0,0,1-.91-.49,2.22,2.22,0,0,1-.59-.79,2.75,2.75,0,0,1-.21-1.11,2.61,2.61,0,0,1,.26-1.19,2.29,2.29,0,0,1,.8-.84,4.15,4.15,0,0,1,1.33-.48,9,9,0,0,1,1.83-.16h.77v-.48a2.43,2.43,0,0,0-.08-.64,1.06,1.06,0,0,0-.24-.46,1,1,0,0,0-.46-.28,2.84,2.84,0,0,0-.71-.08,3.73,3.73,0,0,0-1,.12,5.12,5.12,0,0,0-.76.27c-.23.1-.41.19-.56.27a.75.75,0,0,1-.37.13.27.27,0,0,1-.17-.06.41.41,0,0,1-.12-.18,1.58,1.58,0,0,1-.08-.28c0-.11,0-.24,0-.37a1.65,1.65,0,0,1,0-.43.72.72,0,0,1,.17-.29,1.86,1.86,0,0,1,.43-.28,4.17,4.17,0,0,1,.72-.28,6.59,6.59,0,0,1,.9-.22,6.66,6.66,0,0,1,1-.08,6,6,0,0,1,1.57.18,2.63,2.63,0,0,1,1.08.55,2.19,2.19,0,0,1,.62,1,4.84,4.84,0,0,1,.19,1.4ZM326.8,319H326a4,4,0,0,0-.91.08,1.73,1.73,0,0,0-.61.23,1,1,0,0,0-.35.39,1.06,1.06,0,0,0-.11.51,1,1,0,0,0,.31.77,1.25,1.25,0,0,0,.87.29,1.58,1.58,0,0,0,.85-.24,3.54,3.54,0,0,0,.8-.7Z" transform="translate(-253.85 -251.18)"/><path class="cls-2" d="M333.39,322.37a.25.25,0,0,1-.05.15.4.4,0,0,1-.18.11,2,2,0,0,1-.34.07l-.54,0-.53,0a1.81,1.81,0,0,1-.34-.07.31.31,0,0,1-.18-.11.2.2,0,0,1-.05-.15V310.81a.24.24,0,0,1,.05-.16.46.46,0,0,1,.18-.12,1.81,1.81,0,0,1,.34-.07,3.89,3.89,0,0,1,.53,0,4,4,0,0,1,.54,0,2,2,0,0,1,.34.07.7.7,0,0,1,.18.12.3.3,0,0,1,.05.16Z" transform="translate(-253.85 -251.18)"/><path class="cls-2" d="M340.14,322.67l-.95,2.77a.56.56,0,0,1-.43.32,3.85,3.85,0,0,1-1,.1,4.17,4.17,0,0,1-.56,0,.93.93,0,0,1-.32-.1.22.22,0,0,1-.11-.18.5.5,0,0,1,.05-.25l1-2.63a.65.65,0,0,1-.21-.16,1,1,0,0,1-.14-.24l-2.69-7.21a1.41,1.41,0,0,1-.12-.46.33.33,0,0,1,.11-.26.78.78,0,0,1,.35-.13,5.94,5.94,0,0,1,.67,0h.59a1,1,0,0,1,.35.07.35.35,0,0,1,.18.16,2.65,2.65,0,0,1,.13.31L338.9,320h0l1.68-5.35a.69.69,0,0,1,.14-.31.68.68,0,0,1,.28-.11,5,5,0,0,1,.67,0,5.29,5.29,0,0,1,.63,0,.88.88,0,0,1,.37.13.34.34,0,0,1,.12.26,1.24,1.24,0,0,1-.07.39Z" transform="translate(-253.85 -251.18)"/><path class="cls-2" d="M349.53,320.15a2.73,2.73,0,0,1-.25,1.18,2.35,2.35,0,0,1-.71.85,3.39,3.39,0,0,1-1.08.52,5.33,5.33,0,0,1-1.36.17,4.61,4.61,0,0,1-.84-.07,5.78,5.78,0,0,1-.71-.16,4.18,4.18,0,0,1-.53-.21,1.52,1.52,0,0,1-.31-.2.71.71,0,0,1-.15-.29,2.69,2.69,0,0,1,0-.58c0-.17,0-.31,0-.41a1.37,1.37,0,0,1,.05-.25c0-.06.05-.1.09-.12a.25.25,0,0,1,.13,0,.71.71,0,0,1,.29.11l.47.24a4.68,4.68,0,0,0,.65.25,3.13,3.13,0,0,0,.85.11,2.09,2.09,0,0,0,.53-.06A1.28,1.28,0,0,0,347,321a.73.73,0,0,0,.26-.29,1,1,0,0,0,.08-.4.64.64,0,0,0-.16-.45,1.33,1.33,0,0,0-.43-.33,5,5,0,0,0-.61-.27l-.69-.27a5.52,5.52,0,0,1-.69-.34,2.59,2.59,0,0,1-.61-.48,2.09,2.09,0,0,1-.43-.67,2.49,2.49,0,0,1-.16-.95,2.4,2.4,0,0,1,.22-1,2.12,2.12,0,0,1,.63-.8,3.15,3.15,0,0,1,1-.52,4.62,4.62,0,0,1,1.34-.18,5.52,5.52,0,0,1,.71.05c.23,0,.44.08.63.13a4.29,4.29,0,0,1,.48.17,1.73,1.73,0,0,1,.27.16.46.46,0,0,1,.12.13,1.16,1.16,0,0,1,.08.39,3,3,0,0,1,0,.34,3.84,3.84,0,0,1,0,.39.68.68,0,0,1,0,.23.23.23,0,0,1-.08.12.28.28,0,0,1-.13,0,.6.6,0,0,1-.24-.09,4.27,4.27,0,0,0-.42-.2,4.94,4.94,0,0,0-.58-.19,2.48,2.48,0,0,0-.75-.1,2,2,0,0,0-.52.06.87.87,0,0,0-.36.18.9.9,0,0,0-.21.27.72.72,0,0,0-.07.33.6.6,0,0,0,.17.45,1.33,1.33,0,0,0,.43.33,6.1,6.1,0,0,0,.62.26l.71.27a7.48,7.48,0,0,1,.7.34,2.89,2.89,0,0,1,.62.47,2.28,2.28,0,0,1,.44.68A2.36,2.36,0,0,1,349.53,320.15Z" transform="translate(-253.85 -251.18)"/><path class="cls-2" d="M353.57,311.87a1.26,1.26,0,0,1-.27.93,1.5,1.5,0,0,1-1,.25,1.53,1.53,0,0,1-1-.24,1.23,1.23,0,0,1-.26-.89,1.26,1.26,0,0,1,.27-.93,1.5,1.5,0,0,1,1-.26,1.54,1.54,0,0,1,1,.25A1.24,1.24,0,0,1,353.57,311.87Zm-.17,10.5a.2.2,0,0,1,0,.15.4.4,0,0,1-.18.11,2,2,0,0,1-.34.07l-.53,0-.54,0a2,2,0,0,1-.34-.07.4.4,0,0,1-.18-.11.25.25,0,0,1-.05-.15v-7.82a.3.3,0,0,1,.05-.16.5.5,0,0,1,.18-.11,1.9,1.9,0,0,1,.34-.08l.54,0,.53,0a1.9,1.9,0,0,1,.34.08.5.5,0,0,1,.18.11.24.24,0,0,1,0,.16Z" transform="translate(-253.85 -251.18)"/><path class="cls-2" d="M363.1,322.37a.2.2,0,0,1-.06.15.32.32,0,0,1-.17.11,1.81,1.81,0,0,1-.34.07l-.53,0-.54,0a1.65,1.65,0,0,1-.34-.07.4.4,0,0,1-.18-.11.25.25,0,0,1-.05-.15V317.9a4.13,4.13,0,0,0-.08-.9,2.06,2.06,0,0,0-.24-.56,1.29,1.29,0,0,0-.41-.36,1.35,1.35,0,0,0-.59-.13,1.51,1.51,0,0,0-.85.31,4.48,4.48,0,0,0-.9.9v5.21a.2.2,0,0,1-.05.15.31.31,0,0,1-.18.11,1.81,1.81,0,0,1-.34.07l-.53,0-.54,0a2,2,0,0,1-.34-.07.4.4,0,0,1-.18-.11.25.25,0,0,1-.05-.15v-7.84a.29.29,0,0,1,0-.16.28.28,0,0,1,.16-.1,1.11,1.11,0,0,1,.3-.07l.45,0,.46,0a.88.88,0,0,1,.29.07.22.22,0,0,1,.14.1.3.3,0,0,1,.05.16v.9a5,5,0,0,1,1.32-1.05,3.06,3.06,0,0,1,1.4-.35,3.15,3.15,0,0,1,1.35.26,2.44,2.44,0,0,1,.89.72,2.8,2.8,0,0,1,.49,1.06,6.13,6.13,0,0,1,.15,1.46Z" transform="translate(-253.85 -251.18)"/><path class="cls-2" d="M372.33,315.07a1.68,1.68,0,0,1-.09.63c-.07.13-.15.2-.24.2h-.92a1.15,1.15,0,0,1,.27.48,1.73,1.73,0,0,1,.09.56,3.07,3.07,0,0,1-.23,1.21,2.29,2.29,0,0,1-.66.9,2.78,2.78,0,0,1-1,.55,4.34,4.34,0,0,1-1.34.19,2.73,2.73,0,0,1-.72-.09,1.82,1.82,0,0,1-.53-.21.93.93,0,0,0-.19.27.67.67,0,0,0-.08.35.5.5,0,0,0,.22.42,1.12,1.12,0,0,0,.63.18l1.91.07a4.71,4.71,0,0,1,1.19.19,2.81,2.81,0,0,1,.88.45,2.07,2.07,0,0,1,.73,1.65,2.45,2.45,0,0,1-1,2,4.11,4.11,0,0,1-1.28.6,6.82,6.82,0,0,1-1.8.22,8.43,8.43,0,0,1-1.71-.16,3.9,3.9,0,0,1-1.16-.44,1.78,1.78,0,0,1-.66-.68,1.87,1.87,0,0,1-.2-.85,2.1,2.1,0,0,1,.07-.56,2.45,2.45,0,0,1,.22-.5,2.6,2.6,0,0,1,.36-.46,3.28,3.28,0,0,1,.48-.42,1.47,1.47,0,0,1-.58-.55,1.45,1.45,0,0,1-.21-.76,1.92,1.92,0,0,1,.24-.95,3.18,3.18,0,0,1,.61-.77,2.28,2.28,0,0,1-.49-.74,2.75,2.75,0,0,1-.18-1.07,3,3,0,0,1,.24-1.22,2.57,2.57,0,0,1,.67-.92,3,3,0,0,1,1-.57,4.25,4.25,0,0,1,1.32-.2,5.24,5.24,0,0,1,.7.05,5,5,0,0,1,.63.12H372c.1,0,.18.06.24.19A1.69,1.69,0,0,1,372.33,315.07ZM370,323.19a.68.68,0,0,0-.31-.61,1.64,1.64,0,0,0-.87-.23l-1.58,0a2.38,2.38,0,0,0-.36.32,2.47,2.47,0,0,0-.22.29,1,1,0,0,0-.11.27,1.27,1.27,0,0,0,0,.28.73.73,0,0,0,.45.67,2.8,2.8,0,0,0,1.25.22,2.88,2.88,0,0,0,.84-.1,1.54,1.54,0,0,0,.56-.27,1,1,0,0,0,.3-.37A1.26,1.26,0,0,0,370,323.19Zm-.51-6.26a1.23,1.23,0,0,0-1.35-1.34,1.24,1.24,0,0,0-1,.41,1.18,1.18,0,0,0-.24.44,1.82,1.82,0,0,0-.08.52,1.29,1.29,0,0,0,.35,1,1.35,1.35,0,0,0,1,.35,1.5,1.5,0,0,0,.58-.11,1.22,1.22,0,0,0,.41-.29,1.2,1.2,0,0,0,.24-.43A1.43,1.43,0,0,0,369.5,316.93Z" transform="translate(-253.85 -251.18)"/></svg>