<?xml version="1.0" encoding="utf-8"?>
<!-- Generator: Adobe Illustrator 24.2.3, SVG Export Plug-In . SVG Version: 6.00 Build 0)  -->
<svg version="1.1" id="Layer_1" xmlns="http://www.w3.org/2000/svg" xmlns:xlink="http://www.w3.org/1999/xlink" x="0px" y="0px"
	 viewBox="0 0 1611.3 1373.1" style="enable-background:new 0 0 1611.3 1373.1;" xml:space="preserve">
<style type="text/css">
	.st0{fill:url(#SVGID_1_);}
	.st1{fill:url(#SVGID_2_);}
	.st2{fill:url(#SVGID_3_);}
	.st3{fill:url(#SVGID_4_);}
	.st4{fill:none;stroke:url(#SVGID_5_);stroke-linecap:round;stroke-miterlimit:10;}
	.st5{fill:none;stroke:url(#SVGID_6_);stroke-linecap:round;stroke-miterlimit:10;}
	.st6{fill:none;stroke:url(#SVGID_7_);stroke-width:10;stroke-miterlimit:10;}
	.st7{fill:url(#SVGID_8_);stroke:url(#SVGID_9_);stroke-width:4;stroke-miterlimit:10;}
</style>
<g>
	<g>
		
			<linearGradient id="SVGID_1_" gradientUnits="userSpaceOnUse" x1="1262.549" y1="-969.2703" x2="-807.401" y2="1280.1399" gradientTransform="matrix(1 0 0 1 0 574)">
			<stop  offset="0" style="stop-color:#272C6B"/>
			<stop  offset="1" style="stop-color:#5475B9"/>
		</linearGradient>
		<path class="st0" d="M1483.4,13H181.9C88.6,13,13,88.6,13,181.9v914.9c78.4,23.2,164,22.7,232.8-19.2
			c50-30.4,84.8-78.2,111.2-131.3V580.8C269.2,549.7,215.3,461.3,227.8,369c12.9-96,95.2-170,194.7-170
			c61.7-0.1,119.8,28.9,156.9,78.2h843.4c2.1-2.5,4.2-5.1,6.2-7.8C1484,197.7,1502,101.2,1483.4,13z"/>
		
			<linearGradient id="SVGID_2_" gradientUnits="userSpaceOnUse" x1="13.0999" y1="-169.55" x2="900.6" y2="-169.55" gradientTransform="matrix(1 0 0 1 0 574)">
			<stop  offset="0" style="stop-color:#272C6B"/>
			<stop  offset="1" style="stop-color:#5475B9"/>
		</linearGradient>
		<path class="st1" d="M900.6,13c-15.4,36.2-38.3,68.8-68.9,94.5c-29,24.4-62.1,41.4-97.6,54c-28.9,10.3-59.4,17.8-90.5,24
			c-49.5,9.9-100.7,16.6-149.6,26.8c-22.8-8.9-47-13.4-71.4-13.4c-99.5,0-181.8,74-194.7,170.1c-3.2,23.8-2.1,48,3.4,71.5
			c-5,16.8-9.4,33.9-13.8,51.1c-12.7,50-24.8,100.6-47,146.2c-33.2,68.3-90,123-157.4,158.1v-614C13,88.6,88.6,13,181.9,13H900.6z"
			/>
		
			<linearGradient id="SVGID_3_" gradientUnits="userSpaceOnUse" x1="13" y1="-68.992" x2="342.3904" y2="-68.992" gradientTransform="matrix(1 0 0 1 0 574)">
			<stop  offset="0" style="stop-color:#272C6B"/>
			<stop  offset="1" style="stop-color:#5475B9"/>
		</linearGradient>
		<path class="st2" d="M307.7,856.5c-42.6,72.7-119.9,122-201.9,136c-30.4,5.1-61.5,5.9-92.1,2.3c-0.4,0-0.7-0.4-0.7-0.8V67
			c0-29.8,24.2-54,54.1-54h192.6c0.3,0,0.6,0.2,0.7,0.4c7.6,16.3,12.3,33.7,14,51.6c0.8,8.6,1,17.3,0.5,25.9
			c-4.6,91.7-75.2,178.2-90.2,266.9c-3.9,23-4,46.1,1.7,69.6c5.8,23.7,17,44.6,30.8,64.2c29.6,42.2,71.3,78.4,96.9,123.9
			C355.1,688.3,350.3,783.8,307.7,856.5z"/>
		
			<linearGradient id="SVGID_4_" gradientUnits="userSpaceOnUse" x1="13" y1="-322.3" x2="1400.3" y2="-322.3" gradientTransform="matrix(1 0 0 1 0 574)">
			<stop  offset="2.000000e-02" style="stop-color:#0034E3;stop-opacity:0.6"/>
			<stop  offset="0.22" style="stop-color:#004DE7;stop-opacity:0.5"/>
			<stop  offset="0.61" style="stop-color:#008EF3;stop-opacity:0.26"/>
			<stop  offset="1" style="stop-color:#00D2FF;stop-opacity:0"/>
		</linearGradient>
		<path class="st3" d="M1400.3,13c-34,94-90.3,180-163.9,247.7c-6.1,5.6-12.4,11.1-18.8,16.5H754.5c-11.1-8.4-22-17.1-32.7-25.9
			l-3-2.4c-25.2-20.8-50.1-42.5-75.4-63.3c-45.8-37.7-93.4-72.7-147.7-95.8C425.8,60.2,339.7,55.6,275,91
			c-14.7,8-28.2,18.2-39.9,30.1c-60.3,61.4-73.3,151.1-102.3,229.3C111,409.3,80,461.6,13,490.4V67.6C13,37.5,37.5,13,67.6,13
			H1400.3z"/>
		
			<linearGradient id="SVGID_5_" gradientUnits="userSpaceOnUse" x1="717.7607" y1="-428.9" x2="814.8" y2="-428.9" gradientTransform="matrix(1 0 0 1 0 574)">
			<stop  offset="0" style="stop-color:#00D2FF"/>
			<stop  offset="0.31" style="stop-color:#57E1FF"/>
			<stop  offset="0.64" style="stop-color:#B1F1FF"/>
			<stop  offset="0.88" style="stop-color:#E9FBFF"/>
			<stop  offset="1" style="stop-color:#FFFFFF"/>
		</linearGradient>
		<path class="st4" d="M718.3,277.2c-0.1-7.2,0-14.3,0.2-21.5c0.1-2.3,0.2-4.6,0.3-6.8c1.6-29.6,6.7-58.9,15.1-87.3
			C750.2,107,777.5,56.4,814.3,13"/>
		
			<linearGradient id="SVGID_6_" gradientUnits="userSpaceOnUse" x1="12.6" y1="-215.0713" x2="228.3" y2="-215.0713" gradientTransform="matrix(1 0 0 1 0 574)">
			<stop  offset="0" style="stop-color:#00D2FF"/>
			<stop  offset="0.31" style="stop-color:#57E1FF"/>
			<stop  offset="0.64" style="stop-color:#B1F1FF"/>
			<stop  offset="0.88" style="stop-color:#E9FBFF"/>
			<stop  offset="1" style="stop-color:#FFFFFF"/>
		</linearGradient>
		<path class="st5" d="M227.8,369.1c-14.1-4.5-28.4-8.2-42.9-11.2c-17.2-3.5-34.5-6-52-7.5c-40-3.4-80.3-1.5-119.8,5.5"/>
		
			<linearGradient id="SVGID_7_" gradientUnits="userSpaceOnUse" x1="223.5" y1="-178" x2="626.5" y2="-178" gradientTransform="matrix(1 0 0 1 0 574)">
			<stop  offset="0" style="stop-color:#272C6B"/>
			<stop  offset="1" style="stop-color:#5475B9"/>
		</linearGradient>
		<circle class="st6" cx="425" cy="396" r="196.5"/>
	</g>
	
		<linearGradient id="SVGID_8_" gradientUnits="userSpaceOnUse" x1="304.4" y1="-733.3" x2="542.6" y2="-733.3" gradientTransform="matrix(1 0 0 1 0 1148)">
		<stop  offset="0" style="stop-color:#272D6C"/>
		<stop  offset="0.28" style="stop-color:#313D7D"/>
		<stop  offset="0.83" style="stop-color:#4B67AA"/>
		<stop  offset="1" style="stop-color:#5475B9"/>
	</linearGradient>
	
		<linearGradient id="SVGID_9_" gradientUnits="userSpaceOnUse" x1="302.4" y1="-733.3" x2="544.6" y2="-733.3" gradientTransform="matrix(1 0 0 1 0 1148)">
		<stop  offset="0" style="stop-color:#272D6C"/>
		<stop  offset="0.28" style="stop-color:#313D7D"/>
		<stop  offset="0.83" style="stop-color:#4B67AA"/>
		<stop  offset="1" style="stop-color:#5475B9"/>
	</linearGradient>
	<path class="st7" d="M474.7,518.6H369.1v-1c0-0.1-0.1-11,10.6-13.6h0.2h14.7v-14.4h-77.2c-7.2,0-13-5.8-13-13l0,0V323.8
		c0-7.2,5.8-13,13-13l0,0h212.2c7.2,0,13,5.8,13,13l0,0v152.8c0,7.2-5.8,13-13,13l0,0H451V504h16.6l0.2,0.1c0.1,0,9.1,5,7.1,13.8
		L474.7,518.6z M371.2,516.6h101.9c0.9-6.2-4.8-9.9-6-10.6h-70.4v1h-2v-1h-14.6C375.1,507.2,371.5,511.5,371.2,516.6z M396.7,504
		h52.4v-14.4h-52.4V504z M306.5,451.1v25.5c0,6.1,4.9,11,11,11h212.2c6.1,0,11-4.9,11-11v-25.5H306.5z M306.5,449.1h234.2V323.8
		c0-6.1-4.9-11-11-11l0,0H317.5c-6.1,0-11,4.9-11,11l0,0V449.1z M423.1,474.4c-3.9,0-7-3.1-7.1-6.9c0-3.9,3.1-7,6.9-7.1
		c3.9,0,7,3.1,7.1,6.9v0.1C430.1,471.3,427,474.3,423.1,474.4z M423.1,462.5c-2.8,0-5,2.2-5.1,4.9s2.2,5,4.9,5.1
		c2.8,0,5-2.2,5.1-4.9c0,0,0,0,0-0.1C428.1,464.7,425.9,462.5,423.1,462.5z M434.4,426.5l-0.4-0.7c-3.3-6-6.8-9-10.3-9h-0.1
		c-6,0.1-10.4,8.9-10.5,9l-0.3,0.6l-11.5-1.5l0.1-1c1.3-9.3-0.1-15.6-4-18.7c-5.9-4.7-15.9-0.9-16-0.9l-1,0.4l-4.9-14l0.7-0.4
		c6-3.9,8.9-7.7,8.6-11c-0.5-4.7-7.2-7.4-7.3-7.4l-0.8-0.3l3.6-13l1,0.4c7.8,2.8,13.3,2.8,16.3-0.1c5.3-5.1,1.6-17.5,1.6-17.6
		l-0.3-0.9l14.2-5.5l0.4,0.9c2.5,5.8,5.5,8.9,8.9,9.3c6,0.6,11.6-7.4,11.7-7.4l0.5-0.6l14.2,5.6l-0.3,0.9c-2.1,7.1-1.8,12,0.8,14.4
		c4,3.7,12.3,0.7,12.4,0.6l0.8-0.3l6.1,11.4l-0.8,0.5c-6.3,4.1-9.4,8.3-9.1,12.3c0.4,6.3,8.9,10.5,9,10.5l0.9,0.5l-5.6,10.6
		l-0.7-0.1c-7.6-0.8-12.7,0.5-15.3,3.8c-3.9,5.1-0.6,13.7-0.6,13.8l0.4,1L434.4,426.5z M403.6,423.1l8.1,1c1.2-2.2,5.7-9.4,11.9-9.5
		h0.2c4.1,0,8,3.1,11.6,9.4l8.9-2.7c-0.8-2.6-2.5-9.8,1.2-14.7c2.9-3.9,8.5-5.4,16.4-4.7l4-7.6c-2.4-1.4-8.8-5.5-9.2-11.7
		c-0.3-4.6,2.8-9.2,9.2-13.6l-4.5-8.6c-2.4,0.7-9.6,2.5-13.6-1.3c-3.1-2.9-3.6-8.1-1.6-15.5l-11.1-4.4c-1.6,2.1-6.9,8.3-13,7.6
		c-4-0.4-7.4-3.6-10.1-9.6l-10.6,4.1c0.8,3.2,3,13.7-2.4,18.8c-3.5,3.3-9.3,3.6-17.4,0.9l-2.5,9.3c2,1,7.2,3.9,7.7,8.7
		c0.4,4-2.6,8.2-8.8,12.5l3.7,10.5c2.9-0.9,11.3-3,17,1.5C403.1,407.1,404.8,413.6,403.6,423.1z M423.7,401.4
		c-10.8,0-19.5-8.7-19.5-19.5s8.7-19.5,19.5-19.5s19.5,8.7,19.5,19.5l0,0C443.2,392.6,434.5,401.4,423.7,401.4L423.7,401.4z
		 M423.7,364.3c-9.7,0-17.5,7.8-17.5,17.5s7.8,17.5,17.5,17.5s17.5-7.8,17.5-17.5l0,0C441.2,372.2,433.4,364.4,423.7,364.3
		L423.7,364.3z"/>
</g>
</svg>
