<?xml version="1.0" encoding="utf-8"?>
<!-- Generator: Adobe Illustrator 24.2.3, SVG Export Plug-In . SVG Version: 6.00 Build 0)  -->
<svg version="1.1" id="Layer_1" xmlns="http://www.w3.org/2000/svg" xmlns:xlink="http://www.w3.org/1999/xlink" x="0px" y="0px"
	 viewBox="0 0 1611.3 1373.1" style="enable-background:new 0 0 1611.3 1373.1;" xml:space="preserve">
<style type="text/css">
	.st0{opacity:0.23;fill:url(#SVGID_1_);enable-background:new    ;}
	.st1{fill:url(#SVGID_2_);}
	.st2{fill:url(#SVGID_3_);}
	.st3{fill:url(#SVGID_4_);}
	.st4{fill:url(#SVGID_5_);}
	.st5{fill:none;stroke:url(#SVGID_6_);stroke-linecap:round;stroke-miterlimit:10;}
	.st6{fill:none;stroke:url(#SVGID_7_);stroke-linecap:round;stroke-miterlimit:10;}
	.st7{fill:none;stroke:url(#SVGID_8_);stroke-width:10;stroke-miterlimit:10;}
	.st8{fill:url(#SVGID_9_);stroke:url(#SVGID_10_);stroke-miterlimit:10;}
</style>
<g>
	
		<linearGradient id="SVGID_1_" gradientUnits="userSpaceOnUse" x1="13" y1="1255.0018" x2="1611.3424" y2="1255.0018" gradientTransform="matrix(1 0 0 -1 0 1948)">
		<stop  offset="0" style="stop-color:#0034E3"/>
		<stop  offset="0.13" style="stop-color:#0043E6;stop-opacity:0.9"/>
		<stop  offset="0.39" style="stop-color:#006AED;stop-opacity:0.66"/>
		<stop  offset="0.76" style="stop-color:#00A9F8;stop-opacity:0.26"/>
		<stop  offset="1" style="stop-color:#00D2FF;stop-opacity:0"/>
	</linearGradient>
	<path class="st0" d="M1610,13H182C88.7,13,13,88.5,13,181.8l0,0v1178.9c101,23.8,211.7,15.6,292.6-47.2
		c19.3-15.1,36.6-32.7,51.4-52.4V580.8C269.2,549.7,215.3,461.3,227.8,369c12.9-96,95.2-170,194.7-170
		c61.7-0.1,119.8,28.9,156.9,78.2h946.9c13.6-15.8,25.8-32.7,36.5-50.6C1601,162.8,1616.2,87,1610,13z"/>
	
		<linearGradient id="SVGID_2_" gradientUnits="userSpaceOnUse" x1="1262.5491" y1="2343.27" x2="-807.4014" y2="93.8605" gradientTransform="matrix(1 0 0 -1 0 1948)">
		<stop  offset="0" style="stop-color:#272C6B"/>
		<stop  offset="1" style="stop-color:#5475B9"/>
	</linearGradient>
	<path class="st1" d="M1483.4,13H181.9C88.6,13,13,88.6,13,181.9v914.9c78.4,23.2,164,22.7,232.8-19.2
		c50-30.4,84.8-78.2,111.2-131.3V580.8C269.2,549.7,215.3,461.3,227.8,369c12.9-96,95.2-170,194.7-170
		c61.7-0.1,119.8,28.9,156.9,78.2h843.4c2.1-2.5,4.2-5.1,6.2-7.8C1484,197.7,1502,101.2,1483.4,13z"/>
	
		<linearGradient id="SVGID_3_" gradientUnits="userSpaceOnUse" x1="13.0999" y1="1543.55" x2="900.6" y2="1543.55" gradientTransform="matrix(1 0 0 -1 0 1948)">
		<stop  offset="0" style="stop-color:#272C6B"/>
		<stop  offset="1" style="stop-color:#5475B9"/>
	</linearGradient>
	<path class="st2" d="M900.6,13c-15.4,36.2-38.3,68.8-68.9,94.5c-29,24.4-62.1,41.4-97.6,54c-28.9,10.3-59.4,17.8-90.5,24
		c-49.5,9.9-100.7,16.6-149.6,26.8c-22.8-8.9-47-13.4-71.4-13.4c-99.5,0-181.8,74-194.7,170.1c-3.2,23.8-2.1,48,3.4,71.5
		c-5,16.8-9.4,33.9-13.8,51.1c-12.7,50-24.8,100.6-47,146.2c-33.2,68.3-90,123-157.4,158.1v-614C13,88.6,88.6,13,181.9,13H900.6z"/>
	
		<linearGradient id="SVGID_4_" gradientUnits="userSpaceOnUse" x1="13" y1="1442.9874" x2="342.3904" y2="1442.9874" gradientTransform="matrix(1 0 0 -1 0 1948)">
		<stop  offset="0" style="stop-color:#272C6B"/>
		<stop  offset="1" style="stop-color:#5475B9"/>
	</linearGradient>
	<path class="st3" d="M307.7,856.5c-42.6,72.7-119.9,122-201.9,136c-29.1,4.9-58.7,5.8-88,2.8c-2.7-0.3-4.8-2.6-4.8-5.3V66.2
		C13,36.8,36.8,13,66.2,13h190.5c2.1,0,4.1,1.3,4.9,3.3c6.8,15.5,11.1,32,12.8,48.8c0.8,8.6,1,17.3,0.5,25.9
		c-4.6,91.7-75.2,178.2-90.2,266.9c-3.9,23-4,46.1,1.7,69.6c5.8,23.7,17,44.6,30.8,64.2c29.6,42.2,71.3,78.4,96.9,123.9
		C355.1,688.3,350.3,783.8,307.7,856.5z"/>
	
		<linearGradient id="SVGID_5_" gradientUnits="userSpaceOnUse" x1="13" y1="1696.3" x2="1400.3" y2="1696.3" gradientTransform="matrix(1 0 0 -1 0 1948)">
		<stop  offset="2.000000e-02" style="stop-color:#0034E3;stop-opacity:0.6"/>
		<stop  offset="0.22" style="stop-color:#004DE7;stop-opacity:0.5"/>
		<stop  offset="0.61" style="stop-color:#008EF3;stop-opacity:0.26"/>
		<stop  offset="1" style="stop-color:#00D2FF;stop-opacity:0"/>
	</linearGradient>
	<path class="st4" d="M1400.3,13c-34,94-90.3,180-163.9,247.7c-6.1,5.6-12.4,11.1-18.8,16.5H754.5c-11.1-8.4-22-17.1-32.7-25.9
		l-3-2.4c-25.2-20.8-50.1-42.5-75.4-63.3c-45.8-37.7-93.4-72.7-147.7-95.8C425.8,60.2,339.7,55.6,275,91
		c-14.7,8-28.2,18.2-39.9,30.1c-60.3,61.4-73.3,151.1-102.3,229.3C111,409.3,80,461.6,13,490.4V67c0-29.8,24.2-54,54-54H1400.3z"/>
	
		<linearGradient id="SVGID_6_" gradientUnits="userSpaceOnUse" x1="717.7607" y1="1802.9" x2="814.8" y2="1802.9" gradientTransform="matrix(1 0 0 -1 0 1948)">
		<stop  offset="0" style="stop-color:#00D2FF"/>
		<stop  offset="0.31" style="stop-color:#57E1FF"/>
		<stop  offset="0.64" style="stop-color:#B1F1FF"/>
		<stop  offset="0.88" style="stop-color:#E9FBFF"/>
		<stop  offset="1" style="stop-color:#FFFFFF"/>
	</linearGradient>
	<path class="st5" d="M718.3,277.2c-0.1-7.2,0-14.3,0.2-21.5c0.1-2.3,0.2-4.6,0.3-6.8c1.6-29.6,6.7-58.9,15.1-87.3
		C750.1,107,777.5,56.4,814.3,13"/>
	
		<linearGradient id="SVGID_7_" gradientUnits="userSpaceOnUse" x1="12.6" y1="1589.0713" x2="228.3" y2="1589.0713" gradientTransform="matrix(1 0 0 -1 0 1948)">
		<stop  offset="0" style="stop-color:#00D2FF"/>
		<stop  offset="0.31" style="stop-color:#57E1FF"/>
		<stop  offset="0.64" style="stop-color:#B1F1FF"/>
		<stop  offset="0.88" style="stop-color:#E9FBFF"/>
		<stop  offset="1" style="stop-color:#FFFFFF"/>
	</linearGradient>
	<path class="st6" d="M227.8,369.1c-14.1-4.5-28.4-8.2-42.9-11.2c-17.2-3.5-34.5-6-52-7.5c-40-3.4-80.3-1.5-119.8,5.5"/>
	
		<linearGradient id="SVGID_8_" gradientUnits="userSpaceOnUse" x1="223.5" y1="1552" x2="626.5" y2="1552" gradientTransform="matrix(1 0 0 -1 0 1948)">
		<stop  offset="0" style="stop-color:#272C6B"/>
		<stop  offset="1" style="stop-color:#5475B9"/>
	</linearGradient>
	<circle class="st7" cx="425" cy="396" r="196.5"/>
	
		<linearGradient id="SVGID_9_" gradientUnits="userSpaceOnUse" x1="288.6" y1="-176.85" x2="557" y2="-176.85" gradientTransform="matrix(1 0 0 1 0 574)">
		<stop  offset="0" style="stop-color:#272D6C"/>
		<stop  offset="0.28" style="stop-color:#313D7D"/>
		<stop  offset="0.83" style="stop-color:#4B67AA"/>
		<stop  offset="1" style="stop-color:#5475B9"/>
	</linearGradient>
	
		<linearGradient id="SVGID_10_" gradientUnits="userSpaceOnUse" x1="287.9449" y1="-176.85" x2="557.5" y2="-176.85" gradientTransform="matrix(1 0 0 1 0 574)">
		<stop  offset="0" style="stop-color:#272D6C"/>
		<stop  offset="0.28" style="stop-color:#313D7D"/>
		<stop  offset="0.83" style="stop-color:#4B67AA"/>
		<stop  offset="1" style="stop-color:#5475B9"/>
	</linearGradient>
	<path class="st8" d="M557,504.1H374.5v-1.9c19.8,0,21.8-25.9,22-30.8l-81.6-0.1v21.3c0,0.5,0.3,5.3-2.9,8.2
		c-1.7,1.5-3.9,2.3-6.2,2.2l0,0c-2,0.1-4-0.5-5.6-1.8c-2.8-2.2-3.4-6-3.6-7.7l0,0v-0.9l0,0V408v-9.8l-8-8.9l11.5-14.4v-43.6
		c0-0.1,1.2-6.9,11.2-7.7h10.5v-21.1c0-6.8,6.6-12.3,14.8-12.3h171.9c8.2,0,14.8,5.5,14.8,12.3v21h13.8c0.1,0,11.6,2.1,9.8,12v122.3
		c0.1,0.7,0.7,6.8-3.1,10.7c-2,1.9-4.5,3-7.2,3.1l-90-0.1v3.6H557V504.1z M550,502.2h4.7V477H432.2v25.2h4.7v-12.6h2.3v12.6h5.1
		v-12.6h2.3v12.6h4.3v-12.6h2.3v12.6h4.4v-12.6h2.3v12.6h4.5v-12.6h2.3v12.6h4.6v-12.6h2.3v12.6h4.7v-12.6h2.3v12.6h4.4v-12.6h2.3
		v12.6h4.4v-12.6h2.3v12.6h4.4v-12.6h2.3v12.6h4.8v-12.6h2.3v12.6h5.5v-12.6h2.3v12.6h3.7v-12.6h2.3v12.6h5v-12.6h2.3v12.6h4.7
		v-12.6h2.3v12.6h4.5v-12.6h2.3v12.6h5.2v-12.6h2.3L550,502.2z M383.6,502.2h46.3v-27.1h1.1l13.3-0.4v-3.2h-45.5
		C398.6,475.8,397.2,495.9,383.6,502.2L383.6,502.2z M298.8,493.6c0.2,1.6,0.8,4.6,2.9,6.4c1.1,0.9,2.5,1.3,3.9,1.2l0,0
		c1.7,0.1,3.3-0.5,4.6-1.6c1.9-1.8,2.3-4.5,2.4-6H298.8z M298.8,491.7h13.8v-74.2h-13.8V491.7z M314.8,469.4l221.6,0.2
		c2.1-0.1,4.1-0.9,5.6-2.4c3.4-3.4,2.6-9.3,2.6-9.4v-5.3H314.8V469.4z M314.8,450.7h229.8V335.3c1.5-7.8-6.8-9.7-7.9-9.9h-13.5v8.1
		H536l-0.9,109h-23.6v-0.3c-1,0.2-2.1,0.3-3.1,0.3H336.5c-8.2,0-14.8-5.5-14.8-12.3v-39.4l-6.9,7.5L314.8,450.7z M516.3,440.6h16.5
		l0.8-105.3h-10.4v94.8C523.3,434.6,520.5,438.5,516.3,440.6L516.3,440.6z M324,310.9v119.3c0,5.8,5.6,10.4,12.5,10.4h171.9
		c6.9,0,12.6-4.7,12.6-10.4V310.9H324z M298.8,414.7h13.8v-4.9h-13.8V414.7z M298.8,408h13.8v-10.4l7.8-8.5L307,372.4V384
		c1.8,0.6,3,2.6,3,5.2c0,3.1-1.8,5.4-4.1,5.4s-4.1-2.3-4.1-5.4c0-2.5,1.2-4.6,3-5.2v-11.6l-13.4,16.8l7.5,8.4L298.8,408z
		 M305.9,385.7c-0.8,0-1.9,1.4-1.9,3.5s1.1,3.5,1.9,3.5s1.9-1.4,1.9-3.5S306.6,385.7,305.9,385.7L305.9,385.7z M312.5,375.8
		l9.2,11.5v-52h-9.2V375.8z M305.9,367.6l4.3,5.4v-39.6h11.5v-7.9h-10.4c-7.7,0.6-8.9,5.4-9,6v40.6L305.9,367.6z M324,309h197v-6.5
		c0-5.7-5.6-10.4-12.5-10.4h-172c-6.9,0-12.5,4.7-12.5,10.4V309z M423.4,466.7c-3.2,0-5.9-2.2-5.9-4.9s2.6-4.9,5.9-4.9
		s5.9,2.2,5.9,4.9S426.6,466.7,423.4,466.7L423.4,466.7z M423.4,458.9c-2,0-3.6,1.3-3.6,3s1.6,3,3.6,3s3.6-1.3,3.6-3
		S425.3,458.9,423.4,458.9L423.4,458.9z M513.6,426.3L336,425.8v-1.9l177.5,0.5L513.6,426.3z M513.6,406.6L336,406.1v-1.9l177.5,0.5
		L513.6,406.6z M417.6,396.8h-67.9c-8.2,0-14.8-5.5-14.8-12.3v-54.6c0-6.8,6.6-12.3,14.8-12.3h67.8c8.2,0,14.8,5.5,14.8,12.3v54.6
		C432.4,391.3,425.7,396.8,417.6,396.8L417.6,396.8z M349.8,319.4c-6.9,0-12.5,4.7-12.5,10.4v54.6c0,5.7,5.6,10.4,12.5,10.4h67.8
		c6.9,0,12.5-4.7,12.5-10.4v-54.6c0-5.7-5.6-10.4-12.5-10.4H349.8z M514.6,389.5H439v-1.9h75.6V389.5z M405.7,387.1h-12.2l-0.1-5.2
		l-4-1.7l-3.6,3.5l-9-7.6l4.3-3.5l-2.2-4h-5.6v-11.3h5.1l2.1-3.7L377,350l8.1-7.3l4.2,3.3l4.1-1.5v-5.1h12.4v5.2l3.9,1.4l4.4-3.3
		l7.9,7.4l-3.5,3.6l1.7,3.9h6v10.9h-5.4l-2.3,3.9l3.8,4l-8.3,7.3l-4-3.1l-4,1.5L405.7,387.1z M395.8,385.2h7.6l0.1-4.7l6.8-2.5
		l3.4,2.7l5.3-4.7l-3.5-3.7l3.6-6h4.5v-7.1h-5.3l-2.7-6.1l3.1-3.3l-5.1-4.8l-3.6,3l-6.7-2.3v-4.5h-7.8v4.4l-6.9,2.5l-3.6-2.8
		l-5.2,4.7l3.2,3.3l-3.3,5.9h-4.3v7.5h4.8l3.4,6.3l-3.8,3.2l5.7,4.8l3.2-3.1l6.8,2.9L395.8,385.2z M513.6,378.7H438v-1.9h75.6V378.7
		z M399.3,372.9c-6.6,0-12-4.5-12-10s5.4-10,12-10s12,4.5,12,10S405.9,372.9,399.3,372.9L399.3,372.9z M399.3,354.7
		c-5.3,0-9.7,3.6-9.7,8.1s4.3,8.2,9.6,8.2s9.7-3.6,9.7-8.1S404.6,354.7,399.3,354.7L399.3,354.7z M514.6,369.1H439v-1.9h75.6V369.1z
		 M514.6,358.6H439v-1.9h75.6V358.6z M362.3,354.7h-8l-0.1-3.2l-1.8-0.8l-2.2,2.1l-5.9-5l2.5-2.1l-1-1.9h-3.4v-7.4h3.1l1-1.7
		l-2.1-2.2l5.3-4.8l2.6,2l1.8-0.7v-3.1h8.1v3.1l1.7,0.6l2.7-2l5.2,4.9l-2.1,2.2l0.8,1.8h3.6v7.1h-3.3l-1.1,1.8l2.3,2.4l-5.4,4.8
		l-2.4-1.9l-1.8,0.6L362.3,354.7z M356.5,352.8h3.5v-2.6l4.5-1.6l1.9,1.5l2.5-2.2l-2-2.1l2.4-3.9h2.4v-3.3h-2.9l-1.8-4l1.7-1.8
		l-2.4-2.2l-2.1,1.5l-4.5-1.6V328h-3.6v2.4l-4.6,1.6l-2-1.5l-2.4,2.2l1.8,1.8l-2.1,3.9h-2.3v3.6h2.6l2.3,4.1l-2.1,1.8l2.6,2.2
		l1.8-1.7l4.5,2L356.5,352.8z M514.6,348.1H439v-1.9h75.6V348.1z M358.1,346.4c-4.1,0-7.4-2.8-7.4-6.2s3.3-6.2,7.4-6.2
		s7.4,2.8,7.4,6.2S362.2,346.4,358.1,346.4L358.1,346.4z M358.1,335.9c-2.8,0-5.1,2-5.1,4.3s2.3,4.3,5.1,4.3s5.1-2,5.1-4.3
		S360.9,335.9,358.1,335.9L358.1,335.9z M513.6,337.6H438v-1.9h75.6V337.6z M513.6,327.2H438v-1.9h75.6V327.2z M371.6,304.3
		c-2,0-3.7-1.4-3.7-3s1.6-3,3.7-3s3.7,1.4,3.7,3S373.6,304.3,371.6,304.3z M371.6,300.1c-0.6,0.1-1.1,0.7-0.9,1.4
		c0.1,0.6,0.7,1.1,1.4,0.9c0.6-0.1,1-0.6,1-1.2C372.9,300.5,372.3,300,371.6,300.1z M357.6,304.3c-2,0-3.7-1.4-3.7-3s1.6-3,3.7-3
		s3.7,1.4,3.7,3S359.6,304.3,357.6,304.3L357.6,304.3z M357.6,300.1c-0.6,0.1-1.1,0.7-0.9,1.4c0.1,0.6,0.7,1.1,1.4,0.9
		c0.6-0.1,1-0.6,1-1.2C358.9,300.5,358.2,300,357.6,300.1L357.6,300.1z M343.8,304.3c-2,0-3.7-1.4-3.7-3s1.6-3,3.7-3s3.7,1.4,3.7,3
		S345.8,304.3,343.8,304.3L343.8,304.3z M343.8,300.1c-0.6,0.1-1.1,0.7-0.9,1.4c0.1,0.6,0.7,1.1,1.4,0.9c0.6-0.1,1-0.6,1-1.2
		C345.1,300.5,344.5,300,343.8,300.1L343.8,300.1z"/>
</g>
</svg>
